M48
;DRILL file {KiCad (5.0.2)-1} date 2021/02/22 21:52:33
;FORMAT={-:-/ absolute / metric / decimal}
FMAT,2
METRIC,TZ
T1C0.300
T2C0.400
T3C0.600
T4C1.000
%
G90
G05
T1
X168.379Y-86.276
X168.379Y-87.376
X168.379Y-88.476
X169.479Y-86.276
X169.479Y-87.376
X169.479Y-88.476
X170.579Y-86.276
X170.579Y-87.376
X170.579Y-88.476
T2
X129.54Y-76.708
X129.54Y-77.724
X129.54Y-78.74
X131.572Y-97.282
X131.572Y-98.552
X134.62Y-98.552
X142.5Y-76.5
X142.5Y-79.
X142.5Y-82.
X142.5Y-85.
X142.5Y-88.
X142.5Y-91.
X142.5Y-94.
X142.748Y-95.674
X144.018Y-83.82
X144.272Y-95.403
X145.288Y-92.202
X145.438Y-95.504
X145.542Y-85.598
X145.542Y-89.154
X146.812Y-81.026
X146.812Y-90.17
X147.32Y-77.724
X148.082Y-89.662
X148.463Y-88.646
X148.59Y-92.456
X148.844Y-77.724
X149.86Y-89.916
X150.114Y-80.01
X151.384Y-92.456
X152.146Y-78.486
X152.4Y-89.916
X153.924Y-90.678
X154.432Y-84.836
X154.432Y-87.63
X154.686Y-78.486
X155.766Y-80.518
X155.956Y-78.74
X155.956Y-91.948
X156.718Y-86.36
X156.718Y-87.63
X156.718Y-91.186
X156.781Y-81.026
X156.972Y-79.756
X157.48Y-83.82
X159.512Y-82.16
X159.512Y-86.36
X159.512Y-87.63
X160.02Y-78.232
X161.29Y-92.202
X161.29Y-93.472
X163.068Y-83.82
X163.068Y-84.836
X163.068Y-86.614
X163.068Y-88.138
X163.082Y-92.964
X163.576Y-89.154
X163.576Y-94.742
X164.084Y-75.184
X164.084Y-76.2
X164.084Y-77.28
X164.084Y-78.232
X164.084Y-79.312
X166.324Y-91.774
X166.443Y-90.182
X167.386Y-85.344
X167.64Y-90.17
X168.148Y-81.026
X168.402Y-75.184
X168.402Y-96.774
X168.46Y-91.218
X168.656Y-93.408
X169.418Y-90.932
X170.18Y-92.71
X171.958Y-75.184
X171.958Y-76.708
X171.958Y-78.232
X172.Y-85.
X172.72Y-89.154
X172.974Y-84.074
X173.101Y-93.472
X173.482Y-75.184
X173.482Y-76.708
X173.482Y-78.232
X173.482Y-81.026
X174.498Y-81.026
X175.26Y-75.946
X175.26Y-76.962
X175.26Y-77.978
X175.514Y-81.026
X175.576Y-85.371
X175.7Y-89.2
X176.468Y-88.392
X176.53Y-75.946
X176.53Y-76.962
X176.53Y-77.978
X176.614Y-81.534
X178.435Y-94.488
X178.435Y-97.282
X178.55Y-85.25
X178.55Y-86.4
X179.07Y-79.248
X183.261Y-78.105
X183.515Y-93.091
T4
X138.43Y-98.425
X140.97Y-98.425
X143.51Y-98.425
X146.05Y-98.425
X148.59Y-98.425
X151.13Y-98.425
X153.67Y-98.425
X156.21Y-98.425
X158.75Y-98.425
X161.29Y-98.425
X163.83Y-98.425
X166.37Y-98.425
X168.91Y-98.425
X171.45Y-98.425
X173.99Y-98.425
X121.92Y-88.9
X124.46Y-88.9
X127.Y-88.9
X129.54Y-88.9
X121.92Y-81.28
X124.46Y-81.28
X127.Y-81.28
X129.54Y-81.28
X121.92Y-83.82
X124.46Y-83.82
X127.Y-83.82
X129.54Y-83.82
X138.43Y-71.755
X140.97Y-71.755
X143.51Y-71.755
X146.05Y-71.755
X148.59Y-71.755
X151.13Y-71.755
X153.67Y-71.755
X156.21Y-71.755
X158.75Y-71.755
X161.29Y-71.755
X163.83Y-71.755
X166.37Y-71.755
X168.91Y-71.755
X171.45Y-71.755
X173.99Y-71.755
X121.92Y-86.36
X124.46Y-86.36
X127.Y-86.36
X129.54Y-86.36
T3
X177.457Y-80.68G85X178.257Y-80.68
G05
X177.457Y-89.32G85X178.257Y-89.32
G05
X181.647Y-80.68G85X182.447Y-80.68
G05
X181.647Y-89.32G85X182.447Y-89.32
G05
T0
M30
