G04 #@! TF.GenerationSoftware,KiCad,Pcbnew,(5.0.2)-1*
G04 #@! TF.CreationDate,2021-02-22T21:52:25+09:00*
G04 #@! TF.ProjectId,ESP32_LED,45535033-325f-44c4-9544-2e6b69636164,rev?*
G04 #@! TF.SameCoordinates,Original*
G04 #@! TF.FileFunction,Legend,Top*
G04 #@! TF.FilePolarity,Positive*
%FSLAX46Y46*%
G04 Gerber Fmt 4.6, Leading zero omitted, Abs format (unit mm)*
G04 Created by KiCad (PCBNEW (5.0.2)-1) date 2021/02/22 21:52:25*
%MOMM*%
%LPD*%
G01*
G04 APERTURE LIST*
%ADD10C,0.150000*%
%ADD11C,0.200000*%
%ADD12C,0.120000*%
%ADD13C,0.100000*%
G04 APERTURE END LIST*
D10*
X179889333Y-76160380D02*
X180156000Y-77160380D01*
X180422666Y-76160380D01*
X180956000Y-76636571D02*
X181070285Y-76684190D01*
X181108380Y-76731809D01*
X181146476Y-76827047D01*
X181146476Y-76969904D01*
X181108380Y-77065142D01*
X181070285Y-77112761D01*
X180994095Y-77160380D01*
X180689333Y-77160380D01*
X180689333Y-76160380D01*
X180956000Y-76160380D01*
X181032190Y-76208000D01*
X181070285Y-76255619D01*
X181108380Y-76350857D01*
X181108380Y-76446095D01*
X181070285Y-76541333D01*
X181032190Y-76588952D01*
X180956000Y-76636571D01*
X180689333Y-76636571D01*
X181489333Y-76160380D02*
X181489333Y-76969904D01*
X181527428Y-77065142D01*
X181565523Y-77112761D01*
X181641714Y-77160380D01*
X181794095Y-77160380D01*
X181870285Y-77112761D01*
X181908380Y-77065142D01*
X181946476Y-76969904D01*
X181946476Y-76160380D01*
X182289333Y-77112761D02*
X182403619Y-77160380D01*
X182594095Y-77160380D01*
X182670285Y-77112761D01*
X182708380Y-77065142D01*
X182746476Y-76969904D01*
X182746476Y-76874666D01*
X182708380Y-76779428D01*
X182670285Y-76731809D01*
X182594095Y-76684190D01*
X182441714Y-76636571D01*
X182365523Y-76588952D01*
X182327428Y-76541333D01*
X182289333Y-76446095D01*
X182289333Y-76350857D01*
X182327428Y-76255619D01*
X182365523Y-76208000D01*
X182441714Y-76160380D01*
X182632190Y-76160380D01*
X182746476Y-76208000D01*
X179876571Y-92908380D02*
X179876571Y-91908380D01*
X180067047Y-91908380D01*
X180181333Y-91956000D01*
X180257523Y-92051238D01*
X180295619Y-92146476D01*
X180333714Y-92336952D01*
X180333714Y-92479809D01*
X180295619Y-92670285D01*
X180257523Y-92765523D01*
X180181333Y-92860761D01*
X180067047Y-92908380D01*
X179876571Y-92908380D01*
X181095619Y-92908380D02*
X180638476Y-92908380D01*
X180867047Y-92908380D02*
X180867047Y-91908380D01*
X180790857Y-92051238D01*
X180714666Y-92146476D01*
X180638476Y-92194095D01*
X181362285Y-91908380D02*
X181857523Y-91908380D01*
X181590857Y-92289333D01*
X181705142Y-92289333D01*
X181781333Y-92336952D01*
X181819428Y-92384571D01*
X181857523Y-92479809D01*
X181857523Y-92717904D01*
X181819428Y-92813142D01*
X181781333Y-92860761D01*
X181705142Y-92908380D01*
X181476571Y-92908380D01*
X181400380Y-92860761D01*
X181362285Y-92813142D01*
X173296428Y-73112380D02*
X173853571Y-73112380D01*
X173553571Y-73493333D01*
X173682142Y-73493333D01*
X173767857Y-73540952D01*
X173810714Y-73588571D01*
X173853571Y-73683809D01*
X173853571Y-73921904D01*
X173810714Y-74017142D01*
X173767857Y-74064761D01*
X173682142Y-74112380D01*
X173425000Y-74112380D01*
X173339285Y-74064761D01*
X173296428Y-74017142D01*
X174239285Y-74017142D02*
X174282142Y-74064761D01*
X174239285Y-74112380D01*
X174196428Y-74064761D01*
X174239285Y-74017142D01*
X174239285Y-74112380D01*
X174582142Y-73112380D02*
X175139285Y-73112380D01*
X174839285Y-73493333D01*
X174967857Y-73493333D01*
X175053571Y-73540952D01*
X175096428Y-73588571D01*
X175139285Y-73683809D01*
X175139285Y-73921904D01*
X175096428Y-74017142D01*
X175053571Y-74064761D01*
X174967857Y-74112380D01*
X174710714Y-74112380D01*
X174625000Y-74064761D01*
X174582142Y-74017142D01*
X175396428Y-73112380D02*
X175696428Y-74112380D01*
X175996428Y-73112380D01*
X170764285Y-73160000D02*
X170678571Y-73112380D01*
X170550000Y-73112380D01*
X170421428Y-73160000D01*
X170335714Y-73255238D01*
X170292857Y-73350476D01*
X170250000Y-73540952D01*
X170250000Y-73683809D01*
X170292857Y-73874285D01*
X170335714Y-73969523D01*
X170421428Y-74064761D01*
X170550000Y-74112380D01*
X170635714Y-74112380D01*
X170764285Y-74064761D01*
X170807142Y-74017142D01*
X170807142Y-73683809D01*
X170635714Y-73683809D01*
X171192857Y-74112380D02*
X171192857Y-73112380D01*
X171707142Y-74112380D01*
X171707142Y-73112380D01*
X172135714Y-74112380D02*
X172135714Y-73112380D01*
X172350000Y-73112380D01*
X172478571Y-73160000D01*
X172564285Y-73255238D01*
X172607142Y-73350476D01*
X172650000Y-73540952D01*
X172650000Y-73683809D01*
X172607142Y-73874285D01*
X172564285Y-73969523D01*
X172478571Y-74064761D01*
X172350000Y-74112380D01*
X172135714Y-74112380D01*
X167817142Y-74112380D02*
X167817142Y-73112380D01*
X168031428Y-73112380D01*
X168160000Y-73160000D01*
X168245714Y-73255238D01*
X168288571Y-73350476D01*
X168331428Y-73540952D01*
X168331428Y-73683809D01*
X168288571Y-73874285D01*
X168245714Y-73969523D01*
X168160000Y-74064761D01*
X168031428Y-74112380D01*
X167817142Y-74112380D01*
X169188571Y-74112380D02*
X168674285Y-74112380D01*
X168931428Y-74112380D02*
X168931428Y-73112380D01*
X168845714Y-73255238D01*
X168760000Y-73350476D01*
X168674285Y-73398095D01*
X170002857Y-73112380D02*
X169574285Y-73112380D01*
X169531428Y-73588571D01*
X169574285Y-73540952D01*
X169660000Y-73493333D01*
X169874285Y-73493333D01*
X169960000Y-73540952D01*
X170002857Y-73588571D01*
X170045714Y-73683809D01*
X170045714Y-73921904D01*
X170002857Y-74017142D01*
X169960000Y-74064761D01*
X169874285Y-74112380D01*
X169660000Y-74112380D01*
X169574285Y-74064761D01*
X169531428Y-74017142D01*
X165705714Y-74112380D02*
X165705714Y-73112380D01*
X165920000Y-73112380D01*
X166048571Y-73160000D01*
X166134285Y-73255238D01*
X166177142Y-73350476D01*
X166220000Y-73540952D01*
X166220000Y-73683809D01*
X166177142Y-73874285D01*
X166134285Y-73969523D01*
X166048571Y-74064761D01*
X165920000Y-74112380D01*
X165705714Y-74112380D01*
X166562857Y-73207619D02*
X166605714Y-73160000D01*
X166691428Y-73112380D01*
X166905714Y-73112380D01*
X166991428Y-73160000D01*
X167034285Y-73207619D01*
X167077142Y-73302857D01*
X167077142Y-73398095D01*
X167034285Y-73540952D01*
X166520000Y-74112380D01*
X167077142Y-74112380D01*
X163165714Y-74112380D02*
X163165714Y-73112380D01*
X163380000Y-73112380D01*
X163508571Y-73160000D01*
X163594285Y-73255238D01*
X163637142Y-73350476D01*
X163680000Y-73540952D01*
X163680000Y-73683809D01*
X163637142Y-73874285D01*
X163594285Y-73969523D01*
X163508571Y-74064761D01*
X163380000Y-74112380D01*
X163165714Y-74112380D01*
X164451428Y-73445714D02*
X164451428Y-74112380D01*
X164237142Y-73064761D02*
X164022857Y-73779047D01*
X164580000Y-73779047D01*
X160197142Y-74112380D02*
X160197142Y-73112380D01*
X160411428Y-73112380D01*
X160540000Y-73160000D01*
X160625714Y-73255238D01*
X160668571Y-73350476D01*
X160711428Y-73540952D01*
X160711428Y-73683809D01*
X160668571Y-73874285D01*
X160625714Y-73969523D01*
X160540000Y-74064761D01*
X160411428Y-74112380D01*
X160197142Y-74112380D01*
X161568571Y-74112380D02*
X161054285Y-74112380D01*
X161311428Y-74112380D02*
X161311428Y-73112380D01*
X161225714Y-73255238D01*
X161140000Y-73350476D01*
X161054285Y-73398095D01*
X162340000Y-73112380D02*
X162168571Y-73112380D01*
X162082857Y-73160000D01*
X162040000Y-73207619D01*
X161954285Y-73350476D01*
X161911428Y-73540952D01*
X161911428Y-73921904D01*
X161954285Y-74017142D01*
X161997142Y-74064761D01*
X162082857Y-74112380D01*
X162254285Y-74112380D01*
X162340000Y-74064761D01*
X162382857Y-74017142D01*
X162425714Y-73921904D01*
X162425714Y-73683809D01*
X162382857Y-73588571D01*
X162340000Y-73540952D01*
X162254285Y-73493333D01*
X162082857Y-73493333D01*
X161997142Y-73540952D01*
X161954285Y-73588571D01*
X161911428Y-73683809D01*
X157657142Y-74112380D02*
X157657142Y-73112380D01*
X157871428Y-73112380D01*
X158000000Y-73160000D01*
X158085714Y-73255238D01*
X158128571Y-73350476D01*
X158171428Y-73540952D01*
X158171428Y-73683809D01*
X158128571Y-73874285D01*
X158085714Y-73969523D01*
X158000000Y-74064761D01*
X157871428Y-74112380D01*
X157657142Y-74112380D01*
X159028571Y-74112380D02*
X158514285Y-74112380D01*
X158771428Y-74112380D02*
X158771428Y-73112380D01*
X158685714Y-73255238D01*
X158600000Y-73350476D01*
X158514285Y-73398095D01*
X159328571Y-73112380D02*
X159928571Y-73112380D01*
X159542857Y-74112380D01*
X155545714Y-74112380D02*
X155545714Y-73112380D01*
X155760000Y-73112380D01*
X155888571Y-73160000D01*
X155974285Y-73255238D01*
X156017142Y-73350476D01*
X156060000Y-73540952D01*
X156060000Y-73683809D01*
X156017142Y-73874285D01*
X155974285Y-73969523D01*
X155888571Y-74064761D01*
X155760000Y-74112380D01*
X155545714Y-74112380D01*
X156874285Y-73112380D02*
X156445714Y-73112380D01*
X156402857Y-73588571D01*
X156445714Y-73540952D01*
X156531428Y-73493333D01*
X156745714Y-73493333D01*
X156831428Y-73540952D01*
X156874285Y-73588571D01*
X156917142Y-73683809D01*
X156917142Y-73921904D01*
X156874285Y-74017142D01*
X156831428Y-74064761D01*
X156745714Y-74112380D01*
X156531428Y-74112380D01*
X156445714Y-74064761D01*
X156402857Y-74017142D01*
X152577142Y-74112380D02*
X152577142Y-73112380D01*
X152791428Y-73112380D01*
X152920000Y-73160000D01*
X153005714Y-73255238D01*
X153048571Y-73350476D01*
X153091428Y-73540952D01*
X153091428Y-73683809D01*
X153048571Y-73874285D01*
X153005714Y-73969523D01*
X152920000Y-74064761D01*
X152791428Y-74112380D01*
X152577142Y-74112380D01*
X153948571Y-74112380D02*
X153434285Y-74112380D01*
X153691428Y-74112380D02*
X153691428Y-73112380D01*
X153605714Y-73255238D01*
X153520000Y-73350476D01*
X153434285Y-73398095D01*
X154462857Y-73540952D02*
X154377142Y-73493333D01*
X154334285Y-73445714D01*
X154291428Y-73350476D01*
X154291428Y-73302857D01*
X154334285Y-73207619D01*
X154377142Y-73160000D01*
X154462857Y-73112380D01*
X154634285Y-73112380D01*
X154720000Y-73160000D01*
X154762857Y-73207619D01*
X154805714Y-73302857D01*
X154805714Y-73350476D01*
X154762857Y-73445714D01*
X154720000Y-73493333D01*
X154634285Y-73540952D01*
X154462857Y-73540952D01*
X154377142Y-73588571D01*
X154334285Y-73636190D01*
X154291428Y-73731428D01*
X154291428Y-73921904D01*
X154334285Y-74017142D01*
X154377142Y-74064761D01*
X154462857Y-74112380D01*
X154634285Y-74112380D01*
X154720000Y-74064761D01*
X154762857Y-74017142D01*
X154805714Y-73921904D01*
X154805714Y-73731428D01*
X154762857Y-73636190D01*
X154720000Y-73588571D01*
X154634285Y-73540952D01*
X150037142Y-74239380D02*
X150037142Y-73239380D01*
X150251428Y-73239380D01*
X150380000Y-73287000D01*
X150465714Y-73382238D01*
X150508571Y-73477476D01*
X150551428Y-73667952D01*
X150551428Y-73810809D01*
X150508571Y-74001285D01*
X150465714Y-74096523D01*
X150380000Y-74191761D01*
X150251428Y-74239380D01*
X150037142Y-74239380D01*
X151408571Y-74239380D02*
X150894285Y-74239380D01*
X151151428Y-74239380D02*
X151151428Y-73239380D01*
X151065714Y-73382238D01*
X150980000Y-73477476D01*
X150894285Y-73525095D01*
X151837142Y-74239380D02*
X152008571Y-74239380D01*
X152094285Y-74191761D01*
X152137142Y-74144142D01*
X152222857Y-74001285D01*
X152265714Y-73810809D01*
X152265714Y-73429857D01*
X152222857Y-73334619D01*
X152180000Y-73287000D01*
X152094285Y-73239380D01*
X151922857Y-73239380D01*
X151837142Y-73287000D01*
X151794285Y-73334619D01*
X151751428Y-73429857D01*
X151751428Y-73667952D01*
X151794285Y-73763190D01*
X151837142Y-73810809D01*
X151922857Y-73858428D01*
X152094285Y-73858428D01*
X152180000Y-73810809D01*
X152222857Y-73763190D01*
X152265714Y-73667952D01*
X147497142Y-74239380D02*
X147497142Y-73239380D01*
X147711428Y-73239380D01*
X147840000Y-73287000D01*
X147925714Y-73382238D01*
X147968571Y-73477476D01*
X148011428Y-73667952D01*
X148011428Y-73810809D01*
X147968571Y-74001285D01*
X147925714Y-74096523D01*
X147840000Y-74191761D01*
X147711428Y-74239380D01*
X147497142Y-74239380D01*
X148354285Y-73334619D02*
X148397142Y-73287000D01*
X148482857Y-73239380D01*
X148697142Y-73239380D01*
X148782857Y-73287000D01*
X148825714Y-73334619D01*
X148868571Y-73429857D01*
X148868571Y-73525095D01*
X148825714Y-73667952D01*
X148311428Y-74239380D01*
X148868571Y-74239380D01*
X149725714Y-74239380D02*
X149211428Y-74239380D01*
X149468571Y-74239380D02*
X149468571Y-73239380D01*
X149382857Y-73382238D01*
X149297142Y-73477476D01*
X149211428Y-73525095D01*
X145900000Y-74239380D02*
X145600000Y-73763190D01*
X145385714Y-74239380D02*
X145385714Y-73239380D01*
X145728571Y-73239380D01*
X145814285Y-73287000D01*
X145857142Y-73334619D01*
X145900000Y-73429857D01*
X145900000Y-73572714D01*
X145857142Y-73667952D01*
X145814285Y-73715571D01*
X145728571Y-73763190D01*
X145385714Y-73763190D01*
X146200000Y-73239380D02*
X146800000Y-74239380D01*
X146800000Y-73239380D02*
X146200000Y-74239380D01*
X142824285Y-73239380D02*
X143338571Y-73239380D01*
X143081428Y-74239380D02*
X143081428Y-73239380D01*
X143552857Y-73239380D02*
X144152857Y-74239380D01*
X144152857Y-73239380D02*
X143552857Y-74239380D01*
X139877142Y-74239380D02*
X139877142Y-73239380D01*
X140091428Y-73239380D01*
X140220000Y-73287000D01*
X140305714Y-73382238D01*
X140348571Y-73477476D01*
X140391428Y-73667952D01*
X140391428Y-73810809D01*
X140348571Y-74001285D01*
X140305714Y-74096523D01*
X140220000Y-74191761D01*
X140091428Y-74239380D01*
X139877142Y-74239380D01*
X140734285Y-73334619D02*
X140777142Y-73287000D01*
X140862857Y-73239380D01*
X141077142Y-73239380D01*
X141162857Y-73287000D01*
X141205714Y-73334619D01*
X141248571Y-73429857D01*
X141248571Y-73525095D01*
X141205714Y-73667952D01*
X140691428Y-74239380D01*
X141248571Y-74239380D01*
X141591428Y-73334619D02*
X141634285Y-73287000D01*
X141720000Y-73239380D01*
X141934285Y-73239380D01*
X142020000Y-73287000D01*
X142062857Y-73334619D01*
X142105714Y-73429857D01*
X142105714Y-73525095D01*
X142062857Y-73667952D01*
X141548571Y-74239380D01*
X142105714Y-74239380D01*
X137337142Y-74239380D02*
X137337142Y-73239380D01*
X137551428Y-73239380D01*
X137680000Y-73287000D01*
X137765714Y-73382238D01*
X137808571Y-73477476D01*
X137851428Y-73667952D01*
X137851428Y-73810809D01*
X137808571Y-74001285D01*
X137765714Y-74096523D01*
X137680000Y-74191761D01*
X137551428Y-74239380D01*
X137337142Y-74239380D01*
X138194285Y-73334619D02*
X138237142Y-73287000D01*
X138322857Y-73239380D01*
X138537142Y-73239380D01*
X138622857Y-73287000D01*
X138665714Y-73334619D01*
X138708571Y-73429857D01*
X138708571Y-73525095D01*
X138665714Y-73667952D01*
X138151428Y-74239380D01*
X138708571Y-74239380D01*
X139008571Y-73239380D02*
X139565714Y-73239380D01*
X139265714Y-73620333D01*
X139394285Y-73620333D01*
X139480000Y-73667952D01*
X139522857Y-73715571D01*
X139565714Y-73810809D01*
X139565714Y-74048904D01*
X139522857Y-74144142D01*
X139480000Y-74191761D01*
X139394285Y-74239380D01*
X139137142Y-74239380D01*
X139051428Y-74191761D01*
X139008571Y-74144142D01*
X125994428Y-91971761D02*
X126123000Y-92019380D01*
X126337285Y-92019380D01*
X126423000Y-91971761D01*
X126465857Y-91924142D01*
X126508714Y-91828904D01*
X126508714Y-91733666D01*
X126465857Y-91638428D01*
X126423000Y-91590809D01*
X126337285Y-91543190D01*
X126165857Y-91495571D01*
X126080142Y-91447952D01*
X126037285Y-91400333D01*
X125994428Y-91305095D01*
X125994428Y-91209857D01*
X126037285Y-91114619D01*
X126080142Y-91067000D01*
X126165857Y-91019380D01*
X126380142Y-91019380D01*
X126508714Y-91067000D01*
X126894428Y-92019380D02*
X126894428Y-91352714D01*
X126894428Y-91019380D02*
X126851571Y-91067000D01*
X126894428Y-91114619D01*
X126937285Y-91067000D01*
X126894428Y-91019380D01*
X126894428Y-91114619D01*
X127708714Y-91352714D02*
X127708714Y-92162238D01*
X127665857Y-92257476D01*
X127623000Y-92305095D01*
X127537285Y-92352714D01*
X127408714Y-92352714D01*
X127323000Y-92305095D01*
X127708714Y-91971761D02*
X127623000Y-92019380D01*
X127451571Y-92019380D01*
X127365857Y-91971761D01*
X127323000Y-91924142D01*
X127280142Y-91828904D01*
X127280142Y-91543190D01*
X127323000Y-91447952D01*
X127365857Y-91400333D01*
X127451571Y-91352714D01*
X127623000Y-91352714D01*
X127708714Y-91400333D01*
X128854285Y-91067000D02*
X128768571Y-91019380D01*
X128640000Y-91019380D01*
X128511428Y-91067000D01*
X128425714Y-91162238D01*
X128382857Y-91257476D01*
X128340000Y-91447952D01*
X128340000Y-91590809D01*
X128382857Y-91781285D01*
X128425714Y-91876523D01*
X128511428Y-91971761D01*
X128640000Y-92019380D01*
X128725714Y-92019380D01*
X128854285Y-91971761D01*
X128897142Y-91924142D01*
X128897142Y-91590809D01*
X128725714Y-91590809D01*
X129282857Y-92019380D02*
X129282857Y-91019380D01*
X129797142Y-92019380D01*
X129797142Y-91019380D01*
X130225714Y-92019380D02*
X130225714Y-91019380D01*
X130440000Y-91019380D01*
X130568571Y-91067000D01*
X130654285Y-91162238D01*
X130697142Y-91257476D01*
X130740000Y-91447952D01*
X130740000Y-91590809D01*
X130697142Y-91781285D01*
X130654285Y-91876523D01*
X130568571Y-91971761D01*
X130440000Y-92019380D01*
X130225714Y-92019380D01*
X121107285Y-91067000D02*
X121021571Y-91019380D01*
X120893000Y-91019380D01*
X120764428Y-91067000D01*
X120678714Y-91162238D01*
X120635857Y-91257476D01*
X120593000Y-91447952D01*
X120593000Y-91590809D01*
X120635857Y-91781285D01*
X120678714Y-91876523D01*
X120764428Y-91971761D01*
X120893000Y-92019380D01*
X120978714Y-92019380D01*
X121107285Y-91971761D01*
X121150142Y-91924142D01*
X121150142Y-91590809D01*
X120978714Y-91590809D01*
X121535857Y-92019380D02*
X121535857Y-91019380D01*
X122050142Y-92019380D01*
X122050142Y-91019380D01*
X122478714Y-92019380D02*
X122478714Y-91019380D01*
X122693000Y-91019380D01*
X122821571Y-91067000D01*
X122907285Y-91162238D01*
X122950142Y-91257476D01*
X122993000Y-91447952D01*
X122993000Y-91590809D01*
X122950142Y-91781285D01*
X122907285Y-91876523D01*
X122821571Y-91971761D01*
X122693000Y-92019380D01*
X122478714Y-92019380D01*
X123388571Y-91019380D02*
X123688571Y-92019380D01*
X123988571Y-91019380D01*
X124674285Y-91971761D02*
X124588571Y-92019380D01*
X124417142Y-92019380D01*
X124331428Y-91971761D01*
X124288571Y-91924142D01*
X124245714Y-91828904D01*
X124245714Y-91543190D01*
X124288571Y-91447952D01*
X124331428Y-91400333D01*
X124417142Y-91352714D01*
X124588571Y-91352714D01*
X124674285Y-91400333D01*
X125445714Y-91971761D02*
X125360000Y-92019380D01*
X125188571Y-92019380D01*
X125102857Y-91971761D01*
X125060000Y-91924142D01*
X125017142Y-91828904D01*
X125017142Y-91543190D01*
X125060000Y-91447952D01*
X125102857Y-91400333D01*
X125188571Y-91352714D01*
X125360000Y-91352714D01*
X125445714Y-91400333D01*
D11*
X167005000Y-81153000D02*
X166497000Y-81153000D01*
X167005000Y-75438000D02*
X167005000Y-81153000D01*
X166751000Y-75438000D02*
X167005000Y-75438000D01*
D10*
X178236571Y-96217428D02*
X178284190Y-96088857D01*
X178331809Y-96046000D01*
X178427047Y-96003142D01*
X178569904Y-96003142D01*
X178665142Y-96046000D01*
X178712761Y-96088857D01*
X178760380Y-96174571D01*
X178760380Y-96517428D01*
X177760380Y-96517428D01*
X177760380Y-96217428D01*
X177808000Y-96131714D01*
X177855619Y-96088857D01*
X177950857Y-96046000D01*
X178046095Y-96046000D01*
X178141333Y-96088857D01*
X178188952Y-96131714D01*
X178236571Y-96217428D01*
X178236571Y-96517428D01*
X177760380Y-95446000D02*
X177760380Y-95274571D01*
X177808000Y-95188857D01*
X177903238Y-95103142D01*
X178093714Y-95060285D01*
X178427047Y-95060285D01*
X178617523Y-95103142D01*
X178712761Y-95188857D01*
X178760380Y-95274571D01*
X178760380Y-95446000D01*
X178712761Y-95531714D01*
X178617523Y-95617428D01*
X178427047Y-95660285D01*
X178093714Y-95660285D01*
X177903238Y-95617428D01*
X177808000Y-95531714D01*
X177760380Y-95446000D01*
X177760380Y-94503142D02*
X177760380Y-94331714D01*
X177808000Y-94246000D01*
X177903238Y-94160285D01*
X178093714Y-94117428D01*
X178427047Y-94117428D01*
X178617523Y-94160285D01*
X178712761Y-94246000D01*
X178760380Y-94331714D01*
X178760380Y-94503142D01*
X178712761Y-94588857D01*
X178617523Y-94674571D01*
X178427047Y-94717428D01*
X178093714Y-94717428D01*
X177903238Y-94674571D01*
X177808000Y-94588857D01*
X177760380Y-94503142D01*
X177760380Y-93860285D02*
X177760380Y-93346000D01*
X178760380Y-93603142D02*
X177760380Y-93603142D01*
X169854571Y-94136285D02*
X169854571Y-93836285D01*
X170378380Y-93707714D02*
X170378380Y-94136285D01*
X169378380Y-94136285D01*
X169378380Y-93707714D01*
X170378380Y-93322000D02*
X169378380Y-93322000D01*
X170378380Y-92807714D01*
X169378380Y-92807714D01*
X131749142Y-89352380D02*
X131749142Y-88352380D01*
X131963428Y-88352380D01*
X132092000Y-88400000D01*
X132177714Y-88495238D01*
X132220571Y-88590476D01*
X132263428Y-88780952D01*
X132263428Y-88923809D01*
X132220571Y-89114285D01*
X132177714Y-89209523D01*
X132092000Y-89304761D01*
X131963428Y-89352380D01*
X131749142Y-89352380D01*
X132563428Y-88352380D02*
X133120571Y-88352380D01*
X132820571Y-88733333D01*
X132949142Y-88733333D01*
X133034857Y-88780952D01*
X133077714Y-88828571D01*
X133120571Y-88923809D01*
X133120571Y-89161904D01*
X133077714Y-89257142D01*
X133034857Y-89304761D01*
X132949142Y-89352380D01*
X132692000Y-89352380D01*
X132606285Y-89304761D01*
X132563428Y-89257142D01*
X133549142Y-89352380D02*
X133720571Y-89352380D01*
X133806285Y-89304761D01*
X133849142Y-89257142D01*
X133934857Y-89114285D01*
X133977714Y-88923809D01*
X133977714Y-88542857D01*
X133934857Y-88447619D01*
X133892000Y-88400000D01*
X133806285Y-88352380D01*
X133634857Y-88352380D01*
X133549142Y-88400000D01*
X133506285Y-88447619D01*
X133463428Y-88542857D01*
X133463428Y-88780952D01*
X133506285Y-88876190D01*
X133549142Y-88923809D01*
X133634857Y-88971428D01*
X133806285Y-88971428D01*
X133892000Y-88923809D01*
X133934857Y-88876190D01*
X133977714Y-88780952D01*
X131749142Y-86812380D02*
X131749142Y-85812380D01*
X131963428Y-85812380D01*
X132092000Y-85860000D01*
X132177714Y-85955238D01*
X132220571Y-86050476D01*
X132263428Y-86240952D01*
X132263428Y-86383809D01*
X132220571Y-86574285D01*
X132177714Y-86669523D01*
X132092000Y-86764761D01*
X131963428Y-86812380D01*
X131749142Y-86812380D01*
X132563428Y-85812380D02*
X133120571Y-85812380D01*
X132820571Y-86193333D01*
X132949142Y-86193333D01*
X133034857Y-86240952D01*
X133077714Y-86288571D01*
X133120571Y-86383809D01*
X133120571Y-86621904D01*
X133077714Y-86717142D01*
X133034857Y-86764761D01*
X132949142Y-86812380D01*
X132692000Y-86812380D01*
X132606285Y-86764761D01*
X132563428Y-86717142D01*
X133892000Y-86145714D02*
X133892000Y-86812380D01*
X133677714Y-85764761D02*
X133463428Y-86479047D01*
X134020571Y-86479047D01*
X131749142Y-84399380D02*
X131749142Y-83399380D01*
X131963428Y-83399380D01*
X132092000Y-83447000D01*
X132177714Y-83542238D01*
X132220571Y-83637476D01*
X132263428Y-83827952D01*
X132263428Y-83970809D01*
X132220571Y-84161285D01*
X132177714Y-84256523D01*
X132092000Y-84351761D01*
X131963428Y-84399380D01*
X131749142Y-84399380D01*
X132563428Y-83399380D02*
X133120571Y-83399380D01*
X132820571Y-83780333D01*
X132949142Y-83780333D01*
X133034857Y-83827952D01*
X133077714Y-83875571D01*
X133120571Y-83970809D01*
X133120571Y-84208904D01*
X133077714Y-84304142D01*
X133034857Y-84351761D01*
X132949142Y-84399380D01*
X132692000Y-84399380D01*
X132606285Y-84351761D01*
X132563428Y-84304142D01*
X133934857Y-83399380D02*
X133506285Y-83399380D01*
X133463428Y-83875571D01*
X133506285Y-83827952D01*
X133592000Y-83780333D01*
X133806285Y-83780333D01*
X133892000Y-83827952D01*
X133934857Y-83875571D01*
X133977714Y-83970809D01*
X133977714Y-84208904D01*
X133934857Y-84304142D01*
X133892000Y-84351761D01*
X133806285Y-84399380D01*
X133592000Y-84399380D01*
X133506285Y-84351761D01*
X133463428Y-84304142D01*
X131749142Y-81732380D02*
X131749142Y-80732380D01*
X131963428Y-80732380D01*
X132092000Y-80780000D01*
X132177714Y-80875238D01*
X132220571Y-80970476D01*
X132263428Y-81160952D01*
X132263428Y-81303809D01*
X132220571Y-81494285D01*
X132177714Y-81589523D01*
X132092000Y-81684761D01*
X131963428Y-81732380D01*
X131749142Y-81732380D01*
X132563428Y-80732380D02*
X133120571Y-80732380D01*
X132820571Y-81113333D01*
X132949142Y-81113333D01*
X133034857Y-81160952D01*
X133077714Y-81208571D01*
X133120571Y-81303809D01*
X133120571Y-81541904D01*
X133077714Y-81637142D01*
X133034857Y-81684761D01*
X132949142Y-81732380D01*
X132692000Y-81732380D01*
X132606285Y-81684761D01*
X132563428Y-81637142D01*
X133463428Y-80827619D02*
X133506285Y-80780000D01*
X133592000Y-80732380D01*
X133806285Y-80732380D01*
X133892000Y-80780000D01*
X133934857Y-80827619D01*
X133977714Y-80922857D01*
X133977714Y-81018095D01*
X133934857Y-81160952D01*
X133420571Y-81732380D01*
X133977714Y-81732380D01*
X137765714Y-96702571D02*
X138065714Y-96702571D01*
X138194285Y-97226380D02*
X137765714Y-97226380D01*
X137765714Y-96226380D01*
X138194285Y-96226380D01*
X138580000Y-97226380D02*
X138580000Y-96226380D01*
X139094285Y-97226380D01*
X139094285Y-96226380D01*
X139998571Y-97226380D02*
X139998571Y-96226380D01*
X140189047Y-96226380D01*
X140303333Y-96274000D01*
X140379523Y-96369238D01*
X140417619Y-96464476D01*
X140455714Y-96654952D01*
X140455714Y-96797809D01*
X140417619Y-96988285D01*
X140379523Y-97083523D01*
X140303333Y-97178761D01*
X140189047Y-97226380D01*
X139998571Y-97226380D01*
X140722380Y-96226380D02*
X141217619Y-96226380D01*
X140950952Y-96607333D01*
X141065238Y-96607333D01*
X141141428Y-96654952D01*
X141179523Y-96702571D01*
X141217619Y-96797809D01*
X141217619Y-97035904D01*
X141179523Y-97131142D01*
X141141428Y-97178761D01*
X141065238Y-97226380D01*
X140836666Y-97226380D01*
X140760476Y-97178761D01*
X140722380Y-97131142D01*
X141903333Y-96226380D02*
X141750952Y-96226380D01*
X141674761Y-96274000D01*
X141636666Y-96321619D01*
X141560476Y-96464476D01*
X141522380Y-96654952D01*
X141522380Y-97035904D01*
X141560476Y-97131142D01*
X141598571Y-97178761D01*
X141674761Y-97226380D01*
X141827142Y-97226380D01*
X141903333Y-97178761D01*
X141941428Y-97131142D01*
X141979523Y-97035904D01*
X141979523Y-96797809D01*
X141941428Y-96702571D01*
X141903333Y-96654952D01*
X141827142Y-96607333D01*
X141674761Y-96607333D01*
X141598571Y-96654952D01*
X141560476Y-96702571D01*
X141522380Y-96797809D01*
X142538571Y-97226380D02*
X142538571Y-96226380D01*
X142729047Y-96226380D01*
X142843333Y-96274000D01*
X142919523Y-96369238D01*
X142957619Y-96464476D01*
X142995714Y-96654952D01*
X142995714Y-96797809D01*
X142957619Y-96988285D01*
X142919523Y-97083523D01*
X142843333Y-97178761D01*
X142729047Y-97226380D01*
X142538571Y-97226380D01*
X143262380Y-96226380D02*
X143757619Y-96226380D01*
X143490952Y-96607333D01*
X143605238Y-96607333D01*
X143681428Y-96654952D01*
X143719523Y-96702571D01*
X143757619Y-96797809D01*
X143757619Y-97035904D01*
X143719523Y-97131142D01*
X143681428Y-97178761D01*
X143605238Y-97226380D01*
X143376666Y-97226380D01*
X143300476Y-97178761D01*
X143262380Y-97131142D01*
X144138571Y-97226380D02*
X144290952Y-97226380D01*
X144367142Y-97178761D01*
X144405238Y-97131142D01*
X144481428Y-96988285D01*
X144519523Y-96797809D01*
X144519523Y-96416857D01*
X144481428Y-96321619D01*
X144443333Y-96274000D01*
X144367142Y-96226380D01*
X144214761Y-96226380D01*
X144138571Y-96274000D01*
X144100476Y-96321619D01*
X144062380Y-96416857D01*
X144062380Y-96654952D01*
X144100476Y-96750190D01*
X144138571Y-96797809D01*
X144214761Y-96845428D01*
X144367142Y-96845428D01*
X144443333Y-96797809D01*
X144481428Y-96750190D01*
X144519523Y-96654952D01*
X145078571Y-97226380D02*
X145078571Y-96226380D01*
X145269047Y-96226380D01*
X145383333Y-96274000D01*
X145459523Y-96369238D01*
X145497619Y-96464476D01*
X145535714Y-96654952D01*
X145535714Y-96797809D01*
X145497619Y-96988285D01*
X145459523Y-97083523D01*
X145383333Y-97178761D01*
X145269047Y-97226380D01*
X145078571Y-97226380D01*
X145802380Y-96226380D02*
X146297619Y-96226380D01*
X146030952Y-96607333D01*
X146145238Y-96607333D01*
X146221428Y-96654952D01*
X146259523Y-96702571D01*
X146297619Y-96797809D01*
X146297619Y-97035904D01*
X146259523Y-97131142D01*
X146221428Y-97178761D01*
X146145238Y-97226380D01*
X145916666Y-97226380D01*
X145840476Y-97178761D01*
X145802380Y-97131142D01*
X146983333Y-96559714D02*
X146983333Y-97226380D01*
X146792857Y-96178761D02*
X146602380Y-96893047D01*
X147097619Y-96893047D01*
X147618571Y-97226380D02*
X147618571Y-96226380D01*
X147809047Y-96226380D01*
X147923333Y-96274000D01*
X147999523Y-96369238D01*
X148037619Y-96464476D01*
X148075714Y-96654952D01*
X148075714Y-96797809D01*
X148037619Y-96988285D01*
X147999523Y-97083523D01*
X147923333Y-97178761D01*
X147809047Y-97226380D01*
X147618571Y-97226380D01*
X148342380Y-96226380D02*
X148837619Y-96226380D01*
X148570952Y-96607333D01*
X148685238Y-96607333D01*
X148761428Y-96654952D01*
X148799523Y-96702571D01*
X148837619Y-96797809D01*
X148837619Y-97035904D01*
X148799523Y-97131142D01*
X148761428Y-97178761D01*
X148685238Y-97226380D01*
X148456666Y-97226380D01*
X148380476Y-97178761D01*
X148342380Y-97131142D01*
X149561428Y-96226380D02*
X149180476Y-96226380D01*
X149142380Y-96702571D01*
X149180476Y-96654952D01*
X149256666Y-96607333D01*
X149447142Y-96607333D01*
X149523333Y-96654952D01*
X149561428Y-96702571D01*
X149599523Y-96797809D01*
X149599523Y-97035904D01*
X149561428Y-97131142D01*
X149523333Y-97178761D01*
X149447142Y-97226380D01*
X149256666Y-97226380D01*
X149180476Y-97178761D01*
X149142380Y-97131142D01*
X150158571Y-97226380D02*
X150158571Y-96226380D01*
X150349047Y-96226380D01*
X150463333Y-96274000D01*
X150539523Y-96369238D01*
X150577619Y-96464476D01*
X150615714Y-96654952D01*
X150615714Y-96797809D01*
X150577619Y-96988285D01*
X150539523Y-97083523D01*
X150463333Y-97178761D01*
X150349047Y-97226380D01*
X150158571Y-97226380D01*
X150882380Y-96226380D02*
X151377619Y-96226380D01*
X151110952Y-96607333D01*
X151225238Y-96607333D01*
X151301428Y-96654952D01*
X151339523Y-96702571D01*
X151377619Y-96797809D01*
X151377619Y-97035904D01*
X151339523Y-97131142D01*
X151301428Y-97178761D01*
X151225238Y-97226380D01*
X150996666Y-97226380D01*
X150920476Y-97178761D01*
X150882380Y-97131142D01*
X151682380Y-96321619D02*
X151720476Y-96274000D01*
X151796666Y-96226380D01*
X151987142Y-96226380D01*
X152063333Y-96274000D01*
X152101428Y-96321619D01*
X152139523Y-96416857D01*
X152139523Y-96512095D01*
X152101428Y-96654952D01*
X151644285Y-97226380D01*
X152139523Y-97226380D01*
X152698571Y-97226380D02*
X152698571Y-96226380D01*
X152889047Y-96226380D01*
X153003333Y-96274000D01*
X153079523Y-96369238D01*
X153117619Y-96464476D01*
X153155714Y-96654952D01*
X153155714Y-96797809D01*
X153117619Y-96988285D01*
X153079523Y-97083523D01*
X153003333Y-97178761D01*
X152889047Y-97226380D01*
X152698571Y-97226380D01*
X153422380Y-96226380D02*
X153917619Y-96226380D01*
X153650952Y-96607333D01*
X153765238Y-96607333D01*
X153841428Y-96654952D01*
X153879523Y-96702571D01*
X153917619Y-96797809D01*
X153917619Y-97035904D01*
X153879523Y-97131142D01*
X153841428Y-97178761D01*
X153765238Y-97226380D01*
X153536666Y-97226380D01*
X153460476Y-97178761D01*
X153422380Y-97131142D01*
X154184285Y-96226380D02*
X154679523Y-96226380D01*
X154412857Y-96607333D01*
X154527142Y-96607333D01*
X154603333Y-96654952D01*
X154641428Y-96702571D01*
X154679523Y-96797809D01*
X154679523Y-97035904D01*
X154641428Y-97131142D01*
X154603333Y-97178761D01*
X154527142Y-97226380D01*
X154298571Y-97226380D01*
X154222380Y-97178761D01*
X154184285Y-97131142D01*
X155238571Y-97226380D02*
X155238571Y-96226380D01*
X155429047Y-96226380D01*
X155543333Y-96274000D01*
X155619523Y-96369238D01*
X155657619Y-96464476D01*
X155695714Y-96654952D01*
X155695714Y-96797809D01*
X155657619Y-96988285D01*
X155619523Y-97083523D01*
X155543333Y-97178761D01*
X155429047Y-97226380D01*
X155238571Y-97226380D01*
X156000476Y-96321619D02*
X156038571Y-96274000D01*
X156114761Y-96226380D01*
X156305238Y-96226380D01*
X156381428Y-96274000D01*
X156419523Y-96321619D01*
X156457619Y-96416857D01*
X156457619Y-96512095D01*
X156419523Y-96654952D01*
X155962380Y-97226380D01*
X156457619Y-97226380D01*
X157181428Y-96226380D02*
X156800476Y-96226380D01*
X156762380Y-96702571D01*
X156800476Y-96654952D01*
X156876666Y-96607333D01*
X157067142Y-96607333D01*
X157143333Y-96654952D01*
X157181428Y-96702571D01*
X157219523Y-96797809D01*
X157219523Y-97035904D01*
X157181428Y-97131142D01*
X157143333Y-97178761D01*
X157067142Y-97226380D01*
X156876666Y-97226380D01*
X156800476Y-97178761D01*
X156762380Y-97131142D01*
X157778571Y-97226380D02*
X157778571Y-96226380D01*
X157969047Y-96226380D01*
X158083333Y-96274000D01*
X158159523Y-96369238D01*
X158197619Y-96464476D01*
X158235714Y-96654952D01*
X158235714Y-96797809D01*
X158197619Y-96988285D01*
X158159523Y-97083523D01*
X158083333Y-97178761D01*
X157969047Y-97226380D01*
X157778571Y-97226380D01*
X158540476Y-96321619D02*
X158578571Y-96274000D01*
X158654761Y-96226380D01*
X158845238Y-96226380D01*
X158921428Y-96274000D01*
X158959523Y-96321619D01*
X158997619Y-96416857D01*
X158997619Y-96512095D01*
X158959523Y-96654952D01*
X158502380Y-97226380D01*
X158997619Y-97226380D01*
X159683333Y-96226380D02*
X159530952Y-96226380D01*
X159454761Y-96274000D01*
X159416666Y-96321619D01*
X159340476Y-96464476D01*
X159302380Y-96654952D01*
X159302380Y-97035904D01*
X159340476Y-97131142D01*
X159378571Y-97178761D01*
X159454761Y-97226380D01*
X159607142Y-97226380D01*
X159683333Y-97178761D01*
X159721428Y-97131142D01*
X159759523Y-97035904D01*
X159759523Y-96797809D01*
X159721428Y-96702571D01*
X159683333Y-96654952D01*
X159607142Y-96607333D01*
X159454761Y-96607333D01*
X159378571Y-96654952D01*
X159340476Y-96702571D01*
X159302380Y-96797809D01*
X160318571Y-97226380D02*
X160318571Y-96226380D01*
X160509047Y-96226380D01*
X160623333Y-96274000D01*
X160699523Y-96369238D01*
X160737619Y-96464476D01*
X160775714Y-96654952D01*
X160775714Y-96797809D01*
X160737619Y-96988285D01*
X160699523Y-97083523D01*
X160623333Y-97178761D01*
X160509047Y-97226380D01*
X160318571Y-97226380D01*
X161080476Y-96321619D02*
X161118571Y-96274000D01*
X161194761Y-96226380D01*
X161385238Y-96226380D01*
X161461428Y-96274000D01*
X161499523Y-96321619D01*
X161537619Y-96416857D01*
X161537619Y-96512095D01*
X161499523Y-96654952D01*
X161042380Y-97226380D01*
X161537619Y-97226380D01*
X161804285Y-96226380D02*
X162337619Y-96226380D01*
X161994761Y-97226380D01*
X162731571Y-97226380D02*
X162731571Y-96226380D01*
X162922047Y-96226380D01*
X163036333Y-96274000D01*
X163112523Y-96369238D01*
X163150619Y-96464476D01*
X163188714Y-96654952D01*
X163188714Y-96797809D01*
X163150619Y-96988285D01*
X163112523Y-97083523D01*
X163036333Y-97178761D01*
X162922047Y-97226380D01*
X162731571Y-97226380D01*
X163950619Y-97226380D02*
X163493476Y-97226380D01*
X163722047Y-97226380D02*
X163722047Y-96226380D01*
X163645857Y-96369238D01*
X163569666Y-96464476D01*
X163493476Y-96512095D01*
X164636333Y-96559714D02*
X164636333Y-97226380D01*
X164445857Y-96178761D02*
X164255380Y-96893047D01*
X164750619Y-96893047D01*
X165271571Y-97226380D02*
X165271571Y-96226380D01*
X165462047Y-96226380D01*
X165576333Y-96274000D01*
X165652523Y-96369238D01*
X165690619Y-96464476D01*
X165728714Y-96654952D01*
X165728714Y-96797809D01*
X165690619Y-96988285D01*
X165652523Y-97083523D01*
X165576333Y-97178761D01*
X165462047Y-97226380D01*
X165271571Y-97226380D01*
X166490619Y-97226380D02*
X166033476Y-97226380D01*
X166262047Y-97226380D02*
X166262047Y-96226380D01*
X166185857Y-96369238D01*
X166109666Y-96464476D01*
X166033476Y-96512095D01*
X166795380Y-96321619D02*
X166833476Y-96274000D01*
X166909666Y-96226380D01*
X167100142Y-96226380D01*
X167176333Y-96274000D01*
X167214428Y-96321619D01*
X167252523Y-96416857D01*
X167252523Y-96512095D01*
X167214428Y-96654952D01*
X166757285Y-97226380D01*
X167252523Y-97226380D01*
X167938571Y-97226380D02*
X167938571Y-96226380D01*
X168129047Y-96226380D01*
X168243333Y-96274000D01*
X168319523Y-96369238D01*
X168357619Y-96464476D01*
X168395714Y-96654952D01*
X168395714Y-96797809D01*
X168357619Y-96988285D01*
X168319523Y-97083523D01*
X168243333Y-97178761D01*
X168129047Y-97226380D01*
X167938571Y-97226380D01*
X169157619Y-97226380D02*
X168700476Y-97226380D01*
X168929047Y-97226380D02*
X168929047Y-96226380D01*
X168852857Y-96369238D01*
X168776666Y-96464476D01*
X168700476Y-96512095D01*
X169424285Y-96226380D02*
X169919523Y-96226380D01*
X169652857Y-96607333D01*
X169767142Y-96607333D01*
X169843333Y-96654952D01*
X169881428Y-96702571D01*
X169919523Y-96797809D01*
X169919523Y-97035904D01*
X169881428Y-97131142D01*
X169843333Y-97178761D01*
X169767142Y-97226380D01*
X169538571Y-97226380D01*
X169462380Y-97178761D01*
X169424285Y-97131142D01*
X170940476Y-96274000D02*
X170864285Y-96226380D01*
X170750000Y-96226380D01*
X170635714Y-96274000D01*
X170559523Y-96369238D01*
X170521428Y-96464476D01*
X170483333Y-96654952D01*
X170483333Y-96797809D01*
X170521428Y-96988285D01*
X170559523Y-97083523D01*
X170635714Y-97178761D01*
X170750000Y-97226380D01*
X170826190Y-97226380D01*
X170940476Y-97178761D01*
X170978571Y-97131142D01*
X170978571Y-96797809D01*
X170826190Y-96797809D01*
X171321428Y-97226380D02*
X171321428Y-96226380D01*
X171778571Y-97226380D01*
X171778571Y-96226380D01*
X172159523Y-97226380D02*
X172159523Y-96226380D01*
X172350000Y-96226380D01*
X172464285Y-96274000D01*
X172540476Y-96369238D01*
X172578571Y-96464476D01*
X172616666Y-96654952D01*
X172616666Y-96797809D01*
X172578571Y-96988285D01*
X172540476Y-97083523D01*
X172464285Y-97178761D01*
X172350000Y-97226380D01*
X172159523Y-97226380D01*
X173367809Y-96226380D02*
X173634476Y-97226380D01*
X173901142Y-96226380D01*
X174167809Y-97226380D02*
X174167809Y-96226380D01*
X174548761Y-97226380D02*
X174548761Y-96226380D01*
X175005904Y-97226380D01*
X175005904Y-96226380D01*
D11*
X162700000Y-82931000D02*
X163200000Y-82931000D01*
X162700000Y-77300000D02*
X162687000Y-82931000D01*
X163300000Y-79200000D02*
X163200000Y-79200000D01*
X162700000Y-79200000D02*
X163300000Y-79200000D01*
X163300000Y-77300000D02*
X162700000Y-77300000D01*
D10*
X164274523Y-82383380D02*
X163798333Y-82383380D01*
X163750714Y-82859571D01*
X163798333Y-82811952D01*
X163893571Y-82764333D01*
X164131666Y-82764333D01*
X164226904Y-82811952D01*
X164274523Y-82859571D01*
X164322142Y-82954809D01*
X164322142Y-83192904D01*
X164274523Y-83288142D01*
X164226904Y-83335761D01*
X164131666Y-83383380D01*
X163893571Y-83383380D01*
X163798333Y-83335761D01*
X163750714Y-83288142D01*
X164607857Y-82383380D02*
X164941190Y-83383380D01*
X165274523Y-82383380D01*
X163242809Y-80732380D02*
X163861857Y-80732380D01*
X163528523Y-81113333D01*
X163671380Y-81113333D01*
X163766619Y-81160952D01*
X163814238Y-81208571D01*
X163861857Y-81303809D01*
X163861857Y-81541904D01*
X163814238Y-81637142D01*
X163766619Y-81684761D01*
X163671380Y-81732380D01*
X163385666Y-81732380D01*
X163290428Y-81684761D01*
X163242809Y-81637142D01*
X164290428Y-81637142D02*
X164338047Y-81684761D01*
X164290428Y-81732380D01*
X164242809Y-81684761D01*
X164290428Y-81637142D01*
X164290428Y-81732380D01*
X164671380Y-80732380D02*
X165290428Y-80732380D01*
X164957095Y-81113333D01*
X165099952Y-81113333D01*
X165195190Y-81160952D01*
X165242809Y-81208571D01*
X165290428Y-81303809D01*
X165290428Y-81541904D01*
X165242809Y-81637142D01*
X165195190Y-81684761D01*
X165099952Y-81732380D01*
X164814238Y-81732380D01*
X164719000Y-81684761D01*
X164671380Y-81637142D01*
X165576142Y-80732380D02*
X165909476Y-81732380D01*
X166242809Y-80732380D01*
G04 #@! TO.C,J1*
X183292000Y-80180000D02*
X184637000Y-80180000D01*
X183292000Y-89820000D02*
X184637000Y-89820000D01*
X184637000Y-80180000D02*
X184637000Y-89820000D01*
X178792000Y-80180000D02*
X180792000Y-80180000D01*
X178792000Y-89820000D02*
X180792000Y-89820000D01*
G04 #@! TO.C,U2*
X161332000Y-94080000D02*
X135832000Y-94080000D01*
X135832000Y-94080000D02*
X135832000Y-76080000D01*
X135832000Y-76080000D02*
X161332000Y-76080000D01*
X161332000Y-76080000D02*
X161332000Y-94080000D01*
D12*
G04 #@! TO.C,U3*
X174732000Y-80880000D02*
X174732000Y-79620000D01*
X174732000Y-74060000D02*
X174732000Y-75320000D01*
X170972000Y-80880000D02*
X174732000Y-80880000D01*
X168722000Y-74060000D02*
X174732000Y-74060000D01*
D10*
G04 #@! TO.C,D1*
X167300000Y-84154000D02*
X171200000Y-84154000D01*
X167300000Y-81454000D02*
X171200000Y-81454000D01*
G04 #@! TO.C,SW1*
X177368000Y-94785000D02*
X177368000Y-92245000D01*
X174168000Y-92245000D02*
X174168000Y-94785000D01*
X176276000Y-91440000D02*
X175260000Y-91440000D01*
X176276000Y-95590000D02*
X175260000Y-95590000D01*
D12*
G04 #@! TO.C,Q1*
X169237075Y-95369000D02*
X169237075Y-96029000D01*
X169237075Y-93709000D02*
X169237075Y-94369000D01*
X169237075Y-93709000D02*
X167207075Y-93709000D01*
X167827075Y-96029000D02*
X169237075Y-96029000D01*
D10*
G04 #@! TO.C,SW2*
X172661000Y-95590000D02*
X171645000Y-95590000D01*
X172661000Y-91440000D02*
X171645000Y-91440000D01*
X170553000Y-92245000D02*
X170553000Y-94785000D01*
X173753000Y-94785000D02*
X173753000Y-92245000D01*
D12*
G04 #@! TO.C,J4*
X120590000Y-79950000D02*
X120590000Y-82610000D01*
X128270000Y-79950000D02*
X120590000Y-79950000D01*
X128270000Y-82610000D02*
X120590000Y-82610000D01*
X128270000Y-79950000D02*
X128270000Y-82610000D01*
X129540000Y-79950000D02*
X130870000Y-79950000D01*
X130870000Y-79950000D02*
X130870000Y-81280000D01*
G04 #@! TO.C,C5*
X165364279Y-87628000D02*
X165038721Y-87628000D01*
X165364279Y-88648000D02*
X165038721Y-88648000D01*
G04 #@! TO.C,U1*
X167844000Y-89486000D02*
X167369000Y-89486000D01*
X167369000Y-89486000D02*
X167369000Y-89011000D01*
X171114000Y-85266000D02*
X171589000Y-85266000D01*
X171589000Y-85266000D02*
X171589000Y-85741000D01*
X167844000Y-85266000D02*
X167369000Y-85266000D01*
X167369000Y-85266000D02*
X167369000Y-85741000D01*
X171114000Y-89486000D02*
X171589000Y-89486000D01*
G04 #@! TO.C,J5*
X130870000Y-82490000D02*
X130870000Y-83820000D01*
X129540000Y-82490000D02*
X130870000Y-82490000D01*
X128270000Y-82490000D02*
X128270000Y-85150000D01*
X128270000Y-85150000D02*
X120590000Y-85150000D01*
X128270000Y-82490000D02*
X120590000Y-82490000D01*
X120590000Y-82490000D02*
X120590000Y-85150000D01*
G04 #@! TO.C,J6*
X120590000Y-85030000D02*
X120590000Y-87690000D01*
X128270000Y-85030000D02*
X120590000Y-85030000D01*
X128270000Y-87690000D02*
X120590000Y-87690000D01*
X128270000Y-85030000D02*
X128270000Y-87690000D01*
X129540000Y-85030000D02*
X130870000Y-85030000D01*
X130870000Y-85030000D02*
X130870000Y-86360000D01*
G04 #@! TO.C,J7*
X130870000Y-87570000D02*
X130870000Y-88900000D01*
X129540000Y-87570000D02*
X130870000Y-87570000D01*
X128270000Y-87570000D02*
X128270000Y-90230000D01*
X128270000Y-90230000D02*
X120590000Y-90230000D01*
X128270000Y-87570000D02*
X120590000Y-87570000D01*
X120590000Y-87570000D02*
X120590000Y-90230000D01*
G04 #@! TO.C,R13*
X164762922Y-74792000D02*
X165280078Y-74792000D01*
X164762922Y-76212000D02*
X165280078Y-76212000D01*
G04 #@! TO.C,R14*
X164762922Y-76570000D02*
X165280078Y-76570000D01*
X164762922Y-77990000D02*
X165280078Y-77990000D01*
G04 #@! TO.C,R15*
X164762922Y-80022000D02*
X165280078Y-80022000D01*
X164762922Y-78602000D02*
X165280078Y-78602000D01*
G04 #@! TO.C,Q2*
X167827075Y-93078491D02*
X169237075Y-93078491D01*
X169237075Y-90758491D02*
X167207075Y-90758491D01*
X169237075Y-90758491D02*
X169237075Y-91418491D01*
X169237075Y-92418491D02*
X169237075Y-93078491D01*
D13*
G04 #@! TO.C,D2*
X182115000Y-91313000D02*
G75*
G03X182115000Y-91313000I-50000J0D01*
G01*
G04 #@! TO.C,D3*
X183027000Y-78470000D02*
G75*
G03X183027000Y-78470000I-50000J0D01*
G01*
G04 #@! TO.C,D1*
D10*
X168461904Y-83252380D02*
X168461904Y-82252380D01*
X168700000Y-82252380D01*
X168842857Y-82300000D01*
X168938095Y-82395238D01*
X168985714Y-82490476D01*
X169033333Y-82680952D01*
X169033333Y-82823809D01*
X168985714Y-83014285D01*
X168938095Y-83109523D01*
X168842857Y-83204761D01*
X168700000Y-83252380D01*
X168461904Y-83252380D01*
X169985714Y-83252380D02*
X169414285Y-83252380D01*
X169700000Y-83252380D02*
X169700000Y-82252380D01*
X169604761Y-82395238D01*
X169509523Y-82490476D01*
X169414285Y-82538095D01*
G04 #@! TD*
M02*
