  0
SECTION
  2
HEADER
  9
$ANGBASE
  50
0.0
  9
$ANGDIR
  70
  1
  9
$MEASUREMENT
  70
0
  0
ENDSEC
  0
SECTION
  2
TABLES
  0
TABLE
  2
LTYPE
  70
4
  0
LTYPE
  5
40F
  2
CONTINUOUS
  70
0
  3
Solid line
  72
65
  73
0
  40
0.0
  0
LTYPE
  5
410
  2
DASHDOT
 70
0
  3
Dash Dot ____ _ ____ _
 72
65
 73
4
 40
2.0
 49
1.25
 49
-0.25
 49
0.25
 49
-0.25
  0
LTYPE
  5
411
  2
DASHED
 70
0
  3
Dashed __ __ __ __ __
 72
65
 73
2
 40
0.75
 49
0.5
 49
-0.25
  0
LTYPE
  5
43B
  2
DOTTED
 70
0
  3
Dotted .  .  .  .
 72
65
 73
2
 40
0.2
 49
0.0
 49
-0.2
  0
ENDTAB
  0
TABLE
  2
STYLE
  70
4
  0
STYLE
  2
KICAD
  70
0
  40
0
  41
1
  42
1
  50
0
  71
0
  3
isocp.shx
  0
STYLE
  2
KICADB
  70
0
  40
0
  41
1
  42
1
  50
0
  71
0
  3
isocp.shx
  0
STYLE
  2
KICADI
  70
0
  40
0
  41
1
  42
1
  50
15
  71
0
  3
isocp.shx
  0
STYLE
  2
KICADBI
  70
0
  40
0
  41
1
  42
1
  50
15
  71
0
  3
isocp.shx
  0
ENDTAB
  0
TABLE
  2
LAYER
  70
30
  0
LAYER
  2
BLACK
  70
0
  62
7
  6
CONTINUOUS
  0
LAYER
  2
GRAY1
  70
0
  62
251
  6
CONTINUOUS
  0
LAYER
  2
GRAY2
  70
0
  62
8
  6
CONTINUOUS
  0
LAYER
  2
GRAY3
  70
0
  62
9
  6
CONTINUOUS
  0
LAYER
  2
WHITE
  70
0
  62
7
  6
CONTINUOUS
  0
LAYER
  2
LYELLOW
  70
0
  62
51
  6
CONTINUOUS
  0
LAYER
  2
BLUE1
  70
0
  62
178
  6
CONTINUOUS
  0
LAYER
  2
GREEN1
  70
0
  62
98
  6
CONTINUOUS
  0
LAYER
  2
CYAN1
  70
0
  62
138
  6
CONTINUOUS
  0
LAYER
  2
RED1
  70
0
  62
18
  6
CONTINUOUS
  0
LAYER
  2
MAGENTA1
  70
0
  62
228
  6
CONTINUOUS
  0
LAYER
  2
BROWN1
  70
0
  62
58
  6
CONTINUOUS
  0
LAYER
  2
BLUE2
  70
0
  62
5
  6
CONTINUOUS
  0
LAYER
  2
GREEN2
  70
0
  62
3
  6
CONTINUOUS
  0
LAYER
  2
CYAN2
  70
0
  62
4
  6
CONTINUOUS
  0
LAYER
  2
RED2
  70
0
  62
1
  6
CONTINUOUS
  0
LAYER
  2
MAGENTA2
  70
0
  62
6
  6
CONTINUOUS
  0
LAYER
  2
BROWN2
  70
0
  62
54
  6
CONTINUOUS
  0
LAYER
  2
BLUE3
  70
0
  62
171
  6
CONTINUOUS
  0
LAYER
  2
GREEN3
  70
0
  62
91
  6
CONTINUOUS
  0
LAYER
  2
CYAN3
  70
0
  62
131
  6
CONTINUOUS
  0
LAYER
  2
RED3
  70
0
  62
11
  6
CONTINUOUS
  0
LAYER
  2
MAGENTA3
  70
0
  62
221
  6
CONTINUOUS
  0
LAYER
  2
YELLOW3
  70
0
  62
2
  6
CONTINUOUS
  0
LAYER
  2
BLUE4
  70
0
  62
5
  6
CONTINUOUS
  0
LAYER
  2
GREEN4
  70
0
  62
3
  6
CONTINUOUS
  0
LAYER
  2
CYAN4
  70
0
  62
4
  6
CONTINUOUS
  0
LAYER
  2
RED4
  70
0
  62
1
  6
CONTINUOUS
  0
LAYER
  2
MAGENTA4
  70
0
  62
6
  6
CONTINUOUS
  0
LAYER
  2
YELLOW4
  70
0
  62
2
  6
CONTINUOUS
  0
ENDTAB
  0
ENDSEC
  0
SECTION
  2
ENTITIES
0
LINE
8
BLACK
6
CONTINUOUS
10
131.308
20
-98.2409
11
131.352
21
-98.2665
0
LINE
8
BLACK
6
CONTINUOUS
10
131.352
20
-98.2665
11
131.385
21
-98.3057
0
LINE
8
BLACK
6
CONTINUOUS
10
131.385
20
-98.3057
11
131.405
21
-98.3795
0
LINE
8
BLACK
6
CONTINUOUS
10
131.405
20
-98.3795
11
131.405
21
-98.7245
0
LINE
8
BLACK
6
CONTINUOUS
10
131.405
20
-98.7245
11
131.396
21
-98.7749
0
LINE
8
BLACK
6
CONTINUOUS
10
131.396
20
-98.7749
11
131.37
21
-98.8193
0
LINE
8
BLACK
6
CONTINUOUS
10
131.37
20
-98.8193
11
131.331
21
-98.8522
0
LINE
8
BLACK
6
CONTINUOUS
10
131.331
20
-98.8522
11
131.257
21
-98.872
0
LINE
8
BLACK
6
CONTINUOUS
10
131.257
20
-98.872
11
130.963
21
-98.872
0
LINE
8
BLACK
6
CONTINUOUS
10
130.963
20
-98.872
11
130.912
21
-98.8631
0
LINE
8
BLACK
6
CONTINUOUS
10
130.912
20
-98.8631
11
130.868
21
-98.8375
0
LINE
8
BLACK
6
CONTINUOUS
10
130.868
20
-98.8375
11
130.835
21
-98.7982
0
LINE
8
BLACK
6
CONTINUOUS
10
130.835
20
-98.7982
11
130.815
21
-98.7245
0
LINE
8
BLACK
6
CONTINUOUS
10
130.815
20
-98.7245
11
130.815
21
-98.3795
0
LINE
8
BLACK
6
CONTINUOUS
10
130.815
20
-98.3795
11
130.824
21
-98.3291
0
LINE
8
BLACK
6
CONTINUOUS
10
130.824
20
-98.3291
11
130.85
21
-98.2847
0
LINE
8
BLACK
6
CONTINUOUS
10
130.85
20
-98.2847
11
130.889
21
-98.2518
0
LINE
8
BLACK
6
CONTINUOUS
10
130.889
20
-98.2518
11
130.963
21
-98.232
0
LINE
8
BLACK
6
CONTINUOUS
10
130.963
20
-98.232
11
131.257
21
-98.232
0
LINE
8
BLACK
6
CONTINUOUS
10
131.257
20
-98.232
11
131.308
21
-98.2409
0
LINE
8
BLACK
6
CONTINUOUS
10
132.278
20
-98.2409
11
132.322
21
-98.2665
0
LINE
8
BLACK
6
CONTINUOUS
10
132.322
20
-98.2665
11
132.355
21
-98.3057
0
LINE
8
BLACK
6
CONTINUOUS
10
132.355
20
-98.3057
11
132.375
21
-98.3795
0
LINE
8
BLACK
6
CONTINUOUS
10
132.375
20
-98.3795
11
132.375
21
-98.7245
0
LINE
8
BLACK
6
CONTINUOUS
10
132.375
20
-98.7245
11
132.366
21
-98.7749
0
LINE
8
BLACK
6
CONTINUOUS
10
132.366
20
-98.7749
11
132.34
21
-98.8193
0
LINE
8
BLACK
6
CONTINUOUS
10
132.34
20
-98.8193
11
132.301
21
-98.8522
0
LINE
8
BLACK
6
CONTINUOUS
10
132.301
20
-98.8522
11
132.227
21
-98.872
0
LINE
8
BLACK
6
CONTINUOUS
10
132.227
20
-98.872
11
131.933
21
-98.872
0
LINE
8
BLACK
6
CONTINUOUS
10
131.933
20
-98.872
11
131.882
21
-98.8631
0
LINE
8
BLACK
6
CONTINUOUS
10
131.882
20
-98.8631
11
131.838
21
-98.8375
0
LINE
8
BLACK
6
CONTINUOUS
10
131.838
20
-98.8375
11
131.805
21
-98.7982
0
LINE
8
BLACK
6
CONTINUOUS
10
131.805
20
-98.7982
11
131.785
21
-98.7245
0
LINE
8
BLACK
6
CONTINUOUS
10
131.785
20
-98.7245
11
131.785
21
-98.3795
0
LINE
8
BLACK
6
CONTINUOUS
10
131.785
20
-98.3795
11
131.794
21
-98.3291
0
LINE
8
BLACK
6
CONTINUOUS
10
131.794
20
-98.3291
11
131.82
21
-98.2847
0
LINE
8
BLACK
6
CONTINUOUS
10
131.82
20
-98.2847
11
131.859
21
-98.2518
0
LINE
8
BLACK
6
CONTINUOUS
10
131.859
20
-98.2518
11
131.933
21
-98.232
0
LINE
8
BLACK
6
CONTINUOUS
10
131.933
20
-98.232
11
132.227
21
-98.232
0
LINE
8
BLACK
6
CONTINUOUS
10
132.227
20
-98.232
11
132.278
21
-98.2409
0
LINE
8
BLACK
6
CONTINUOUS
10
134.818
20
-98.2409
11
134.862
21
-98.2665
0
LINE
8
BLACK
6
CONTINUOUS
10
134.862
20
-98.2665
11
134.895
21
-98.3057
0
LINE
8
BLACK
6
CONTINUOUS
10
134.895
20
-98.3057
11
134.915
21
-98.3795
0
LINE
8
BLACK
6
CONTINUOUS
10
134.915
20
-98.3795
11
134.915
21
-98.7245
0
LINE
8
BLACK
6
CONTINUOUS
10
134.915
20
-98.7245
11
134.906
21
-98.7749
0
LINE
8
BLACK
6
CONTINUOUS
10
134.906
20
-98.7749
11
134.88
21
-98.8193
0
LINE
8
BLACK
6
CONTINUOUS
10
134.88
20
-98.8193
11
134.841
21
-98.8522
0
LINE
8
BLACK
6
CONTINUOUS
10
134.841
20
-98.8522
11
134.767
21
-98.872
0
LINE
8
BLACK
6
CONTINUOUS
10
134.767
20
-98.872
11
134.472
21
-98.872
0
LINE
8
BLACK
6
CONTINUOUS
10
134.472
20
-98.872
11
134.422
21
-98.8631
0
LINE
8
BLACK
6
CONTINUOUS
10
134.422
20
-98.8631
11
134.378
21
-98.8375
0
LINE
8
BLACK
6
CONTINUOUS
10
134.378
20
-98.8375
11
134.345
21
-98.7982
0
LINE
8
BLACK
6
CONTINUOUS
10
134.345
20
-98.7982
11
134.325
21
-98.7245
0
LINE
8
BLACK
6
CONTINUOUS
10
134.325
20
-98.7245
11
134.325
21
-98.3795
0
LINE
8
BLACK
6
CONTINUOUS
10
134.325
20
-98.3795
11
134.334
21
-98.3291
0
LINE
8
BLACK
6
CONTINUOUS
10
134.334
20
-98.3291
11
134.36
21
-98.2847
0
LINE
8
BLACK
6
CONTINUOUS
10
134.36
20
-98.2847
11
134.399
21
-98.2518
0
LINE
8
BLACK
6
CONTINUOUS
10
134.399
20
-98.2518
11
134.472
21
-98.232
0
LINE
8
BLACK
6
CONTINUOUS
10
134.472
20
-98.232
11
134.767
21
-98.232
0
LINE
8
BLACK
6
CONTINUOUS
10
134.767
20
-98.232
11
134.818
21
-98.2409
0
LINE
8
BLACK
6
CONTINUOUS
10
133.848
20
-98.2409
11
133.892
21
-98.2665
0
LINE
8
BLACK
6
CONTINUOUS
10
133.892
20
-98.2665
11
133.925
21
-98.3057
0
LINE
8
BLACK
6
CONTINUOUS
10
133.925
20
-98.3057
11
133.945
21
-98.3795
0
LINE
8
BLACK
6
CONTINUOUS
10
133.945
20
-98.3795
11
133.945
21
-98.7245
0
LINE
8
BLACK
6
CONTINUOUS
10
133.945
20
-98.7245
11
133.936
21
-98.7749
0
LINE
8
BLACK
6
CONTINUOUS
10
133.936
20
-98.7749
11
133.91
21
-98.8193
0
LINE
8
BLACK
6
CONTINUOUS
10
133.91
20
-98.8193
11
133.871
21
-98.8522
0
LINE
8
BLACK
6
CONTINUOUS
10
133.871
20
-98.8522
11
133.797
21
-98.872
0
LINE
8
BLACK
6
CONTINUOUS
10
133.797
20
-98.872
11
133.502
21
-98.872
0
LINE
8
BLACK
6
CONTINUOUS
10
133.502
20
-98.872
11
133.452
21
-98.8631
0
LINE
8
BLACK
6
CONTINUOUS
10
133.452
20
-98.8631
11
133.408
21
-98.8375
0
LINE
8
BLACK
6
CONTINUOUS
10
133.408
20
-98.8375
11
133.375
21
-98.7982
0
LINE
8
BLACK
6
CONTINUOUS
10
133.375
20
-98.7982
11
133.355
21
-98.7245
0
LINE
8
BLACK
6
CONTINUOUS
10
133.355
20
-98.7245
11
133.355
21
-98.3795
0
LINE
8
BLACK
6
CONTINUOUS
10
133.355
20
-98.3795
11
133.364
21
-98.3291
0
LINE
8
BLACK
6
CONTINUOUS
10
133.364
20
-98.3291
11
133.39
21
-98.2847
0
LINE
8
BLACK
6
CONTINUOUS
10
133.39
20
-98.2847
11
133.429
21
-98.2518
0
LINE
8
BLACK
6
CONTINUOUS
10
133.429
20
-98.2518
11
133.502
21
-98.232
0
LINE
8
BLACK
6
CONTINUOUS
10
133.502
20
-98.232
11
133.797
21
-98.232
0
LINE
8
BLACK
6
CONTINUOUS
10
133.797
20
-98.232
11
133.848
21
-98.2409
0
LINE
8
BLACK
6
CONTINUOUS
10
133.848
20
-96.9709
11
133.892
21
-96.9965
0
LINE
8
BLACK
6
CONTINUOUS
10
133.892
20
-96.9965
11
133.925
21
-97.0357
0
LINE
8
BLACK
6
CONTINUOUS
10
133.925
20
-97.0357
11
133.945
21
-97.1095
0
LINE
8
BLACK
6
CONTINUOUS
10
133.945
20
-97.1095
11
133.945
21
-97.4545
0
LINE
8
BLACK
6
CONTINUOUS
10
133.945
20
-97.4545
11
133.936
21
-97.5049
0
LINE
8
BLACK
6
CONTINUOUS
10
133.936
20
-97.5049
11
133.91
21
-97.5493
0
LINE
8
BLACK
6
CONTINUOUS
10
133.91
20
-97.5493
11
133.871
21
-97.5822
0
LINE
8
BLACK
6
CONTINUOUS
10
133.871
20
-97.5822
11
133.797
21
-97.602
0
LINE
8
BLACK
6
CONTINUOUS
10
133.797
20
-97.602
11
133.502
21
-97.602
0
LINE
8
BLACK
6
CONTINUOUS
10
133.502
20
-97.602
11
133.452
21
-97.5931
0
LINE
8
BLACK
6
CONTINUOUS
10
133.452
20
-97.5931
11
133.408
21
-97.5675
0
LINE
8
BLACK
6
CONTINUOUS
10
133.408
20
-97.5675
11
133.375
21
-97.5282
0
LINE
8
BLACK
6
CONTINUOUS
10
133.375
20
-97.5282
11
133.355
21
-97.4545
0
LINE
8
BLACK
6
CONTINUOUS
10
133.355
20
-97.4545
11
133.355
21
-97.1095
0
LINE
8
BLACK
6
CONTINUOUS
10
133.355
20
-97.1095
11
133.364
21
-97.0591
0
LINE
8
BLACK
6
CONTINUOUS
10
133.364
20
-97.0591
11
133.39
21
-97.0147
0
LINE
8
BLACK
6
CONTINUOUS
10
133.39
20
-97.0147
11
133.429
21
-96.9818
0
LINE
8
BLACK
6
CONTINUOUS
10
133.429
20
-96.9818
11
133.502
21
-96.962
0
LINE
8
BLACK
6
CONTINUOUS
10
133.502
20
-96.962
11
133.797
21
-96.962
0
LINE
8
BLACK
6
CONTINUOUS
10
133.797
20
-96.962
11
133.848
21
-96.9709
0
LINE
8
BLACK
6
CONTINUOUS
10
134.818
20
-96.9709
11
134.862
21
-96.9965
0
LINE
8
BLACK
6
CONTINUOUS
10
134.862
20
-96.9965
11
134.895
21
-97.0357
0
LINE
8
BLACK
6
CONTINUOUS
10
134.895
20
-97.0357
11
134.915
21
-97.1095
0
LINE
8
BLACK
6
CONTINUOUS
10
134.915
20
-97.1095
11
134.915
21
-97.4545
0
LINE
8
BLACK
6
CONTINUOUS
10
134.915
20
-97.4545
11
134.906
21
-97.5049
0
LINE
8
BLACK
6
CONTINUOUS
10
134.906
20
-97.5049
11
134.88
21
-97.5493
0
LINE
8
BLACK
6
CONTINUOUS
10
134.88
20
-97.5493
11
134.841
21
-97.5822
0
LINE
8
BLACK
6
CONTINUOUS
10
134.841
20
-97.5822
11
134.767
21
-97.602
0
LINE
8
BLACK
6
CONTINUOUS
10
134.767
20
-97.602
11
134.472
21
-97.602
0
LINE
8
BLACK
6
CONTINUOUS
10
134.472
20
-97.602
11
134.422
21
-97.5931
0
LINE
8
BLACK
6
CONTINUOUS
10
134.422
20
-97.5931
11
134.378
21
-97.5675
0
LINE
8
BLACK
6
CONTINUOUS
10
134.378
20
-97.5675
11
134.345
21
-97.5282
0
LINE
8
BLACK
6
CONTINUOUS
10
134.345
20
-97.5282
11
134.325
21
-97.4545
0
LINE
8
BLACK
6
CONTINUOUS
10
134.325
20
-97.4545
11
134.325
21
-97.1095
0
LINE
8
BLACK
6
CONTINUOUS
10
134.325
20
-97.1095
11
134.334
21
-97.0591
0
LINE
8
BLACK
6
CONTINUOUS
10
134.334
20
-97.0591
11
134.36
21
-97.0147
0
LINE
8
BLACK
6
CONTINUOUS
10
134.36
20
-97.0147
11
134.399
21
-96.9818
0
LINE
8
BLACK
6
CONTINUOUS
10
134.399
20
-96.9818
11
134.472
21
-96.962
0
LINE
8
BLACK
6
CONTINUOUS
10
134.472
20
-96.962
11
134.767
21
-96.962
0
LINE
8
BLACK
6
CONTINUOUS
10
134.767
20
-96.962
11
134.818
21
-96.9709
0
LINE
8
BLACK
6
CONTINUOUS
10
132.278
20
-96.9709
11
132.322
21
-96.9965
0
LINE
8
BLACK
6
CONTINUOUS
10
132.322
20
-96.9965
11
132.355
21
-97.0357
0
LINE
8
BLACK
6
CONTINUOUS
10
132.355
20
-97.0357
11
132.375
21
-97.1095
0
LINE
8
BLACK
6
CONTINUOUS
10
132.375
20
-97.1095
11
132.375
21
-97.4545
0
LINE
8
BLACK
6
CONTINUOUS
10
132.375
20
-97.4545
11
132.366
21
-97.5049
0
LINE
8
BLACK
6
CONTINUOUS
10
132.366
20
-97.5049
11
132.34
21
-97.5493
0
LINE
8
BLACK
6
CONTINUOUS
10
132.34
20
-97.5493
11
132.301
21
-97.5822
0
LINE
8
BLACK
6
CONTINUOUS
10
132.301
20
-97.5822
11
132.227
21
-97.602
0
LINE
8
BLACK
6
CONTINUOUS
10
132.227
20
-97.602
11
131.933
21
-97.602
0
LINE
8
BLACK
6
CONTINUOUS
10
131.933
20
-97.602
11
131.882
21
-97.5931
0
LINE
8
BLACK
6
CONTINUOUS
10
131.882
20
-97.5931
11
131.838
21
-97.5675
0
LINE
8
BLACK
6
CONTINUOUS
10
131.838
20
-97.5675
11
131.805
21
-97.5282
0
LINE
8
BLACK
6
CONTINUOUS
10
131.805
20
-97.5282
11
131.785
21
-97.4545
0
LINE
8
BLACK
6
CONTINUOUS
10
131.785
20
-97.4545
11
131.785
21
-97.1095
0
LINE
8
BLACK
6
CONTINUOUS
10
131.785
20
-97.1095
11
131.794
21
-97.0591
0
LINE
8
BLACK
6
CONTINUOUS
10
131.794
20
-97.0591
11
131.82
21
-97.0147
0
LINE
8
BLACK
6
CONTINUOUS
10
131.82
20
-97.0147
11
131.859
21
-96.9818
0
LINE
8
BLACK
6
CONTINUOUS
10
131.859
20
-96.9818
11
131.933
21
-96.962
0
LINE
8
BLACK
6
CONTINUOUS
10
131.933
20
-96.962
11
132.227
21
-96.962
0
LINE
8
BLACK
6
CONTINUOUS
10
132.227
20
-96.962
11
132.278
21
-96.9709
0
LINE
8
BLACK
6
CONTINUOUS
10
131.308
20
-96.9709
11
131.352
21
-96.9965
0
LINE
8
BLACK
6
CONTINUOUS
10
131.352
20
-96.9965
11
131.385
21
-97.0357
0
LINE
8
BLACK
6
CONTINUOUS
10
131.385
20
-97.0357
11
131.405
21
-97.1095
0
LINE
8
BLACK
6
CONTINUOUS
10
131.405
20
-97.1095
11
131.405
21
-97.4545
0
LINE
8
BLACK
6
CONTINUOUS
10
131.405
20
-97.4545
11
131.396
21
-97.5049
0
LINE
8
BLACK
6
CONTINUOUS
10
131.396
20
-97.5049
11
131.37
21
-97.5493
0
LINE
8
BLACK
6
CONTINUOUS
10
131.37
20
-97.5493
11
131.331
21
-97.5822
0
LINE
8
BLACK
6
CONTINUOUS
10
131.331
20
-97.5822
11
131.257
21
-97.602
0
LINE
8
BLACK
6
CONTINUOUS
10
131.257
20
-97.602
11
130.963
21
-97.602
0
LINE
8
BLACK
6
CONTINUOUS
10
130.963
20
-97.602
11
130.912
21
-97.5931
0
LINE
8
BLACK
6
CONTINUOUS
10
130.912
20
-97.5931
11
130.868
21
-97.5675
0
LINE
8
BLACK
6
CONTINUOUS
10
130.868
20
-97.5675
11
130.835
21
-97.5282
0
LINE
8
BLACK
6
CONTINUOUS
10
130.835
20
-97.5282
11
130.815
21
-97.4545
0
LINE
8
BLACK
6
CONTINUOUS
10
130.815
20
-97.4545
11
130.815
21
-97.1095
0
LINE
8
BLACK
6
CONTINUOUS
10
130.815
20
-97.1095
11
130.824
21
-97.0591
0
LINE
8
BLACK
6
CONTINUOUS
10
130.824
20
-97.0591
11
130.85
21
-97.0147
0
LINE
8
BLACK
6
CONTINUOUS
10
130.85
20
-97.0147
11
130.889
21
-96.9818
0
LINE
8
BLACK
6
CONTINUOUS
10
130.889
20
-96.9818
11
130.963
21
-96.962
0
LINE
8
BLACK
6
CONTINUOUS
10
130.963
20
-96.962
11
131.257
21
-96.962
0
LINE
8
BLACK
6
CONTINUOUS
10
131.257
20
-96.962
11
131.308
21
-96.9709
0
LINE
8
BLACK
6
CONTINUOUS
10
171.403
20
-96.115
11
170.753
21
-96.115
0
LINE
8
BLACK
6
CONTINUOUS
10
170.753
20
-96.115
11
170.753
21
-95.065
0
LINE
8
BLACK
6
CONTINUOUS
10
170.753
20
-95.065
11
171.403
21
-95.065
0
LINE
8
BLACK
6
CONTINUOUS
10
171.403
20
-95.065
11
171.403
21
-96.115
0
LINE
8
BLACK
6
CONTINUOUS
10
173.553
20
-96.115
11
172.903
21
-96.115
0
LINE
8
BLACK
6
CONTINUOUS
10
172.903
20
-96.115
11
172.903
21
-95.065
0
LINE
8
BLACK
6
CONTINUOUS
10
172.903
20
-95.065
11
173.553
21
-95.065
0
LINE
8
BLACK
6
CONTINUOUS
10
173.553
20
-95.065
11
173.553
21
-96.115
0
LINE
8
BLACK
6
CONTINUOUS
10
175.018
20
-96.115
11
174.368
21
-96.115
0
LINE
8
BLACK
6
CONTINUOUS
10
174.368
20
-96.115
11
174.368
21
-95.065
0
LINE
8
BLACK
6
CONTINUOUS
10
174.368
20
-95.065
11
175.018
21
-95.065
0
LINE
8
BLACK
6
CONTINUOUS
10
175.018
20
-95.065
11
175.018
21
-96.115
0
LINE
8
BLACK
6
CONTINUOUS
10
177.168
20
-96.115
11
176.518
21
-96.115
0
LINE
8
BLACK
6
CONTINUOUS
10
176.518
20
-96.115
11
176.518
21
-95.065
0
LINE
8
BLACK
6
CONTINUOUS
10
176.518
20
-95.065
11
177.168
21
-95.065
0
LINE
8
BLACK
6
CONTINUOUS
10
177.168
20
-95.065
11
177.168
21
-96.115
0
LINE
8
BLACK
6
CONTINUOUS
10
165.887
20
-95.4469
11
165.931
21
-95.4725
0
LINE
8
BLACK
6
CONTINUOUS
10
165.931
20
-95.4725
11
165.964
21
-95.5117
0
LINE
8
BLACK
6
CONTINUOUS
10
165.964
20
-95.5117
11
165.984
21
-95.5855
0
LINE
8
BLACK
6
CONTINUOUS
10
165.984
20
-95.5855
11
165.984
21
-95.9305
0
LINE
8
BLACK
6
CONTINUOUS
10
165.984
20
-95.9305
11
165.975
21
-95.9809
0
LINE
8
BLACK
6
CONTINUOUS
10
165.975
20
-95.9809
11
165.949
21
-96.0253
0
LINE
8
BLACK
6
CONTINUOUS
10
165.949
20
-96.0253
11
165.91
21
-96.0582
0
LINE
8
BLACK
6
CONTINUOUS
10
165.91
20
-96.0582
11
165.837
21
-96.078
0
LINE
8
BLACK
6
CONTINUOUS
10
165.837
20
-96.078
11
165.541
21
-96.078
0
LINE
8
BLACK
6
CONTINUOUS
10
165.541
20
-96.078
11
165.491
21
-96.0691
0
LINE
8
BLACK
6
CONTINUOUS
10
165.491
20
-96.0691
11
165.447
21
-96.0435
0
LINE
8
BLACK
6
CONTINUOUS
10
165.447
20
-96.0435
11
165.414
21
-96.0042
0
LINE
8
BLACK
6
CONTINUOUS
10
165.414
20
-96.0042
11
165.394
21
-95.9305
0
LINE
8
BLACK
6
CONTINUOUS
10
165.394
20
-95.9305
11
165.394
21
-95.5855
0
LINE
8
BLACK
6
CONTINUOUS
10
165.394
20
-95.5855
11
165.403
21
-95.5351
0
LINE
8
BLACK
6
CONTINUOUS
10
165.403
20
-95.5351
11
165.429
21
-95.4907
0
LINE
8
BLACK
6
CONTINUOUS
10
165.429
20
-95.4907
11
165.468
21
-95.4578
0
LINE
8
BLACK
6
CONTINUOUS
10
165.468
20
-95.4578
11
165.541
21
-95.438
0
LINE
8
BLACK
6
CONTINUOUS
10
165.541
20
-95.438
11
165.837
21
-95.438
0
LINE
8
BLACK
6
CONTINUOUS
10
165.837
20
-95.438
11
165.887
21
-95.4469
0
LINE
8
BLACK
6
CONTINUOUS
10
164.917
20
-95.4469
11
164.961
21
-95.4725
0
LINE
8
BLACK
6
CONTINUOUS
10
164.961
20
-95.4725
11
164.994
21
-95.5117
0
LINE
8
BLACK
6
CONTINUOUS
10
164.994
20
-95.5117
11
165.014
21
-95.5855
0
LINE
8
BLACK
6
CONTINUOUS
10
165.014
20
-95.5855
11
165.014
21
-95.9305
0
LINE
8
BLACK
6
CONTINUOUS
10
165.014
20
-95.9305
11
165.005
21
-95.9809
0
LINE
8
BLACK
6
CONTINUOUS
10
165.005
20
-95.9809
11
164.979
21
-96.0253
0
LINE
8
BLACK
6
CONTINUOUS
10
164.979
20
-96.0253
11
164.94
21
-96.0582
0
LINE
8
BLACK
6
CONTINUOUS
10
164.94
20
-96.0582
11
164.867
21
-96.078
0
LINE
8
BLACK
6
CONTINUOUS
10
164.867
20
-96.078
11
164.571
21
-96.078
0
LINE
8
BLACK
6
CONTINUOUS
10
164.571
20
-96.078
11
164.521
21
-96.0691
0
LINE
8
BLACK
6
CONTINUOUS
10
164.521
20
-96.0691
11
164.477
21
-96.0435
0
LINE
8
BLACK
6
CONTINUOUS
10
164.477
20
-96.0435
11
164.444
21
-96.0042
0
LINE
8
BLACK
6
CONTINUOUS
10
164.444
20
-96.0042
11
164.424
21
-95.9305
0
LINE
8
BLACK
6
CONTINUOUS
10
164.424
20
-95.9305
11
164.424
21
-95.5855
0
LINE
8
BLACK
6
CONTINUOUS
10
164.424
20
-95.5855
11
164.433
21
-95.5351
0
LINE
8
BLACK
6
CONTINUOUS
10
164.433
20
-95.5351
11
164.459
21
-95.4907
0
LINE
8
BLACK
6
CONTINUOUS
10
164.459
20
-95.4907
11
164.498
21
-95.4578
0
LINE
8
BLACK
6
CONTINUOUS
10
164.498
20
-95.4578
11
164.571
21
-95.438
0
LINE
8
BLACK
6
CONTINUOUS
10
164.571
20
-95.438
11
164.867
21
-95.438
0
LINE
8
BLACK
6
CONTINUOUS
10
164.867
20
-95.438
11
164.917
21
-95.4469
0
LINE
8
BLACK
6
CONTINUOUS
10
167.857
20
-95.744
11
167.157
21
-95.744
0
LINE
8
BLACK
6
CONTINUOUS
10
167.157
20
-95.744
11
167.157
21
-95.294
0
LINE
8
BLACK
6
CONTINUOUS
10
167.157
20
-95.294
11
167.857
21
-95.294
0
LINE
8
BLACK
6
CONTINUOUS
10
167.857
20
-95.294
11
167.857
21
-95.744
0
LINE
8
BLACK
6
CONTINUOUS
10
169.857
20
-95.094
11
169.157
21
-95.094
0
LINE
8
BLACK
6
CONTINUOUS
10
169.157
20
-95.094
11
169.157
21
-94.644
0
LINE
8
BLACK
6
CONTINUOUS
10
169.157
20
-94.644
11
169.857
21
-94.644
0
LINE
8
BLACK
6
CONTINUOUS
10
169.857
20
-94.644
11
169.857
21
-95.094
0
LINE
8
BLACK
6
CONTINUOUS
10
145.042
20
-94.83
11
144.142
21
-94.83
0
LINE
8
BLACK
6
CONTINUOUS
10
144.142
20
-94.83
11
144.142
21
-93.33
0
LINE
8
BLACK
6
CONTINUOUS
10
144.142
20
-93.33
11
145.042
21
-93.33
0
LINE
8
BLACK
6
CONTINUOUS
10
145.042
20
-93.33
11
145.042
21
-94.83
0
LINE
8
BLACK
6
CONTINUOUS
10
160.282
20
-94.83
11
159.382
21
-94.83
0
LINE
8
BLACK
6
CONTINUOUS
10
159.382
20
-94.83
11
159.382
21
-93.33
0
LINE
8
BLACK
6
CONTINUOUS
10
159.382
20
-93.33
11
160.282
21
-93.33
0
LINE
8
BLACK
6
CONTINUOUS
10
160.282
20
-93.33
11
160.282
21
-94.83
0
LINE
8
BLACK
6
CONTINUOUS
10
159.012
20
-94.83
11
158.112
21
-94.83
0
LINE
8
BLACK
6
CONTINUOUS
10
158.112
20
-94.83
11
158.112
21
-93.33
0
LINE
8
BLACK
6
CONTINUOUS
10
158.112
20
-93.33
11
159.012
21
-93.33
0
LINE
8
BLACK
6
CONTINUOUS
10
159.012
20
-93.33
11
159.012
21
-94.83
0
LINE
8
BLACK
6
CONTINUOUS
10
157.742
20
-94.83
11
156.842
21
-94.83
0
LINE
8
BLACK
6
CONTINUOUS
10
156.842
20
-94.83
11
156.842
21
-93.33
0
LINE
8
BLACK
6
CONTINUOUS
10
156.842
20
-93.33
11
157.742
21
-93.33
0
LINE
8
BLACK
6
CONTINUOUS
10
157.742
20
-93.33
11
157.742
21
-94.83
0
LINE
8
BLACK
6
CONTINUOUS
10
156.472
20
-94.83
11
155.572
21
-94.83
0
LINE
8
BLACK
6
CONTINUOUS
10
155.572
20
-94.83
11
155.572
21
-93.33
0
LINE
8
BLACK
6
CONTINUOUS
10
155.572
20
-93.33
11
156.472
21
-93.33
0
LINE
8
BLACK
6
CONTINUOUS
10
156.472
20
-93.33
11
156.472
21
-94.83
0
LINE
8
BLACK
6
CONTINUOUS
10
155.202
20
-94.83
11
154.302
21
-94.83
0
LINE
8
BLACK
6
CONTINUOUS
10
154.302
20
-94.83
11
154.302
21
-93.33
0
LINE
8
BLACK
6
CONTINUOUS
10
154.302
20
-93.33
11
155.202
21
-93.33
0
LINE
8
BLACK
6
CONTINUOUS
10
155.202
20
-93.33
11
155.202
21
-94.83
0
LINE
8
BLACK
6
CONTINUOUS
10
146.312
20
-94.83
11
145.412
21
-94.83
0
LINE
8
BLACK
6
CONTINUOUS
10
145.412
20
-94.83
11
145.412
21
-93.33
0
LINE
8
BLACK
6
CONTINUOUS
10
145.412
20
-93.33
11
146.312
21
-93.33
0
LINE
8
BLACK
6
CONTINUOUS
10
146.312
20
-93.33
11
146.312
21
-94.83
0
LINE
8
BLACK
6
CONTINUOUS
10
153.932
20
-94.83
11
153.032
21
-94.83
0
LINE
8
BLACK
6
CONTINUOUS
10
153.032
20
-94.83
11
153.032
21
-93.33
0
LINE
8
BLACK
6
CONTINUOUS
10
153.032
20
-93.33
11
153.932
21
-93.33
0
LINE
8
BLACK
6
CONTINUOUS
10
153.932
20
-93.33
11
153.932
21
-94.83
0
LINE
8
BLACK
6
CONTINUOUS
10
152.662
20
-94.83
11
151.762
21
-94.83
0
LINE
8
BLACK
6
CONTINUOUS
10
151.762
20
-94.83
11
151.762
21
-93.33
0
LINE
8
BLACK
6
CONTINUOUS
10
151.762
20
-93.33
11
152.662
21
-93.33
0
LINE
8
BLACK
6
CONTINUOUS
10
152.662
20
-93.33
11
152.662
21
-94.83
0
LINE
8
BLACK
6
CONTINUOUS
10
143.772
20
-94.83
11
142.872
21
-94.83
0
LINE
8
BLACK
6
CONTINUOUS
10
142.872
20
-94.83
11
142.872
21
-93.33
0
LINE
8
BLACK
6
CONTINUOUS
10
142.872
20
-93.33
11
143.772
21
-93.33
0
LINE
8
BLACK
6
CONTINUOUS
10
143.772
20
-93.33
11
143.772
21
-94.83
0
LINE
8
BLACK
6
CONTINUOUS
10
147.582
20
-94.83
11
146.682
21
-94.83
0
LINE
8
BLACK
6
CONTINUOUS
10
146.682
20
-94.83
11
146.682
21
-93.33
0
LINE
8
BLACK
6
CONTINUOUS
10
146.682
20
-93.33
11
147.582
21
-93.33
0
LINE
8
BLACK
6
CONTINUOUS
10
147.582
20
-93.33
11
147.582
21
-94.83
0
LINE
8
BLACK
6
CONTINUOUS
10
151.392
20
-94.83
11
150.492
21
-94.83
0
LINE
8
BLACK
6
CONTINUOUS
10
150.492
20
-94.83
11
150.492
21
-93.33
0
LINE
8
BLACK
6
CONTINUOUS
10
150.492
20
-93.33
11
151.392
21
-93.33
0
LINE
8
BLACK
6
CONTINUOUS
10
151.392
20
-93.33
11
151.392
21
-94.83
0
LINE
8
BLACK
6
CONTINUOUS
10
150.122
20
-94.83
11
149.222
21
-94.83
0
LINE
8
BLACK
6
CONTINUOUS
10
149.222
20
-94.83
11
149.222
21
-93.33
0
LINE
8
BLACK
6
CONTINUOUS
10
149.222
20
-93.33
11
150.122
21
-93.33
0
LINE
8
BLACK
6
CONTINUOUS
10
150.122
20
-93.33
11
150.122
21
-94.83
0
LINE
8
BLACK
6
CONTINUOUS
10
148.852
20
-94.83
11
147.952
21
-94.83
0
LINE
8
BLACK
6
CONTINUOUS
10
147.952
20
-94.83
11
147.952
21
-93.33
0
LINE
8
BLACK
6
CONTINUOUS
10
147.952
20
-93.33
11
148.852
21
-93.33
0
LINE
8
BLACK
6
CONTINUOUS
10
148.852
20
-93.33
11
148.852
21
-94.83
0
LINE
8
BLACK
6
CONTINUOUS
10
165.899
20
-94.1769
11
165.943
21
-94.2025
0
LINE
8
BLACK
6
CONTINUOUS
10
165.943
20
-94.2025
11
165.976
21
-94.2417
0
LINE
8
BLACK
6
CONTINUOUS
10
165.976
20
-94.2417
11
165.996
21
-94.3155
0
LINE
8
BLACK
6
CONTINUOUS
10
165.996
20
-94.3155
11
165.996
21
-94.6605
0
LINE
8
BLACK
6
CONTINUOUS
10
165.996
20
-94.6605
11
165.987
21
-94.7109
0
LINE
8
BLACK
6
CONTINUOUS
10
165.987
20
-94.7109
11
165.961
21
-94.7553
0
LINE
8
BLACK
6
CONTINUOUS
10
165.961
20
-94.7553
11
165.922
21
-94.7882
0
LINE
8
BLACK
6
CONTINUOUS
10
165.922
20
-94.7882
11
165.849
21
-94.808
0
LINE
8
BLACK
6
CONTINUOUS
10
165.849
20
-94.808
11
165.553
21
-94.808
0
LINE
8
BLACK
6
CONTINUOUS
10
165.553
20
-94.808
11
165.503
21
-94.7991
0
LINE
8
BLACK
6
CONTINUOUS
10
165.503
20
-94.7991
11
165.459
21
-94.7735
0
LINE
8
BLACK
6
CONTINUOUS
10
165.459
20
-94.7735
11
165.426
21
-94.7342
0
LINE
8
BLACK
6
CONTINUOUS
10
165.426
20
-94.7342
11
165.406
21
-94.6605
0
LINE
8
BLACK
6
CONTINUOUS
10
165.406
20
-94.6605
11
165.406
21
-94.3155
0
LINE
8
BLACK
6
CONTINUOUS
10
165.406
20
-94.3155
11
165.415
21
-94.2651
0
LINE
8
BLACK
6
CONTINUOUS
10
165.415
20
-94.2651
11
165.441
21
-94.2207
0
LINE
8
BLACK
6
CONTINUOUS
10
165.441
20
-94.2207
11
165.48
21
-94.1878
0
LINE
8
BLACK
6
CONTINUOUS
10
165.48
20
-94.1878
11
165.553
21
-94.168
0
LINE
8
BLACK
6
CONTINUOUS
10
165.553
20
-94.168
11
165.849
21
-94.168
0
LINE
8
BLACK
6
CONTINUOUS
10
165.849
20
-94.168
11
165.899
21
-94.1769
0
LINE
8
BLACK
6
CONTINUOUS
10
164.929
20
-94.1769
11
164.973
21
-94.2025
0
LINE
8
BLACK
6
CONTINUOUS
10
164.973
20
-94.2025
11
165.006
21
-94.2417
0
LINE
8
BLACK
6
CONTINUOUS
10
165.006
20
-94.2417
11
165.026
21
-94.3155
0
LINE
8
BLACK
6
CONTINUOUS
10
165.026
20
-94.3155
11
165.026
21
-94.6605
0
LINE
8
BLACK
6
CONTINUOUS
10
165.026
20
-94.6605
11
165.017
21
-94.7109
0
LINE
8
BLACK
6
CONTINUOUS
10
165.017
20
-94.7109
11
164.991
21
-94.7553
0
LINE
8
BLACK
6
CONTINUOUS
10
164.991
20
-94.7553
11
164.952
21
-94.7882
0
LINE
8
BLACK
6
CONTINUOUS
10
164.952
20
-94.7882
11
164.879
21
-94.808
0
LINE
8
BLACK
6
CONTINUOUS
10
164.879
20
-94.808
11
164.583
21
-94.808
0
LINE
8
BLACK
6
CONTINUOUS
10
164.583
20
-94.808
11
164.533
21
-94.7991
0
LINE
8
BLACK
6
CONTINUOUS
10
164.533
20
-94.7991
11
164.489
21
-94.7735
0
LINE
8
BLACK
6
CONTINUOUS
10
164.489
20
-94.7735
11
164.456
21
-94.7342
0
LINE
8
BLACK
6
CONTINUOUS
10
164.456
20
-94.7342
11
164.436
21
-94.6605
0
LINE
8
BLACK
6
CONTINUOUS
10
164.436
20
-94.6605
11
164.436
21
-94.3155
0
LINE
8
BLACK
6
CONTINUOUS
10
164.436
20
-94.3155
11
164.445
21
-94.2651
0
LINE
8
BLACK
6
CONTINUOUS
10
164.445
20
-94.2651
11
164.471
21
-94.2207
0
LINE
8
BLACK
6
CONTINUOUS
10
164.471
20
-94.2207
11
164.51
21
-94.1878
0
LINE
8
BLACK
6
CONTINUOUS
10
164.51
20
-94.1878
11
164.583
21
-94.168
0
LINE
8
BLACK
6
CONTINUOUS
10
164.583
20
-94.168
11
164.879
21
-94.168
0
LINE
8
BLACK
6
CONTINUOUS
10
164.879
20
-94.168
11
164.929
21
-94.1769
0
LINE
8
BLACK
6
CONTINUOUS
10
167.857
20
-94.444
11
167.157
21
-94.444
0
LINE
8
BLACK
6
CONTINUOUS
10
167.157
20
-94.444
11
167.157
21
-93.994
0
LINE
8
BLACK
6
CONTINUOUS
10
167.157
20
-93.994
11
167.857
21
-93.994
0
LINE
8
BLACK
6
CONTINUOUS
10
167.857
20
-93.994
11
167.857
21
-94.444
0
LINE
8
BLACK
6
CONTINUOUS
10
164.929
20
-92.9069
11
164.973
21
-92.9325
0
LINE
8
BLACK
6
CONTINUOUS
10
164.973
20
-92.9325
11
165.006
21
-92.9718
0
LINE
8
BLACK
6
CONTINUOUS
10
165.006
20
-92.9718
11
165.026
21
-93.0455
0
LINE
8
BLACK
6
CONTINUOUS
10
165.026
20
-93.0455
11
165.026
21
-93.3905
0
LINE
8
BLACK
6
CONTINUOUS
10
165.026
20
-93.3905
11
165.017
21
-93.4409
0
LINE
8
BLACK
6
CONTINUOUS
10
165.017
20
-93.4409
11
164.991
21
-93.4853
0
LINE
8
BLACK
6
CONTINUOUS
10
164.991
20
-93.4853
11
164.952
21
-93.5182
0
LINE
8
BLACK
6
CONTINUOUS
10
164.952
20
-93.5182
11
164.879
21
-93.538
0
LINE
8
BLACK
6
CONTINUOUS
10
164.879
20
-93.538
11
164.583
21
-93.538
0
LINE
8
BLACK
6
CONTINUOUS
10
164.583
20
-93.538
11
164.533
21
-93.5291
0
LINE
8
BLACK
6
CONTINUOUS
10
164.533
20
-93.5291
11
164.489
21
-93.5035
0
LINE
8
BLACK
6
CONTINUOUS
10
164.489
20
-93.5035
11
164.456
21
-93.4642
0
LINE
8
BLACK
6
CONTINUOUS
10
164.456
20
-93.4642
11
164.436
21
-93.3905
0
LINE
8
BLACK
6
CONTINUOUS
10
164.436
20
-93.3905
11
164.436
21
-93.0455
0
LINE
8
BLACK
6
CONTINUOUS
10
164.436
20
-93.0455
11
164.445
21
-92.9951
0
LINE
8
BLACK
6
CONTINUOUS
10
164.445
20
-92.9951
11
164.471
21
-92.9507
0
LINE
8
BLACK
6
CONTINUOUS
10
164.471
20
-92.9507
11
164.51
21
-92.9178
0
LINE
8
BLACK
6
CONTINUOUS
10
164.51
20
-92.9178
11
164.583
21
-92.898
0
LINE
8
BLACK
6
CONTINUOUS
10
164.583
20
-92.898
11
164.879
21
-92.898
0
LINE
8
BLACK
6
CONTINUOUS
10
164.879
20
-92.898
11
164.929
21
-92.9069
0
LINE
8
BLACK
6
CONTINUOUS
10
165.899
20
-92.9069
11
165.943
21
-92.9325
0
LINE
8
BLACK
6
CONTINUOUS
10
165.943
20
-92.9325
11
165.976
21
-92.9718
0
LINE
8
BLACK
6
CONTINUOUS
10
165.976
20
-92.9718
11
165.996
21
-93.0455
0
LINE
8
BLACK
6
CONTINUOUS
10
165.996
20
-93.0455
11
165.996
21
-93.3905
0
LINE
8
BLACK
6
CONTINUOUS
10
165.996
20
-93.3905
11
165.987
21
-93.4409
0
LINE
8
BLACK
6
CONTINUOUS
10
165.987
20
-93.4409
11
165.961
21
-93.4853
0
LINE
8
BLACK
6
CONTINUOUS
10
165.961
20
-93.4853
11
165.922
21
-93.5182
0
LINE
8
BLACK
6
CONTINUOUS
10
165.922
20
-93.5182
11
165.849
21
-93.538
0
LINE
8
BLACK
6
CONTINUOUS
10
165.849
20
-93.538
11
165.553
21
-93.538
0
LINE
8
BLACK
6
CONTINUOUS
10
165.553
20
-93.538
11
165.503
21
-93.5291
0
LINE
8
BLACK
6
CONTINUOUS
10
165.503
20
-93.5291
11
165.459
21
-93.5035
0
LINE
8
BLACK
6
CONTINUOUS
10
165.459
20
-93.5035
11
165.426
21
-93.4642
0
LINE
8
BLACK
6
CONTINUOUS
10
165.426
20
-93.4642
11
165.406
21
-93.3905
0
LINE
8
BLACK
6
CONTINUOUS
10
165.406
20
-93.3905
11
165.406
21
-93.0455
0
LINE
8
BLACK
6
CONTINUOUS
10
165.406
20
-93.0455
11
165.415
21
-92.9951
0
LINE
8
BLACK
6
CONTINUOUS
10
165.415
20
-92.9951
11
165.441
21
-92.9507
0
LINE
8
BLACK
6
CONTINUOUS
10
165.441
20
-92.9507
11
165.48
21
-92.9178
0
LINE
8
BLACK
6
CONTINUOUS
10
165.48
20
-92.9178
11
165.553
21
-92.898
0
LINE
8
BLACK
6
CONTINUOUS
10
165.553
20
-92.898
11
165.849
21
-92.898
0
LINE
8
BLACK
6
CONTINUOUS
10
165.849
20
-92.898
11
165.899
21
-92.9069
0
LINE
8
BLACK
6
CONTINUOUS
10
167.857
20
-92.7935
11
167.157
21
-92.7935
0
LINE
8
BLACK
6
CONTINUOUS
10
167.157
20
-92.7935
11
167.157
21
-92.3435
0
LINE
8
BLACK
6
CONTINUOUS
10
167.157
20
-92.3435
11
167.857
21
-92.3435
0
LINE
8
BLACK
6
CONTINUOUS
10
167.857
20
-92.3435
11
167.857
21
-92.7935
0
LINE
8
BLACK
6
CONTINUOUS
10
165.899
20
-91.6369
11
165.943
21
-91.6625
0
LINE
8
BLACK
6
CONTINUOUS
10
165.943
20
-91.6625
11
165.976
21
-91.7017
0
LINE
8
BLACK
6
CONTINUOUS
10
165.976
20
-91.7017
11
165.996
21
-91.7755
0
LINE
8
BLACK
6
CONTINUOUS
10
165.996
20
-91.7755
11
165.996
21
-92.1205
0
LINE
8
BLACK
6
CONTINUOUS
10
165.996
20
-92.1205
11
165.987
21
-92.1709
0
LINE
8
BLACK
6
CONTINUOUS
10
165.987
20
-92.1709
11
165.961
21
-92.2153
0
LINE
8
BLACK
6
CONTINUOUS
10
165.961
20
-92.2153
11
165.922
21
-92.2482
0
LINE
8
BLACK
6
CONTINUOUS
10
165.922
20
-92.2482
11
165.849
21
-92.268
0
LINE
8
BLACK
6
CONTINUOUS
10
165.849
20
-92.268
11
165.553
21
-92.268
0
LINE
8
BLACK
6
CONTINUOUS
10
165.553
20
-92.268
11
165.503
21
-92.2591
0
LINE
8
BLACK
6
CONTINUOUS
10
165.503
20
-92.2591
11
165.459
21
-92.2335
0
LINE
8
BLACK
6
CONTINUOUS
10
165.459
20
-92.2335
11
165.426
21
-92.1942
0
LINE
8
BLACK
6
CONTINUOUS
10
165.426
20
-92.1942
11
165.406
21
-92.1205
0
LINE
8
BLACK
6
CONTINUOUS
10
165.406
20
-92.1205
11
165.406
21
-91.7755
0
LINE
8
BLACK
6
CONTINUOUS
10
165.406
20
-91.7755
11
165.415
21
-91.7251
0
LINE
8
BLACK
6
CONTINUOUS
10
165.415
20
-91.7251
11
165.441
21
-91.6807
0
LINE
8
BLACK
6
CONTINUOUS
10
165.441
20
-91.6807
11
165.48
21
-91.6478
0
LINE
8
BLACK
6
CONTINUOUS
10
165.48
20
-91.6478
11
165.553
21
-91.628
0
LINE
8
BLACK
6
CONTINUOUS
10
165.553
20
-91.628
11
165.849
21
-91.628
0
LINE
8
BLACK
6
CONTINUOUS
10
165.849
20
-91.628
11
165.899
21
-91.6369
0
LINE
8
BLACK
6
CONTINUOUS
10
164.929
20
-91.6369
11
164.973
21
-91.6625
0
LINE
8
BLACK
6
CONTINUOUS
10
164.973
20
-91.6625
11
165.006
21
-91.7017
0
LINE
8
BLACK
6
CONTINUOUS
10
165.006
20
-91.7017
11
165.026
21
-91.7755
0
LINE
8
BLACK
6
CONTINUOUS
10
165.026
20
-91.7755
11
165.026
21
-92.1205
0
LINE
8
BLACK
6
CONTINUOUS
10
165.026
20
-92.1205
11
165.017
21
-92.1709
0
LINE
8
BLACK
6
CONTINUOUS
10
165.017
20
-92.1709
11
164.991
21
-92.2153
0
LINE
8
BLACK
6
CONTINUOUS
10
164.991
20
-92.2153
11
164.952
21
-92.2482
0
LINE
8
BLACK
6
CONTINUOUS
10
164.952
20
-92.2482
11
164.879
21
-92.268
0
LINE
8
BLACK
6
CONTINUOUS
10
164.879
20
-92.268
11
164.583
21
-92.268
0
LINE
8
BLACK
6
CONTINUOUS
10
164.583
20
-92.268
11
164.533
21
-92.2591
0
LINE
8
BLACK
6
CONTINUOUS
10
164.533
20
-92.2591
11
164.489
21
-92.2335
0
LINE
8
BLACK
6
CONTINUOUS
10
164.489
20
-92.2335
11
164.456
21
-92.1942
0
LINE
8
BLACK
6
CONTINUOUS
10
164.456
20
-92.1942
11
164.436
21
-92.1205
0
LINE
8
BLACK
6
CONTINUOUS
10
164.436
20
-92.1205
11
164.436
21
-91.7755
0
LINE
8
BLACK
6
CONTINUOUS
10
164.436
20
-91.7755
11
164.445
21
-91.7251
0
LINE
8
BLACK
6
CONTINUOUS
10
164.445
20
-91.7251
11
164.471
21
-91.6807
0
LINE
8
BLACK
6
CONTINUOUS
10
164.471
20
-91.6807
11
164.51
21
-91.6478
0
LINE
8
BLACK
6
CONTINUOUS
10
164.51
20
-91.6478
11
164.583
21
-91.628
0
LINE
8
BLACK
6
CONTINUOUS
10
164.583
20
-91.628
11
164.879
21
-91.628
0
LINE
8
BLACK
6
CONTINUOUS
10
164.879
20
-91.628
11
164.929
21
-91.6369
0
LINE
8
BLACK
6
CONTINUOUS
10
169.857
20
-92.1435
11
169.157
21
-92.1435
0
LINE
8
BLACK
6
CONTINUOUS
10
169.157
20
-92.1435
11
169.157
21
-91.6935
0
LINE
8
BLACK
6
CONTINUOUS
10
169.157
20
-91.6935
11
169.857
21
-91.6935
0
LINE
8
BLACK
6
CONTINUOUS
10
169.857
20
-91.6935
11
169.857
21
-92.1435
0
LINE
8
BLACK
6
CONTINUOUS
10
171.403
20
-91.965
11
170.753
21
-91.965
0
LINE
8
BLACK
6
CONTINUOUS
10
170.753
20
-91.965
11
170.753
21
-90.915
0
LINE
8
BLACK
6
CONTINUOUS
10
170.753
20
-90.915
11
171.403
21
-90.915
0
LINE
8
BLACK
6
CONTINUOUS
10
171.403
20
-90.915
11
171.403
21
-91.965
0
LINE
8
BLACK
6
CONTINUOUS
10
173.553
20
-91.965
11
172.903
21
-91.965
0
LINE
8
BLACK
6
CONTINUOUS
10
172.903
20
-91.965
11
172.903
21
-90.915
0
LINE
8
BLACK
6
CONTINUOUS
10
172.903
20
-90.915
11
173.553
21
-90.915
0
LINE
8
BLACK
6
CONTINUOUS
10
173.553
20
-90.915
11
173.553
21
-91.965
0
LINE
8
BLACK
6
CONTINUOUS
10
175.018
20
-91.965
11
174.368
21
-91.965
0
LINE
8
BLACK
6
CONTINUOUS
10
174.368
20
-91.965
11
174.368
21
-90.915
0
LINE
8
BLACK
6
CONTINUOUS
10
174.368
20
-90.915
11
175.018
21
-90.915
0
LINE
8
BLACK
6
CONTINUOUS
10
175.018
20
-90.915
11
175.018
21
-91.965
0
LINE
8
BLACK
6
CONTINUOUS
10
177.168
20
-91.965
11
176.518
21
-91.965
0
LINE
8
BLACK
6
CONTINUOUS
10
176.518
20
-91.965
11
176.518
21
-90.915
0
LINE
8
BLACK
6
CONTINUOUS
10
176.518
20
-90.915
11
177.168
21
-90.915
0
LINE
8
BLACK
6
CONTINUOUS
10
177.168
20
-90.915
11
177.168
21
-91.965
0
LINE
8
BLACK
6
CONTINUOUS
10
179.476
20
-91.0019
11
179.52
21
-91.0275
0
LINE
8
BLACK
6
CONTINUOUS
10
179.52
20
-91.0275
11
179.553
21
-91.0667
0
LINE
8
BLACK
6
CONTINUOUS
10
179.553
20
-91.0667
11
179.573
21
-91.1405
0
LINE
8
BLACK
6
CONTINUOUS
10
179.573
20
-91.1405
11
179.573
21
-91.4855
0
LINE
8
BLACK
6
CONTINUOUS
10
179.573
20
-91.4855
11
179.564
21
-91.5359
0
LINE
8
BLACK
6
CONTINUOUS
10
179.564
20
-91.5359
11
179.538
21
-91.5803
0
LINE
8
BLACK
6
CONTINUOUS
10
179.538
20
-91.5803
11
179.499
21
-91.6132
0
LINE
8
BLACK
6
CONTINUOUS
10
179.499
20
-91.6132
11
179.425
21
-91.633
0
LINE
8
BLACK
6
CONTINUOUS
10
179.425
20
-91.633
11
179.13
21
-91.633
0
LINE
8
BLACK
6
CONTINUOUS
10
179.13
20
-91.633
11
179.08
21
-91.6241
0
LINE
8
BLACK
6
CONTINUOUS
10
179.08
20
-91.6241
11
179.036
21
-91.5985
0
LINE
8
BLACK
6
CONTINUOUS
10
179.036
20
-91.5985
11
179.003
21
-91.5592
0
LINE
8
BLACK
6
CONTINUOUS
10
179.003
20
-91.5592
11
178.983
21
-91.4855
0
LINE
8
BLACK
6
CONTINUOUS
10
178.983
20
-91.4855
11
178.983
21
-91.1405
0
LINE
8
BLACK
6
CONTINUOUS
10
178.983
20
-91.1405
11
178.992
21
-91.0901
0
LINE
8
BLACK
6
CONTINUOUS
10
178.992
20
-91.0901
11
179.018
21
-91.0457
0
LINE
8
BLACK
6
CONTINUOUS
10
179.018
20
-91.0457
11
179.057
21
-91.0128
0
LINE
8
BLACK
6
CONTINUOUS
10
179.057
20
-91.0128
11
179.13
21
-90.993
0
LINE
8
BLACK
6
CONTINUOUS
10
179.13
20
-90.993
11
179.425
21
-90.993
0
LINE
8
BLACK
6
CONTINUOUS
10
179.425
20
-90.993
11
179.476
21
-91.0019
0
LINE
8
BLACK
6
CONTINUOUS
10
178.506
20
-91.0019
11
178.55
21
-91.0275
0
LINE
8
BLACK
6
CONTINUOUS
10
178.55
20
-91.0275
11
178.583
21
-91.0667
0
LINE
8
BLACK
6
CONTINUOUS
10
178.583
20
-91.0667
11
178.603
21
-91.1405
0
LINE
8
BLACK
6
CONTINUOUS
10
178.603
20
-91.1405
11
178.603
21
-91.4855
0
LINE
8
BLACK
6
CONTINUOUS
10
178.603
20
-91.4855
11
178.594
21
-91.5359
0
LINE
8
BLACK
6
CONTINUOUS
10
178.594
20
-91.5359
11
178.568
21
-91.5803
0
LINE
8
BLACK
6
CONTINUOUS
10
178.568
20
-91.5803
11
178.529
21
-91.6132
0
LINE
8
BLACK
6
CONTINUOUS
10
178.529
20
-91.6132
11
178.456
21
-91.633
0
LINE
8
BLACK
6
CONTINUOUS
10
178.456
20
-91.633
11
178.16
21
-91.633
0
LINE
8
BLACK
6
CONTINUOUS
10
178.16
20
-91.633
11
178.11
21
-91.6241
0
LINE
8
BLACK
6
CONTINUOUS
10
178.11
20
-91.6241
11
178.066
21
-91.5985
0
LINE
8
BLACK
6
CONTINUOUS
10
178.066
20
-91.5985
11
178.033
21
-91.5592
0
LINE
8
BLACK
6
CONTINUOUS
10
178.033
20
-91.5592
11
178.013
21
-91.4855
0
LINE
8
BLACK
6
CONTINUOUS
10
178.013
20
-91.4855
11
178.013
21
-91.1405
0
LINE
8
BLACK
6
CONTINUOUS
10
178.013
20
-91.1405
11
178.022
21
-91.0901
0
LINE
8
BLACK
6
CONTINUOUS
10
178.022
20
-91.0901
11
178.048
21
-91.0457
0
LINE
8
BLACK
6
CONTINUOUS
10
178.048
20
-91.0457
11
178.087
21
-91.0128
0
LINE
8
BLACK
6
CONTINUOUS
10
178.087
20
-91.0128
11
178.16
21
-90.993
0
LINE
8
BLACK
6
CONTINUOUS
10
178.16
20
-90.993
11
178.456
21
-90.993
0
LINE
8
BLACK
6
CONTINUOUS
10
178.456
20
-90.993
11
178.506
21
-91.0019
0
LINE
8
BLACK
6
CONTINUOUS
10
180.688
20
-91.0019
11
180.732
21
-91.0275
0
LINE
8
BLACK
6
CONTINUOUS
10
180.732
20
-91.0275
11
180.765
21
-91.0667
0
LINE
8
BLACK
6
CONTINUOUS
10
180.765
20
-91.0667
11
180.785
21
-91.1405
0
LINE
8
BLACK
6
CONTINUOUS
10
180.785
20
-91.1405
11
180.785
21
-91.4855
0
LINE
8
BLACK
6
CONTINUOUS
10
180.785
20
-91.4855
11
180.776
21
-91.5359
0
LINE
8
BLACK
6
CONTINUOUS
10
180.776
20
-91.5359
11
180.75
21
-91.5803
0
LINE
8
BLACK
6
CONTINUOUS
10
180.75
20
-91.5803
11
180.711
21
-91.6132
0
LINE
8
BLACK
6
CONTINUOUS
10
180.711
20
-91.6132
11
180.637
21
-91.633
0
LINE
8
BLACK
6
CONTINUOUS
10
180.637
20
-91.633
11
180.343
21
-91.633
0
LINE
8
BLACK
6
CONTINUOUS
10
180.343
20
-91.633
11
180.292
21
-91.6241
0
LINE
8
BLACK
6
CONTINUOUS
10
180.292
20
-91.6241
11
180.248
21
-91.5985
0
LINE
8
BLACK
6
CONTINUOUS
10
180.248
20
-91.5985
11
180.215
21
-91.5592
0
LINE
8
BLACK
6
CONTINUOUS
10
180.215
20
-91.5592
11
180.195
21
-91.4855
0
LINE
8
BLACK
6
CONTINUOUS
10
180.195
20
-91.4855
11
180.195
21
-91.1405
0
LINE
8
BLACK
6
CONTINUOUS
10
180.195
20
-91.1405
11
180.204
21
-91.0901
0
LINE
8
BLACK
6
CONTINUOUS
10
180.204
20
-91.0901
11
180.23
21
-91.0457
0
LINE
8
BLACK
6
CONTINUOUS
10
180.23
20
-91.0457
11
180.269
21
-91.0128
0
LINE
8
BLACK
6
CONTINUOUS
10
180.269
20
-91.0128
11
180.343
21
-90.993
0
LINE
8
BLACK
6
CONTINUOUS
10
180.343
20
-90.993
11
180.637
21
-90.993
0
LINE
8
BLACK
6
CONTINUOUS
10
180.637
20
-90.993
11
180.688
21
-91.0019
0
LINE
8
BLACK
6
CONTINUOUS
10
181.658
20
-91.0019
11
181.702
21
-91.0275
0
LINE
8
BLACK
6
CONTINUOUS
10
181.702
20
-91.0275
11
181.735
21
-91.0667
0
LINE
8
BLACK
6
CONTINUOUS
10
181.735
20
-91.0667
11
181.755
21
-91.1405
0
LINE
8
BLACK
6
CONTINUOUS
10
181.755
20
-91.1405
11
181.755
21
-91.4855
0
LINE
8
BLACK
6
CONTINUOUS
10
181.755
20
-91.4855
11
181.746
21
-91.5359
0
LINE
8
BLACK
6
CONTINUOUS
10
181.746
20
-91.5359
11
181.72
21
-91.5803
0
LINE
8
BLACK
6
CONTINUOUS
10
181.72
20
-91.5803
11
181.681
21
-91.6132
0
LINE
8
BLACK
6
CONTINUOUS
10
181.681
20
-91.6132
11
181.607
21
-91.633
0
LINE
8
BLACK
6
CONTINUOUS
10
181.607
20
-91.633
11
181.312
21
-91.633
0
LINE
8
BLACK
6
CONTINUOUS
10
181.312
20
-91.633
11
181.262
21
-91.6241
0
LINE
8
BLACK
6
CONTINUOUS
10
181.262
20
-91.6241
11
181.218
21
-91.5985
0
LINE
8
BLACK
6
CONTINUOUS
10
181.218
20
-91.5985
11
181.185
21
-91.5592
0
LINE
8
BLACK
6
CONTINUOUS
10
181.185
20
-91.5592
11
181.165
21
-91.4855
0
LINE
8
BLACK
6
CONTINUOUS
10
181.165
20
-91.4855
11
181.165
21
-91.1405
0
LINE
8
BLACK
6
CONTINUOUS
10
181.165
20
-91.1405
11
181.174
21
-91.0901
0
LINE
8
BLACK
6
CONTINUOUS
10
181.174
20
-91.0901
11
181.2
21
-91.0457
0
LINE
8
BLACK
6
CONTINUOUS
10
181.2
20
-91.0457
11
181.239
21
-91.0128
0
LINE
8
BLACK
6
CONTINUOUS
10
181.239
20
-91.0128
11
181.312
21
-90.993
0
LINE
8
BLACK
6
CONTINUOUS
10
181.312
20
-90.993
11
181.607
21
-90.993
0
LINE
8
BLACK
6
CONTINUOUS
10
181.607
20
-90.993
11
181.658
21
-91.0019
0
LINE
8
BLACK
6
CONTINUOUS
10
167.857
20
-91.4935
11
167.157
21
-91.4935
0
LINE
8
BLACK
6
CONTINUOUS
10
167.157
20
-91.4935
11
167.157
21
-91.0435
0
LINE
8
BLACK
6
CONTINUOUS
10
167.157
20
-91.0435
11
167.857
21
-91.0435
0
LINE
8
BLACK
6
CONTINUOUS
10
167.857
20
-91.0435
11
167.857
21
-91.4935
0
LINE
8
BLACK
6
CONTINUOUS
10
162.082
20
-91.34
11
160.582
21
-91.34
0
LINE
8
BLACK
6
CONTINUOUS
10
160.582
20
-91.34
11
160.582
21
-90.44
0
LINE
8
BLACK
6
CONTINUOUS
10
160.582
20
-90.44
11
162.082
21
-90.44
0
LINE
8
BLACK
6
CONTINUOUS
10
162.082
20
-90.44
11
162.082
21
-91.34
0
LINE
8
BLACK
6
CONTINUOUS
10
165.899
20
-90.3669
11
165.943
21
-90.3925
0
LINE
8
BLACK
6
CONTINUOUS
10
165.943
20
-90.3925
11
165.976
21
-90.4317
0
LINE
8
BLACK
6
CONTINUOUS
10
165.976
20
-90.4317
11
165.996
21
-90.5055
0
LINE
8
BLACK
6
CONTINUOUS
10
165.996
20
-90.5055
11
165.996
21
-90.8505
0
LINE
8
BLACK
6
CONTINUOUS
10
165.996
20
-90.8505
11
165.987
21
-90.9009
0
LINE
8
BLACK
6
CONTINUOUS
10
165.987
20
-90.9009
11
165.961
21
-90.9453
0
LINE
8
BLACK
6
CONTINUOUS
10
165.961
20
-90.9453
11
165.922
21
-90.9782
0
LINE
8
BLACK
6
CONTINUOUS
10
165.922
20
-90.9782
11
165.849
21
-90.998
0
LINE
8
BLACK
6
CONTINUOUS
10
165.849
20
-90.998
11
165.553
21
-90.998
0
LINE
8
BLACK
6
CONTINUOUS
10
165.553
20
-90.998
11
165.503
21
-90.9891
0
LINE
8
BLACK
6
CONTINUOUS
10
165.503
20
-90.9891
11
165.459
21
-90.9635
0
LINE
8
BLACK
6
CONTINUOUS
10
165.459
20
-90.9635
11
165.426
21
-90.9243
0
LINE
8
BLACK
6
CONTINUOUS
10
165.426
20
-90.9243
11
165.406
21
-90.8505
0
LINE
8
BLACK
6
CONTINUOUS
10
165.406
20
-90.8505
11
165.406
21
-90.5055
0
LINE
8
BLACK
6
CONTINUOUS
10
165.406
20
-90.5055
11
165.415
21
-90.4551
0
LINE
8
BLACK
6
CONTINUOUS
10
165.415
20
-90.4551
11
165.441
21
-90.4107
0
LINE
8
BLACK
6
CONTINUOUS
10
165.441
20
-90.4107
11
165.48
21
-90.3778
0
LINE
8
BLACK
6
CONTINUOUS
10
165.48
20
-90.3778
11
165.553
21
-90.358
0
LINE
8
BLACK
6
CONTINUOUS
10
165.553
20
-90.358
11
165.849
21
-90.358
0
LINE
8
BLACK
6
CONTINUOUS
10
165.849
20
-90.358
11
165.899
21
-90.3669
0
LINE
8
BLACK
6
CONTINUOUS
10
164.929
20
-90.3669
11
164.973
21
-90.3925
0
LINE
8
BLACK
6
CONTINUOUS
10
164.973
20
-90.3925
11
165.006
21
-90.4317
0
LINE
8
BLACK
6
CONTINUOUS
10
165.006
20
-90.4317
11
165.026
21
-90.5055
0
LINE
8
BLACK
6
CONTINUOUS
10
165.026
20
-90.5055
11
165.026
21
-90.8505
0
LINE
8
BLACK
6
CONTINUOUS
10
165.026
20
-90.8505
11
165.017
21
-90.9009
0
LINE
8
BLACK
6
CONTINUOUS
10
165.017
20
-90.9009
11
164.991
21
-90.9453
0
LINE
8
BLACK
6
CONTINUOUS
10
164.991
20
-90.9453
11
164.952
21
-90.9782
0
LINE
8
BLACK
6
CONTINUOUS
10
164.952
20
-90.9782
11
164.879
21
-90.998
0
LINE
8
BLACK
6
CONTINUOUS
10
164.879
20
-90.998
11
164.583
21
-90.998
0
LINE
8
BLACK
6
CONTINUOUS
10
164.583
20
-90.998
11
164.533
21
-90.9891
0
LINE
8
BLACK
6
CONTINUOUS
10
164.533
20
-90.9891
11
164.489
21
-90.9635
0
LINE
8
BLACK
6
CONTINUOUS
10
164.489
20
-90.9635
11
164.456
21
-90.9243
0
LINE
8
BLACK
6
CONTINUOUS
10
164.456
20
-90.9243
11
164.436
21
-90.8505
0
LINE
8
BLACK
6
CONTINUOUS
10
164.436
20
-90.8505
11
164.436
21
-90.5055
0
LINE
8
BLACK
6
CONTINUOUS
10
164.436
20
-90.5055
11
164.445
21
-90.4551
0
LINE
8
BLACK
6
CONTINUOUS
10
164.445
20
-90.4551
11
164.471
21
-90.4107
0
LINE
8
BLACK
6
CONTINUOUS
10
164.471
20
-90.4107
11
164.51
21
-90.3778
0
LINE
8
BLACK
6
CONTINUOUS
10
164.51
20
-90.3778
11
164.583
21
-90.358
0
LINE
8
BLACK
6
CONTINUOUS
10
164.583
20
-90.358
11
164.879
21
-90.358
0
LINE
8
BLACK
6
CONTINUOUS
10
164.879
20
-90.358
11
164.929
21
-90.3669
0
LINE
8
BLACK
6
CONTINUOUS
10
162.082
20
-90.07
11
160.582
21
-90.07
0
LINE
8
BLACK
6
CONTINUOUS
10
160.582
20
-90.07
11
160.582
21
-89.17
0
LINE
8
BLACK
6
CONTINUOUS
10
160.582
20
-89.17
11
162.082
21
-89.17
0
LINE
8
BLACK
6
CONTINUOUS
10
162.082
20
-89.17
11
162.082
21
-90.07
0
LINE
8
BLACK
6
CONTINUOUS
10
168.313
20
-88.9298
11
168.332
21
-88.9406
0
LINE
8
BLACK
6
CONTINUOUS
10
168.332
20
-88.9406
11
168.346
21
-88.9573
0
LINE
8
BLACK
6
CONTINUOUS
10
168.346
20
-88.9573
11
168.354
21
-88.9885
0
LINE
8
BLACK
6
CONTINUOUS
10
168.354
20
-88.9885
11
168.354
21
-89.6885
0
LINE
8
BLACK
6
CONTINUOUS
10
168.354
20
-89.6885
11
168.35
21
-89.7099
0
LINE
8
BLACK
6
CONTINUOUS
10
168.35
20
-89.7099
11
168.339
21
-89.7287
0
LINE
8
BLACK
6
CONTINUOUS
10
168.339
20
-89.7287
11
168.323
21
-89.7426
0
LINE
8
BLACK
6
CONTINUOUS
10
168.323
20
-89.7426
11
168.291
21
-89.751
0
LINE
8
BLACK
6
CONTINUOUS
10
168.291
20
-89.751
11
168.166
21
-89.751
0
LINE
8
BLACK
6
CONTINUOUS
10
168.166
20
-89.751
11
168.145
21
-89.7472
0
LINE
8
BLACK
6
CONTINUOUS
10
168.145
20
-89.7472
11
168.126
21
-89.7364
0
LINE
8
BLACK
6
CONTINUOUS
10
168.126
20
-89.7364
11
168.112
21
-89.7197
0
LINE
8
BLACK
6
CONTINUOUS
10
168.112
20
-89.7197
11
168.104
21
-89.6885
0
LINE
8
BLACK
6
CONTINUOUS
10
168.104
20
-89.6885
11
168.104
21
-88.9885
0
LINE
8
BLACK
6
CONTINUOUS
10
168.104
20
-88.9885
11
168.108
21
-88.9671
0
LINE
8
BLACK
6
CONTINUOUS
10
168.108
20
-88.9671
11
168.119
21
-88.9483
0
LINE
8
BLACK
6
CONTINUOUS
10
168.119
20
-88.9483
11
168.135
21
-88.9344
0
LINE
8
BLACK
6
CONTINUOUS
10
168.135
20
-88.9344
11
168.166
21
-88.926
0
LINE
8
BLACK
6
CONTINUOUS
10
168.166
20
-88.926
11
168.291
21
-88.926
0
LINE
8
BLACK
6
CONTINUOUS
10
168.291
20
-88.926
11
168.313
21
-88.9298
0
LINE
8
BLACK
6
CONTINUOUS
10
168.813
20
-88.9298
11
168.832
21
-88.9406
0
LINE
8
BLACK
6
CONTINUOUS
10
168.832
20
-88.9406
11
168.846
21
-88.9573
0
LINE
8
BLACK
6
CONTINUOUS
10
168.846
20
-88.9573
11
168.854
21
-88.9885
0
LINE
8
BLACK
6
CONTINUOUS
10
168.854
20
-88.9885
11
168.854
21
-89.6885
0
LINE
8
BLACK
6
CONTINUOUS
10
168.854
20
-89.6885
11
168.85
21
-89.7099
0
LINE
8
BLACK
6
CONTINUOUS
10
168.85
20
-89.7099
11
168.839
21
-89.7287
0
LINE
8
BLACK
6
CONTINUOUS
10
168.839
20
-89.7287
11
168.823
21
-89.7426
0
LINE
8
BLACK
6
CONTINUOUS
10
168.823
20
-89.7426
11
168.791
21
-89.751
0
LINE
8
BLACK
6
CONTINUOUS
10
168.791
20
-89.751
11
168.666
21
-89.751
0
LINE
8
BLACK
6
CONTINUOUS
10
168.666
20
-89.751
11
168.645
21
-89.7472
0
LINE
8
BLACK
6
CONTINUOUS
10
168.645
20
-89.7472
11
168.626
21
-89.7364
0
LINE
8
BLACK
6
CONTINUOUS
10
168.626
20
-89.7364
11
168.612
21
-89.7197
0
LINE
8
BLACK
6
CONTINUOUS
10
168.612
20
-89.7197
11
168.604
21
-89.6885
0
LINE
8
BLACK
6
CONTINUOUS
10
168.604
20
-89.6885
11
168.604
21
-88.9885
0
LINE
8
BLACK
6
CONTINUOUS
10
168.604
20
-88.9885
11
168.608
21
-88.9671
0
LINE
8
BLACK
6
CONTINUOUS
10
168.608
20
-88.9671
11
168.619
21
-88.9483
0
LINE
8
BLACK
6
CONTINUOUS
10
168.619
20
-88.9483
11
168.635
21
-88.9344
0
LINE
8
BLACK
6
CONTINUOUS
10
168.635
20
-88.9344
11
168.666
21
-88.926
0
LINE
8
BLACK
6
CONTINUOUS
10
168.666
20
-88.926
11
168.791
21
-88.926
0
LINE
8
BLACK
6
CONTINUOUS
10
168.791
20
-88.926
11
168.813
21
-88.9298
0
LINE
8
BLACK
6
CONTINUOUS
10
169.313
20
-88.9298
11
169.332
21
-88.9406
0
LINE
8
BLACK
6
CONTINUOUS
10
169.332
20
-88.9406
11
169.346
21
-88.9573
0
LINE
8
BLACK
6
CONTINUOUS
10
169.346
20
-88.9573
11
169.354
21
-88.9885
0
LINE
8
BLACK
6
CONTINUOUS
10
169.354
20
-88.9885
11
169.354
21
-89.6885
0
LINE
8
BLACK
6
CONTINUOUS
10
169.354
20
-89.6885
11
169.35
21
-89.7099
0
LINE
8
BLACK
6
CONTINUOUS
10
169.35
20
-89.7099
11
169.339
21
-89.7287
0
LINE
8
BLACK
6
CONTINUOUS
10
169.339
20
-89.7287
11
169.323
21
-89.7426
0
LINE
8
BLACK
6
CONTINUOUS
10
169.323
20
-89.7426
11
169.291
21
-89.751
0
LINE
8
BLACK
6
CONTINUOUS
10
169.291
20
-89.751
11
169.166
21
-89.751
0
LINE
8
BLACK
6
CONTINUOUS
10
169.166
20
-89.751
11
169.145
21
-89.7472
0
LINE
8
BLACK
6
CONTINUOUS
10
169.145
20
-89.7472
11
169.126
21
-89.7364
0
LINE
8
BLACK
6
CONTINUOUS
10
169.126
20
-89.7364
11
169.112
21
-89.7197
0
LINE
8
BLACK
6
CONTINUOUS
10
169.112
20
-89.7197
11
169.104
21
-89.6885
0
LINE
8
BLACK
6
CONTINUOUS
10
169.104
20
-89.6885
11
169.104
21
-88.9885
0
LINE
8
BLACK
6
CONTINUOUS
10
169.104
20
-88.9885
11
169.108
21
-88.9671
0
LINE
8
BLACK
6
CONTINUOUS
10
169.108
20
-88.9671
11
169.119
21
-88.9483
0
LINE
8
BLACK
6
CONTINUOUS
10
169.119
20
-88.9483
11
169.135
21
-88.9344
0
LINE
8
BLACK
6
CONTINUOUS
10
169.135
20
-88.9344
11
169.166
21
-88.926
0
LINE
8
BLACK
6
CONTINUOUS
10
169.166
20
-88.926
11
169.291
21
-88.926
0
LINE
8
BLACK
6
CONTINUOUS
10
169.291
20
-88.926
11
169.313
21
-88.9298
0
LINE
8
BLACK
6
CONTINUOUS
10
170.813
20
-88.9298
11
170.832
21
-88.9406
0
LINE
8
BLACK
6
CONTINUOUS
10
170.832
20
-88.9406
11
170.846
21
-88.9573
0
LINE
8
BLACK
6
CONTINUOUS
10
170.846
20
-88.9573
11
170.854
21
-88.9885
0
LINE
8
BLACK
6
CONTINUOUS
10
170.854
20
-88.9885
11
170.854
21
-89.6885
0
LINE
8
BLACK
6
CONTINUOUS
10
170.854
20
-89.6885
11
170.85
21
-89.7099
0
LINE
8
BLACK
6
CONTINUOUS
10
170.85
20
-89.7099
11
170.839
21
-89.7287
0
LINE
8
BLACK
6
CONTINUOUS
10
170.839
20
-89.7287
11
170.823
21
-89.7426
0
LINE
8
BLACK
6
CONTINUOUS
10
170.823
20
-89.7426
11
170.791
21
-89.751
0
LINE
8
BLACK
6
CONTINUOUS
10
170.791
20
-89.751
11
170.666
21
-89.751
0
LINE
8
BLACK
6
CONTINUOUS
10
170.666
20
-89.751
11
170.645
21
-89.7472
0
LINE
8
BLACK
6
CONTINUOUS
10
170.645
20
-89.7472
11
170.626
21
-89.7364
0
LINE
8
BLACK
6
CONTINUOUS
10
170.626
20
-89.7364
11
170.612
21
-89.7197
0
LINE
8
BLACK
6
CONTINUOUS
10
170.612
20
-89.7197
11
170.604
21
-89.6885
0
LINE
8
BLACK
6
CONTINUOUS
10
170.604
20
-89.6885
11
170.604
21
-88.9885
0
LINE
8
BLACK
6
CONTINUOUS
10
170.604
20
-88.9885
11
170.608
21
-88.9671
0
LINE
8
BLACK
6
CONTINUOUS
10
170.608
20
-88.9671
11
170.619
21
-88.9483
0
LINE
8
BLACK
6
CONTINUOUS
10
170.619
20
-88.9483
11
170.635
21
-88.9344
0
LINE
8
BLACK
6
CONTINUOUS
10
170.635
20
-88.9344
11
170.666
21
-88.926
0
LINE
8
BLACK
6
CONTINUOUS
10
170.666
20
-88.926
11
170.791
21
-88.926
0
LINE
8
BLACK
6
CONTINUOUS
10
170.791
20
-88.926
11
170.813
21
-88.9298
0
LINE
8
BLACK
6
CONTINUOUS
10
170.313
20
-88.9298
11
170.332
21
-88.9406
0
LINE
8
BLACK
6
CONTINUOUS
10
170.332
20
-88.9406
11
170.346
21
-88.9573
0
LINE
8
BLACK
6
CONTINUOUS
10
170.346
20
-88.9573
11
170.354
21
-88.9885
0
LINE
8
BLACK
6
CONTINUOUS
10
170.354
20
-88.9885
11
170.354
21
-89.6885
0
LINE
8
BLACK
6
CONTINUOUS
10
170.354
20
-89.6885
11
170.35
21
-89.7099
0
LINE
8
BLACK
6
CONTINUOUS
10
170.35
20
-89.7099
11
170.339
21
-89.7287
0
LINE
8
BLACK
6
CONTINUOUS
10
170.339
20
-89.7287
11
170.323
21
-89.7426
0
LINE
8
BLACK
6
CONTINUOUS
10
170.323
20
-89.7426
11
170.291
21
-89.751
0
LINE
8
BLACK
6
CONTINUOUS
10
170.291
20
-89.751
11
170.166
21
-89.751
0
LINE
8
BLACK
6
CONTINUOUS
10
170.166
20
-89.751
11
170.145
21
-89.7472
0
LINE
8
BLACK
6
CONTINUOUS
10
170.145
20
-89.7472
11
170.126
21
-89.7364
0
LINE
8
BLACK
6
CONTINUOUS
10
170.126
20
-89.7364
11
170.112
21
-89.7197
0
LINE
8
BLACK
6
CONTINUOUS
10
170.112
20
-89.7197
11
170.104
21
-89.6885
0
LINE
8
BLACK
6
CONTINUOUS
10
170.104
20
-89.6885
11
170.104
21
-88.9885
0
LINE
8
BLACK
6
CONTINUOUS
10
170.104
20
-88.9885
11
170.108
21
-88.9671
0
LINE
8
BLACK
6
CONTINUOUS
10
170.108
20
-88.9671
11
170.119
21
-88.9483
0
LINE
8
BLACK
6
CONTINUOUS
10
170.119
20
-88.9483
11
170.135
21
-88.9344
0
LINE
8
BLACK
6
CONTINUOUS
10
170.135
20
-88.9344
11
170.166
21
-88.926
0
LINE
8
BLACK
6
CONTINUOUS
10
170.166
20
-88.926
11
170.291
21
-88.926
0
LINE
8
BLACK
6
CONTINUOUS
10
170.291
20
-88.926
11
170.313
21
-88.9298
0
LINE
8
BLACK
6
CONTINUOUS
10
169.813
20
-88.9298
11
169.832
21
-88.9406
0
LINE
8
BLACK
6
CONTINUOUS
10
169.832
20
-88.9406
11
169.846
21
-88.9573
0
LINE
8
BLACK
6
CONTINUOUS
10
169.846
20
-88.9573
11
169.854
21
-88.9885
0
LINE
8
BLACK
6
CONTINUOUS
10
169.854
20
-88.9885
11
169.854
21
-89.6885
0
LINE
8
BLACK
6
CONTINUOUS
10
169.854
20
-89.6885
11
169.85
21
-89.7099
0
LINE
8
BLACK
6
CONTINUOUS
10
169.85
20
-89.7099
11
169.839
21
-89.7287
0
LINE
8
BLACK
6
CONTINUOUS
10
169.839
20
-89.7287
11
169.823
21
-89.7426
0
LINE
8
BLACK
6
CONTINUOUS
10
169.823
20
-89.7426
11
169.791
21
-89.751
0
LINE
8
BLACK
6
CONTINUOUS
10
169.791
20
-89.751
11
169.666
21
-89.751
0
LINE
8
BLACK
6
CONTINUOUS
10
169.666
20
-89.751
11
169.645
21
-89.7472
0
LINE
8
BLACK
6
CONTINUOUS
10
169.645
20
-89.7472
11
169.626
21
-89.7364
0
LINE
8
BLACK
6
CONTINUOUS
10
169.626
20
-89.7364
11
169.612
21
-89.7197
0
LINE
8
BLACK
6
CONTINUOUS
10
169.612
20
-89.7197
11
169.604
21
-89.6885
0
LINE
8
BLACK
6
CONTINUOUS
10
169.604
20
-89.6885
11
169.604
21
-88.9885
0
LINE
8
BLACK
6
CONTINUOUS
10
169.604
20
-88.9885
11
169.608
21
-88.9671
0
LINE
8
BLACK
6
CONTINUOUS
10
169.608
20
-88.9671
11
169.619
21
-88.9483
0
LINE
8
BLACK
6
CONTINUOUS
10
169.619
20
-88.9483
11
169.635
21
-88.9344
0
LINE
8
BLACK
6
CONTINUOUS
10
169.635
20
-88.9344
11
169.666
21
-88.926
0
LINE
8
BLACK
6
CONTINUOUS
10
169.666
20
-88.926
11
169.791
21
-88.926
0
LINE
8
BLACK
6
CONTINUOUS
10
169.791
20
-88.926
11
169.813
21
-88.9298
0
LINE
8
BLACK
6
CONTINUOUS
10
164.929
20
-89.0969
11
164.973
21
-89.1225
0
LINE
8
BLACK
6
CONTINUOUS
10
164.973
20
-89.1225
11
165.006
21
-89.1617
0
LINE
8
BLACK
6
CONTINUOUS
10
165.006
20
-89.1617
11
165.026
21
-89.2355
0
LINE
8
BLACK
6
CONTINUOUS
10
165.026
20
-89.2355
11
165.026
21
-89.5805
0
LINE
8
BLACK
6
CONTINUOUS
10
165.026
20
-89.5805
11
165.017
21
-89.6309
0
LINE
8
BLACK
6
CONTINUOUS
10
165.017
20
-89.6309
11
164.991
21
-89.6753
0
LINE
8
BLACK
6
CONTINUOUS
10
164.991
20
-89.6753
11
164.952
21
-89.7082
0
LINE
8
BLACK
6
CONTINUOUS
10
164.952
20
-89.7082
11
164.879
21
-89.728
0
LINE
8
BLACK
6
CONTINUOUS
10
164.879
20
-89.728
11
164.583
21
-89.728
0
LINE
8
BLACK
6
CONTINUOUS
10
164.583
20
-89.728
11
164.533
21
-89.7191
0
LINE
8
BLACK
6
CONTINUOUS
10
164.533
20
-89.7191
11
164.489
21
-89.6935
0
LINE
8
BLACK
6
CONTINUOUS
10
164.489
20
-89.6935
11
164.456
21
-89.6542
0
LINE
8
BLACK
6
CONTINUOUS
10
164.456
20
-89.6542
11
164.436
21
-89.5805
0
LINE
8
BLACK
6
CONTINUOUS
10
164.436
20
-89.5805
11
164.436
21
-89.2355
0
LINE
8
BLACK
6
CONTINUOUS
10
164.436
20
-89.2355
11
164.445
21
-89.1851
0
LINE
8
BLACK
6
CONTINUOUS
10
164.445
20
-89.1851
11
164.471
21
-89.1407
0
LINE
8
BLACK
6
CONTINUOUS
10
164.471
20
-89.1407
11
164.51
21
-89.1078
0
LINE
8
BLACK
6
CONTINUOUS
10
164.51
20
-89.1078
11
164.583
21
-89.088
0
LINE
8
BLACK
6
CONTINUOUS
10
164.583
20
-89.088
11
164.879
21
-89.088
0
LINE
8
BLACK
6
CONTINUOUS
10
164.879
20
-89.088
11
164.929
21
-89.0969
0
LINE
8
BLACK
6
CONTINUOUS
10
165.899
20
-89.0969
11
165.943
21
-89.1225
0
LINE
8
BLACK
6
CONTINUOUS
10
165.943
20
-89.1225
11
165.976
21
-89.1617
0
LINE
8
BLACK
6
CONTINUOUS
10
165.976
20
-89.1617
11
165.996
21
-89.2355
0
LINE
8
BLACK
6
CONTINUOUS
10
165.996
20
-89.2355
11
165.996
21
-89.5805
0
LINE
8
BLACK
6
CONTINUOUS
10
165.996
20
-89.5805
11
165.987
21
-89.6309
0
LINE
8
BLACK
6
CONTINUOUS
10
165.987
20
-89.6309
11
165.961
21
-89.6753
0
LINE
8
BLACK
6
CONTINUOUS
10
165.961
20
-89.6753
11
165.922
21
-89.7082
0
LINE
8
BLACK
6
CONTINUOUS
10
165.922
20
-89.7082
11
165.849
21
-89.728
0
LINE
8
BLACK
6
CONTINUOUS
10
165.849
20
-89.728
11
165.553
21
-89.728
0
LINE
8
BLACK
6
CONTINUOUS
10
165.553
20
-89.728
11
165.503
21
-89.7191
0
LINE
8
BLACK
6
CONTINUOUS
10
165.503
20
-89.7191
11
165.459
21
-89.6935
0
LINE
8
BLACK
6
CONTINUOUS
10
165.459
20
-89.6935
11
165.426
21
-89.6542
0
LINE
8
BLACK
6
CONTINUOUS
10
165.426
20
-89.6542
11
165.406
21
-89.5805
0
LINE
8
BLACK
6
CONTINUOUS
10
165.406
20
-89.5805
11
165.406
21
-89.2355
0
LINE
8
BLACK
6
CONTINUOUS
10
165.406
20
-89.2355
11
165.415
21
-89.1851
0
LINE
8
BLACK
6
CONTINUOUS
10
165.415
20
-89.1851
11
165.441
21
-89.1407
0
LINE
8
BLACK
6
CONTINUOUS
10
165.441
20
-89.1407
11
165.48
21
-89.1078
0
LINE
8
BLACK
6
CONTINUOUS
10
165.48
20
-89.1078
11
165.553
21
-89.088
0
LINE
8
BLACK
6
CONTINUOUS
10
165.553
20
-89.088
11
165.849
21
-89.088
0
LINE
8
BLACK
6
CONTINUOUS
10
165.849
20
-89.088
11
165.899
21
-89.0969
0
LINE
8
BLACK
6
CONTINUOUS
10
175.065
20
-88.8429
11
175.11
21
-88.8685
0
LINE
8
BLACK
6
CONTINUOUS
10
175.11
20
-88.8685
11
175.143
21
-88.9077
0
LINE
8
BLACK
6
CONTINUOUS
10
175.143
20
-88.9077
11
175.162
21
-88.9815
0
LINE
8
BLACK
6
CONTINUOUS
10
175.162
20
-88.9815
11
175.162
21
-89.3265
0
LINE
8
BLACK
6
CONTINUOUS
10
175.162
20
-89.3265
11
175.154
21
-89.3769
0
LINE
8
BLACK
6
CONTINUOUS
10
175.154
20
-89.3769
11
175.128
21
-89.4213
0
LINE
8
BLACK
6
CONTINUOUS
10
175.128
20
-89.4213
11
175.089
21
-89.4542
0
LINE
8
BLACK
6
CONTINUOUS
10
175.089
20
-89.4542
11
175.015
21
-89.474
0
LINE
8
BLACK
6
CONTINUOUS
10
175.015
20
-89.474
11
174.72
21
-89.474
0
LINE
8
BLACK
6
CONTINUOUS
10
174.72
20
-89.474
11
174.67
21
-89.4651
0
LINE
8
BLACK
6
CONTINUOUS
10
174.67
20
-89.4651
11
174.625
21
-89.4395
0
LINE
8
BLACK
6
CONTINUOUS
10
174.625
20
-89.4395
11
174.592
21
-89.4002
0
LINE
8
BLACK
6
CONTINUOUS
10
174.592
20
-89.4002
11
174.572
21
-89.3265
0
LINE
8
BLACK
6
CONTINUOUS
10
174.572
20
-89.3265
11
174.572
21
-88.9815
0
LINE
8
BLACK
6
CONTINUOUS
10
174.572
20
-88.9815
11
174.581
21
-88.9311
0
LINE
8
BLACK
6
CONTINUOUS
10
174.581
20
-88.9311
11
174.607
21
-88.8867
0
LINE
8
BLACK
6
CONTINUOUS
10
174.607
20
-88.8867
11
174.646
21
-88.8538
0
LINE
8
BLACK
6
CONTINUOUS
10
174.646
20
-88.8538
11
174.72
21
-88.834
0
LINE
8
BLACK
6
CONTINUOUS
10
174.72
20
-88.834
11
175.015
21
-88.834
0
LINE
8
BLACK
6
CONTINUOUS
10
175.015
20
-88.834
11
175.065
21
-88.8429
0
LINE
8
BLACK
6
CONTINUOUS
10
174.095
20
-88.8429
11
174.14
21
-88.8685
0
LINE
8
BLACK
6
CONTINUOUS
10
174.14
20
-88.8685
11
174.173
21
-88.9077
0
LINE
8
BLACK
6
CONTINUOUS
10
174.173
20
-88.9077
11
174.192
21
-88.9815
0
LINE
8
BLACK
6
CONTINUOUS
10
174.192
20
-88.9815
11
174.192
21
-89.3265
0
LINE
8
BLACK
6
CONTINUOUS
10
174.192
20
-89.3265
11
174.184
21
-89.3769
0
LINE
8
BLACK
6
CONTINUOUS
10
174.184
20
-89.3769
11
174.158
21
-89.4213
0
LINE
8
BLACK
6
CONTINUOUS
10
174.158
20
-89.4213
11
174.119
21
-89.4542
0
LINE
8
BLACK
6
CONTINUOUS
10
174.119
20
-89.4542
11
174.045
21
-89.474
0
LINE
8
BLACK
6
CONTINUOUS
10
174.045
20
-89.474
11
173.75
21
-89.474
0
LINE
8
BLACK
6
CONTINUOUS
10
173.75
20
-89.474
11
173.7
21
-89.4651
0
LINE
8
BLACK
6
CONTINUOUS
10
173.7
20
-89.4651
11
173.655
21
-89.4395
0
LINE
8
BLACK
6
CONTINUOUS
10
173.655
20
-89.4395
11
173.622
21
-89.4002
0
LINE
8
BLACK
6
CONTINUOUS
10
173.622
20
-89.4002
11
173.602
21
-89.3265
0
LINE
8
BLACK
6
CONTINUOUS
10
173.602
20
-89.3265
11
173.602
21
-88.9815
0
LINE
8
BLACK
6
CONTINUOUS
10
173.602
20
-88.9815
11
173.611
21
-88.9311
0
LINE
8
BLACK
6
CONTINUOUS
10
173.611
20
-88.9311
11
173.637
21
-88.8867
0
LINE
8
BLACK
6
CONTINUOUS
10
173.637
20
-88.8867
11
173.676
21
-88.8538
0
LINE
8
BLACK
6
CONTINUOUS
10
173.676
20
-88.8538
11
173.75
21
-88.834
0
LINE
8
BLACK
6
CONTINUOUS
10
173.75
20
-88.834
11
174.045
21
-88.834
0
LINE
8
BLACK
6
CONTINUOUS
10
174.045
20
-88.834
11
174.095
21
-88.8429
0
LINE
8
BLACK
6
CONTINUOUS
10
162.082
20
-88.8
11
160.582
21
-88.8
0
LINE
8
BLACK
6
CONTINUOUS
10
160.582
20
-88.8
11
160.582
21
-87.9
0
LINE
8
BLACK
6
CONTINUOUS
10
160.582
20
-87.9
11
162.082
21
-87.9
0
LINE
8
BLACK
6
CONTINUOUS
10
162.082
20
-87.9
11
162.082
21
-88.8
0
LINE
8
BLACK
6
CONTINUOUS
10
167.888
20
-88.5048
11
167.907
21
-88.5156
0
LINE
8
BLACK
6
CONTINUOUS
10
167.907
20
-88.5156
11
167.921
21
-88.5322
0
LINE
8
BLACK
6
CONTINUOUS
10
167.921
20
-88.5322
11
167.929
21
-88.5635
0
LINE
8
BLACK
6
CONTINUOUS
10
167.929
20
-88.5635
11
167.929
21
-88.6885
0
LINE
8
BLACK
6
CONTINUOUS
10
167.929
20
-88.6885
11
167.925
21
-88.7099
0
LINE
8
BLACK
6
CONTINUOUS
10
167.925
20
-88.7099
11
167.914
21
-88.7287
0
LINE
8
BLACK
6
CONTINUOUS
10
167.914
20
-88.7287
11
167.898
21
-88.7426
0
LINE
8
BLACK
6
CONTINUOUS
10
167.898
20
-88.7426
11
167.867
21
-88.751
0
LINE
8
BLACK
6
CONTINUOUS
10
167.867
20
-88.751
11
167.166
21
-88.751
0
LINE
8
BLACK
6
CONTINUOUS
10
167.166
20
-88.751
11
167.145
21
-88.7472
0
LINE
8
BLACK
6
CONTINUOUS
10
167.145
20
-88.7472
11
167.126
21
-88.7364
0
LINE
8
BLACK
6
CONTINUOUS
10
167.126
20
-88.7364
11
167.112
21
-88.7197
0
LINE
8
BLACK
6
CONTINUOUS
10
167.112
20
-88.7197
11
167.104
21
-88.6885
0
LINE
8
BLACK
6
CONTINUOUS
10
167.104
20
-88.6885
11
167.104
21
-88.5635
0
LINE
8
BLACK
6
CONTINUOUS
10
167.104
20
-88.5635
11
167.108
21
-88.5421
0
LINE
8
BLACK
6
CONTINUOUS
10
167.108
20
-88.5421
11
167.119
21
-88.5233
0
LINE
8
BLACK
6
CONTINUOUS
10
167.119
20
-88.5233
11
167.135
21
-88.5094
0
LINE
8
BLACK
6
CONTINUOUS
10
167.135
20
-88.5094
11
167.166
21
-88.501
0
LINE
8
BLACK
6
CONTINUOUS
10
167.166
20
-88.501
11
167.867
21
-88.501
0
LINE
8
BLACK
6
CONTINUOUS
10
167.867
20
-88.501
11
167.888
21
-88.5048
0
LINE
8
BLACK
6
CONTINUOUS
10
171.813
20
-88.5048
11
171.832
21
-88.5156
0
LINE
8
BLACK
6
CONTINUOUS
10
171.832
20
-88.5156
11
171.846
21
-88.5322
0
LINE
8
BLACK
6
CONTINUOUS
10
171.846
20
-88.5322
11
171.854
21
-88.5635
0
LINE
8
BLACK
6
CONTINUOUS
10
171.854
20
-88.5635
11
171.854
21
-88.6885
0
LINE
8
BLACK
6
CONTINUOUS
10
171.854
20
-88.6885
11
171.85
21
-88.7099
0
LINE
8
BLACK
6
CONTINUOUS
10
171.85
20
-88.7099
11
171.839
21
-88.7287
0
LINE
8
BLACK
6
CONTINUOUS
10
171.839
20
-88.7287
11
171.823
21
-88.7426
0
LINE
8
BLACK
6
CONTINUOUS
10
171.823
20
-88.7426
11
171.791
21
-88.751
0
LINE
8
BLACK
6
CONTINUOUS
10
171.791
20
-88.751
11
171.091
21
-88.751
0
LINE
8
BLACK
6
CONTINUOUS
10
171.091
20
-88.751
11
171.07
21
-88.7472
0
LINE
8
BLACK
6
CONTINUOUS
10
171.07
20
-88.7472
11
171.051
21
-88.7364
0
LINE
8
BLACK
6
CONTINUOUS
10
171.051
20
-88.7364
11
171.037
21
-88.7197
0
LINE
8
BLACK
6
CONTINUOUS
10
171.037
20
-88.7197
11
171.029
21
-88.6885
0
LINE
8
BLACK
6
CONTINUOUS
10
171.029
20
-88.6885
11
171.029
21
-88.5635
0
LINE
8
BLACK
6
CONTINUOUS
10
171.029
20
-88.5635
11
171.033
21
-88.5421
0
LINE
8
BLACK
6
CONTINUOUS
10
171.033
20
-88.5421
11
171.044
21
-88.5233
0
LINE
8
BLACK
6
CONTINUOUS
10
171.044
20
-88.5233
11
171.06
21
-88.5094
0
LINE
8
BLACK
6
CONTINUOUS
10
171.06
20
-88.5094
11
171.091
21
-88.501
0
LINE
8
BLACK
6
CONTINUOUS
10
171.091
20
-88.501
11
171.791
21
-88.501
0
LINE
8
BLACK
6
CONTINUOUS
10
171.791
20
-88.501
11
171.813
21
-88.5048
0
LINE
8
BLACK
6
CONTINUOUS
10
170.575
20
-87.4811
11
170.65
21
-87.5245
0
LINE
8
BLACK
6
CONTINUOUS
10
170.65
20
-87.5245
11
170.706
21
-87.591
0
LINE
8
BLACK
6
CONTINUOUS
10
170.706
20
-87.591
11
170.739
21
-87.716
0
LINE
8
BLACK
6
CONTINUOUS
10
170.739
20
-87.716
11
170.739
21
-88.386
0
LINE
8
BLACK
6
CONTINUOUS
10
170.739
20
-88.386
11
170.724
21
-88.4715
0
LINE
8
BLACK
6
CONTINUOUS
10
170.724
20
-88.4715
11
170.681
21
-88.5467
0
LINE
8
BLACK
6
CONTINUOUS
10
170.681
20
-88.5467
11
170.614
21
-88.6025
0
LINE
8
BLACK
6
CONTINUOUS
10
170.614
20
-88.6025
11
170.489
21
-88.636
0
LINE
8
BLACK
6
CONTINUOUS
10
170.489
20
-88.636
11
169.819
21
-88.636
0
LINE
8
BLACK
6
CONTINUOUS
10
169.819
20
-88.636
11
169.733
21
-88.6209
0
LINE
8
BLACK
6
CONTINUOUS
10
169.733
20
-88.6209
11
169.658
21
-88.5775
0
LINE
8
BLACK
6
CONTINUOUS
10
169.658
20
-88.5775
11
169.602
21
-88.511
0
LINE
8
BLACK
6
CONTINUOUS
10
169.602
20
-88.511
11
169.569
21
-88.386
0
LINE
8
BLACK
6
CONTINUOUS
10
169.569
20
-88.386
11
169.569
21
-87.716
0
LINE
8
BLACK
6
CONTINUOUS
10
169.569
20
-87.716
11
169.584
21
-87.6305
0
LINE
8
BLACK
6
CONTINUOUS
10
169.584
20
-87.6305
11
169.627
21
-87.5553
0
LINE
8
BLACK
6
CONTINUOUS
10
169.627
20
-87.5553
11
169.694
21
-87.4995
0
LINE
8
BLACK
6
CONTINUOUS
10
169.694
20
-87.4995
11
169.819
21
-87.466
0
LINE
8
BLACK
6
CONTINUOUS
10
169.819
20
-87.466
11
170.489
21
-87.466
0
LINE
8
BLACK
6
CONTINUOUS
10
170.489
20
-87.466
11
170.575
21
-87.4811
0
LINE
8
BLACK
6
CONTINUOUS
10
169.225
20
-87.4811
11
169.3
21
-87.5245
0
LINE
8
BLACK
6
CONTINUOUS
10
169.3
20
-87.5245
11
169.356
21
-87.591
0
LINE
8
BLACK
6
CONTINUOUS
10
169.356
20
-87.591
11
169.389
21
-87.716
0
LINE
8
BLACK
6
CONTINUOUS
10
169.389
20
-87.716
11
169.389
21
-88.386
0
LINE
8
BLACK
6
CONTINUOUS
10
169.389
20
-88.386
11
169.374
21
-88.4715
0
LINE
8
BLACK
6
CONTINUOUS
10
169.374
20
-88.4715
11
169.331
21
-88.5467
0
LINE
8
BLACK
6
CONTINUOUS
10
169.331
20
-88.5467
11
169.264
21
-88.6025
0
LINE
8
BLACK
6
CONTINUOUS
10
169.264
20
-88.6025
11
169.139
21
-88.636
0
LINE
8
BLACK
6
CONTINUOUS
10
169.139
20
-88.636
11
168.469
21
-88.636
0
LINE
8
BLACK
6
CONTINUOUS
10
168.469
20
-88.636
11
168.383
21
-88.6209
0
LINE
8
BLACK
6
CONTINUOUS
10
168.383
20
-88.6209
11
168.308
21
-88.5775
0
LINE
8
BLACK
6
CONTINUOUS
10
168.308
20
-88.5775
11
168.252
21
-88.511
0
LINE
8
BLACK
6
CONTINUOUS
10
168.252
20
-88.511
11
168.219
21
-88.386
0
LINE
8
BLACK
6
CONTINUOUS
10
168.219
20
-88.386
11
168.219
21
-87.716
0
LINE
8
BLACK
6
CONTINUOUS
10
168.219
20
-87.716
11
168.234
21
-87.6305
0
LINE
8
BLACK
6
CONTINUOUS
10
168.234
20
-87.6305
11
168.277
21
-87.5553
0
LINE
8
BLACK
6
CONTINUOUS
10
168.277
20
-87.5553
11
168.344
21
-87.4995
0
LINE
8
BLACK
6
CONTINUOUS
10
168.344
20
-87.4995
11
168.469
21
-87.466
0
LINE
8
BLACK
6
CONTINUOUS
10
168.469
20
-87.466
11
169.139
21
-87.466
0
LINE
8
BLACK
6
CONTINUOUS
10
169.139
20
-87.466
11
169.225
21
-87.4811
0
LINE
8
BLACK
6
CONTINUOUS
10
177.862
20
-87.9
11
177.862
21
-88.5
0
LINE
8
BLACK
6
CONTINUOUS
10
177.862
20
-88.5
11
176.722
21
-88.5
0
LINE
8
BLACK
6
CONTINUOUS
10
176.722
20
-88.5
11
176.722
21
-87.9
0
LINE
8
BLACK
6
CONTINUOUS
10
176.722
20
-87.9
11
177.862
21
-87.9
0
LINE
8
BLACK
6
CONTINUOUS
10
175.05
20
-87.8619
11
175.095
21
-87.8875
0
LINE
8
BLACK
6
CONTINUOUS
10
175.095
20
-87.8875
11
175.128
21
-87.9267
0
LINE
8
BLACK
6
CONTINUOUS
10
175.128
20
-87.9267
11
175.147
21
-88.0005
0
LINE
8
BLACK
6
CONTINUOUS
10
175.147
20
-88.0005
11
175.147
21
-88.3455
0
LINE
8
BLACK
6
CONTINUOUS
10
175.147
20
-88.3455
11
175.139
21
-88.3959
0
LINE
8
BLACK
6
CONTINUOUS
10
175.139
20
-88.3959
11
175.113
21
-88.4403
0
LINE
8
BLACK
6
CONTINUOUS
10
175.113
20
-88.4403
11
175.074
21
-88.4732
0
LINE
8
BLACK
6
CONTINUOUS
10
175.074
20
-88.4732
11
175
21
-88.493
0
LINE
8
BLACK
6
CONTINUOUS
10
175
20
-88.493
11
174.705
21
-88.493
0
LINE
8
BLACK
6
CONTINUOUS
10
174.705
20
-88.493
11
174.655
21
-88.4841
0
LINE
8
BLACK
6
CONTINUOUS
10
174.655
20
-88.4841
11
174.61
21
-88.4585
0
LINE
8
BLACK
6
CONTINUOUS
10
174.61
20
-88.4585
11
174.577
21
-88.4192
0
LINE
8
BLACK
6
CONTINUOUS
10
174.577
20
-88.4192
11
174.558
21
-88.3455
0
LINE
8
BLACK
6
CONTINUOUS
10
174.558
20
-88.3455
11
174.558
21
-88.0005
0
LINE
8
BLACK
6
CONTINUOUS
10
174.558
20
-88.0005
11
174.566
21
-87.9501
0
LINE
8
BLACK
6
CONTINUOUS
10
174.566
20
-87.9501
11
174.592
21
-87.9057
0
LINE
8
BLACK
6
CONTINUOUS
10
174.592
20
-87.9057
11
174.631
21
-87.8728
0
LINE
8
BLACK
6
CONTINUOUS
10
174.631
20
-87.8728
11
174.705
21
-87.853
0
LINE
8
BLACK
6
CONTINUOUS
10
174.705
20
-87.853
11
175
21
-87.853
0
LINE
8
BLACK
6
CONTINUOUS
10
175
20
-87.853
11
175.05
21
-87.8619
0
LINE
8
BLACK
6
CONTINUOUS
10
174.08
20
-87.8619
11
174.125
21
-87.8875
0
LINE
8
BLACK
6
CONTINUOUS
10
174.125
20
-87.8875
11
174.158
21
-87.9267
0
LINE
8
BLACK
6
CONTINUOUS
10
174.158
20
-87.9267
11
174.177
21
-88.0005
0
LINE
8
BLACK
6
CONTINUOUS
10
174.177
20
-88.0005
11
174.177
21
-88.3455
0
LINE
8
BLACK
6
CONTINUOUS
10
174.177
20
-88.3455
11
174.169
21
-88.3959
0
LINE
8
BLACK
6
CONTINUOUS
10
174.169
20
-88.3959
11
174.143
21
-88.4403
0
LINE
8
BLACK
6
CONTINUOUS
10
174.143
20
-88.4403
11
174.104
21
-88.4732
0
LINE
8
BLACK
6
CONTINUOUS
10
174.104
20
-88.4732
11
174.03
21
-88.493
0
LINE
8
BLACK
6
CONTINUOUS
10
174.03
20
-88.493
11
173.735
21
-88.493
0
LINE
8
BLACK
6
CONTINUOUS
10
173.735
20
-88.493
11
173.685
21
-88.4841
0
LINE
8
BLACK
6
CONTINUOUS
10
173.685
20
-88.4841
11
173.64
21
-88.4585
0
LINE
8
BLACK
6
CONTINUOUS
10
173.64
20
-88.4585
11
173.607
21
-88.4192
0
LINE
8
BLACK
6
CONTINUOUS
10
173.607
20
-88.4192
11
173.588
21
-88.3455
0
LINE
8
BLACK
6
CONTINUOUS
10
173.588
20
-88.3455
11
173.588
21
-88.0005
0
LINE
8
BLACK
6
CONTINUOUS
10
173.588
20
-88.0005
11
173.596
21
-87.9501
0
LINE
8
BLACK
6
CONTINUOUS
10
173.596
20
-87.9501
11
173.622
21
-87.9057
0
LINE
8
BLACK
6
CONTINUOUS
10
173.622
20
-87.9057
11
173.661
21
-87.8728
0
LINE
8
BLACK
6
CONTINUOUS
10
173.661
20
-87.8728
11
173.735
21
-87.853
0
LINE
8
BLACK
6
CONTINUOUS
10
173.735
20
-87.853
11
174.03
21
-87.853
0
LINE
8
BLACK
6
CONTINUOUS
10
174.03
20
-87.853
11
174.08
21
-87.8619
0
LINE
8
BLACK
6
CONTINUOUS
10
171.813
20
-88.0048
11
171.832
21
-88.0156
0
LINE
8
BLACK
6
CONTINUOUS
10
171.832
20
-88.0156
11
171.846
21
-88.0322
0
LINE
8
BLACK
6
CONTINUOUS
10
171.846
20
-88.0322
11
171.854
21
-88.0635
0
LINE
8
BLACK
6
CONTINUOUS
10
171.854
20
-88.0635
11
171.854
21
-88.1885
0
LINE
8
BLACK
6
CONTINUOUS
10
171.854
20
-88.1885
11
171.85
21
-88.2099
0
LINE
8
BLACK
6
CONTINUOUS
10
171.85
20
-88.2099
11
171.839
21
-88.2287
0
LINE
8
BLACK
6
CONTINUOUS
10
171.839
20
-88.2287
11
171.823
21
-88.2426
0
LINE
8
BLACK
6
CONTINUOUS
10
171.823
20
-88.2426
11
171.791
21
-88.251
0
LINE
8
BLACK
6
CONTINUOUS
10
171.791
20
-88.251
11
171.091
21
-88.251
0
LINE
8
BLACK
6
CONTINUOUS
10
171.091
20
-88.251
11
171.07
21
-88.2472
0
LINE
8
BLACK
6
CONTINUOUS
10
171.07
20
-88.2472
11
171.051
21
-88.2364
0
LINE
8
BLACK
6
CONTINUOUS
10
171.051
20
-88.2364
11
171.037
21
-88.2197
0
LINE
8
BLACK
6
CONTINUOUS
10
171.037
20
-88.2197
11
171.029
21
-88.1885
0
LINE
8
BLACK
6
CONTINUOUS
10
171.029
20
-88.1885
11
171.029
21
-88.0635
0
LINE
8
BLACK
6
CONTINUOUS
10
171.029
20
-88.0635
11
171.033
21
-88.0421
0
LINE
8
BLACK
6
CONTINUOUS
10
171.033
20
-88.0421
11
171.044
21
-88.0233
0
LINE
8
BLACK
6
CONTINUOUS
10
171.044
20
-88.0233
11
171.06
21
-88.0094
0
LINE
8
BLACK
6
CONTINUOUS
10
171.06
20
-88.0094
11
171.091
21
-88.001
0
LINE
8
BLACK
6
CONTINUOUS
10
171.091
20
-88.001
11
171.791
21
-88.001
0
LINE
8
BLACK
6
CONTINUOUS
10
171.791
20
-88.001
11
171.813
21
-88.0048
0
LINE
8
BLACK
6
CONTINUOUS
10
167.888
20
-88.0048
11
167.907
21
-88.0156
0
LINE
8
BLACK
6
CONTINUOUS
10
167.907
20
-88.0156
11
167.921
21
-88.0322
0
LINE
8
BLACK
6
CONTINUOUS
10
167.921
20
-88.0322
11
167.929
21
-88.0635
0
LINE
8
BLACK
6
CONTINUOUS
10
167.929
20
-88.0635
11
167.929
21
-88.1885
0
LINE
8
BLACK
6
CONTINUOUS
10
167.929
20
-88.1885
11
167.925
21
-88.2099
0
LINE
8
BLACK
6
CONTINUOUS
10
167.925
20
-88.2099
11
167.914
21
-88.2287
0
LINE
8
BLACK
6
CONTINUOUS
10
167.914
20
-88.2287
11
167.898
21
-88.2426
0
LINE
8
BLACK
6
CONTINUOUS
10
167.898
20
-88.2426
11
167.867
21
-88.251
0
LINE
8
BLACK
6
CONTINUOUS
10
167.867
20
-88.251
11
167.166
21
-88.251
0
LINE
8
BLACK
6
CONTINUOUS
10
167.166
20
-88.251
11
167.145
21
-88.2472
0
LINE
8
BLACK
6
CONTINUOUS
10
167.145
20
-88.2472
11
167.126
21
-88.2364
0
LINE
8
BLACK
6
CONTINUOUS
10
167.126
20
-88.2364
11
167.112
21
-88.2197
0
LINE
8
BLACK
6
CONTINUOUS
10
167.112
20
-88.2197
11
167.104
21
-88.1885
0
LINE
8
BLACK
6
CONTINUOUS
10
167.104
20
-88.1885
11
167.104
21
-88.0635
0
LINE
8
BLACK
6
CONTINUOUS
10
167.104
20
-88.0635
11
167.108
21
-88.0421
0
LINE
8
BLACK
6
CONTINUOUS
10
167.108
20
-88.0421
11
167.119
21
-88.0233
0
LINE
8
BLACK
6
CONTINUOUS
10
167.119
20
-88.0233
11
167.135
21
-88.0094
0
LINE
8
BLACK
6
CONTINUOUS
10
167.135
20
-88.0094
11
167.166
21
-88.001
0
LINE
8
BLACK
6
CONTINUOUS
10
167.166
20
-88.001
11
167.867
21
-88.001
0
LINE
8
BLACK
6
CONTINUOUS
10
167.867
20
-88.001
11
167.888
21
-88.0048
0
LINE
8
BLACK
6
CONTINUOUS
10
152.912
20
-88.01
11
148.412
21
-88.01
0
LINE
8
BLACK
6
CONTINUOUS
10
148.412
20
-88.01
11
148.412
21
-83.51
0
LINE
8
BLACK
6
CONTINUOUS
10
148.412
20
-83.51
11
152.912
21
-83.51
0
LINE
8
BLACK
6
CONTINUOUS
10
152.912
20
-83.51
11
152.912
21
-88.01
0
LINE
8
BLACK
6
CONTINUOUS
10
164.708
20
-86.9142
11
164.773
21
-86.9522
0
LINE
8
BLACK
6
CONTINUOUS
10
164.773
20
-86.9522
11
164.822
21
-87.0104
0
LINE
8
BLACK
6
CONTINUOUS
10
164.822
20
-87.0104
11
164.851
21
-87.1197
0
LINE
8
BLACK
6
CONTINUOUS
10
164.851
20
-87.1197
11
164.851
21
-87.6322
0
LINE
8
BLACK
6
CONTINUOUS
10
164.851
20
-87.6322
11
164.838
21
-87.7071
0
LINE
8
BLACK
6
CONTINUOUS
10
164.838
20
-87.7071
11
164.8
21
-87.7729
0
LINE
8
BLACK
6
CONTINUOUS
10
164.8
20
-87.7729
11
164.742
21
-87.8217
0
LINE
8
BLACK
6
CONTINUOUS
10
164.742
20
-87.8217
11
164.633
21
-87.851
0
LINE
8
BLACK
6
CONTINUOUS
10
164.633
20
-87.851
11
164.195
21
-87.851
0
LINE
8
BLACK
6
CONTINUOUS
10
164.195
20
-87.851
11
164.12
21
-87.8378
0
LINE
8
BLACK
6
CONTINUOUS
10
164.12
20
-87.8378
11
164.055
21
-87.7998
0
LINE
8
BLACK
6
CONTINUOUS
10
164.055
20
-87.7998
11
164.006
21
-87.7416
0
LINE
8
BLACK
6
CONTINUOUS
10
164.006
20
-87.7416
11
163.976
21
-87.6322
0
LINE
8
BLACK
6
CONTINUOUS
10
163.976
20
-87.6322
11
163.976
21
-87.1197
0
LINE
8
BLACK
6
CONTINUOUS
10
163.976
20
-87.1197
11
163.99
21
-87.0449
0
LINE
8
BLACK
6
CONTINUOUS
10
163.99
20
-87.0449
11
164.028
21
-86.9791
0
LINE
8
BLACK
6
CONTINUOUS
10
164.028
20
-86.9791
11
164.086
21
-86.9303
0
LINE
8
BLACK
6
CONTINUOUS
10
164.086
20
-86.9303
11
164.195
21
-86.901
0
LINE
8
BLACK
6
CONTINUOUS
10
164.195
20
-86.901
11
164.633
21
-86.901
0
LINE
8
BLACK
6
CONTINUOUS
10
164.633
20
-86.901
11
164.708
21
-86.9142
0
LINE
8
BLACK
6
CONTINUOUS
10
166.283
20
-86.9142
11
166.348
21
-86.9522
0
LINE
8
BLACK
6
CONTINUOUS
10
166.348
20
-86.9522
11
166.397
21
-87.0104
0
LINE
8
BLACK
6
CONTINUOUS
10
166.397
20
-87.0104
11
166.427
21
-87.1197
0
LINE
8
BLACK
6
CONTINUOUS
10
166.427
20
-87.1197
11
166.427
21
-87.6322
0
LINE
8
BLACK
6
CONTINUOUS
10
166.427
20
-87.6322
11
166.413
21
-87.7071
0
LINE
8
BLACK
6
CONTINUOUS
10
166.413
20
-87.7071
11
166.375
21
-87.7729
0
LINE
8
BLACK
6
CONTINUOUS
10
166.375
20
-87.7729
11
166.317
21
-87.8217
0
LINE
8
BLACK
6
CONTINUOUS
10
166.317
20
-87.8217
11
166.208
21
-87.851
0
LINE
8
BLACK
6
CONTINUOUS
10
166.208
20
-87.851
11
165.77
21
-87.851
0
LINE
8
BLACK
6
CONTINUOUS
10
165.77
20
-87.851
11
165.695
21
-87.8378
0
LINE
8
BLACK
6
CONTINUOUS
10
165.695
20
-87.8378
11
165.63
21
-87.7998
0
LINE
8
BLACK
6
CONTINUOUS
10
165.63
20
-87.7998
11
165.581
21
-87.7416
0
LINE
8
BLACK
6
CONTINUOUS
10
165.581
20
-87.7416
11
165.552
21
-87.6322
0
LINE
8
BLACK
6
CONTINUOUS
10
165.552
20
-87.6322
11
165.552
21
-87.1197
0
LINE
8
BLACK
6
CONTINUOUS
10
165.552
20
-87.1197
11
165.565
21
-87.0449
0
LINE
8
BLACK
6
CONTINUOUS
10
165.565
20
-87.0449
11
165.603
21
-86.9791
0
LINE
8
BLACK
6
CONTINUOUS
10
165.603
20
-86.9791
11
165.661
21
-86.9303
0
LINE
8
BLACK
6
CONTINUOUS
10
165.661
20
-86.9303
11
165.77
21
-86.901
0
LINE
8
BLACK
6
CONTINUOUS
10
165.77
20
-86.901
11
166.208
21
-86.901
0
LINE
8
BLACK
6
CONTINUOUS
10
166.208
20
-86.901
11
166.283
21
-86.9142
0
LINE
8
BLACK
6
CONTINUOUS
10
171.813
20
-87.5048
11
171.832
21
-87.5156
0
LINE
8
BLACK
6
CONTINUOUS
10
171.832
20
-87.5156
11
171.846
21
-87.5322
0
LINE
8
BLACK
6
CONTINUOUS
10
171.846
20
-87.5322
11
171.854
21
-87.5635
0
LINE
8
BLACK
6
CONTINUOUS
10
171.854
20
-87.5635
11
171.854
21
-87.6885
0
LINE
8
BLACK
6
CONTINUOUS
10
171.854
20
-87.6885
11
171.85
21
-87.7099
0
LINE
8
BLACK
6
CONTINUOUS
10
171.85
20
-87.7099
11
171.839
21
-87.7287
0
LINE
8
BLACK
6
CONTINUOUS
10
171.839
20
-87.7287
11
171.823
21
-87.7426
0
LINE
8
BLACK
6
CONTINUOUS
10
171.823
20
-87.7426
11
171.791
21
-87.751
0
LINE
8
BLACK
6
CONTINUOUS
10
171.791
20
-87.751
11
171.091
21
-87.751
0
LINE
8
BLACK
6
CONTINUOUS
10
171.091
20
-87.751
11
171.07
21
-87.7472
0
LINE
8
BLACK
6
CONTINUOUS
10
171.07
20
-87.7472
11
171.051
21
-87.7364
0
LINE
8
BLACK
6
CONTINUOUS
10
171.051
20
-87.7364
11
171.037
21
-87.7197
0
LINE
8
BLACK
6
CONTINUOUS
10
171.037
20
-87.7197
11
171.029
21
-87.6885
0
LINE
8
BLACK
6
CONTINUOUS
10
171.029
20
-87.6885
11
171.029
21
-87.5635
0
LINE
8
BLACK
6
CONTINUOUS
10
171.029
20
-87.5635
11
171.033
21
-87.5421
0
LINE
8
BLACK
6
CONTINUOUS
10
171.033
20
-87.5421
11
171.044
21
-87.5233
0
LINE
8
BLACK
6
CONTINUOUS
10
171.044
20
-87.5233
11
171.06
21
-87.5094
0
LINE
8
BLACK
6
CONTINUOUS
10
171.06
20
-87.5094
11
171.091
21
-87.501
0
LINE
8
BLACK
6
CONTINUOUS
10
171.091
20
-87.501
11
171.791
21
-87.501
0
LINE
8
BLACK
6
CONTINUOUS
10
171.791
20
-87.501
11
171.813
21
-87.5048
0
LINE
8
BLACK
6
CONTINUOUS
10
167.888
20
-87.5048
11
167.907
21
-87.5156
0
LINE
8
BLACK
6
CONTINUOUS
10
167.907
20
-87.5156
11
167.921
21
-87.5322
0
LINE
8
BLACK
6
CONTINUOUS
10
167.921
20
-87.5322
11
167.929
21
-87.5635
0
LINE
8
BLACK
6
CONTINUOUS
10
167.929
20
-87.5635
11
167.929
21
-87.6885
0
LINE
8
BLACK
6
CONTINUOUS
10
167.929
20
-87.6885
11
167.925
21
-87.7099
0
LINE
8
BLACK
6
CONTINUOUS
10
167.925
20
-87.7099
11
167.914
21
-87.7287
0
LINE
8
BLACK
6
CONTINUOUS
10
167.914
20
-87.7287
11
167.898
21
-87.7426
0
LINE
8
BLACK
6
CONTINUOUS
10
167.898
20
-87.7426
11
167.867
21
-87.751
0
LINE
8
BLACK
6
CONTINUOUS
10
167.867
20
-87.751
11
167.166
21
-87.751
0
LINE
8
BLACK
6
CONTINUOUS
10
167.166
20
-87.751
11
167.145
21
-87.7472
0
LINE
8
BLACK
6
CONTINUOUS
10
167.145
20
-87.7472
11
167.126
21
-87.7364
0
LINE
8
BLACK
6
CONTINUOUS
10
167.126
20
-87.7364
11
167.112
21
-87.7197
0
LINE
8
BLACK
6
CONTINUOUS
10
167.112
20
-87.7197
11
167.104
21
-87.6885
0
LINE
8
BLACK
6
CONTINUOUS
10
167.104
20
-87.6885
11
167.104
21
-87.5635
0
LINE
8
BLACK
6
CONTINUOUS
10
167.104
20
-87.5635
11
167.108
21
-87.5421
0
LINE
8
BLACK
6
CONTINUOUS
10
167.108
20
-87.5421
11
167.119
21
-87.5233
0
LINE
8
BLACK
6
CONTINUOUS
10
167.119
20
-87.5233
11
167.135
21
-87.5094
0
LINE
8
BLACK
6
CONTINUOUS
10
167.135
20
-87.5094
11
167.166
21
-87.501
0
LINE
8
BLACK
6
CONTINUOUS
10
167.166
20
-87.501
11
167.867
21
-87.501
0
LINE
8
BLACK
6
CONTINUOUS
10
167.867
20
-87.501
11
167.888
21
-87.5048
0
LINE
8
BLACK
6
CONTINUOUS
10
177.862
20
-87.1
11
177.862
21
-87.7
0
LINE
8
BLACK
6
CONTINUOUS
10
177.862
20
-87.7
11
176.722
21
-87.7
0
LINE
8
BLACK
6
CONTINUOUS
10
176.722
20
-87.7
11
176.722
21
-87.1
0
LINE
8
BLACK
6
CONTINUOUS
10
176.722
20
-87.1
11
177.862
21
-87.1
0
LINE
8
BLACK
6
CONTINUOUS
10
162.082
20
-87.53
11
160.582
21
-87.53
0
LINE
8
BLACK
6
CONTINUOUS
10
160.582
20
-87.53
11
160.582
21
-86.63
0
LINE
8
BLACK
6
CONTINUOUS
10
160.582
20
-86.63
11
162.082
21
-86.63
0
LINE
8
BLACK
6
CONTINUOUS
10
162.082
20
-86.63
11
162.082
21
-87.53
0
LINE
8
BLACK
6
CONTINUOUS
10
174.08
20
-86.8459
11
174.125
21
-86.8715
0
LINE
8
BLACK
6
CONTINUOUS
10
174.125
20
-86.8715
11
174.158
21
-86.9107
0
LINE
8
BLACK
6
CONTINUOUS
10
174.158
20
-86.9107
11
174.177
21
-86.9845
0
LINE
8
BLACK
6
CONTINUOUS
10
174.177
20
-86.9845
11
174.177
21
-87.3295
0
LINE
8
BLACK
6
CONTINUOUS
10
174.177
20
-87.3295
11
174.169
21
-87.3799
0
LINE
8
BLACK
6
CONTINUOUS
10
174.169
20
-87.3799
11
174.143
21
-87.4243
0
LINE
8
BLACK
6
CONTINUOUS
10
174.143
20
-87.4243
11
174.104
21
-87.4572
0
LINE
8
BLACK
6
CONTINUOUS
10
174.104
20
-87.4572
11
174.03
21
-87.477
0
LINE
8
BLACK
6
CONTINUOUS
10
174.03
20
-87.477
11
173.735
21
-87.477
0
LINE
8
BLACK
6
CONTINUOUS
10
173.735
20
-87.477
11
173.685
21
-87.4681
0
LINE
8
BLACK
6
CONTINUOUS
10
173.685
20
-87.4681
11
173.64
21
-87.4425
0
LINE
8
BLACK
6
CONTINUOUS
10
173.64
20
-87.4425
11
173.607
21
-87.4032
0
LINE
8
BLACK
6
CONTINUOUS
10
173.607
20
-87.4032
11
173.588
21
-87.3295
0
LINE
8
BLACK
6
CONTINUOUS
10
173.588
20
-87.3295
11
173.588
21
-86.9845
0
LINE
8
BLACK
6
CONTINUOUS
10
173.588
20
-86.9845
11
173.596
21
-86.9341
0
LINE
8
BLACK
6
CONTINUOUS
10
173.596
20
-86.9341
11
173.622
21
-86.8897
0
LINE
8
BLACK
6
CONTINUOUS
10
173.622
20
-86.8897
11
173.661
21
-86.8568
0
LINE
8
BLACK
6
CONTINUOUS
10
173.661
20
-86.8568
11
173.735
21
-86.837
0
LINE
8
BLACK
6
CONTINUOUS
10
173.735
20
-86.837
11
174.03
21
-86.837
0
LINE
8
BLACK
6
CONTINUOUS
10
174.03
20
-86.837
11
174.08
21
-86.8459
0
LINE
8
BLACK
6
CONTINUOUS
10
175.05
20
-86.8459
11
175.095
21
-86.8715
0
LINE
8
BLACK
6
CONTINUOUS
10
175.095
20
-86.8715
11
175.128
21
-86.9107
0
LINE
8
BLACK
6
CONTINUOUS
10
175.128
20
-86.9107
11
175.147
21
-86.9845
0
LINE
8
BLACK
6
CONTINUOUS
10
175.147
20
-86.9845
11
175.147
21
-87.3295
0
LINE
8
BLACK
6
CONTINUOUS
10
175.147
20
-87.3295
11
175.139
21
-87.3799
0
LINE
8
BLACK
6
CONTINUOUS
10
175.139
20
-87.3799
11
175.113
21
-87.4243
0
LINE
8
BLACK
6
CONTINUOUS
10
175.113
20
-87.4243
11
175.074
21
-87.4572
0
LINE
8
BLACK
6
CONTINUOUS
10
175.074
20
-87.4572
11
175
21
-87.477
0
LINE
8
BLACK
6
CONTINUOUS
10
175
20
-87.477
11
174.705
21
-87.477
0
LINE
8
BLACK
6
CONTINUOUS
10
174.705
20
-87.477
11
174.655
21
-87.4681
0
LINE
8
BLACK
6
CONTINUOUS
10
174.655
20
-87.4681
11
174.61
21
-87.4425
0
LINE
8
BLACK
6
CONTINUOUS
10
174.61
20
-87.4425
11
174.577
21
-87.4032
0
LINE
8
BLACK
6
CONTINUOUS
10
174.577
20
-87.4032
11
174.558
21
-87.3295
0
LINE
8
BLACK
6
CONTINUOUS
10
174.558
20
-87.3295
11
174.558
21
-86.9845
0
LINE
8
BLACK
6
CONTINUOUS
10
174.558
20
-86.9845
11
174.566
21
-86.9341
0
LINE
8
BLACK
6
CONTINUOUS
10
174.566
20
-86.9341
11
174.592
21
-86.8897
0
LINE
8
BLACK
6
CONTINUOUS
10
174.592
20
-86.8897
11
174.631
21
-86.8568
0
LINE
8
BLACK
6
CONTINUOUS
10
174.631
20
-86.8568
11
174.705
21
-86.837
0
LINE
8
BLACK
6
CONTINUOUS
10
174.705
20
-86.837
11
175
21
-86.837
0
LINE
8
BLACK
6
CONTINUOUS
10
175
20
-86.837
11
175.05
21
-86.8459
0
LINE
8
BLACK
6
CONTINUOUS
10
169.225
20
-86.1311
11
169.3
21
-86.1745
0
LINE
8
BLACK
6
CONTINUOUS
10
169.3
20
-86.1745
11
169.356
21
-86.241
0
LINE
8
BLACK
6
CONTINUOUS
10
169.356
20
-86.241
11
169.389
21
-86.366
0
LINE
8
BLACK
6
CONTINUOUS
10
169.389
20
-86.366
11
169.389
21
-87.036
0
LINE
8
BLACK
6
CONTINUOUS
10
169.389
20
-87.036
11
169.374
21
-87.1215
0
LINE
8
BLACK
6
CONTINUOUS
10
169.374
20
-87.1215
11
169.331
21
-87.1967
0
LINE
8
BLACK
6
CONTINUOUS
10
169.331
20
-87.1967
11
169.264
21
-87.2525
0
LINE
8
BLACK
6
CONTINUOUS
10
169.264
20
-87.2525
11
169.139
21
-87.286
0
LINE
8
BLACK
6
CONTINUOUS
10
169.139
20
-87.286
11
168.469
21
-87.286
0
LINE
8
BLACK
6
CONTINUOUS
10
168.469
20
-87.286
11
168.383
21
-87.2709
0
LINE
8
BLACK
6
CONTINUOUS
10
168.383
20
-87.2709
11
168.308
21
-87.2275
0
LINE
8
BLACK
6
CONTINUOUS
10
168.308
20
-87.2275
11
168.252
21
-87.161
0
LINE
8
BLACK
6
CONTINUOUS
10
168.252
20
-87.161
11
168.219
21
-87.036
0
LINE
8
BLACK
6
CONTINUOUS
10
168.219
20
-87.036
11
168.219
21
-86.366
0
LINE
8
BLACK
6
CONTINUOUS
10
168.219
20
-86.366
11
168.234
21
-86.2805
0
LINE
8
BLACK
6
CONTINUOUS
10
168.234
20
-86.2805
11
168.277
21
-86.2053
0
LINE
8
BLACK
6
CONTINUOUS
10
168.277
20
-86.2053
11
168.344
21
-86.1495
0
LINE
8
BLACK
6
CONTINUOUS
10
168.344
20
-86.1495
11
168.469
21
-86.116
0
LINE
8
BLACK
6
CONTINUOUS
10
168.469
20
-86.116
11
169.139
21
-86.116
0
LINE
8
BLACK
6
CONTINUOUS
10
169.139
20
-86.116
11
169.225
21
-86.1311
0
LINE
8
BLACK
6
CONTINUOUS
10
170.575
20
-86.1311
11
170.65
21
-86.1745
0
LINE
8
BLACK
6
CONTINUOUS
10
170.65
20
-86.1745
11
170.706
21
-86.241
0
LINE
8
BLACK
6
CONTINUOUS
10
170.706
20
-86.241
11
170.739
21
-86.366
0
LINE
8
BLACK
6
CONTINUOUS
10
170.739
20
-86.366
11
170.739
21
-87.036
0
LINE
8
BLACK
6
CONTINUOUS
10
170.739
20
-87.036
11
170.724
21
-87.1215
0
LINE
8
BLACK
6
CONTINUOUS
10
170.724
20
-87.1215
11
170.681
21
-87.1967
0
LINE
8
BLACK
6
CONTINUOUS
10
170.681
20
-87.1967
11
170.614
21
-87.2525
0
LINE
8
BLACK
6
CONTINUOUS
10
170.614
20
-87.2525
11
170.489
21
-87.286
0
LINE
8
BLACK
6
CONTINUOUS
10
170.489
20
-87.286
11
169.819
21
-87.286
0
LINE
8
BLACK
6
CONTINUOUS
10
169.819
20
-87.286
11
169.733
21
-87.2709
0
LINE
8
BLACK
6
CONTINUOUS
10
169.733
20
-87.2709
11
169.658
21
-87.2275
0
LINE
8
BLACK
6
CONTINUOUS
10
169.658
20
-87.2275
11
169.602
21
-87.161
0
LINE
8
BLACK
6
CONTINUOUS
10
169.602
20
-87.161
11
169.569
21
-87.036
0
LINE
8
BLACK
6
CONTINUOUS
10
169.569
20
-87.036
11
169.569
21
-86.366
0
LINE
8
BLACK
6
CONTINUOUS
10
169.569
20
-86.366
11
169.584
21
-86.2805
0
LINE
8
BLACK
6
CONTINUOUS
10
169.584
20
-86.2805
11
169.627
21
-86.2053
0
LINE
8
BLACK
6
CONTINUOUS
10
169.627
20
-86.2053
11
169.694
21
-86.1495
0
LINE
8
BLACK
6
CONTINUOUS
10
169.694
20
-86.1495
11
169.819
21
-86.116
0
LINE
8
BLACK
6
CONTINUOUS
10
169.819
20
-86.116
11
170.489
21
-86.116
0
LINE
8
BLACK
6
CONTINUOUS
10
170.489
20
-86.116
11
170.575
21
-86.1311
0
LINE
8
BLACK
6
CONTINUOUS
10
171.813
20
-87.0048
11
171.832
21
-87.0156
0
LINE
8
BLACK
6
CONTINUOUS
10
171.832
20
-87.0156
11
171.846
21
-87.0322
0
LINE
8
BLACK
6
CONTINUOUS
10
171.846
20
-87.0322
11
171.854
21
-87.0635
0
LINE
8
BLACK
6
CONTINUOUS
10
171.854
20
-87.0635
11
171.854
21
-87.1885
0
LINE
8
BLACK
6
CONTINUOUS
10
171.854
20
-87.1885
11
171.85
21
-87.2099
0
LINE
8
BLACK
6
CONTINUOUS
10
171.85
20
-87.2099
11
171.839
21
-87.2287
0
LINE
8
BLACK
6
CONTINUOUS
10
171.839
20
-87.2287
11
171.823
21
-87.2426
0
LINE
8
BLACK
6
CONTINUOUS
10
171.823
20
-87.2426
11
171.791
21
-87.251
0
LINE
8
BLACK
6
CONTINUOUS
10
171.791
20
-87.251
11
171.091
21
-87.251
0
LINE
8
BLACK
6
CONTINUOUS
10
171.091
20
-87.251
11
171.07
21
-87.2472
0
LINE
8
BLACK
6
CONTINUOUS
10
171.07
20
-87.2472
11
171.051
21
-87.2364
0
LINE
8
BLACK
6
CONTINUOUS
10
171.051
20
-87.2364
11
171.037
21
-87.2197
0
LINE
8
BLACK
6
CONTINUOUS
10
171.037
20
-87.2197
11
171.029
21
-87.1885
0
LINE
8
BLACK
6
CONTINUOUS
10
171.029
20
-87.1885
11
171.029
21
-87.0635
0
LINE
8
BLACK
6
CONTINUOUS
10
171.029
20
-87.0635
11
171.033
21
-87.0421
0
LINE
8
BLACK
6
CONTINUOUS
10
171.033
20
-87.0421
11
171.044
21
-87.0233
0
LINE
8
BLACK
6
CONTINUOUS
10
171.044
20
-87.0233
11
171.06
21
-87.0094
0
LINE
8
BLACK
6
CONTINUOUS
10
171.06
20
-87.0094
11
171.091
21
-87.001
0
LINE
8
BLACK
6
CONTINUOUS
10
171.091
20
-87.001
11
171.791
21
-87.001
0
LINE
8
BLACK
6
CONTINUOUS
10
171.791
20
-87.001
11
171.813
21
-87.0048
0
LINE
8
BLACK
6
CONTINUOUS
10
167.888
20
-87.0048
11
167.907
21
-87.0156
0
LINE
8
BLACK
6
CONTINUOUS
10
167.907
20
-87.0156
11
167.921
21
-87.0322
0
LINE
8
BLACK
6
CONTINUOUS
10
167.921
20
-87.0322
11
167.929
21
-87.0635
0
LINE
8
BLACK
6
CONTINUOUS
10
167.929
20
-87.0635
11
167.929
21
-87.1885
0
LINE
8
BLACK
6
CONTINUOUS
10
167.929
20
-87.1885
11
167.925
21
-87.2099
0
LINE
8
BLACK
6
CONTINUOUS
10
167.925
20
-87.2099
11
167.914
21
-87.2287
0
LINE
8
BLACK
6
CONTINUOUS
10
167.914
20
-87.2287
11
167.898
21
-87.2426
0
LINE
8
BLACK
6
CONTINUOUS
10
167.898
20
-87.2426
11
167.867
21
-87.251
0
LINE
8
BLACK
6
CONTINUOUS
10
167.867
20
-87.251
11
167.166
21
-87.251
0
LINE
8
BLACK
6
CONTINUOUS
10
167.166
20
-87.251
11
167.145
21
-87.2472
0
LINE
8
BLACK
6
CONTINUOUS
10
167.145
20
-87.2472
11
167.126
21
-87.2364
0
LINE
8
BLACK
6
CONTINUOUS
10
167.126
20
-87.2364
11
167.112
21
-87.2197
0
LINE
8
BLACK
6
CONTINUOUS
10
167.112
20
-87.2197
11
167.104
21
-87.1885
0
LINE
8
BLACK
6
CONTINUOUS
10
167.104
20
-87.1885
11
167.104
21
-87.0635
0
LINE
8
BLACK
6
CONTINUOUS
10
167.104
20
-87.0635
11
167.108
21
-87.0421
0
LINE
8
BLACK
6
CONTINUOUS
10
167.108
20
-87.0421
11
167.119
21
-87.0233
0
LINE
8
BLACK
6
CONTINUOUS
10
167.119
20
-87.0233
11
167.135
21
-87.0094
0
LINE
8
BLACK
6
CONTINUOUS
10
167.135
20
-87.0094
11
167.166
21
-87.001
0
LINE
8
BLACK
6
CONTINUOUS
10
167.166
20
-87.001
11
167.867
21
-87.001
0
LINE
8
BLACK
6
CONTINUOUS
10
167.867
20
-87.001
11
167.888
21
-87.0048
0
LINE
8
BLACK
6
CONTINUOUS
10
177.862
20
-86.9
11
176.722
21
-86.9
0
LINE
8
BLACK
6
CONTINUOUS
10
176.722
20
-86.9
11
176.722
21
-86.6
0
LINE
8
BLACK
6
CONTINUOUS
10
176.722
20
-86.6
11
177.862
21
-86.6
0
LINE
8
BLACK
6
CONTINUOUS
10
177.862
20
-86.6
11
177.862
21
-86.9
0
LINE
8
BLACK
6
CONTINUOUS
10
171.813
20
-86.5048
11
171.832
21
-86.5156
0
LINE
8
BLACK
6
CONTINUOUS
10
171.832
20
-86.5156
11
171.846
21
-86.5322
0
LINE
8
BLACK
6
CONTINUOUS
10
171.846
20
-86.5322
11
171.854
21
-86.5635
0
LINE
8
BLACK
6
CONTINUOUS
10
171.854
20
-86.5635
11
171.854
21
-86.6885
0
LINE
8
BLACK
6
CONTINUOUS
10
171.854
20
-86.6885
11
171.85
21
-86.7099
0
LINE
8
BLACK
6
CONTINUOUS
10
171.85
20
-86.7099
11
171.839
21
-86.7287
0
LINE
8
BLACK
6
CONTINUOUS
10
171.839
20
-86.7287
11
171.823
21
-86.7426
0
LINE
8
BLACK
6
CONTINUOUS
10
171.823
20
-86.7426
11
171.791
21
-86.751
0
LINE
8
BLACK
6
CONTINUOUS
10
171.791
20
-86.751
11
171.091
21
-86.751
0
LINE
8
BLACK
6
CONTINUOUS
10
171.091
20
-86.751
11
171.07
21
-86.7472
0
LINE
8
BLACK
6
CONTINUOUS
10
171.07
20
-86.7472
11
171.051
21
-86.7364
0
LINE
8
BLACK
6
CONTINUOUS
10
171.051
20
-86.7364
11
171.037
21
-86.7197
0
LINE
8
BLACK
6
CONTINUOUS
10
171.037
20
-86.7197
11
171.029
21
-86.6885
0
LINE
8
BLACK
6
CONTINUOUS
10
171.029
20
-86.6885
11
171.029
21
-86.5635
0
LINE
8
BLACK
6
CONTINUOUS
10
171.029
20
-86.5635
11
171.033
21
-86.5421
0
LINE
8
BLACK
6
CONTINUOUS
10
171.033
20
-86.5421
11
171.044
21
-86.5233
0
LINE
8
BLACK
6
CONTINUOUS
10
171.044
20
-86.5233
11
171.06
21
-86.5094
0
LINE
8
BLACK
6
CONTINUOUS
10
171.06
20
-86.5094
11
171.091
21
-86.501
0
LINE
8
BLACK
6
CONTINUOUS
10
171.091
20
-86.501
11
171.791
21
-86.501
0
LINE
8
BLACK
6
CONTINUOUS
10
171.791
20
-86.501
11
171.813
21
-86.5048
0
LINE
8
BLACK
6
CONTINUOUS
10
167.888
20
-86.5048
11
167.907
21
-86.5156
0
LINE
8
BLACK
6
CONTINUOUS
10
167.907
20
-86.5156
11
167.921
21
-86.5322
0
LINE
8
BLACK
6
CONTINUOUS
10
167.921
20
-86.5322
11
167.929
21
-86.5635
0
LINE
8
BLACK
6
CONTINUOUS
10
167.929
20
-86.5635
11
167.929
21
-86.6885
0
LINE
8
BLACK
6
CONTINUOUS
10
167.929
20
-86.6885
11
167.925
21
-86.7099
0
LINE
8
BLACK
6
CONTINUOUS
10
167.925
20
-86.7099
11
167.914
21
-86.7287
0
LINE
8
BLACK
6
CONTINUOUS
10
167.914
20
-86.7287
11
167.898
21
-86.7426
0
LINE
8
BLACK
6
CONTINUOUS
10
167.898
20
-86.7426
11
167.867
21
-86.751
0
LINE
8
BLACK
6
CONTINUOUS
10
167.867
20
-86.751
11
167.166
21
-86.751
0
LINE
8
BLACK
6
CONTINUOUS
10
167.166
20
-86.751
11
167.145
21
-86.7472
0
LINE
8
BLACK
6
CONTINUOUS
10
167.145
20
-86.7472
11
167.126
21
-86.7364
0
LINE
8
BLACK
6
CONTINUOUS
10
167.126
20
-86.7364
11
167.112
21
-86.7197
0
LINE
8
BLACK
6
CONTINUOUS
10
167.112
20
-86.7197
11
167.104
21
-86.6885
0
LINE
8
BLACK
6
CONTINUOUS
10
167.104
20
-86.6885
11
167.104
21
-86.5635
0
LINE
8
BLACK
6
CONTINUOUS
10
167.104
20
-86.5635
11
167.108
21
-86.5421
0
LINE
8
BLACK
6
CONTINUOUS
10
167.108
20
-86.5421
11
167.119
21
-86.5233
0
LINE
8
BLACK
6
CONTINUOUS
10
167.119
20
-86.5233
11
167.135
21
-86.5094
0
LINE
8
BLACK
6
CONTINUOUS
10
167.135
20
-86.5094
11
167.166
21
-86.501
0
LINE
8
BLACK
6
CONTINUOUS
10
167.166
20
-86.501
11
167.867
21
-86.501
0
LINE
8
BLACK
6
CONTINUOUS
10
167.867
20
-86.501
11
167.888
21
-86.5048
0
LINE
8
BLACK
6
CONTINUOUS
10
175.05
20
-85.8299
11
175.095
21
-85.8555
0
LINE
8
BLACK
6
CONTINUOUS
10
175.095
20
-85.8555
11
175.128
21
-85.8948
0
LINE
8
BLACK
6
CONTINUOUS
10
175.128
20
-85.8948
11
175.147
21
-85.9685
0
LINE
8
BLACK
6
CONTINUOUS
10
175.147
20
-85.9685
11
175.147
21
-86.3135
0
LINE
8
BLACK
6
CONTINUOUS
10
175.147
20
-86.3135
11
175.139
21
-86.3639
0
LINE
8
BLACK
6
CONTINUOUS
10
175.139
20
-86.3639
11
175.113
21
-86.4083
0
LINE
8
BLACK
6
CONTINUOUS
10
175.113
20
-86.4083
11
175.074
21
-86.4412
0
LINE
8
BLACK
6
CONTINUOUS
10
175.074
20
-86.4412
11
175
21
-86.461
0
LINE
8
BLACK
6
CONTINUOUS
10
175
20
-86.461
11
174.705
21
-86.461
0
LINE
8
BLACK
6
CONTINUOUS
10
174.705
20
-86.461
11
174.655
21
-86.4521
0
LINE
8
BLACK
6
CONTINUOUS
10
174.655
20
-86.4521
11
174.61
21
-86.4265
0
LINE
8
BLACK
6
CONTINUOUS
10
174.61
20
-86.4265
11
174.577
21
-86.3872
0
LINE
8
BLACK
6
CONTINUOUS
10
174.577
20
-86.3872
11
174.558
21
-86.3135
0
LINE
8
BLACK
6
CONTINUOUS
10
174.558
20
-86.3135
11
174.558
21
-85.9685
0
LINE
8
BLACK
6
CONTINUOUS
10
174.558
20
-85.9685
11
174.566
21
-85.9181
0
LINE
8
BLACK
6
CONTINUOUS
10
174.566
20
-85.9181
11
174.592
21
-85.8737
0
LINE
8
BLACK
6
CONTINUOUS
10
174.592
20
-85.8737
11
174.631
21
-85.8408
0
LINE
8
BLACK
6
CONTINUOUS
10
174.631
20
-85.8408
11
174.705
21
-85.821
0
LINE
8
BLACK
6
CONTINUOUS
10
174.705
20
-85.821
11
175
21
-85.821
0
LINE
8
BLACK
6
CONTINUOUS
10
175
20
-85.821
11
175.05
21
-85.8299
0
LINE
8
BLACK
6
CONTINUOUS
10
174.08
20
-85.8299
11
174.125
21
-85.8555
0
LINE
8
BLACK
6
CONTINUOUS
10
174.125
20
-85.8555
11
174.158
21
-85.8948
0
LINE
8
BLACK
6
CONTINUOUS
10
174.158
20
-85.8948
11
174.177
21
-85.9685
0
LINE
8
BLACK
6
CONTINUOUS
10
174.177
20
-85.9685
11
174.177
21
-86.3135
0
LINE
8
BLACK
6
CONTINUOUS
10
174.177
20
-86.3135
11
174.169
21
-86.3639
0
LINE
8
BLACK
6
CONTINUOUS
10
174.169
20
-86.3639
11
174.143
21
-86.4083
0
LINE
8
BLACK
6
CONTINUOUS
10
174.143
20
-86.4083
11
174.104
21
-86.4412
0
LINE
8
BLACK
6
CONTINUOUS
10
174.104
20
-86.4412
11
174.03
21
-86.461
0
LINE
8
BLACK
6
CONTINUOUS
10
174.03
20
-86.461
11
173.735
21
-86.461
0
LINE
8
BLACK
6
CONTINUOUS
10
173.735
20
-86.461
11
173.685
21
-86.4521
0
LINE
8
BLACK
6
CONTINUOUS
10
173.685
20
-86.4521
11
173.64
21
-86.4265
0
LINE
8
BLACK
6
CONTINUOUS
10
173.64
20
-86.4265
11
173.607
21
-86.3872
0
LINE
8
BLACK
6
CONTINUOUS
10
173.607
20
-86.3872
11
173.588
21
-86.3135
0
LINE
8
BLACK
6
CONTINUOUS
10
173.588
20
-86.3135
11
173.588
21
-85.9685
0
LINE
8
BLACK
6
CONTINUOUS
10
173.588
20
-85.9685
11
173.596
21
-85.9181
0
LINE
8
BLACK
6
CONTINUOUS
10
173.596
20
-85.9181
11
173.622
21
-85.8737
0
LINE
8
BLACK
6
CONTINUOUS
10
173.622
20
-85.8737
11
173.661
21
-85.8408
0
LINE
8
BLACK
6
CONTINUOUS
10
173.661
20
-85.8408
11
173.735
21
-85.821
0
LINE
8
BLACK
6
CONTINUOUS
10
173.735
20
-85.821
11
174.03
21
-85.821
0
LINE
8
BLACK
6
CONTINUOUS
10
174.03
20
-85.821
11
174.08
21
-85.8299
0
LINE
8
BLACK
6
CONTINUOUS
10
177.862
20
-86.4
11
176.722
21
-86.4
0
LINE
8
BLACK
6
CONTINUOUS
10
176.722
20
-86.4
11
176.722
21
-86.1
0
LINE
8
BLACK
6
CONTINUOUS
10
176.722
20
-86.1
11
177.862
21
-86.1
0
LINE
8
BLACK
6
CONTINUOUS
10
177.862
20
-86.1
11
177.862
21
-86.4
0
LINE
8
BLACK
6
CONTINUOUS
10
162.082
20
-86.26
11
160.582
21
-86.26
0
LINE
8
BLACK
6
CONTINUOUS
10
160.582
20
-86.26
11
160.582
21
-85.36
0
LINE
8
BLACK
6
CONTINUOUS
10
160.582
20
-85.36
11
162.082
21
-85.36
0
LINE
8
BLACK
6
CONTINUOUS
10
162.082
20
-85.36
11
162.082
21
-86.26
0
LINE
8
BLACK
6
CONTINUOUS
10
171.813
20
-86.0048
11
171.832
21
-86.0156
0
LINE
8
BLACK
6
CONTINUOUS
10
171.832
20
-86.0156
11
171.846
21
-86.0322
0
LINE
8
BLACK
6
CONTINUOUS
10
171.846
20
-86.0322
11
171.854
21
-86.0635
0
LINE
8
BLACK
6
CONTINUOUS
10
171.854
20
-86.0635
11
171.854
21
-86.1885
0
LINE
8
BLACK
6
CONTINUOUS
10
171.854
20
-86.1885
11
171.85
21
-86.2099
0
LINE
8
BLACK
6
CONTINUOUS
10
171.85
20
-86.2099
11
171.839
21
-86.2287
0
LINE
8
BLACK
6
CONTINUOUS
10
171.839
20
-86.2287
11
171.823
21
-86.2426
0
LINE
8
BLACK
6
CONTINUOUS
10
171.823
20
-86.2426
11
171.791
21
-86.251
0
LINE
8
BLACK
6
CONTINUOUS
10
171.791
20
-86.251
11
171.091
21
-86.251
0
LINE
8
BLACK
6
CONTINUOUS
10
171.091
20
-86.251
11
171.07
21
-86.2472
0
LINE
8
BLACK
6
CONTINUOUS
10
171.07
20
-86.2472
11
171.051
21
-86.2364
0
LINE
8
BLACK
6
CONTINUOUS
10
171.051
20
-86.2364
11
171.037
21
-86.2197
0
LINE
8
BLACK
6
CONTINUOUS
10
171.037
20
-86.2197
11
171.029
21
-86.1885
0
LINE
8
BLACK
6
CONTINUOUS
10
171.029
20
-86.1885
11
171.029
21
-86.0635
0
LINE
8
BLACK
6
CONTINUOUS
10
171.029
20
-86.0635
11
171.033
21
-86.0421
0
LINE
8
BLACK
6
CONTINUOUS
10
171.033
20
-86.0421
11
171.044
21
-86.0233
0
LINE
8
BLACK
6
CONTINUOUS
10
171.044
20
-86.0233
11
171.06
21
-86.0094
0
LINE
8
BLACK
6
CONTINUOUS
10
171.06
20
-86.0094
11
171.091
21
-86.001
0
LINE
8
BLACK
6
CONTINUOUS
10
171.091
20
-86.001
11
171.791
21
-86.001
0
LINE
8
BLACK
6
CONTINUOUS
10
171.791
20
-86.001
11
171.813
21
-86.0048
0
LINE
8
BLACK
6
CONTINUOUS
10
167.888
20
-86.0048
11
167.907
21
-86.0156
0
LINE
8
BLACK
6
CONTINUOUS
10
167.907
20
-86.0156
11
167.921
21
-86.0322
0
LINE
8
BLACK
6
CONTINUOUS
10
167.921
20
-86.0322
11
167.929
21
-86.0635
0
LINE
8
BLACK
6
CONTINUOUS
10
167.929
20
-86.0635
11
167.929
21
-86.1885
0
LINE
8
BLACK
6
CONTINUOUS
10
167.929
20
-86.1885
11
167.925
21
-86.2099
0
LINE
8
BLACK
6
CONTINUOUS
10
167.925
20
-86.2099
11
167.914
21
-86.2287
0
LINE
8
BLACK
6
CONTINUOUS
10
167.914
20
-86.2287
11
167.898
21
-86.2426
0
LINE
8
BLACK
6
CONTINUOUS
10
167.898
20
-86.2426
11
167.867
21
-86.251
0
LINE
8
BLACK
6
CONTINUOUS
10
167.867
20
-86.251
11
167.166
21
-86.251
0
LINE
8
BLACK
6
CONTINUOUS
10
167.166
20
-86.251
11
167.145
21
-86.2472
0
LINE
8
BLACK
6
CONTINUOUS
10
167.145
20
-86.2472
11
167.126
21
-86.2364
0
LINE
8
BLACK
6
CONTINUOUS
10
167.126
20
-86.2364
11
167.112
21
-86.2197
0
LINE
8
BLACK
6
CONTINUOUS
10
167.112
20
-86.2197
11
167.104
21
-86.1885
0
LINE
8
BLACK
6
CONTINUOUS
10
167.104
20
-86.1885
11
167.104
21
-86.0635
0
LINE
8
BLACK
6
CONTINUOUS
10
167.104
20
-86.0635
11
167.108
21
-86.0421
0
LINE
8
BLACK
6
CONTINUOUS
10
167.108
20
-86.0421
11
167.119
21
-86.0233
0
LINE
8
BLACK
6
CONTINUOUS
10
167.119
20
-86.0233
11
167.135
21
-86.0094
0
LINE
8
BLACK
6
CONTINUOUS
10
167.135
20
-86.0094
11
167.166
21
-86.001
0
LINE
8
BLACK
6
CONTINUOUS
10
167.166
20
-86.001
11
167.867
21
-86.001
0
LINE
8
BLACK
6
CONTINUOUS
10
167.867
20
-86.001
11
167.888
21
-86.0048
0
LINE
8
BLACK
6
CONTINUOUS
10
165.633
20
-85.4139
11
165.677
21
-85.4395
0
LINE
8
BLACK
6
CONTINUOUS
10
165.677
20
-85.4395
11
165.71
21
-85.4787
0
LINE
8
BLACK
6
CONTINUOUS
10
165.71
20
-85.4787
11
165.73
21
-85.5525
0
LINE
8
BLACK
6
CONTINUOUS
10
165.73
20
-85.5525
11
165.73
21
-85.8975
0
LINE
8
BLACK
6
CONTINUOUS
10
165.73
20
-85.8975
11
165.721
21
-85.9479
0
LINE
8
BLACK
6
CONTINUOUS
10
165.721
20
-85.9479
11
165.695
21
-85.9923
0
LINE
8
BLACK
6
CONTINUOUS
10
165.695
20
-85.9923
11
165.656
21
-86.0252
0
LINE
8
BLACK
6
CONTINUOUS
10
165.656
20
-86.0252
11
165.582
21
-86.045
0
LINE
8
BLACK
6
CONTINUOUS
10
165.582
20
-86.045
11
165.287
21
-86.045
0
LINE
8
BLACK
6
CONTINUOUS
10
165.287
20
-86.045
11
165.237
21
-86.0361
0
LINE
8
BLACK
6
CONTINUOUS
10
165.237
20
-86.0361
11
165.193
21
-86.0105
0
LINE
8
BLACK
6
CONTINUOUS
10
165.193
20
-86.0105
11
165.16
21
-85.9712
0
LINE
8
BLACK
6
CONTINUOUS
10
165.16
20
-85.9712
11
165.14
21
-85.8975
0
LINE
8
BLACK
6
CONTINUOUS
10
165.14
20
-85.8975
11
165.14
21
-85.5525
0
LINE
8
BLACK
6
CONTINUOUS
10
165.14
20
-85.5525
11
165.149
21
-85.5021
0
LINE
8
BLACK
6
CONTINUOUS
10
165.149
20
-85.5021
11
165.175
21
-85.4577
0
LINE
8
BLACK
6
CONTINUOUS
10
165.175
20
-85.4577
11
165.214
21
-85.4248
0
LINE
8
BLACK
6
CONTINUOUS
10
165.214
20
-85.4248
11
165.287
21
-85.405
0
LINE
8
BLACK
6
CONTINUOUS
10
165.287
20
-85.405
11
165.582
21
-85.405
0
LINE
8
BLACK
6
CONTINUOUS
10
165.582
20
-85.405
11
165.633
21
-85.4139
0
LINE
8
BLACK
6
CONTINUOUS
10
164.663
20
-85.4139
11
164.707
21
-85.4395
0
LINE
8
BLACK
6
CONTINUOUS
10
164.707
20
-85.4395
11
164.74
21
-85.4787
0
LINE
8
BLACK
6
CONTINUOUS
10
164.74
20
-85.4787
11
164.76
21
-85.5525
0
LINE
8
BLACK
6
CONTINUOUS
10
164.76
20
-85.5525
11
164.76
21
-85.8975
0
LINE
8
BLACK
6
CONTINUOUS
10
164.76
20
-85.8975
11
164.751
21
-85.9479
0
LINE
8
BLACK
6
CONTINUOUS
10
164.751
20
-85.9479
11
164.725
21
-85.9923
0
LINE
8
BLACK
6
CONTINUOUS
10
164.725
20
-85.9923
11
164.686
21
-86.0252
0
LINE
8
BLACK
6
CONTINUOUS
10
164.686
20
-86.0252
11
164.612
21
-86.045
0
LINE
8
BLACK
6
CONTINUOUS
10
164.612
20
-86.045
11
164.317
21
-86.045
0
LINE
8
BLACK
6
CONTINUOUS
10
164.317
20
-86.045
11
164.267
21
-86.0361
0
LINE
8
BLACK
6
CONTINUOUS
10
164.267
20
-86.0361
11
164.223
21
-86.0105
0
LINE
8
BLACK
6
CONTINUOUS
10
164.223
20
-86.0105
11
164.19
21
-85.9712
0
LINE
8
BLACK
6
CONTINUOUS
10
164.19
20
-85.9712
11
164.17
21
-85.8975
0
LINE
8
BLACK
6
CONTINUOUS
10
164.17
20
-85.8975
11
164.17
21
-85.5525
0
LINE
8
BLACK
6
CONTINUOUS
10
164.17
20
-85.5525
11
164.179
21
-85.5021
0
LINE
8
BLACK
6
CONTINUOUS
10
164.179
20
-85.5021
11
164.205
21
-85.4577
0
LINE
8
BLACK
6
CONTINUOUS
10
164.205
20
-85.4577
11
164.244
21
-85.4248
0
LINE
8
BLACK
6
CONTINUOUS
10
164.244
20
-85.4248
11
164.317
21
-85.405
0
LINE
8
BLACK
6
CONTINUOUS
10
164.317
20
-85.405
11
164.612
21
-85.405
0
LINE
8
BLACK
6
CONTINUOUS
10
164.612
20
-85.405
11
164.663
21
-85.4139
0
LINE
8
BLACK
6
CONTINUOUS
10
105.633
20
-85.4389
11
105.677
21
-85.4645
0
LINE
8
BLACK
6
CONTINUOUS
10
105.677
20
-85.4645
11
105.71
21
-85.5037
0
LINE
8
BLACK
6
CONTINUOUS
10
105.71
20
-85.5037
11
105.73
21
-85.5775
0
LINE
8
BLACK
6
CONTINUOUS
10
105.73
20
-85.5775
11
105.73
21
-85.8725
0
LINE
8
BLACK
6
CONTINUOUS
10
105.73
20
-85.8725
11
105.721
21
-85.9229
0
LINE
8
BLACK
6
CONTINUOUS
10
105.721
20
-85.9229
11
105.695
21
-85.9673
0
LINE
8
BLACK
6
CONTINUOUS
10
105.695
20
-85.9673
11
105.656
21
-86.0002
0
LINE
8
BLACK
6
CONTINUOUS
10
105.656
20
-86.0002
11
105.582
21
-86.02
0
LINE
8
BLACK
6
CONTINUOUS
10
105.582
20
-86.02
11
105.237
21
-86.02
0
LINE
8
BLACK
6
CONTINUOUS
10
105.237
20
-86.02
11
105.187
21
-86.0111
0
LINE
8
BLACK
6
CONTINUOUS
10
105.187
20
-86.0111
11
105.143
21
-85.9855
0
LINE
8
BLACK
6
CONTINUOUS
10
105.143
20
-85.9855
11
105.11
21
-85.9462
0
LINE
8
BLACK
6
CONTINUOUS
10
105.11
20
-85.9462
11
105.09
21
-85.8725
0
LINE
8
BLACK
6
CONTINUOUS
10
105.09
20
-85.8725
11
105.09
21
-85.5775
0
LINE
8
BLACK
6
CONTINUOUS
10
105.09
20
-85.5775
11
105.099
21
-85.5271
0
LINE
8
BLACK
6
CONTINUOUS
10
105.099
20
-85.5271
11
105.125
21
-85.4827
0
LINE
8
BLACK
6
CONTINUOUS
10
105.125
20
-85.4827
11
105.164
21
-85.4498
0
LINE
8
BLACK
6
CONTINUOUS
10
105.164
20
-85.4498
11
105.237
21
-85.43
0
LINE
8
BLACK
6
CONTINUOUS
10
105.237
20
-85.43
11
105.582
21
-85.43
0
LINE
8
BLACK
6
CONTINUOUS
10
105.582
20
-85.43
11
105.633
21
-85.4389
0
LINE
8
BLACK
6
CONTINUOUS
10
177.862
20
-85.9
11
176.722
21
-85.9
0
LINE
8
BLACK
6
CONTINUOUS
10
176.722
20
-85.9
11
176.722
21
-85.6
0
LINE
8
BLACK
6
CONTINUOUS
10
176.722
20
-85.6
11
177.862
21
-85.6
0
LINE
8
BLACK
6
CONTINUOUS
10
177.862
20
-85.6
11
177.862
21
-85.9
0
LINE
8
BLACK
6
CONTINUOUS
10
168.313
20
-85.0048
11
168.332
21
-85.0156
0
LINE
8
BLACK
6
CONTINUOUS
10
168.332
20
-85.0156
11
168.346
21
-85.0322
0
LINE
8
BLACK
6
CONTINUOUS
10
168.346
20
-85.0322
11
168.354
21
-85.0635
0
LINE
8
BLACK
6
CONTINUOUS
10
168.354
20
-85.0635
11
168.354
21
-85.7635
0
LINE
8
BLACK
6
CONTINUOUS
10
168.354
20
-85.7635
11
168.35
21
-85.7849
0
LINE
8
BLACK
6
CONTINUOUS
10
168.35
20
-85.7849
11
168.339
21
-85.8037
0
LINE
8
BLACK
6
CONTINUOUS
10
168.339
20
-85.8037
11
168.323
21
-85.8176
0
LINE
8
BLACK
6
CONTINUOUS
10
168.323
20
-85.8176
11
168.291
21
-85.826
0
LINE
8
BLACK
6
CONTINUOUS
10
168.291
20
-85.826
11
168.166
21
-85.826
0
LINE
8
BLACK
6
CONTINUOUS
10
168.166
20
-85.826
11
168.145
21
-85.8222
0
LINE
8
BLACK
6
CONTINUOUS
10
168.145
20
-85.8222
11
168.126
21
-85.8114
0
LINE
8
BLACK
6
CONTINUOUS
10
168.126
20
-85.8114
11
168.112
21
-85.7947
0
LINE
8
BLACK
6
CONTINUOUS
10
168.112
20
-85.7947
11
168.104
21
-85.7635
0
LINE
8
BLACK
6
CONTINUOUS
10
168.104
20
-85.7635
11
168.104
21
-85.0635
0
LINE
8
BLACK
6
CONTINUOUS
10
168.104
20
-85.0635
11
168.108
21
-85.0421
0
LINE
8
BLACK
6
CONTINUOUS
10
168.108
20
-85.0421
11
168.119
21
-85.0233
0
LINE
8
BLACK
6
CONTINUOUS
10
168.119
20
-85.0233
11
168.135
21
-85.0094
0
LINE
8
BLACK
6
CONTINUOUS
10
168.135
20
-85.0094
11
168.166
21
-85.001
0
LINE
8
BLACK
6
CONTINUOUS
10
168.166
20
-85.001
11
168.291
21
-85.001
0
LINE
8
BLACK
6
CONTINUOUS
10
168.291
20
-85.001
11
168.313
21
-85.0048
0
LINE
8
BLACK
6
CONTINUOUS
10
170.813
20
-85.0048
11
170.832
21
-85.0156
0
LINE
8
BLACK
6
CONTINUOUS
10
170.832
20
-85.0156
11
170.846
21
-85.0322
0
LINE
8
BLACK
6
CONTINUOUS
10
170.846
20
-85.0322
11
170.854
21
-85.0635
0
LINE
8
BLACK
6
CONTINUOUS
10
170.854
20
-85.0635
11
170.854
21
-85.7635
0
LINE
8
BLACK
6
CONTINUOUS
10
170.854
20
-85.7635
11
170.85
21
-85.7849
0
LINE
8
BLACK
6
CONTINUOUS
10
170.85
20
-85.7849
11
170.839
21
-85.8037
0
LINE
8
BLACK
6
CONTINUOUS
10
170.839
20
-85.8037
11
170.823
21
-85.8176
0
LINE
8
BLACK
6
CONTINUOUS
10
170.823
20
-85.8176
11
170.791
21
-85.826
0
LINE
8
BLACK
6
CONTINUOUS
10
170.791
20
-85.826
11
170.666
21
-85.826
0
LINE
8
BLACK
6
CONTINUOUS
10
170.666
20
-85.826
11
170.645
21
-85.8222
0
LINE
8
BLACK
6
CONTINUOUS
10
170.645
20
-85.8222
11
170.626
21
-85.8114
0
LINE
8
BLACK
6
CONTINUOUS
10
170.626
20
-85.8114
11
170.612
21
-85.7947
0
LINE
8
BLACK
6
CONTINUOUS
10
170.612
20
-85.7947
11
170.604
21
-85.7635
0
LINE
8
BLACK
6
CONTINUOUS
10
170.604
20
-85.7635
11
170.604
21
-85.0635
0
LINE
8
BLACK
6
CONTINUOUS
10
170.604
20
-85.0635
11
170.608
21
-85.0421
0
LINE
8
BLACK
6
CONTINUOUS
10
170.608
20
-85.0421
11
170.619
21
-85.0233
0
LINE
8
BLACK
6
CONTINUOUS
10
170.619
20
-85.0233
11
170.635
21
-85.0094
0
LINE
8
BLACK
6
CONTINUOUS
10
170.635
20
-85.0094
11
170.666
21
-85.001
0
LINE
8
BLACK
6
CONTINUOUS
10
170.666
20
-85.001
11
170.791
21
-85.001
0
LINE
8
BLACK
6
CONTINUOUS
10
170.791
20
-85.001
11
170.813
21
-85.0048
0
LINE
8
BLACK
6
CONTINUOUS
10
170.313
20
-85.0048
11
170.332
21
-85.0156
0
LINE
8
BLACK
6
CONTINUOUS
10
170.332
20
-85.0156
11
170.346
21
-85.0322
0
LINE
8
BLACK
6
CONTINUOUS
10
170.346
20
-85.0322
11
170.354
21
-85.0635
0
LINE
8
BLACK
6
CONTINUOUS
10
170.354
20
-85.0635
11
170.354
21
-85.7635
0
LINE
8
BLACK
6
CONTINUOUS
10
170.354
20
-85.7635
11
170.35
21
-85.7849
0
LINE
8
BLACK
6
CONTINUOUS
10
170.35
20
-85.7849
11
170.339
21
-85.8037
0
LINE
8
BLACK
6
CONTINUOUS
10
170.339
20
-85.8037
11
170.323
21
-85.8176
0
LINE
8
BLACK
6
CONTINUOUS
10
170.323
20
-85.8176
11
170.291
21
-85.826
0
LINE
8
BLACK
6
CONTINUOUS
10
170.291
20
-85.826
11
170.166
21
-85.826
0
LINE
8
BLACK
6
CONTINUOUS
10
170.166
20
-85.826
11
170.145
21
-85.8222
0
LINE
8
BLACK
6
CONTINUOUS
10
170.145
20
-85.8222
11
170.126
21
-85.8114
0
LINE
8
BLACK
6
CONTINUOUS
10
170.126
20
-85.8114
11
170.112
21
-85.7947
0
LINE
8
BLACK
6
CONTINUOUS
10
170.112
20
-85.7947
11
170.104
21
-85.7635
0
LINE
8
BLACK
6
CONTINUOUS
10
170.104
20
-85.7635
11
170.104
21
-85.0635
0
LINE
8
BLACK
6
CONTINUOUS
10
170.104
20
-85.0635
11
170.108
21
-85.0421
0
LINE
8
BLACK
6
CONTINUOUS
10
170.108
20
-85.0421
11
170.119
21
-85.0233
0
LINE
8
BLACK
6
CONTINUOUS
10
170.119
20
-85.0233
11
170.135
21
-85.0094
0
LINE
8
BLACK
6
CONTINUOUS
10
170.135
20
-85.0094
11
170.166
21
-85.001
0
LINE
8
BLACK
6
CONTINUOUS
10
170.166
20
-85.001
11
170.291
21
-85.001
0
LINE
8
BLACK
6
CONTINUOUS
10
170.291
20
-85.001
11
170.313
21
-85.0048
0
LINE
8
BLACK
6
CONTINUOUS
10
169.813
20
-85.0048
11
169.832
21
-85.0156
0
LINE
8
BLACK
6
CONTINUOUS
10
169.832
20
-85.0156
11
169.846
21
-85.0322
0
LINE
8
BLACK
6
CONTINUOUS
10
169.846
20
-85.0322
11
169.854
21
-85.0635
0
LINE
8
BLACK
6
CONTINUOUS
10
169.854
20
-85.0635
11
169.854
21
-85.7635
0
LINE
8
BLACK
6
CONTINUOUS
10
169.854
20
-85.7635
11
169.85
21
-85.7849
0
LINE
8
BLACK
6
CONTINUOUS
10
169.85
20
-85.7849
11
169.839
21
-85.8037
0
LINE
8
BLACK
6
CONTINUOUS
10
169.839
20
-85.8037
11
169.823
21
-85.8176
0
LINE
8
BLACK
6
CONTINUOUS
10
169.823
20
-85.8176
11
169.791
21
-85.826
0
LINE
8
BLACK
6
CONTINUOUS
10
169.791
20
-85.826
11
169.666
21
-85.826
0
LINE
8
BLACK
6
CONTINUOUS
10
169.666
20
-85.826
11
169.645
21
-85.8222
0
LINE
8
BLACK
6
CONTINUOUS
10
169.645
20
-85.8222
11
169.626
21
-85.8114
0
LINE
8
BLACK
6
CONTINUOUS
10
169.626
20
-85.8114
11
169.612
21
-85.7947
0
LINE
8
BLACK
6
CONTINUOUS
10
169.612
20
-85.7947
11
169.604
21
-85.7635
0
LINE
8
BLACK
6
CONTINUOUS
10
169.604
20
-85.7635
11
169.604
21
-85.0635
0
LINE
8
BLACK
6
CONTINUOUS
10
169.604
20
-85.0635
11
169.608
21
-85.0421
0
LINE
8
BLACK
6
CONTINUOUS
10
169.608
20
-85.0421
11
169.619
21
-85.0233
0
LINE
8
BLACK
6
CONTINUOUS
10
169.619
20
-85.0233
11
169.635
21
-85.0094
0
LINE
8
BLACK
6
CONTINUOUS
10
169.635
20
-85.0094
11
169.666
21
-85.001
0
LINE
8
BLACK
6
CONTINUOUS
10
169.666
20
-85.001
11
169.791
21
-85.001
0
LINE
8
BLACK
6
CONTINUOUS
10
169.791
20
-85.001
11
169.813
21
-85.0048
0
LINE
8
BLACK
6
CONTINUOUS
10
169.313
20
-85.0048
11
169.332
21
-85.0156
0
LINE
8
BLACK
6
CONTINUOUS
10
169.332
20
-85.0156
11
169.346
21
-85.0322
0
LINE
8
BLACK
6
CONTINUOUS
10
169.346
20
-85.0322
11
169.354
21
-85.0635
0
LINE
8
BLACK
6
CONTINUOUS
10
169.354
20
-85.0635
11
169.354
21
-85.7635
0
LINE
8
BLACK
6
CONTINUOUS
10
169.354
20
-85.7635
11
169.35
21
-85.7849
0
LINE
8
BLACK
6
CONTINUOUS
10
169.35
20
-85.7849
11
169.339
21
-85.8037
0
LINE
8
BLACK
6
CONTINUOUS
10
169.339
20
-85.8037
11
169.323
21
-85.8176
0
LINE
8
BLACK
6
CONTINUOUS
10
169.323
20
-85.8176
11
169.291
21
-85.826
0
LINE
8
BLACK
6
CONTINUOUS
10
169.291
20
-85.826
11
169.166
21
-85.826
0
LINE
8
BLACK
6
CONTINUOUS
10
169.166
20
-85.826
11
169.145
21
-85.8222
0
LINE
8
BLACK
6
CONTINUOUS
10
169.145
20
-85.8222
11
169.126
21
-85.8114
0
LINE
8
BLACK
6
CONTINUOUS
10
169.126
20
-85.8114
11
169.112
21
-85.7947
0
LINE
8
BLACK
6
CONTINUOUS
10
169.112
20
-85.7947
11
169.104
21
-85.7635
0
LINE
8
BLACK
6
CONTINUOUS
10
169.104
20
-85.7635
11
169.104
21
-85.0635
0
LINE
8
BLACK
6
CONTINUOUS
10
169.104
20
-85.0635
11
169.108
21
-85.0421
0
LINE
8
BLACK
6
CONTINUOUS
10
169.108
20
-85.0421
11
169.119
21
-85.0233
0
LINE
8
BLACK
6
CONTINUOUS
10
169.119
20
-85.0233
11
169.135
21
-85.0094
0
LINE
8
BLACK
6
CONTINUOUS
10
169.135
20
-85.0094
11
169.166
21
-85.001
0
LINE
8
BLACK
6
CONTINUOUS
10
169.166
20
-85.001
11
169.291
21
-85.001
0
LINE
8
BLACK
6
CONTINUOUS
10
169.291
20
-85.001
11
169.313
21
-85.0048
0
LINE
8
BLACK
6
CONTINUOUS
10
168.813
20
-85.0048
11
168.832
21
-85.0156
0
LINE
8
BLACK
6
CONTINUOUS
10
168.832
20
-85.0156
11
168.846
21
-85.0322
0
LINE
8
BLACK
6
CONTINUOUS
10
168.846
20
-85.0322
11
168.854
21
-85.0635
0
LINE
8
BLACK
6
CONTINUOUS
10
168.854
20
-85.0635
11
168.854
21
-85.7635
0
LINE
8
BLACK
6
CONTINUOUS
10
168.854
20
-85.7635
11
168.85
21
-85.7849
0
LINE
8
BLACK
6
CONTINUOUS
10
168.85
20
-85.7849
11
168.839
21
-85.8037
0
LINE
8
BLACK
6
CONTINUOUS
10
168.839
20
-85.8037
11
168.823
21
-85.8176
0
LINE
8
BLACK
6
CONTINUOUS
10
168.823
20
-85.8176
11
168.791
21
-85.826
0
LINE
8
BLACK
6
CONTINUOUS
10
168.791
20
-85.826
11
168.666
21
-85.826
0
LINE
8
BLACK
6
CONTINUOUS
10
168.666
20
-85.826
11
168.645
21
-85.8222
0
LINE
8
BLACK
6
CONTINUOUS
10
168.645
20
-85.8222
11
168.626
21
-85.8114
0
LINE
8
BLACK
6
CONTINUOUS
10
168.626
20
-85.8114
11
168.612
21
-85.7947
0
LINE
8
BLACK
6
CONTINUOUS
10
168.612
20
-85.7947
11
168.604
21
-85.7635
0
LINE
8
BLACK
6
CONTINUOUS
10
168.604
20
-85.7635
11
168.604
21
-85.0635
0
LINE
8
BLACK
6
CONTINUOUS
10
168.604
20
-85.0635
11
168.608
21
-85.0421
0
LINE
8
BLACK
6
CONTINUOUS
10
168.608
20
-85.0421
11
168.619
21
-85.0233
0
LINE
8
BLACK
6
CONTINUOUS
10
168.619
20
-85.0233
11
168.635
21
-85.0094
0
LINE
8
BLACK
6
CONTINUOUS
10
168.635
20
-85.0094
11
168.666
21
-85.001
0
LINE
8
BLACK
6
CONTINUOUS
10
168.666
20
-85.001
11
168.791
21
-85.001
0
LINE
8
BLACK
6
CONTINUOUS
10
168.791
20
-85.001
11
168.813
21
-85.0048
0
LINE
8
BLACK
6
CONTINUOUS
10
174.08
20
-84.8139
11
174.125
21
-84.8395
0
LINE
8
BLACK
6
CONTINUOUS
10
174.125
20
-84.8395
11
174.158
21
-84.8787
0
LINE
8
BLACK
6
CONTINUOUS
10
174.158
20
-84.8787
11
174.177
21
-84.9525
0
LINE
8
BLACK
6
CONTINUOUS
10
174.177
20
-84.9525
11
174.177
21
-85.2975
0
LINE
8
BLACK
6
CONTINUOUS
10
174.177
20
-85.2975
11
174.169
21
-85.3479
0
LINE
8
BLACK
6
CONTINUOUS
10
174.169
20
-85.3479
11
174.143
21
-85.3923
0
LINE
8
BLACK
6
CONTINUOUS
10
174.143
20
-85.3923
11
174.104
21
-85.4252
0
LINE
8
BLACK
6
CONTINUOUS
10
174.104
20
-85.4252
11
174.03
21
-85.445
0
LINE
8
BLACK
6
CONTINUOUS
10
174.03
20
-85.445
11
173.735
21
-85.445
0
LINE
8
BLACK
6
CONTINUOUS
10
173.735
20
-85.445
11
173.685
21
-85.4361
0
LINE
8
BLACK
6
CONTINUOUS
10
173.685
20
-85.4361
11
173.64
21
-85.4105
0
LINE
8
BLACK
6
CONTINUOUS
10
173.64
20
-85.4105
11
173.607
21
-85.3712
0
LINE
8
BLACK
6
CONTINUOUS
10
173.607
20
-85.3712
11
173.588
21
-85.2975
0
LINE
8
BLACK
6
CONTINUOUS
10
173.588
20
-85.2975
11
173.588
21
-84.9525
0
LINE
8
BLACK
6
CONTINUOUS
10
173.588
20
-84.9525
11
173.596
21
-84.9021
0
LINE
8
BLACK
6
CONTINUOUS
10
173.596
20
-84.9021
11
173.622
21
-84.8577
0
LINE
8
BLACK
6
CONTINUOUS
10
173.622
20
-84.8577
11
173.661
21
-84.8248
0
LINE
8
BLACK
6
CONTINUOUS
10
173.661
20
-84.8248
11
173.735
21
-84.805
0
LINE
8
BLACK
6
CONTINUOUS
10
173.735
20
-84.805
11
174.03
21
-84.805
0
LINE
8
BLACK
6
CONTINUOUS
10
174.03
20
-84.805
11
174.08
21
-84.8139
0
LINE
8
BLACK
6
CONTINUOUS
10
175.05
20
-84.8139
11
175.095
21
-84.8395
0
LINE
8
BLACK
6
CONTINUOUS
10
175.095
20
-84.8395
11
175.128
21
-84.8787
0
LINE
8
BLACK
6
CONTINUOUS
10
175.128
20
-84.8787
11
175.147
21
-84.9525
0
LINE
8
BLACK
6
CONTINUOUS
10
175.147
20
-84.9525
11
175.147
21
-85.2975
0
LINE
8
BLACK
6
CONTINUOUS
10
175.147
20
-85.2975
11
175.139
21
-85.3479
0
LINE
8
BLACK
6
CONTINUOUS
10
175.139
20
-85.3479
11
175.113
21
-85.3923
0
LINE
8
BLACK
6
CONTINUOUS
10
175.113
20
-85.3923
11
175.074
21
-85.4252
0
LINE
8
BLACK
6
CONTINUOUS
10
175.074
20
-85.4252
11
175
21
-85.445
0
LINE
8
BLACK
6
CONTINUOUS
10
175
20
-85.445
11
174.705
21
-85.445
0
LINE
8
BLACK
6
CONTINUOUS
10
174.705
20
-85.445
11
174.655
21
-85.4361
0
LINE
8
BLACK
6
CONTINUOUS
10
174.655
20
-85.4361
11
174.61
21
-85.4105
0
LINE
8
BLACK
6
CONTINUOUS
10
174.61
20
-85.4105
11
174.577
21
-85.3712
0
LINE
8
BLACK
6
CONTINUOUS
10
174.577
20
-85.3712
11
174.558
21
-85.2975
0
LINE
8
BLACK
6
CONTINUOUS
10
174.558
20
-85.2975
11
174.558
21
-84.9525
0
LINE
8
BLACK
6
CONTINUOUS
10
174.558
20
-84.9525
11
174.566
21
-84.9021
0
LINE
8
BLACK
6
CONTINUOUS
10
174.566
20
-84.9021
11
174.592
21
-84.8577
0
LINE
8
BLACK
6
CONTINUOUS
10
174.592
20
-84.8577
11
174.631
21
-84.8248
0
LINE
8
BLACK
6
CONTINUOUS
10
174.631
20
-84.8248
11
174.705
21
-84.805
0
LINE
8
BLACK
6
CONTINUOUS
10
174.705
20
-84.805
11
175
21
-84.805
0
LINE
8
BLACK
6
CONTINUOUS
10
175
20
-84.805
11
175.05
21
-84.8139
0
LINE
8
BLACK
6
CONTINUOUS
10
177.862
20
-85.4
11
176.722
21
-85.4
0
LINE
8
BLACK
6
CONTINUOUS
10
176.722
20
-85.4
11
176.722
21
-85.1
0
LINE
8
BLACK
6
CONTINUOUS
10
176.722
20
-85.1
11
177.862
21
-85.1
0
LINE
8
BLACK
6
CONTINUOUS
10
177.862
20
-85.1
11
177.862
21
-85.4
0
LINE
8
BLACK
6
CONTINUOUS
10
105.633
20
-84.4689
11
105.677
21
-84.4945
0
LINE
8
BLACK
6
CONTINUOUS
10
105.677
20
-84.4945
11
105.71
21
-84.5337
0
LINE
8
BLACK
6
CONTINUOUS
10
105.71
20
-84.5337
11
105.73
21
-84.6075
0
LINE
8
BLACK
6
CONTINUOUS
10
105.73
20
-84.6075
11
105.73
21
-84.9025
0
LINE
8
BLACK
6
CONTINUOUS
10
105.73
20
-84.9025
11
105.721
21
-84.9529
0
LINE
8
BLACK
6
CONTINUOUS
10
105.721
20
-84.9529
11
105.695
21
-84.9973
0
LINE
8
BLACK
6
CONTINUOUS
10
105.695
20
-84.9973
11
105.656
21
-85.0302
0
LINE
8
BLACK
6
CONTINUOUS
10
105.656
20
-85.0302
11
105.582
21
-85.05
0
LINE
8
BLACK
6
CONTINUOUS
10
105.582
20
-85.05
11
105.237
21
-85.05
0
LINE
8
BLACK
6
CONTINUOUS
10
105.237
20
-85.05
11
105.187
21
-85.0411
0
LINE
8
BLACK
6
CONTINUOUS
10
105.187
20
-85.0411
11
105.143
21
-85.0155
0
LINE
8
BLACK
6
CONTINUOUS
10
105.143
20
-85.0155
11
105.11
21
-84.9762
0
LINE
8
BLACK
6
CONTINUOUS
10
105.11
20
-84.9762
11
105.09
21
-84.9025
0
LINE
8
BLACK
6
CONTINUOUS
10
105.09
20
-84.9025
11
105.09
21
-84.6075
0
LINE
8
BLACK
6
CONTINUOUS
10
105.09
20
-84.6075
11
105.099
21
-84.5571
0
LINE
8
BLACK
6
CONTINUOUS
10
105.099
20
-84.5571
11
105.125
21
-84.5127
0
LINE
8
BLACK
6
CONTINUOUS
10
105.125
20
-84.5127
11
105.164
21
-84.4798
0
LINE
8
BLACK
6
CONTINUOUS
10
105.164
20
-84.4798
11
105.237
21
-84.46
0
LINE
8
BLACK
6
CONTINUOUS
10
105.237
20
-84.46
11
105.582
21
-84.46
0
LINE
8
BLACK
6
CONTINUOUS
10
105.582
20
-84.46
11
105.633
21
-84.4689
0
LINE
8
BLACK
6
CONTINUOUS
10
162.082
20
-84.99
11
160.582
21
-84.99
0
LINE
8
BLACK
6
CONTINUOUS
10
160.582
20
-84.99
11
160.582
21
-84.09
0
LINE
8
BLACK
6
CONTINUOUS
10
160.582
20
-84.09
11
162.082
21
-84.09
0
LINE
8
BLACK
6
CONTINUOUS
10
162.082
20
-84.09
11
162.082
21
-84.99
0
LINE
8
BLACK
6
CONTINUOUS
10
177.862
20
-84.9
11
176.722
21
-84.9
0
LINE
8
BLACK
6
CONTINUOUS
10
176.722
20
-84.9
11
176.722
21
-84.6
0
LINE
8
BLACK
6
CONTINUOUS
10
176.722
20
-84.6
11
177.862
21
-84.6
0
LINE
8
BLACK
6
CONTINUOUS
10
177.862
20
-84.6
11
177.862
21
-84.9
0
LINE
8
BLACK
6
CONTINUOUS
10
165.633
20
-84.1439
11
165.677
21
-84.1695
0
LINE
8
BLACK
6
CONTINUOUS
10
165.677
20
-84.1695
11
165.71
21
-84.2087
0
LINE
8
BLACK
6
CONTINUOUS
10
165.71
20
-84.2087
11
165.73
21
-84.2825
0
LINE
8
BLACK
6
CONTINUOUS
10
165.73
20
-84.2825
11
165.73
21
-84.6275
0
LINE
8
BLACK
6
CONTINUOUS
10
165.73
20
-84.6275
11
165.721
21
-84.6779
0
LINE
8
BLACK
6
CONTINUOUS
10
165.721
20
-84.6779
11
165.695
21
-84.7223
0
LINE
8
BLACK
6
CONTINUOUS
10
165.695
20
-84.7223
11
165.656
21
-84.7552
0
LINE
8
BLACK
6
CONTINUOUS
10
165.656
20
-84.7552
11
165.582
21
-84.775
0
LINE
8
BLACK
6
CONTINUOUS
10
165.582
20
-84.775
11
165.287
21
-84.775
0
LINE
8
BLACK
6
CONTINUOUS
10
165.287
20
-84.775
11
165.237
21
-84.7661
0
LINE
8
BLACK
6
CONTINUOUS
10
165.237
20
-84.7661
11
165.193
21
-84.7405
0
LINE
8
BLACK
6
CONTINUOUS
10
165.193
20
-84.7405
11
165.16
21
-84.7013
0
LINE
8
BLACK
6
CONTINUOUS
10
165.16
20
-84.7013
11
165.14
21
-84.6275
0
LINE
8
BLACK
6
CONTINUOUS
10
165.14
20
-84.6275
11
165.14
21
-84.2825
0
LINE
8
BLACK
6
CONTINUOUS
10
165.14
20
-84.2825
11
165.149
21
-84.2321
0
LINE
8
BLACK
6
CONTINUOUS
10
165.149
20
-84.2321
11
165.175
21
-84.1877
0
LINE
8
BLACK
6
CONTINUOUS
10
165.175
20
-84.1877
11
165.214
21
-84.1548
0
LINE
8
BLACK
6
CONTINUOUS
10
165.214
20
-84.1548
11
165.287
21
-84.135
0
LINE
8
BLACK
6
CONTINUOUS
10
165.287
20
-84.135
11
165.582
21
-84.135
0
LINE
8
BLACK
6
CONTINUOUS
10
165.582
20
-84.135
11
165.633
21
-84.1439
0
LINE
8
BLACK
6
CONTINUOUS
10
164.663
20
-84.1439
11
164.707
21
-84.1695
0
LINE
8
BLACK
6
CONTINUOUS
10
164.707
20
-84.1695
11
164.74
21
-84.2087
0
LINE
8
BLACK
6
CONTINUOUS
10
164.74
20
-84.2087
11
164.76
21
-84.2825
0
LINE
8
BLACK
6
CONTINUOUS
10
164.76
20
-84.2825
11
164.76
21
-84.6275
0
LINE
8
BLACK
6
CONTINUOUS
10
164.76
20
-84.6275
11
164.751
21
-84.6779
0
LINE
8
BLACK
6
CONTINUOUS
10
164.751
20
-84.6779
11
164.725
21
-84.7223
0
LINE
8
BLACK
6
CONTINUOUS
10
164.725
20
-84.7223
11
164.686
21
-84.7552
0
LINE
8
BLACK
6
CONTINUOUS
10
164.686
20
-84.7552
11
164.612
21
-84.775
0
LINE
8
BLACK
6
CONTINUOUS
10
164.612
20
-84.775
11
164.317
21
-84.775
0
LINE
8
BLACK
6
CONTINUOUS
10
164.317
20
-84.775
11
164.267
21
-84.7661
0
LINE
8
BLACK
6
CONTINUOUS
10
164.267
20
-84.7661
11
164.223
21
-84.7405
0
LINE
8
BLACK
6
CONTINUOUS
10
164.223
20
-84.7405
11
164.19
21
-84.7013
0
LINE
8
BLACK
6
CONTINUOUS
10
164.19
20
-84.7013
11
164.17
21
-84.6275
0
LINE
8
BLACK
6
CONTINUOUS
10
164.17
20
-84.6275
11
164.17
21
-84.2825
0
LINE
8
BLACK
6
CONTINUOUS
10
164.17
20
-84.2825
11
164.179
21
-84.2321
0
LINE
8
BLACK
6
CONTINUOUS
10
164.179
20
-84.2321
11
164.205
21
-84.1877
0
LINE
8
BLACK
6
CONTINUOUS
10
164.205
20
-84.1877
11
164.244
21
-84.1548
0
LINE
8
BLACK
6
CONTINUOUS
10
164.244
20
-84.1548
11
164.317
21
-84.135
0
LINE
8
BLACK
6
CONTINUOUS
10
164.317
20
-84.135
11
164.612
21
-84.135
0
LINE
8
BLACK
6
CONTINUOUS
10
164.612
20
-84.135
11
164.663
21
-84.1439
0
LINE
8
BLACK
6
CONTINUOUS
10
177.862
20
-84.4
11
176.722
21
-84.4
0
LINE
8
BLACK
6
CONTINUOUS
10
176.722
20
-84.4
11
176.722
21
-84.1
0
LINE
8
BLACK
6
CONTINUOUS
10
176.722
20
-84.1
11
177.862
21
-84.1
0
LINE
8
BLACK
6
CONTINUOUS
10
177.862
20
-84.1
11
177.862
21
-84.4
0
LINE
8
BLACK
6
CONTINUOUS
10
175.065
20
-83.7629
11
175.11
21
-83.7885
0
LINE
8
BLACK
6
CONTINUOUS
10
175.11
20
-83.7885
11
175.143
21
-83.8277
0
LINE
8
BLACK
6
CONTINUOUS
10
175.143
20
-83.8277
11
175.162
21
-83.9015
0
LINE
8
BLACK
6
CONTINUOUS
10
175.162
20
-83.9015
11
175.162
21
-84.2465
0
LINE
8
BLACK
6
CONTINUOUS
10
175.162
20
-84.2465
11
175.154
21
-84.2969
0
LINE
8
BLACK
6
CONTINUOUS
10
175.154
20
-84.2969
11
175.128
21
-84.3413
0
LINE
8
BLACK
6
CONTINUOUS
10
175.128
20
-84.3413
11
175.089
21
-84.3742
0
LINE
8
BLACK
6
CONTINUOUS
10
175.089
20
-84.3742
11
175.015
21
-84.394
0
LINE
8
BLACK
6
CONTINUOUS
10
175.015
20
-84.394
11
174.72
21
-84.394
0
LINE
8
BLACK
6
CONTINUOUS
10
174.72
20
-84.394
11
174.67
21
-84.3851
0
LINE
8
BLACK
6
CONTINUOUS
10
174.67
20
-84.3851
11
174.625
21
-84.3595
0
LINE
8
BLACK
6
CONTINUOUS
10
174.625
20
-84.3595
11
174.592
21
-84.3203
0
LINE
8
BLACK
6
CONTINUOUS
10
174.592
20
-84.3203
11
174.572
21
-84.2465
0
LINE
8
BLACK
6
CONTINUOUS
10
174.572
20
-84.2465
11
174.572
21
-83.9015
0
LINE
8
BLACK
6
CONTINUOUS
10
174.572
20
-83.9015
11
174.581
21
-83.8511
0
LINE
8
BLACK
6
CONTINUOUS
10
174.581
20
-83.8511
11
174.607
21
-83.8067
0
LINE
8
BLACK
6
CONTINUOUS
10
174.607
20
-83.8067
11
174.646
21
-83.7738
0
LINE
8
BLACK
6
CONTINUOUS
10
174.646
20
-83.7738
11
174.72
21
-83.754
0
LINE
8
BLACK
6
CONTINUOUS
10
174.72
20
-83.754
11
175.015
21
-83.754
0
LINE
8
BLACK
6
CONTINUOUS
10
175.015
20
-83.754
11
175.065
21
-83.7629
0
LINE
8
BLACK
6
CONTINUOUS
10
174.095
20
-83.7629
11
174.14
21
-83.7885
0
LINE
8
BLACK
6
CONTINUOUS
10
174.14
20
-83.7885
11
174.173
21
-83.8277
0
LINE
8
BLACK
6
CONTINUOUS
10
174.173
20
-83.8277
11
174.192
21
-83.9015
0
LINE
8
BLACK
6
CONTINUOUS
10
174.192
20
-83.9015
11
174.192
21
-84.2465
0
LINE
8
BLACK
6
CONTINUOUS
10
174.192
20
-84.2465
11
174.184
21
-84.2969
0
LINE
8
BLACK
6
CONTINUOUS
10
174.184
20
-84.2969
11
174.158
21
-84.3413
0
LINE
8
BLACK
6
CONTINUOUS
10
174.158
20
-84.3413
11
174.119
21
-84.3742
0
LINE
8
BLACK
6
CONTINUOUS
10
174.119
20
-84.3742
11
174.045
21
-84.394
0
LINE
8
BLACK
6
CONTINUOUS
10
174.045
20
-84.394
11
173.75
21
-84.394
0
LINE
8
BLACK
6
CONTINUOUS
10
173.75
20
-84.394
11
173.7
21
-84.3851
0
LINE
8
BLACK
6
CONTINUOUS
10
173.7
20
-84.3851
11
173.655
21
-84.3595
0
LINE
8
BLACK
6
CONTINUOUS
10
173.655
20
-84.3595
11
173.622
21
-84.3203
0
LINE
8
BLACK
6
CONTINUOUS
10
173.622
20
-84.3203
11
173.602
21
-84.2465
0
LINE
8
BLACK
6
CONTINUOUS
10
173.602
20
-84.2465
11
173.602
21
-83.9015
0
LINE
8
BLACK
6
CONTINUOUS
10
173.602
20
-83.9015
11
173.611
21
-83.8511
0
LINE
8
BLACK
6
CONTINUOUS
10
173.611
20
-83.8511
11
173.637
21
-83.8067
0
LINE
8
BLACK
6
CONTINUOUS
10
173.637
20
-83.8067
11
173.676
21
-83.7738
0
LINE
8
BLACK
6
CONTINUOUS
10
173.676
20
-83.7738
11
173.75
21
-83.754
0
LINE
8
BLACK
6
CONTINUOUS
10
173.75
20
-83.754
11
174.045
21
-83.754
0
LINE
8
BLACK
6
CONTINUOUS
10
174.045
20
-83.754
11
174.095
21
-83.7629
0
LINE
8
BLACK
6
CONTINUOUS
10
177.862
20
-83.9
11
176.722
21
-83.9
0
LINE
8
BLACK
6
CONTINUOUS
10
176.722
20
-83.9
11
176.722
21
-83.6
0
LINE
8
BLACK
6
CONTINUOUS
10
176.722
20
-83.6
11
177.862
21
-83.6
0
LINE
8
BLACK
6
CONTINUOUS
10
177.862
20
-83.6
11
177.862
21
-83.9
0
LINE
8
BLACK
6
CONTINUOUS
10
172.15
20
-83.804
11
170.75
21
-83.804
0
LINE
8
BLACK
6
CONTINUOUS
10
170.75
20
-83.804
11
170.75
21
-81.804
0
LINE
8
BLACK
6
CONTINUOUS
10
170.75
20
-81.804
11
172.15
21
-81.804
0
LINE
8
BLACK
6
CONTINUOUS
10
172.15
20
-81.804
11
172.15
21
-83.804
0
LINE
8
BLACK
6
CONTINUOUS
10
167.75
20
-83.804
11
166.35
21
-83.804
0
LINE
8
BLACK
6
CONTINUOUS
10
166.35
20
-83.804
11
166.35
21
-81.804
0
LINE
8
BLACK
6
CONTINUOUS
10
166.35
20
-81.804
11
167.75
21
-81.804
0
LINE
8
BLACK
6
CONTINUOUS
10
167.75
20
-81.804
11
167.75
21
-83.804
0
LINE
8
BLACK
6
CONTINUOUS
10
162.082
20
-83.72
11
160.582
21
-83.72
0
LINE
8
BLACK
6
CONTINUOUS
10
160.582
20
-83.72
11
160.582
21
-82.82
0
LINE
8
BLACK
6
CONTINUOUS
10
160.582
20
-82.82
11
162.082
21
-82.82
0
LINE
8
BLACK
6
CONTINUOUS
10
162.082
20
-82.82
11
162.082
21
-83.72
0
LINE
8
BLACK
6
CONTINUOUS
10
177.862
20
-83.4
11
176.722
21
-83.4
0
LINE
8
BLACK
6
CONTINUOUS
10
176.722
20
-83.4
11
176.722
21
-83.1
0
LINE
8
BLACK
6
CONTINUOUS
10
176.722
20
-83.1
11
177.862
21
-83.1
0
LINE
8
BLACK
6
CONTINUOUS
10
177.862
20
-83.1
11
177.862
21
-83.4
0
LINE
8
BLACK
6
CONTINUOUS
10
177.862
20
-82.3
11
177.862
21
-82.9
0
LINE
8
BLACK
6
CONTINUOUS
10
177.862
20
-82.9
11
176.722
21
-82.9
0
LINE
8
BLACK
6
CONTINUOUS
10
176.722
20
-82.9
11
176.722
21
-82.3
0
LINE
8
BLACK
6
CONTINUOUS
10
176.722
20
-82.3
11
177.862
21
-82.3
0
LINE
8
BLACK
6
CONTINUOUS
10
162.082
20
-82.45
11
160.582
21
-82.45
0
LINE
8
BLACK
6
CONTINUOUS
10
160.582
20
-82.45
11
160.582
21
-81.55
0
LINE
8
BLACK
6
CONTINUOUS
10
160.582
20
-81.55
11
162.082
21
-81.55
0
LINE
8
BLACK
6
CONTINUOUS
10
162.082
20
-81.55
11
162.082
21
-82.45
0
LINE
8
BLACK
6
CONTINUOUS
10
177.862
20
-81.5
11
177.862
21
-82.1
0
LINE
8
BLACK
6
CONTINUOUS
10
177.862
20
-82.1
11
176.722
21
-82.1
0
LINE
8
BLACK
6
CONTINUOUS
10
176.722
20
-82.1
11
176.722
21
-81.5
0
LINE
8
BLACK
6
CONTINUOUS
10
176.722
20
-81.5
11
177.862
21
-81.5
0
LINE
8
BLACK
6
CONTINUOUS
10
162.082
20
-81.18
11
160.582
21
-81.18
0
LINE
8
BLACK
6
CONTINUOUS
10
160.582
20
-81.18
11
160.582
21
-80.28
0
LINE
8
BLACK
6
CONTINUOUS
10
160.582
20
-80.28
11
162.082
21
-80.28
0
LINE
8
BLACK
6
CONTINUOUS
10
162.082
20
-80.28
11
162.082
21
-81.18
0
LINE
8
BLACK
6
CONTINUOUS
10
167.863
20
-80.2319
11
167.907
21
-80.2575
0
LINE
8
BLACK
6
CONTINUOUS
10
167.907
20
-80.2575
11
167.94
21
-80.2968
0
LINE
8
BLACK
6
CONTINUOUS
10
167.94
20
-80.2968
11
167.96
21
-80.3705
0
LINE
8
BLACK
6
CONTINUOUS
10
167.96
20
-80.3705
11
167.96
21
-80.6655
0
LINE
8
BLACK
6
CONTINUOUS
10
167.96
20
-80.6655
11
167.951
21
-80.7159
0
LINE
8
BLACK
6
CONTINUOUS
10
167.951
20
-80.7159
11
167.925
21
-80.7603
0
LINE
8
BLACK
6
CONTINUOUS
10
167.925
20
-80.7603
11
167.886
21
-80.7932
0
LINE
8
BLACK
6
CONTINUOUS
10
167.886
20
-80.7932
11
167.812
21
-80.813
0
LINE
8
BLACK
6
CONTINUOUS
10
167.812
20
-80.813
11
167.468
21
-80.813
0
LINE
8
BLACK
6
CONTINUOUS
10
167.468
20
-80.813
11
167.417
21
-80.8041
0
LINE
8
BLACK
6
CONTINUOUS
10
167.417
20
-80.8041
11
167.373
21
-80.7785
0
LINE
8
BLACK
6
CONTINUOUS
10
167.373
20
-80.7785
11
167.34
21
-80.7392
0
LINE
8
BLACK
6
CONTINUOUS
10
167.34
20
-80.7392
11
167.32
21
-80.6655
0
LINE
8
BLACK
6
CONTINUOUS
10
167.32
20
-80.6655
11
167.32
21
-80.3705
0
LINE
8
BLACK
6
CONTINUOUS
10
167.32
20
-80.3705
11
167.329
21
-80.3201
0
LINE
8
BLACK
6
CONTINUOUS
10
167.329
20
-80.3201
11
167.355
21
-80.2757
0
LINE
8
BLACK
6
CONTINUOUS
10
167.355
20
-80.2757
11
167.394
21
-80.2428
0
LINE
8
BLACK
6
CONTINUOUS
10
167.394
20
-80.2428
11
167.468
21
-80.223
0
LINE
8
BLACK
6
CONTINUOUS
10
167.468
20
-80.223
11
167.812
21
-80.223
0
LINE
8
BLACK
6
CONTINUOUS
10
167.812
20
-80.223
11
167.863
21
-80.2319
0
LINE
8
BLACK
6
CONTINUOUS
10
170.672
20
-80.52
11
168.672
21
-80.52
0
LINE
8
BLACK
6
CONTINUOUS
10
168.672
20
-80.52
11
168.672
21
-79.02
0
LINE
8
BLACK
6
CONTINUOUS
10
168.672
20
-79.02
11
170.672
21
-79.02
0
LINE
8
BLACK
6
CONTINUOUS
10
170.672
20
-79.02
11
170.672
21
-80.52
0
LINE
8
BLACK
6
CONTINUOUS
10
164.411
20
-78.6267
11
164.484
21
-78.669
0
LINE
8
BLACK
6
CONTINUOUS
10
164.484
20
-78.669
11
164.539
21
-78.7339
0
LINE
8
BLACK
6
CONTINUOUS
10
164.539
20
-78.7339
11
164.571
21
-78.8558
0
LINE
8
BLACK
6
CONTINUOUS
10
164.571
20
-78.8558
11
164.571
21
-79.7682
0
LINE
8
BLACK
6
CONTINUOUS
10
164.571
20
-79.7682
11
164.557
21
-79.8516
0
LINE
8
BLACK
6
CONTINUOUS
10
164.557
20
-79.8516
11
164.514
21
-79.9249
0
LINE
8
BLACK
6
CONTINUOUS
10
164.514
20
-79.9249
11
164.45
21
-79.9793
0
LINE
8
BLACK
6
CONTINUOUS
10
164.45
20
-79.9793
11
164.328
21
-80.012
0
LINE
8
BLACK
6
CONTINUOUS
10
164.328
20
-80.012
11
163.84
21
-80.012
0
LINE
8
BLACK
6
CONTINUOUS
10
163.84
20
-80.012
11
163.757
21
-79.9973
0
LINE
8
BLACK
6
CONTINUOUS
10
163.757
20
-79.9973
11
163.684
21
-79.955
0
LINE
8
BLACK
6
CONTINUOUS
10
163.684
20
-79.955
11
163.629
21
-79.8901
0
LINE
8
BLACK
6
CONTINUOUS
10
163.629
20
-79.8901
11
163.596
21
-79.7682
0
LINE
8
BLACK
6
CONTINUOUS
10
163.596
20
-79.7682
11
163.596
21
-78.8558
0
LINE
8
BLACK
6
CONTINUOUS
10
163.596
20
-78.8558
11
163.611
21
-78.7724
0
LINE
8
BLACK
6
CONTINUOUS
10
163.611
20
-78.7724
11
163.654
21
-78.6991
0
LINE
8
BLACK
6
CONTINUOUS
10
163.654
20
-78.6991
11
163.718
21
-78.6447
0
LINE
8
BLACK
6
CONTINUOUS
10
163.718
20
-78.6447
11
163.84
21
-78.612
0
LINE
8
BLACK
6
CONTINUOUS
10
163.84
20
-78.612
11
164.328
21
-78.612
0
LINE
8
BLACK
6
CONTINUOUS
10
164.328
20
-78.612
11
164.411
21
-78.6267
0
LINE
8
BLACK
6
CONTINUOUS
10
166.286
20
-78.6267
11
166.359
21
-78.669
0
LINE
8
BLACK
6
CONTINUOUS
10
166.359
20
-78.669
11
166.414
21
-78.7339
0
LINE
8
BLACK
6
CONTINUOUS
10
166.414
20
-78.7339
11
166.446
21
-78.8558
0
LINE
8
BLACK
6
CONTINUOUS
10
166.446
20
-78.8558
11
166.446
21
-79.7682
0
LINE
8
BLACK
6
CONTINUOUS
10
166.446
20
-79.7682
11
166.432
21
-79.8516
0
LINE
8
BLACK
6
CONTINUOUS
10
166.432
20
-79.8516
11
166.389
21
-79.9249
0
LINE
8
BLACK
6
CONTINUOUS
10
166.389
20
-79.9249
11
166.325
21
-79.9793
0
LINE
8
BLACK
6
CONTINUOUS
10
166.325
20
-79.9793
11
166.203
21
-80.012
0
LINE
8
BLACK
6
CONTINUOUS
10
166.203
20
-80.012
11
165.715
21
-80.012
0
LINE
8
BLACK
6
CONTINUOUS
10
165.715
20
-80.012
11
165.632
21
-79.9973
0
LINE
8
BLACK
6
CONTINUOUS
10
165.632
20
-79.9973
11
165.559
21
-79.955
0
LINE
8
BLACK
6
CONTINUOUS
10
165.559
20
-79.955
11
165.504
21
-79.8901
0
LINE
8
BLACK
6
CONTINUOUS
10
165.504
20
-79.8901
11
165.471
21
-79.7682
0
LINE
8
BLACK
6
CONTINUOUS
10
165.471
20
-79.7682
11
165.471
21
-78.8558
0
LINE
8
BLACK
6
CONTINUOUS
10
165.471
20
-78.8558
11
165.486
21
-78.7724
0
LINE
8
BLACK
6
CONTINUOUS
10
165.486
20
-78.7724
11
165.529
21
-78.6991
0
LINE
8
BLACK
6
CONTINUOUS
10
165.529
20
-78.6991
11
165.593
21
-78.6447
0
LINE
8
BLACK
6
CONTINUOUS
10
165.593
20
-78.6447
11
165.715
21
-78.612
0
LINE
8
BLACK
6
CONTINUOUS
10
165.715
20
-78.612
11
166.203
21
-78.612
0
LINE
8
BLACK
6
CONTINUOUS
10
166.203
20
-78.612
11
166.286
21
-78.6267
0
LINE
8
BLACK
6
CONTINUOUS
10
162.082
20
-79.91
11
160.582
21
-79.91
0
LINE
8
BLACK
6
CONTINUOUS
10
160.582
20
-79.91
11
160.582
21
-79.01
0
LINE
8
BLACK
6
CONTINUOUS
10
160.582
20
-79.01
11
162.082
21
-79.01
0
LINE
8
BLACK
6
CONTINUOUS
10
162.082
20
-79.01
11
162.082
21
-79.91
0
LINE
8
BLACK
6
CONTINUOUS
10
167.863
20
-79.2619
11
167.907
21
-79.2875
0
LINE
8
BLACK
6
CONTINUOUS
10
167.907
20
-79.2875
11
167.94
21
-79.3267
0
LINE
8
BLACK
6
CONTINUOUS
10
167.94
20
-79.3267
11
167.96
21
-79.4005
0
LINE
8
BLACK
6
CONTINUOUS
10
167.96
20
-79.4005
11
167.96
21
-79.6955
0
LINE
8
BLACK
6
CONTINUOUS
10
167.96
20
-79.6955
11
167.951
21
-79.7459
0
LINE
8
BLACK
6
CONTINUOUS
10
167.951
20
-79.7459
11
167.925
21
-79.7903
0
LINE
8
BLACK
6
CONTINUOUS
10
167.925
20
-79.7903
11
167.886
21
-79.8232
0
LINE
8
BLACK
6
CONTINUOUS
10
167.886
20
-79.8232
11
167.812
21
-79.843
0
LINE
8
BLACK
6
CONTINUOUS
10
167.812
20
-79.843
11
167.468
21
-79.843
0
LINE
8
BLACK
6
CONTINUOUS
10
167.468
20
-79.843
11
167.417
21
-79.8341
0
LINE
8
BLACK
6
CONTINUOUS
10
167.417
20
-79.8341
11
167.373
21
-79.8085
0
LINE
8
BLACK
6
CONTINUOUS
10
167.373
20
-79.8085
11
167.34
21
-79.7692
0
LINE
8
BLACK
6
CONTINUOUS
10
167.34
20
-79.7692
11
167.32
21
-79.6955
0
LINE
8
BLACK
6
CONTINUOUS
10
167.32
20
-79.6955
11
167.32
21
-79.4005
0
LINE
8
BLACK
6
CONTINUOUS
10
167.32
20
-79.4005
11
167.329
21
-79.3501
0
LINE
8
BLACK
6
CONTINUOUS
10
167.329
20
-79.3501
11
167.355
21
-79.3057
0
LINE
8
BLACK
6
CONTINUOUS
10
167.355
20
-79.3057
11
167.394
21
-79.2728
0
LINE
8
BLACK
6
CONTINUOUS
10
167.394
20
-79.2728
11
167.468
21
-79.253
0
LINE
8
BLACK
6
CONTINUOUS
10
167.468
20
-79.253
11
167.812
21
-79.253
0
LINE
8
BLACK
6
CONTINUOUS
10
167.812
20
-79.253
11
167.863
21
-79.2619
0
LINE
8
BLACK
6
CONTINUOUS
10
176.972
20
-79.37
11
174.972
21
-79.37
0
LINE
8
BLACK
6
CONTINUOUS
10
174.972
20
-79.37
11
174.972
21
-75.57
0
LINE
8
BLACK
6
CONTINUOUS
10
174.972
20
-75.57
11
176.972
21
-75.57
0
LINE
8
BLACK
6
CONTINUOUS
10
176.972
20
-75.57
11
176.972
21
-79.37
0
LINE
8
BLACK
6
CONTINUOUS
10
180.365
20
-78.1589
11
180.409
21
-78.1845
0
LINE
8
BLACK
6
CONTINUOUS
10
180.409
20
-78.1845
11
180.442
21
-78.2237
0
LINE
8
BLACK
6
CONTINUOUS
10
180.442
20
-78.2237
11
180.462
21
-78.2975
0
LINE
8
BLACK
6
CONTINUOUS
10
180.462
20
-78.2975
11
180.462
21
-78.6425
0
LINE
8
BLACK
6
CONTINUOUS
10
180.462
20
-78.6425
11
180.453
21
-78.6929
0
LINE
8
BLACK
6
CONTINUOUS
10
180.453
20
-78.6929
11
180.427
21
-78.7373
0
LINE
8
BLACK
6
CONTINUOUS
10
180.427
20
-78.7373
11
180.388
21
-78.7702
0
LINE
8
BLACK
6
CONTINUOUS
10
180.388
20
-78.7702
11
180.314
21
-78.79
0
LINE
8
BLACK
6
CONTINUOUS
10
180.314
20
-78.79
11
180.019
21
-78.79
0
LINE
8
BLACK
6
CONTINUOUS
10
180.019
20
-78.79
11
179.969
21
-78.7811
0
LINE
8
BLACK
6
CONTINUOUS
10
179.969
20
-78.7811
11
179.925
21
-78.7555
0
LINE
8
BLACK
6
CONTINUOUS
10
179.925
20
-78.7555
11
179.892
21
-78.7163
0
LINE
8
BLACK
6
CONTINUOUS
10
179.892
20
-78.7163
11
179.872
21
-78.6425
0
LINE
8
BLACK
6
CONTINUOUS
10
179.872
20
-78.6425
11
179.872
21
-78.2975
0
LINE
8
BLACK
6
CONTINUOUS
10
179.872
20
-78.2975
11
179.881
21
-78.2471
0
LINE
8
BLACK
6
CONTINUOUS
10
179.881
20
-78.2471
11
179.907
21
-78.2027
0
LINE
8
BLACK
6
CONTINUOUS
10
179.907
20
-78.2027
11
179.946
21
-78.1698
0
LINE
8
BLACK
6
CONTINUOUS
10
179.946
20
-78.1698
11
180.019
21
-78.15
0
LINE
8
BLACK
6
CONTINUOUS
10
180.019
20
-78.15
11
180.314
21
-78.15
0
LINE
8
BLACK
6
CONTINUOUS
10
180.314
20
-78.15
11
180.365
21
-78.1589
0
LINE
8
BLACK
6
CONTINUOUS
10
179.395
20
-78.1589
11
179.439
21
-78.1845
0
LINE
8
BLACK
6
CONTINUOUS
10
179.439
20
-78.1845
11
179.472
21
-78.2237
0
LINE
8
BLACK
6
CONTINUOUS
10
179.472
20
-78.2237
11
179.492
21
-78.2975
0
LINE
8
BLACK
6
CONTINUOUS
10
179.492
20
-78.2975
11
179.492
21
-78.6425
0
LINE
8
BLACK
6
CONTINUOUS
10
179.492
20
-78.6425
11
179.483
21
-78.6929
0
LINE
8
BLACK
6
CONTINUOUS
10
179.483
20
-78.6929
11
179.457
21
-78.7373
0
LINE
8
BLACK
6
CONTINUOUS
10
179.457
20
-78.7373
11
179.418
21
-78.7702
0
LINE
8
BLACK
6
CONTINUOUS
10
179.418
20
-78.7702
11
179.344
21
-78.79
0
LINE
8
BLACK
6
CONTINUOUS
10
179.344
20
-78.79
11
179.049
21
-78.79
0
LINE
8
BLACK
6
CONTINUOUS
10
179.049
20
-78.79
11
178.999
21
-78.7811
0
LINE
8
BLACK
6
CONTINUOUS
10
178.999
20
-78.7811
11
178.955
21
-78.7555
0
LINE
8
BLACK
6
CONTINUOUS
10
178.955
20
-78.7555
11
178.922
21
-78.7163
0
LINE
8
BLACK
6
CONTINUOUS
10
178.922
20
-78.7163
11
178.902
21
-78.6425
0
LINE
8
BLACK
6
CONTINUOUS
10
178.902
20
-78.6425
11
178.902
21
-78.2975
0
LINE
8
BLACK
6
CONTINUOUS
10
178.902
20
-78.2975
11
178.911
21
-78.2471
0
LINE
8
BLACK
6
CONTINUOUS
10
178.911
20
-78.2471
11
178.937
21
-78.2027
0
LINE
8
BLACK
6
CONTINUOUS
10
178.937
20
-78.2027
11
178.976
21
-78.1698
0
LINE
8
BLACK
6
CONTINUOUS
10
178.976
20
-78.1698
11
179.049
21
-78.15
0
LINE
8
BLACK
6
CONTINUOUS
10
179.049
20
-78.15
11
179.344
21
-78.15
0
LINE
8
BLACK
6
CONTINUOUS
10
179.344
20
-78.15
11
179.395
21
-78.1589
0
LINE
8
BLACK
6
CONTINUOUS
10
181.6
20
-78.1589
11
181.644
21
-78.1845
0
LINE
8
BLACK
6
CONTINUOUS
10
181.644
20
-78.1845
11
181.677
21
-78.2237
0
LINE
8
BLACK
6
CONTINUOUS
10
181.677
20
-78.2237
11
181.697
21
-78.2975
0
LINE
8
BLACK
6
CONTINUOUS
10
181.697
20
-78.2975
11
181.697
21
-78.6425
0
LINE
8
BLACK
6
CONTINUOUS
10
181.697
20
-78.6425
11
181.688
21
-78.6929
0
LINE
8
BLACK
6
CONTINUOUS
10
181.688
20
-78.6929
11
181.662
21
-78.7373
0
LINE
8
BLACK
6
CONTINUOUS
10
181.662
20
-78.7373
11
181.623
21
-78.7702
0
LINE
8
BLACK
6
CONTINUOUS
10
181.623
20
-78.7702
11
181.549
21
-78.79
0
LINE
8
BLACK
6
CONTINUOUS
10
181.549
20
-78.79
11
181.254
21
-78.79
0
LINE
8
BLACK
6
CONTINUOUS
10
181.254
20
-78.79
11
181.204
21
-78.7811
0
LINE
8
BLACK
6
CONTINUOUS
10
181.204
20
-78.7811
11
181.16
21
-78.7555
0
LINE
8
BLACK
6
CONTINUOUS
10
181.16
20
-78.7555
11
181.127
21
-78.7163
0
LINE
8
BLACK
6
CONTINUOUS
10
181.127
20
-78.7163
11
181.107
21
-78.6425
0
LINE
8
BLACK
6
CONTINUOUS
10
181.107
20
-78.6425
11
181.107
21
-78.2975
0
LINE
8
BLACK
6
CONTINUOUS
10
181.107
20
-78.2975
11
181.116
21
-78.2471
0
LINE
8
BLACK
6
CONTINUOUS
10
181.116
20
-78.2471
11
181.142
21
-78.2027
0
LINE
8
BLACK
6
CONTINUOUS
10
181.142
20
-78.2027
11
181.181
21
-78.1698
0
LINE
8
BLACK
6
CONTINUOUS
10
181.181
20
-78.1698
11
181.254
21
-78.15
0
LINE
8
BLACK
6
CONTINUOUS
10
181.254
20
-78.15
11
181.549
21
-78.15
0
LINE
8
BLACK
6
CONTINUOUS
10
181.549
20
-78.15
11
181.6
21
-78.1589
0
LINE
8
BLACK
6
CONTINUOUS
10
182.57
20
-78.1589
11
182.614
21
-78.1845
0
LINE
8
BLACK
6
CONTINUOUS
10
182.614
20
-78.1845
11
182.647
21
-78.2237
0
LINE
8
BLACK
6
CONTINUOUS
10
182.647
20
-78.2237
11
182.667
21
-78.2975
0
LINE
8
BLACK
6
CONTINUOUS
10
182.667
20
-78.2975
11
182.667
21
-78.6425
0
LINE
8
BLACK
6
CONTINUOUS
10
182.667
20
-78.6425
11
182.658
21
-78.6929
0
LINE
8
BLACK
6
CONTINUOUS
10
182.658
20
-78.6929
11
182.632
21
-78.7373
0
LINE
8
BLACK
6
CONTINUOUS
10
182.632
20
-78.7373
11
182.593
21
-78.7702
0
LINE
8
BLACK
6
CONTINUOUS
10
182.593
20
-78.7702
11
182.519
21
-78.79
0
LINE
8
BLACK
6
CONTINUOUS
10
182.519
20
-78.79
11
182.224
21
-78.79
0
LINE
8
BLACK
6
CONTINUOUS
10
182.224
20
-78.79
11
182.174
21
-78.7811
0
LINE
8
BLACK
6
CONTINUOUS
10
182.174
20
-78.7811
11
182.13
21
-78.7555
0
LINE
8
BLACK
6
CONTINUOUS
10
182.13
20
-78.7555
11
182.097
21
-78.7163
0
LINE
8
BLACK
6
CONTINUOUS
10
182.097
20
-78.7163
11
182.077
21
-78.6425
0
LINE
8
BLACK
6
CONTINUOUS
10
182.077
20
-78.6425
11
182.077
21
-78.2975
0
LINE
8
BLACK
6
CONTINUOUS
10
182.077
20
-78.2975
11
182.086
21
-78.2471
0
LINE
8
BLACK
6
CONTINUOUS
10
182.086
20
-78.2471
11
182.112
21
-78.2027
0
LINE
8
BLACK
6
CONTINUOUS
10
182.112
20
-78.2027
11
182.151
21
-78.1698
0
LINE
8
BLACK
6
CONTINUOUS
10
182.151
20
-78.1698
11
182.224
21
-78.15
0
LINE
8
BLACK
6
CONTINUOUS
10
182.224
20
-78.15
11
182.519
21
-78.15
0
LINE
8
BLACK
6
CONTINUOUS
10
182.519
20
-78.15
11
182.57
21
-78.1589
0
LINE
8
BLACK
6
CONTINUOUS
10
170.672
20
-78.22
11
168.672
21
-78.22
0
LINE
8
BLACK
6
CONTINUOUS
10
168.672
20
-78.22
11
168.672
21
-76.72
0
LINE
8
BLACK
6
CONTINUOUS
10
168.672
20
-76.72
11
170.672
21
-76.72
0
LINE
8
BLACK
6
CONTINUOUS
10
170.672
20
-76.72
11
170.672
21
-78.22
0
LINE
8
BLACK
6
CONTINUOUS
10
166.286
20
-76.5947
11
166.359
21
-76.637
0
LINE
8
BLACK
6
CONTINUOUS
10
166.359
20
-76.637
11
166.414
21
-76.7019
0
LINE
8
BLACK
6
CONTINUOUS
10
166.414
20
-76.7019
11
166.446
21
-76.8237
0
LINE
8
BLACK
6
CONTINUOUS
10
166.446
20
-76.8237
11
166.446
21
-77.7362
0
LINE
8
BLACK
6
CONTINUOUS
10
166.446
20
-77.7362
11
166.432
21
-77.8196
0
LINE
8
BLACK
6
CONTINUOUS
10
166.432
20
-77.8196
11
166.389
21
-77.8929
0
LINE
8
BLACK
6
CONTINUOUS
10
166.389
20
-77.8929
11
166.325
21
-77.9473
0
LINE
8
BLACK
6
CONTINUOUS
10
166.325
20
-77.9473
11
166.203
21
-77.98
0
LINE
8
BLACK
6
CONTINUOUS
10
166.203
20
-77.98
11
165.715
21
-77.98
0
LINE
8
BLACK
6
CONTINUOUS
10
165.715
20
-77.98
11
165.632
21
-77.9653
0
LINE
8
BLACK
6
CONTINUOUS
10
165.632
20
-77.9653
11
165.559
21
-77.923
0
LINE
8
BLACK
6
CONTINUOUS
10
165.559
20
-77.923
11
165.504
21
-77.8581
0
LINE
8
BLACK
6
CONTINUOUS
10
165.504
20
-77.8581
11
165.471
21
-77.7362
0
LINE
8
BLACK
6
CONTINUOUS
10
165.471
20
-77.7362
11
165.471
21
-76.8237
0
LINE
8
BLACK
6
CONTINUOUS
10
165.471
20
-76.8237
11
165.486
21
-76.7404
0
LINE
8
BLACK
6
CONTINUOUS
10
165.486
20
-76.7404
11
165.529
21
-76.6671
0
LINE
8
BLACK
6
CONTINUOUS
10
165.529
20
-76.6671
11
165.593
21
-76.6127
0
LINE
8
BLACK
6
CONTINUOUS
10
165.593
20
-76.6127
11
165.715
21
-76.58
0
LINE
8
BLACK
6
CONTINUOUS
10
165.715
20
-76.58
11
166.203
21
-76.58
0
LINE
8
BLACK
6
CONTINUOUS
10
166.203
20
-76.58
11
166.286
21
-76.5947
0
LINE
8
BLACK
6
CONTINUOUS
10
164.411
20
-76.5947
11
164.484
21
-76.637
0
LINE
8
BLACK
6
CONTINUOUS
10
164.484
20
-76.637
11
164.539
21
-76.7019
0
LINE
8
BLACK
6
CONTINUOUS
10
164.539
20
-76.7019
11
164.571
21
-76.8237
0
LINE
8
BLACK
6
CONTINUOUS
10
164.571
20
-76.8237
11
164.571
21
-77.7362
0
LINE
8
BLACK
6
CONTINUOUS
10
164.571
20
-77.7362
11
164.557
21
-77.8196
0
LINE
8
BLACK
6
CONTINUOUS
10
164.557
20
-77.8196
11
164.514
21
-77.8929
0
LINE
8
BLACK
6
CONTINUOUS
10
164.514
20
-77.8929
11
164.45
21
-77.9473
0
LINE
8
BLACK
6
CONTINUOUS
10
164.45
20
-77.9473
11
164.328
21
-77.98
0
LINE
8
BLACK
6
CONTINUOUS
10
164.328
20
-77.98
11
163.84
21
-77.98
0
LINE
8
BLACK
6
CONTINUOUS
10
163.84
20
-77.98
11
163.757
21
-77.9653
0
LINE
8
BLACK
6
CONTINUOUS
10
163.757
20
-77.9653
11
163.684
21
-77.923
0
LINE
8
BLACK
6
CONTINUOUS
10
163.684
20
-77.923
11
163.629
21
-77.8581
0
LINE
8
BLACK
6
CONTINUOUS
10
163.629
20
-77.8581
11
163.596
21
-77.7362
0
LINE
8
BLACK
6
CONTINUOUS
10
163.596
20
-77.7362
11
163.596
21
-76.8237
0
LINE
8
BLACK
6
CONTINUOUS
10
163.596
20
-76.8237
11
163.611
21
-76.7404
0
LINE
8
BLACK
6
CONTINUOUS
10
163.611
20
-76.7404
11
163.654
21
-76.6671
0
LINE
8
BLACK
6
CONTINUOUS
10
163.654
20
-76.6671
11
163.718
21
-76.6127
0
LINE
8
BLACK
6
CONTINUOUS
10
163.718
20
-76.6127
11
163.84
21
-76.58
0
LINE
8
BLACK
6
CONTINUOUS
10
163.84
20
-76.58
11
164.328
21
-76.58
0
LINE
8
BLACK
6
CONTINUOUS
10
164.328
20
-76.58
11
164.411
21
-76.5947
0
LINE
8
BLACK
6
CONTINUOUS
10
159.012
20
-77.03
11
158.112
21
-77.03
0
LINE
8
BLACK
6
CONTINUOUS
10
158.112
20
-77.03
11
158.112
21
-75.53
0
LINE
8
BLACK
6
CONTINUOUS
10
158.112
20
-75.53
11
159.012
21
-75.53
0
LINE
8
BLACK
6
CONTINUOUS
10
159.012
20
-75.53
11
159.012
21
-77.03
0
LINE
8
BLACK
6
CONTINUOUS
10
160.282
20
-77.03
11
159.382
21
-77.03
0
LINE
8
BLACK
6
CONTINUOUS
10
159.382
20
-77.03
11
159.382
21
-75.53
0
LINE
8
BLACK
6
CONTINUOUS
10
159.382
20
-75.53
11
160.282
21
-75.53
0
LINE
8
BLACK
6
CONTINUOUS
10
160.282
20
-75.53
11
160.282
21
-77.03
0
LINE
8
BLACK
6
CONTINUOUS
10
147.582
20
-77.03
11
146.682
21
-77.03
0
LINE
8
BLACK
6
CONTINUOUS
10
146.682
20
-77.03
11
146.682
21
-75.53
0
LINE
8
BLACK
6
CONTINUOUS
10
146.682
20
-75.53
11
147.582
21
-75.53
0
LINE
8
BLACK
6
CONTINUOUS
10
147.582
20
-75.53
11
147.582
21
-77.03
0
LINE
8
BLACK
6
CONTINUOUS
10
143.772
20
-77.03
11
142.872
21
-77.03
0
LINE
8
BLACK
6
CONTINUOUS
10
142.872
20
-77.03
11
142.872
21
-75.53
0
LINE
8
BLACK
6
CONTINUOUS
10
142.872
20
-75.53
11
143.772
21
-75.53
0
LINE
8
BLACK
6
CONTINUOUS
10
143.772
20
-75.53
11
143.772
21
-77.03
0
LINE
8
BLACK
6
CONTINUOUS
10
145.042
20
-77.03
11
144.142
21
-77.03
0
LINE
8
BLACK
6
CONTINUOUS
10
144.142
20
-77.03
11
144.142
21
-75.53
0
LINE
8
BLACK
6
CONTINUOUS
10
144.142
20
-75.53
11
145.042
21
-75.53
0
LINE
8
BLACK
6
CONTINUOUS
10
145.042
20
-75.53
11
145.042
21
-77.03
0
LINE
8
BLACK
6
CONTINUOUS
10
157.742
20
-77.03
11
156.842
21
-77.03
0
LINE
8
BLACK
6
CONTINUOUS
10
156.842
20
-77.03
11
156.842
21
-75.53
0
LINE
8
BLACK
6
CONTINUOUS
10
156.842
20
-75.53
11
157.742
21
-75.53
0
LINE
8
BLACK
6
CONTINUOUS
10
157.742
20
-75.53
11
157.742
21
-77.03
0
LINE
8
BLACK
6
CONTINUOUS
10
156.472
20
-77.03
11
155.572
21
-77.03
0
LINE
8
BLACK
6
CONTINUOUS
10
155.572
20
-77.03
11
155.572
21
-75.53
0
LINE
8
BLACK
6
CONTINUOUS
10
155.572
20
-75.53
11
156.472
21
-75.53
0
LINE
8
BLACK
6
CONTINUOUS
10
156.472
20
-75.53
11
156.472
21
-77.03
0
LINE
8
BLACK
6
CONTINUOUS
10
155.202
20
-77.03
11
154.302
21
-77.03
0
LINE
8
BLACK
6
CONTINUOUS
10
154.302
20
-77.03
11
154.302
21
-75.53
0
LINE
8
BLACK
6
CONTINUOUS
10
154.302
20
-75.53
11
155.202
21
-75.53
0
LINE
8
BLACK
6
CONTINUOUS
10
155.202
20
-75.53
11
155.202
21
-77.03
0
LINE
8
BLACK
6
CONTINUOUS
10
153.932
20
-77.03
11
153.032
21
-77.03
0
LINE
8
BLACK
6
CONTINUOUS
10
153.032
20
-77.03
11
153.032
21
-75.53
0
LINE
8
BLACK
6
CONTINUOUS
10
153.032
20
-75.53
11
153.932
21
-75.53
0
LINE
8
BLACK
6
CONTINUOUS
10
153.932
20
-75.53
11
153.932
21
-77.03
0
LINE
8
BLACK
6
CONTINUOUS
10
152.662
20
-77.03
11
151.762
21
-77.03
0
LINE
8
BLACK
6
CONTINUOUS
10
151.762
20
-77.03
11
151.762
21
-75.53
0
LINE
8
BLACK
6
CONTINUOUS
10
151.762
20
-75.53
11
152.662
21
-75.53
0
LINE
8
BLACK
6
CONTINUOUS
10
152.662
20
-75.53
11
152.662
21
-77.03
0
LINE
8
BLACK
6
CONTINUOUS
10
151.392
20
-77.03
11
150.492
21
-77.03
0
LINE
8
BLACK
6
CONTINUOUS
10
150.492
20
-77.03
11
150.492
21
-75.53
0
LINE
8
BLACK
6
CONTINUOUS
10
150.492
20
-75.53
11
151.392
21
-75.53
0
LINE
8
BLACK
6
CONTINUOUS
10
151.392
20
-75.53
11
151.392
21
-77.03
0
LINE
8
BLACK
6
CONTINUOUS
10
150.122
20
-77.03
11
149.222
21
-77.03
0
LINE
8
BLACK
6
CONTINUOUS
10
149.222
20
-77.03
11
149.222
21
-75.53
0
LINE
8
BLACK
6
CONTINUOUS
10
149.222
20
-75.53
11
150.122
21
-75.53
0
LINE
8
BLACK
6
CONTINUOUS
10
150.122
20
-75.53
11
150.122
21
-77.03
0
LINE
8
BLACK
6
CONTINUOUS
10
148.852
20
-77.03
11
147.952
21
-77.03
0
LINE
8
BLACK
6
CONTINUOUS
10
147.952
20
-77.03
11
147.952
21
-75.53
0
LINE
8
BLACK
6
CONTINUOUS
10
147.952
20
-75.53
11
148.852
21
-75.53
0
LINE
8
BLACK
6
CONTINUOUS
10
148.852
20
-75.53
11
148.852
21
-77.03
0
LINE
8
BLACK
6
CONTINUOUS
10
146.312
20
-77.03
11
145.412
21
-77.03
0
LINE
8
BLACK
6
CONTINUOUS
10
145.412
20
-77.03
11
145.412
21
-75.53
0
LINE
8
BLACK
6
CONTINUOUS
10
145.412
20
-75.53
11
146.312
21
-75.53
0
LINE
8
BLACK
6
CONTINUOUS
10
146.312
20
-75.53
11
146.312
21
-77.03
0
LINE
8
BLACK
6
CONTINUOUS
10
167.863
20
-75.6139
11
167.907
21
-75.6395
0
LINE
8
BLACK
6
CONTINUOUS
10
167.907
20
-75.6395
11
167.94
21
-75.6787
0
LINE
8
BLACK
6
CONTINUOUS
10
167.94
20
-75.6787
11
167.96
21
-75.7525
0
LINE
8
BLACK
6
CONTINUOUS
10
167.96
20
-75.7525
11
167.96
21
-76.0475
0
LINE
8
BLACK
6
CONTINUOUS
10
167.96
20
-76.0475
11
167.951
21
-76.0979
0
LINE
8
BLACK
6
CONTINUOUS
10
167.951
20
-76.0979
11
167.925
21
-76.1423
0
LINE
8
BLACK
6
CONTINUOUS
10
167.925
20
-76.1423
11
167.886
21
-76.1752
0
LINE
8
BLACK
6
CONTINUOUS
10
167.886
20
-76.1752
11
167.812
21
-76.195
0
LINE
8
BLACK
6
CONTINUOUS
10
167.812
20
-76.195
11
167.468
21
-76.195
0
LINE
8
BLACK
6
CONTINUOUS
10
167.468
20
-76.195
11
167.417
21
-76.1861
0
LINE
8
BLACK
6
CONTINUOUS
10
167.417
20
-76.1861
11
167.373
21
-76.1605
0
LINE
8
BLACK
6
CONTINUOUS
10
167.373
20
-76.1605
11
167.34
21
-76.1213
0
LINE
8
BLACK
6
CONTINUOUS
10
167.34
20
-76.1213
11
167.32
21
-76.0475
0
LINE
8
BLACK
6
CONTINUOUS
10
167.32
20
-76.0475
11
167.32
21
-75.7525
0
LINE
8
BLACK
6
CONTINUOUS
10
167.32
20
-75.7525
11
167.329
21
-75.7021
0
LINE
8
BLACK
6
CONTINUOUS
10
167.329
20
-75.7021
11
167.355
21
-75.6577
0
LINE
8
BLACK
6
CONTINUOUS
10
167.355
20
-75.6577
11
167.394
21
-75.6248
0
LINE
8
BLACK
6
CONTINUOUS
10
167.394
20
-75.6248
11
167.468
21
-75.605
0
LINE
8
BLACK
6
CONTINUOUS
10
167.468
20
-75.605
11
167.812
21
-75.605
0
LINE
8
BLACK
6
CONTINUOUS
10
167.812
20
-75.605
11
167.863
21
-75.6139
0
LINE
8
BLACK
6
CONTINUOUS
10
170.672
20
-75.92
11
168.672
21
-75.92
0
LINE
8
BLACK
6
CONTINUOUS
10
168.672
20
-75.92
11
168.672
21
-74.42
0
LINE
8
BLACK
6
CONTINUOUS
10
168.672
20
-74.42
11
170.672
21
-74.42
0
LINE
8
BLACK
6
CONTINUOUS
10
170.672
20
-74.42
11
170.672
21
-75.92
0
LINE
8
BLACK
6
CONTINUOUS
10
167.863
20
-74.6439
11
167.907
21
-74.6695
0
LINE
8
BLACK
6
CONTINUOUS
10
167.907
20
-74.6695
11
167.94
21
-74.7087
0
LINE
8
BLACK
6
CONTINUOUS
10
167.94
20
-74.7087
11
167.96
21
-74.7825
0
LINE
8
BLACK
6
CONTINUOUS
10
167.96
20
-74.7825
11
167.96
21
-75.0775
0
LINE
8
BLACK
6
CONTINUOUS
10
167.96
20
-75.0775
11
167.951
21
-75.1279
0
LINE
8
BLACK
6
CONTINUOUS
10
167.951
20
-75.1279
11
167.925
21
-75.1723
0
LINE
8
BLACK
6
CONTINUOUS
10
167.925
20
-75.1723
11
167.886
21
-75.2052
0
LINE
8
BLACK
6
CONTINUOUS
10
167.886
20
-75.2052
11
167.812
21
-75.225
0
LINE
8
BLACK
6
CONTINUOUS
10
167.812
20
-75.225
11
167.468
21
-75.225
0
LINE
8
BLACK
6
CONTINUOUS
10
167.468
20
-75.225
11
167.417
21
-75.2161
0
LINE
8
BLACK
6
CONTINUOUS
10
167.417
20
-75.2161
11
167.373
21
-75.1905
0
LINE
8
BLACK
6
CONTINUOUS
10
167.373
20
-75.1905
11
167.34
21
-75.1512
0
LINE
8
BLACK
6
CONTINUOUS
10
167.34
20
-75.1512
11
167.32
21
-75.0775
0
LINE
8
BLACK
6
CONTINUOUS
10
167.32
20
-75.0775
11
167.32
21
-74.7825
0
LINE
8
BLACK
6
CONTINUOUS
10
167.32
20
-74.7825
11
167.329
21
-74.7321
0
LINE
8
BLACK
6
CONTINUOUS
10
167.329
20
-74.7321
11
167.355
21
-74.6877
0
LINE
8
BLACK
6
CONTINUOUS
10
167.355
20
-74.6877
11
167.394
21
-74.6548
0
LINE
8
BLACK
6
CONTINUOUS
10
167.394
20
-74.6548
11
167.468
21
-74.635
0
LINE
8
BLACK
6
CONTINUOUS
10
167.468
20
-74.635
11
167.812
21
-74.635
0
LINE
8
BLACK
6
CONTINUOUS
10
167.812
20
-74.635
11
167.863
21
-74.6439
  0
ENDSEC
  0
EOF
