G04 #@! TF.GenerationSoftware,KiCad,Pcbnew,(5.1.10)-1*
G04 #@! TF.CreationDate,2021-08-11T19:04:18+09:00*
G04 #@! TF.ProjectId,ESP32_LED,45535033-325f-44c4-9544-2e6b69636164,rev?*
G04 #@! TF.SameCoordinates,Original*
G04 #@! TF.FileFunction,Legend,Bot*
G04 #@! TF.FilePolarity,Positive*
%FSLAX46Y46*%
G04 Gerber Fmt 4.6, Leading zero omitted, Abs format (unit mm)*
G04 Created by KiCad (PCBNEW (5.1.10)-1) date 2021-08-11 19:04:18*
%MOMM*%
%LPD*%
G01*
G04 APERTURE LIST*
%ADD10C,0.150000*%
%ADD11C,0.250000*%
%ADD12C,0.120000*%
G04 APERTURE END LIST*
D10*
X132765714Y-70620000D02*
X132851428Y-70572380D01*
X132980000Y-70572380D01*
X133108571Y-70620000D01*
X133194285Y-70715238D01*
X133237142Y-70810476D01*
X133280000Y-71000952D01*
X133280000Y-71143809D01*
X133237142Y-71334285D01*
X133194285Y-71429523D01*
X133108571Y-71524761D01*
X132980000Y-71572380D01*
X132894285Y-71572380D01*
X132765714Y-71524761D01*
X132722857Y-71477142D01*
X132722857Y-71143809D01*
X132894285Y-71143809D01*
X132337142Y-71572380D02*
X132337142Y-70572380D01*
X131822857Y-71572380D01*
X131822857Y-70572380D01*
X131394285Y-71572380D02*
X131394285Y-70572380D01*
X131180000Y-70572380D01*
X131051428Y-70620000D01*
X130965714Y-70715238D01*
X130922857Y-70810476D01*
X130880000Y-71000952D01*
X130880000Y-71143809D01*
X130922857Y-71334285D01*
X130965714Y-71429523D01*
X131051428Y-71524761D01*
X131180000Y-71572380D01*
X131394285Y-71572380D01*
X146200000Y-74239380D02*
X146500000Y-73763190D01*
X146714285Y-74239380D02*
X146714285Y-73239380D01*
X146371428Y-73239380D01*
X146285714Y-73287000D01*
X146242857Y-73334619D01*
X146200000Y-73429857D01*
X146200000Y-73572714D01*
X146242857Y-73667952D01*
X146285714Y-73715571D01*
X146371428Y-73763190D01*
X146714285Y-73763190D01*
X145900000Y-73239380D02*
X145300000Y-74239380D01*
X145300000Y-73239380D02*
X145900000Y-74239380D01*
X144195714Y-73239380D02*
X143681428Y-73239380D01*
X143938571Y-74239380D02*
X143938571Y-73239380D01*
X143467142Y-73239380D02*
X142867142Y-74239380D01*
X142867142Y-73239380D02*
X143467142Y-74239380D01*
D11*
X175250000Y-96337380D02*
X175250000Y-95337380D01*
X174821428Y-96337380D02*
X174821428Y-95813571D01*
X174869047Y-95718333D01*
X174964285Y-95670714D01*
X175107142Y-95670714D01*
X175202380Y-95718333D01*
X175250000Y-95765952D01*
X174488095Y-95670714D02*
X174107142Y-95670714D01*
X174345238Y-95337380D02*
X174345238Y-96194523D01*
X174297619Y-96289761D01*
X174202380Y-96337380D01*
X174107142Y-96337380D01*
X173916666Y-95670714D02*
X173535714Y-95670714D01*
X173773809Y-95337380D02*
X173773809Y-96194523D01*
X173726190Y-96289761D01*
X173630952Y-96337380D01*
X173535714Y-96337380D01*
X173202380Y-95670714D02*
X173202380Y-96670714D01*
X173202380Y-95718333D02*
X173107142Y-95670714D01*
X172916666Y-95670714D01*
X172821428Y-95718333D01*
X172773809Y-95765952D01*
X172726190Y-95861190D01*
X172726190Y-96146904D01*
X172773809Y-96242142D01*
X172821428Y-96289761D01*
X172916666Y-96337380D01*
X173107142Y-96337380D01*
X173202380Y-96289761D01*
X172345238Y-96289761D02*
X172250000Y-96337380D01*
X172059523Y-96337380D01*
X171964285Y-96289761D01*
X171916666Y-96194523D01*
X171916666Y-96146904D01*
X171964285Y-96051666D01*
X172059523Y-96004047D01*
X172202380Y-96004047D01*
X172297619Y-95956428D01*
X172345238Y-95861190D01*
X172345238Y-95813571D01*
X172297619Y-95718333D01*
X172202380Y-95670714D01*
X172059523Y-95670714D01*
X171964285Y-95718333D01*
X171488095Y-96242142D02*
X171440476Y-96289761D01*
X171488095Y-96337380D01*
X171535714Y-96289761D01*
X171488095Y-96242142D01*
X171488095Y-96337380D01*
X171488095Y-95718333D02*
X171440476Y-95765952D01*
X171488095Y-95813571D01*
X171535714Y-95765952D01*
X171488095Y-95718333D01*
X171488095Y-95813571D01*
X170297619Y-95289761D02*
X171154761Y-96575476D01*
X169250000Y-95289761D02*
X170107142Y-96575476D01*
X168488095Y-95670714D02*
X168488095Y-96480238D01*
X168535714Y-96575476D01*
X168583333Y-96623095D01*
X168678571Y-96670714D01*
X168821428Y-96670714D01*
X168916666Y-96623095D01*
X168488095Y-96289761D02*
X168583333Y-96337380D01*
X168773809Y-96337380D01*
X168869047Y-96289761D01*
X168916666Y-96242142D01*
X168964285Y-96146904D01*
X168964285Y-95861190D01*
X168916666Y-95765952D01*
X168869047Y-95718333D01*
X168773809Y-95670714D01*
X168583333Y-95670714D01*
X168488095Y-95718333D01*
X168011904Y-96337380D02*
X168011904Y-95670714D01*
X168011904Y-95337380D02*
X168059523Y-95385000D01*
X168011904Y-95432619D01*
X167964285Y-95385000D01*
X168011904Y-95337380D01*
X168011904Y-95432619D01*
X167678571Y-95670714D02*
X167297619Y-95670714D01*
X167535714Y-95337380D02*
X167535714Y-96194523D01*
X167488095Y-96289761D01*
X167392857Y-96337380D01*
X167297619Y-96337380D01*
X166964285Y-96337380D02*
X166964285Y-95337380D01*
X166535714Y-96337380D02*
X166535714Y-95813571D01*
X166583333Y-95718333D01*
X166678571Y-95670714D01*
X166821428Y-95670714D01*
X166916666Y-95718333D01*
X166964285Y-95765952D01*
X165630952Y-95670714D02*
X165630952Y-96337380D01*
X166059523Y-95670714D02*
X166059523Y-96194523D01*
X166011904Y-96289761D01*
X165916666Y-96337380D01*
X165773809Y-96337380D01*
X165678571Y-96289761D01*
X165630952Y-96242142D01*
X165154761Y-96337380D02*
X165154761Y-95337380D01*
X165154761Y-95718333D02*
X165059523Y-95670714D01*
X164869047Y-95670714D01*
X164773809Y-95718333D01*
X164726190Y-95765952D01*
X164678571Y-95861190D01*
X164678571Y-96146904D01*
X164726190Y-96242142D01*
X164773809Y-96289761D01*
X164869047Y-96337380D01*
X165059523Y-96337380D01*
X165154761Y-96289761D01*
X164250000Y-96242142D02*
X164202380Y-96289761D01*
X164250000Y-96337380D01*
X164297619Y-96289761D01*
X164250000Y-96242142D01*
X164250000Y-96337380D01*
X163345238Y-96289761D02*
X163440476Y-96337380D01*
X163630952Y-96337380D01*
X163726190Y-96289761D01*
X163773809Y-96242142D01*
X163821428Y-96146904D01*
X163821428Y-95861190D01*
X163773809Y-95765952D01*
X163726190Y-95718333D01*
X163630952Y-95670714D01*
X163440476Y-95670714D01*
X163345238Y-95718333D01*
X162773809Y-96337380D02*
X162869047Y-96289761D01*
X162916666Y-96242142D01*
X162964285Y-96146904D01*
X162964285Y-95861190D01*
X162916666Y-95765952D01*
X162869047Y-95718333D01*
X162773809Y-95670714D01*
X162630952Y-95670714D01*
X162535714Y-95718333D01*
X162488095Y-95765952D01*
X162440476Y-95861190D01*
X162440476Y-96146904D01*
X162488095Y-96242142D01*
X162535714Y-96289761D01*
X162630952Y-96337380D01*
X162773809Y-96337380D01*
X162011904Y-96337380D02*
X162011904Y-95670714D01*
X162011904Y-95765952D02*
X161964285Y-95718333D01*
X161869047Y-95670714D01*
X161726190Y-95670714D01*
X161630952Y-95718333D01*
X161583333Y-95813571D01*
X161583333Y-96337380D01*
X161583333Y-95813571D02*
X161535714Y-95718333D01*
X161440476Y-95670714D01*
X161297619Y-95670714D01*
X161202380Y-95718333D01*
X161154761Y-95813571D01*
X161154761Y-96337380D01*
X159964285Y-95289761D02*
X160821428Y-96575476D01*
X159630952Y-95670714D02*
X159630952Y-96527857D01*
X159678571Y-96623095D01*
X159773809Y-96670714D01*
X159821428Y-96670714D01*
X159630952Y-95337380D02*
X159678571Y-95385000D01*
X159630952Y-95432619D01*
X159583333Y-95385000D01*
X159630952Y-95337380D01*
X159630952Y-95432619D01*
X159154761Y-95670714D02*
X159154761Y-96670714D01*
X159154761Y-95718333D02*
X159059523Y-95670714D01*
X158869047Y-95670714D01*
X158773809Y-95718333D01*
X158726190Y-95765952D01*
X158678571Y-95861190D01*
X158678571Y-96146904D01*
X158726190Y-96242142D01*
X158773809Y-96289761D01*
X158869047Y-96337380D01*
X159059523Y-96337380D01*
X159154761Y-96289761D01*
X158345238Y-95337380D02*
X157726190Y-95337380D01*
X158059523Y-95718333D01*
X157916666Y-95718333D01*
X157821428Y-95765952D01*
X157773809Y-95813571D01*
X157726190Y-95908809D01*
X157726190Y-96146904D01*
X157773809Y-96242142D01*
X157821428Y-96289761D01*
X157916666Y-96337380D01*
X158202380Y-96337380D01*
X158297619Y-96289761D01*
X158345238Y-96242142D01*
X156869047Y-96289761D02*
X156964285Y-96337380D01*
X157154761Y-96337380D01*
X157250000Y-96289761D01*
X157297619Y-96242142D01*
X157345238Y-96146904D01*
X157345238Y-95861190D01*
X157297619Y-95765952D01*
X157250000Y-95718333D01*
X157154761Y-95670714D01*
X156964285Y-95670714D01*
X156869047Y-95718333D01*
X156535714Y-95670714D02*
X156297619Y-96337380D01*
X156059523Y-95670714D02*
X156297619Y-96337380D01*
X156392857Y-96575476D01*
X156440476Y-96623095D01*
X156535714Y-96670714D01*
X155250000Y-96289761D02*
X155345238Y-96337380D01*
X155535714Y-96337380D01*
X155630952Y-96289761D01*
X155678571Y-96242142D01*
X155726190Y-96146904D01*
X155726190Y-95861190D01*
X155678571Y-95765952D01*
X155630952Y-95718333D01*
X155535714Y-95670714D01*
X155345238Y-95670714D01*
X155250000Y-95718333D01*
X154107142Y-95289761D02*
X154964285Y-96575476D01*
X153773809Y-95813571D02*
X153440476Y-95813571D01*
X153297619Y-96337380D02*
X153773809Y-96337380D01*
X153773809Y-95337380D01*
X153297619Y-95337380D01*
X152916666Y-96289761D02*
X152773809Y-96337380D01*
X152535714Y-96337380D01*
X152440476Y-96289761D01*
X152392857Y-96242142D01*
X152345238Y-96146904D01*
X152345238Y-96051666D01*
X152392857Y-95956428D01*
X152440476Y-95908809D01*
X152535714Y-95861190D01*
X152726190Y-95813571D01*
X152821428Y-95765952D01*
X152869047Y-95718333D01*
X152916666Y-95623095D01*
X152916666Y-95527857D01*
X152869047Y-95432619D01*
X152821428Y-95385000D01*
X152726190Y-95337380D01*
X152488095Y-95337380D01*
X152345238Y-95385000D01*
X151916666Y-96337380D02*
X151916666Y-95337380D01*
X151535714Y-95337380D01*
X151440476Y-95385000D01*
X151392857Y-95432619D01*
X151345238Y-95527857D01*
X151345238Y-95670714D01*
X151392857Y-95765952D01*
X151440476Y-95813571D01*
X151535714Y-95861190D01*
X151916666Y-95861190D01*
X151011904Y-95337380D02*
X150392857Y-95337380D01*
X150726190Y-95718333D01*
X150583333Y-95718333D01*
X150488095Y-95765952D01*
X150440476Y-95813571D01*
X150392857Y-95908809D01*
X150392857Y-96146904D01*
X150440476Y-96242142D01*
X150488095Y-96289761D01*
X150583333Y-96337380D01*
X150869047Y-96337380D01*
X150964285Y-96289761D01*
X151011904Y-96242142D01*
X150011904Y-95432619D02*
X149964285Y-95385000D01*
X149869047Y-95337380D01*
X149630952Y-95337380D01*
X149535714Y-95385000D01*
X149488095Y-95432619D01*
X149440476Y-95527857D01*
X149440476Y-95623095D01*
X149488095Y-95765952D01*
X150059523Y-96337380D01*
X149440476Y-96337380D01*
X148583333Y-96337380D02*
X148583333Y-95337380D01*
X148583333Y-96289761D02*
X148678571Y-96337380D01*
X148869047Y-96337380D01*
X148964285Y-96289761D01*
X149011904Y-96242142D01*
X149059523Y-96146904D01*
X149059523Y-95861190D01*
X149011904Y-95765952D01*
X148964285Y-95718333D01*
X148869047Y-95670714D01*
X148678571Y-95670714D01*
X148583333Y-95718333D01*
X147726190Y-96289761D02*
X147821428Y-96337380D01*
X148011904Y-96337380D01*
X148107142Y-96289761D01*
X148154761Y-96194523D01*
X148154761Y-95813571D01*
X148107142Y-95718333D01*
X148011904Y-95670714D01*
X147821428Y-95670714D01*
X147726190Y-95718333D01*
X147678571Y-95813571D01*
X147678571Y-95908809D01*
X148154761Y-96004047D01*
X147345238Y-95670714D02*
X147107142Y-96337380D01*
X146869047Y-95670714D01*
X146726190Y-96432619D02*
X145964285Y-96432619D01*
X145773809Y-96289761D02*
X145678571Y-96337380D01*
X145488095Y-96337380D01*
X145392857Y-96289761D01*
X145345238Y-96194523D01*
X145345238Y-96146904D01*
X145392857Y-96051666D01*
X145488095Y-96004047D01*
X145630952Y-96004047D01*
X145726190Y-95956428D01*
X145773809Y-95861190D01*
X145773809Y-95813571D01*
X145726190Y-95718333D01*
X145630952Y-95670714D01*
X145488095Y-95670714D01*
X145392857Y-95718333D01*
X144535714Y-96289761D02*
X144630952Y-96337380D01*
X144821428Y-96337380D01*
X144916666Y-96289761D01*
X144964285Y-96194523D01*
X144964285Y-95813571D01*
X144916666Y-95718333D01*
X144821428Y-95670714D01*
X144630952Y-95670714D01*
X144535714Y-95718333D01*
X144488095Y-95813571D01*
X144488095Y-95908809D01*
X144964285Y-96004047D01*
X144059523Y-96337380D02*
X144059523Y-95670714D01*
X144059523Y-95861190D02*
X144011904Y-95765952D01*
X143964285Y-95718333D01*
X143869047Y-95670714D01*
X143773809Y-95670714D01*
X143535714Y-95670714D02*
X143297619Y-96337380D01*
X143059523Y-95670714D01*
X142535714Y-96337380D02*
X142630952Y-96289761D01*
X142678571Y-96242142D01*
X142726190Y-96146904D01*
X142726190Y-95861190D01*
X142678571Y-95765952D01*
X142630952Y-95718333D01*
X142535714Y-95670714D01*
X142392857Y-95670714D01*
X142297619Y-95718333D01*
X142250000Y-95765952D01*
X142202380Y-95861190D01*
X142202380Y-96146904D01*
X142250000Y-96242142D01*
X142297619Y-96289761D01*
X142392857Y-96337380D01*
X142535714Y-96337380D01*
X158296904Y-94432380D02*
X158296904Y-93432380D01*
X157963571Y-94146666D01*
X157630238Y-93432380D01*
X157630238Y-94432380D01*
X156725476Y-93765714D02*
X156725476Y-94432380D01*
X157154047Y-93765714D02*
X157154047Y-94289523D01*
X157106428Y-94384761D01*
X157011190Y-94432380D01*
X156868333Y-94432380D01*
X156773095Y-94384761D01*
X156725476Y-94337142D01*
X156249285Y-94432380D02*
X156249285Y-93765714D01*
X156249285Y-93956190D02*
X156201666Y-93860952D01*
X156154047Y-93813333D01*
X156058809Y-93765714D01*
X155963571Y-93765714D01*
X155201666Y-94432380D02*
X155201666Y-93908571D01*
X155249285Y-93813333D01*
X155344523Y-93765714D01*
X155535000Y-93765714D01*
X155630238Y-93813333D01*
X155201666Y-94384761D02*
X155296904Y-94432380D01*
X155535000Y-94432380D01*
X155630238Y-94384761D01*
X155677857Y-94289523D01*
X155677857Y-94194285D01*
X155630238Y-94099047D01*
X155535000Y-94051428D01*
X155296904Y-94051428D01*
X155201666Y-94003809D01*
X154725476Y-94432380D02*
X154725476Y-93765714D01*
X154725476Y-93432380D02*
X154773095Y-93480000D01*
X154725476Y-93527619D01*
X154677857Y-93480000D01*
X154725476Y-93432380D01*
X154725476Y-93527619D01*
X153487380Y-94432380D02*
X153487380Y-93432380D01*
X152915952Y-94432380D02*
X153344523Y-93860952D01*
X152915952Y-93432380D02*
X153487380Y-94003809D01*
X152344523Y-94432380D02*
X152439761Y-94384761D01*
X152487380Y-94337142D01*
X152535000Y-94241904D01*
X152535000Y-93956190D01*
X152487380Y-93860952D01*
X152439761Y-93813333D01*
X152344523Y-93765714D01*
X152201666Y-93765714D01*
X152106428Y-93813333D01*
X152058809Y-93860952D01*
X152011190Y-93956190D01*
X152011190Y-94241904D01*
X152058809Y-94337142D01*
X152106428Y-94384761D01*
X152201666Y-94432380D01*
X152344523Y-94432380D01*
X151154047Y-93765714D02*
X151154047Y-94432380D01*
X151582619Y-93765714D02*
X151582619Y-94289523D01*
X151535000Y-94384761D01*
X151439761Y-94432380D01*
X151296904Y-94432380D01*
X151201666Y-94384761D01*
X151154047Y-94337142D01*
X150725476Y-94384761D02*
X150630238Y-94432380D01*
X150439761Y-94432380D01*
X150344523Y-94384761D01*
X150296904Y-94289523D01*
X150296904Y-94241904D01*
X150344523Y-94146666D01*
X150439761Y-94099047D01*
X150582619Y-94099047D01*
X150677857Y-94051428D01*
X150725476Y-93956190D01*
X150725476Y-93908571D01*
X150677857Y-93813333D01*
X150582619Y-93765714D01*
X150439761Y-93765714D01*
X150344523Y-93813333D01*
X149439761Y-93765714D02*
X149439761Y-94432380D01*
X149868333Y-93765714D02*
X149868333Y-94289523D01*
X149820714Y-94384761D01*
X149725476Y-94432380D01*
X149582619Y-94432380D01*
X149487380Y-94384761D01*
X149439761Y-94337142D01*
X148963571Y-94432380D02*
X148963571Y-93432380D01*
X148868333Y-94051428D02*
X148582619Y-94432380D01*
X148582619Y-93765714D02*
X148963571Y-94146666D01*
X147773095Y-94384761D02*
X147868333Y-94432380D01*
X148058809Y-94432380D01*
X148154047Y-94384761D01*
X148201666Y-94289523D01*
X148201666Y-93908571D01*
X148154047Y-93813333D01*
X148058809Y-93765714D01*
X147868333Y-93765714D01*
X147773095Y-93813333D01*
X147725476Y-93908571D01*
X147725476Y-94003809D01*
X148201666Y-94099047D01*
X174806666Y-93527619D02*
X174759047Y-93480000D01*
X174663809Y-93432380D01*
X174425714Y-93432380D01*
X174330476Y-93480000D01*
X174282857Y-93527619D01*
X174235238Y-93622857D01*
X174235238Y-93718095D01*
X174282857Y-93860952D01*
X174854285Y-94432380D01*
X174235238Y-94432380D01*
X173616190Y-93432380D02*
X173520952Y-93432380D01*
X173425714Y-93480000D01*
X173378095Y-93527619D01*
X173330476Y-93622857D01*
X173282857Y-93813333D01*
X173282857Y-94051428D01*
X173330476Y-94241904D01*
X173378095Y-94337142D01*
X173425714Y-94384761D01*
X173520952Y-94432380D01*
X173616190Y-94432380D01*
X173711428Y-94384761D01*
X173759047Y-94337142D01*
X173806666Y-94241904D01*
X173854285Y-94051428D01*
X173854285Y-93813333D01*
X173806666Y-93622857D01*
X173759047Y-93527619D01*
X173711428Y-93480000D01*
X173616190Y-93432380D01*
X172901904Y-93527619D02*
X172854285Y-93480000D01*
X172759047Y-93432380D01*
X172520952Y-93432380D01*
X172425714Y-93480000D01*
X172378095Y-93527619D01*
X172330476Y-93622857D01*
X172330476Y-93718095D01*
X172378095Y-93860952D01*
X172949523Y-94432380D01*
X172330476Y-94432380D01*
X171378095Y-94432380D02*
X171949523Y-94432380D01*
X171663809Y-94432380D02*
X171663809Y-93432380D01*
X171759047Y-93575238D01*
X171854285Y-93670476D01*
X171949523Y-93718095D01*
X170949523Y-94337142D02*
X170901904Y-94384761D01*
X170949523Y-94432380D01*
X170997142Y-94384761D01*
X170949523Y-94337142D01*
X170949523Y-94432380D01*
X170282857Y-93432380D02*
X170187619Y-93432380D01*
X170092380Y-93480000D01*
X170044761Y-93527619D01*
X169997142Y-93622857D01*
X169949523Y-93813333D01*
X169949523Y-94051428D01*
X169997142Y-94241904D01*
X170044761Y-94337142D01*
X170092380Y-94384761D01*
X170187619Y-94432380D01*
X170282857Y-94432380D01*
X170378095Y-94384761D01*
X170425714Y-94337142D01*
X170473333Y-94241904D01*
X170520952Y-94051428D01*
X170520952Y-93813333D01*
X170473333Y-93622857D01*
X170425714Y-93527619D01*
X170378095Y-93480000D01*
X170282857Y-93432380D01*
X169378095Y-93860952D02*
X169473333Y-93813333D01*
X169520952Y-93765714D01*
X169568571Y-93670476D01*
X169568571Y-93622857D01*
X169520952Y-93527619D01*
X169473333Y-93480000D01*
X169378095Y-93432380D01*
X169187619Y-93432380D01*
X169092380Y-93480000D01*
X169044761Y-93527619D01*
X168997142Y-93622857D01*
X168997142Y-93670476D01*
X169044761Y-93765714D01*
X169092380Y-93813333D01*
X169187619Y-93860952D01*
X169378095Y-93860952D01*
X169473333Y-93908571D01*
X169520952Y-93956190D01*
X169568571Y-94051428D01*
X169568571Y-94241904D01*
X169520952Y-94337142D01*
X169473333Y-94384761D01*
X169378095Y-94432380D01*
X169187619Y-94432380D01*
X169092380Y-94384761D01*
X169044761Y-94337142D01*
X168997142Y-94241904D01*
X168997142Y-94051428D01*
X169044761Y-93956190D01*
X169092380Y-93908571D01*
X169187619Y-93860952D01*
X168568571Y-94337142D02*
X168520952Y-94384761D01*
X168568571Y-94432380D01*
X168616190Y-94384761D01*
X168568571Y-94337142D01*
X168568571Y-94432380D01*
X167568571Y-94432380D02*
X168140000Y-94432380D01*
X167854285Y-94432380D02*
X167854285Y-93432380D01*
X167949523Y-93575238D01*
X168044761Y-93670476D01*
X168140000Y-93718095D01*
X166616190Y-94432380D02*
X167187619Y-94432380D01*
X166901904Y-94432380D02*
X166901904Y-93432380D01*
X166997142Y-93575238D01*
X167092380Y-93670476D01*
X167187619Y-93718095D01*
X165520952Y-93765714D02*
X165282857Y-94432380D01*
X165044761Y-93765714D01*
X164282857Y-94384761D02*
X164378095Y-94432380D01*
X164568571Y-94432380D01*
X164663809Y-94384761D01*
X164711428Y-94289523D01*
X164711428Y-93908571D01*
X164663809Y-93813333D01*
X164568571Y-93765714D01*
X164378095Y-93765714D01*
X164282857Y-93813333D01*
X164235238Y-93908571D01*
X164235238Y-94003809D01*
X164711428Y-94099047D01*
X163806666Y-94432380D02*
X163806666Y-93765714D01*
X163806666Y-93956190D02*
X163759047Y-93860952D01*
X163711428Y-93813333D01*
X163616190Y-93765714D01*
X163520952Y-93765714D01*
X161901904Y-94432380D02*
X162473333Y-94432380D01*
X162187619Y-94432380D02*
X162187619Y-93432380D01*
X162282857Y-93575238D01*
X162378095Y-93670476D01*
X162473333Y-93718095D01*
X161473333Y-94337142D02*
X161425714Y-94384761D01*
X161473333Y-94432380D01*
X161520952Y-94384761D01*
X161473333Y-94337142D01*
X161473333Y-94432380D01*
X161044761Y-93527619D02*
X160997142Y-93480000D01*
X160901904Y-93432380D01*
X160663809Y-93432380D01*
X160568571Y-93480000D01*
X160520952Y-93527619D01*
X160473333Y-93622857D01*
X160473333Y-93718095D01*
X160520952Y-93860952D01*
X161092380Y-94432380D01*
X160473333Y-94432380D01*
D12*
X175320000Y-99755000D02*
X175320000Y-98425000D01*
X173990000Y-99755000D02*
X175320000Y-99755000D01*
X172720000Y-99755000D02*
X172720000Y-97095000D01*
X172720000Y-97095000D02*
X137100000Y-97095000D01*
X172720000Y-99755000D02*
X137100000Y-99755000D01*
X137100000Y-99755000D02*
X137100000Y-97095000D01*
X137100000Y-73085000D02*
X137100000Y-70425000D01*
X172720000Y-73085000D02*
X137100000Y-73085000D01*
X172720000Y-70425000D02*
X137100000Y-70425000D01*
X172720000Y-73085000D02*
X172720000Y-70425000D01*
X173990000Y-73085000D02*
X175320000Y-73085000D01*
X175320000Y-73085000D02*
X175320000Y-71755000D01*
M02*
