M48
; DRILL file {KiCad (5.1.10)-1} date 08/11/21 19:05:42
; FORMAT={-:-/ absolute / metric / decimal}
; #@! TF.CreationDate,2021-08-11T19:05:42+09:00
; #@! TF.GenerationSoftware,Kicad,Pcbnew,(5.1.10)-1
; #@! TF.FileFunction,Plated,1,2,PTH
FMAT,2
METRIC
T1C0.300
T2C0.400
T3C0.600
T4C0.800
T5C1.000
T6C1.500
T7C1.700
%
G90
G05
T1
X132.842Y-99.187
X135.382Y-99.187
X158.572Y-78.308
X166.37Y-91.186
X166.443Y-89.408
X168.379Y-86.276
X168.379Y-87.376
X168.379Y-88.476
X169.479Y-86.276
X169.479Y-87.376
X169.479Y-88.476
X170.579Y-86.276
X170.579Y-87.376
X170.579Y-88.476
T2
X91.059Y-70.993
X91.059Y-98.933
X100.711Y-79.248
X100.711Y-83.058
X101.727Y-85.344
X102.87Y-86.487
X104.267Y-75.565
X105.791Y-75.565
X107.188Y-70.993
X109.156Y-80.073
X109.474Y-98.933
X136.144Y-71.12
X136.144Y-72.136
X136.144Y-73.152
X142.24Y-74.93
X142.5Y-76.5
X142.5Y-79.0
X142.5Y-82.0
X142.5Y-85.0
X142.5Y-88.0
X142.5Y-91.0
X142.5Y-94.0
X144.272Y-95.403
X145.438Y-95.504
X147.32Y-77.724
X147.32Y-85.852
X148.844Y-77.724
X150.774Y-78.537
X150.876Y-82.296
X150.876Y-89.408
X151.028Y-92.151
X153.924Y-85.852
X159.055Y-80.721
X159.36Y-86.157
X159.512Y-92.1
X160.02Y-78.232
X161.29Y-92.202
X161.29Y-93.472
X163.068Y-83.82
X163.068Y-86.614
X163.068Y-88.138
X163.082Y-92.964
X163.576Y-74.422
X163.576Y-90.678
X163.576Y-94.742
X164.592Y-74.422
X165.608Y-74.422
X167.386Y-85.344
X167.64Y-90.17
X168.148Y-81.026
X168.402Y-75.184
X168.402Y-96.774
X168.46Y-91.218
X168.656Y-93.408
X169.418Y-90.932
X170.18Y-92.71
X171.958Y-75.184
X171.958Y-76.708
X171.958Y-78.232
X172.0Y-85.0
X172.72Y-89.154
X172.974Y-84.074
X173.101Y-93.472
X173.482Y-75.184
X173.482Y-76.708
X173.482Y-78.232
X173.482Y-81.026
X174.498Y-81.026
X175.26Y-75.946
X175.26Y-76.962
X175.26Y-77.978
X175.514Y-81.026
X175.576Y-85.371
X175.7Y-89.2
X175.768Y-70.993
X176.468Y-88.392
X176.53Y-75.946
X176.53Y-76.962
X176.53Y-77.978
X176.614Y-81.534
X177.292Y-99.06
X177.8Y-77.724
X178.435Y-94.488
X178.435Y-97.282
X178.55Y-85.25
X178.55Y-86.4
X179.07Y-79.248
X183.261Y-78.105
X183.515Y-93.091
X184.023Y-70.993
X184.023Y-99.06
T5
X114.3Y-73.66
X114.3Y-76.2
X114.3Y-78.74
X114.3Y-81.28
X114.3Y-83.82
X114.3Y-86.36
X114.3Y-88.9
X114.3Y-91.44
X114.3Y-93.98
X114.3Y-96.52
X116.84Y-73.66
X116.84Y-76.2
X116.84Y-78.74
X116.84Y-81.28
X116.84Y-83.82
X116.84Y-86.36
X116.84Y-88.9
X116.84Y-91.44
X116.84Y-93.98
X116.84Y-96.52
X119.38Y-73.66
X119.38Y-76.2
X119.38Y-78.74
X119.38Y-81.28
X119.38Y-83.82
X119.38Y-86.36
X119.38Y-88.9
X119.38Y-91.44
X119.38Y-93.98
X119.38Y-96.52
X121.92Y-73.66
X121.92Y-76.2
X121.92Y-78.74
X121.92Y-81.28
X121.92Y-83.82
X121.92Y-86.36
X121.92Y-88.9
X121.92Y-91.44
X121.92Y-93.98
X121.92Y-96.52
X124.46Y-73.66
X124.46Y-76.2
X124.46Y-78.74
X124.46Y-81.28
X124.46Y-83.82
X124.46Y-86.36
X124.46Y-88.9
X124.46Y-91.44
X124.46Y-93.98
X124.46Y-96.52
X127.0Y-73.66
X127.0Y-76.2
X127.0Y-78.74
X127.0Y-81.28
X127.0Y-83.82
X127.0Y-86.36
X127.0Y-88.9
X127.0Y-91.44
X127.0Y-93.98
X127.0Y-96.52
X129.54Y-73.66
X129.54Y-76.2
X129.54Y-78.74
X129.54Y-81.28
X129.54Y-83.82
X129.54Y-86.36
X129.54Y-88.9
X129.54Y-91.44
X129.54Y-93.98
X129.54Y-96.52
X132.08Y-73.66
X132.08Y-76.2
X132.08Y-78.74
X132.08Y-81.28
X132.08Y-83.82
X132.08Y-86.36
X132.08Y-88.9
X132.08Y-91.44
X132.08Y-93.98
X132.08Y-96.52
X138.43Y-71.755
X138.43Y-98.425
X140.97Y-71.755
X140.97Y-98.425
X143.51Y-71.755
X143.51Y-98.425
X146.05Y-71.755
X146.05Y-98.425
X148.59Y-71.755
X148.59Y-98.425
X151.13Y-71.755
X151.13Y-98.425
X153.67Y-71.755
X153.67Y-98.425
X156.21Y-71.755
X156.21Y-98.425
X158.75Y-71.755
X158.75Y-98.425
X161.29Y-71.755
X161.29Y-98.425
X163.83Y-71.755
X163.83Y-98.425
X166.37Y-71.755
X166.37Y-98.425
X168.91Y-71.755
X168.91Y-98.425
X171.45Y-71.755
X171.45Y-98.425
X173.99Y-71.755
X173.99Y-98.425
T6
X99.25Y-85.0
T7
X108.0Y-74.08
X108.0Y-78.04
X108.0Y-82.0
X108.0Y-88.0
X108.0Y-91.96
X108.0Y-95.92
T3
G00X177.457Y-80.68
M15
G01X178.257Y-80.68
M16
G05
G00X177.457Y-89.32
M15
G01X178.257Y-89.32
M16
G05
G00X181.647Y-80.68
M15
G01X182.447Y-80.68
M16
G05
G00X181.647Y-89.32
M15
G01X182.447Y-89.32
M16
G05
T4
G00X92.15Y-80.25
M15
G01X93.35Y-80.25
M16
G05
G00X92.15Y-89.75
M15
G01X93.35Y-89.75
M16
G05
G00X93.25Y-86.1
M15
G01X93.25Y-83.9
M16
G05
T0
M30
