G04 #@! TF.GenerationSoftware,KiCad,Pcbnew,(5.0.2)-1*
G04 #@! TF.CreationDate,2021-02-22T21:52:25+09:00*
G04 #@! TF.ProjectId,ESP32_LED,45535033-325f-44c4-9544-2e6b69636164,rev?*
G04 #@! TF.SameCoordinates,Original*
G04 #@! TF.FileFunction,Soldermask,Bot*
G04 #@! TF.FilePolarity,Negative*
%FSLAX46Y46*%
G04 Gerber Fmt 4.6, Leading zero omitted, Abs format (unit mm)*
G04 Created by KiCad (PCBNEW (5.0.2)-1) date 2021/02/22 21:52:25*
%MOMM*%
%LPD*%
G01*
G04 APERTURE LIST*
%ADD10C,0.100000*%
G04 APERTURE END LIST*
D10*
G36*
X163940442Y-97530518D02*
X164006627Y-97537037D01*
X164119853Y-97571384D01*
X164176467Y-97588557D01*
X164293288Y-97651000D01*
X164332991Y-97672222D01*
X164368729Y-97701552D01*
X164470186Y-97784814D01*
X164553448Y-97886271D01*
X164582778Y-97922009D01*
X164582779Y-97922011D01*
X164666443Y-98078533D01*
X164666443Y-98078534D01*
X164717963Y-98248373D01*
X164735359Y-98425000D01*
X164717963Y-98601627D01*
X164683616Y-98714853D01*
X164666443Y-98771467D01*
X164592348Y-98910087D01*
X164582778Y-98927991D01*
X164553448Y-98963729D01*
X164470186Y-99065186D01*
X164368729Y-99148448D01*
X164332991Y-99177778D01*
X164332989Y-99177779D01*
X164176467Y-99261443D01*
X164119853Y-99278616D01*
X164006627Y-99312963D01*
X163940442Y-99319482D01*
X163874260Y-99326000D01*
X163785740Y-99326000D01*
X163719557Y-99319481D01*
X163653373Y-99312963D01*
X163540147Y-99278616D01*
X163483533Y-99261443D01*
X163327011Y-99177779D01*
X163327009Y-99177778D01*
X163291271Y-99148448D01*
X163189814Y-99065186D01*
X163106552Y-98963729D01*
X163077222Y-98927991D01*
X163067652Y-98910087D01*
X162993557Y-98771467D01*
X162976384Y-98714853D01*
X162942037Y-98601627D01*
X162924641Y-98425000D01*
X162942037Y-98248373D01*
X162993557Y-98078534D01*
X162993557Y-98078533D01*
X163077221Y-97922011D01*
X163077222Y-97922009D01*
X163106552Y-97886271D01*
X163189814Y-97784814D01*
X163291271Y-97701552D01*
X163327009Y-97672222D01*
X163366712Y-97651000D01*
X163483533Y-97588557D01*
X163540147Y-97571384D01*
X163653373Y-97537037D01*
X163719558Y-97530518D01*
X163785740Y-97524000D01*
X163874260Y-97524000D01*
X163940442Y-97530518D01*
X163940442Y-97530518D01*
G37*
G36*
X174891000Y-99326000D02*
X173089000Y-99326000D01*
X173089000Y-97524000D01*
X174891000Y-97524000D01*
X174891000Y-99326000D01*
X174891000Y-99326000D01*
G37*
G36*
X171560442Y-97530518D02*
X171626627Y-97537037D01*
X171739853Y-97571384D01*
X171796467Y-97588557D01*
X171913288Y-97651000D01*
X171952991Y-97672222D01*
X171988729Y-97701552D01*
X172090186Y-97784814D01*
X172173448Y-97886271D01*
X172202778Y-97922009D01*
X172202779Y-97922011D01*
X172286443Y-98078533D01*
X172286443Y-98078534D01*
X172337963Y-98248373D01*
X172355359Y-98425000D01*
X172337963Y-98601627D01*
X172303616Y-98714853D01*
X172286443Y-98771467D01*
X172212348Y-98910087D01*
X172202778Y-98927991D01*
X172173448Y-98963729D01*
X172090186Y-99065186D01*
X171988729Y-99148448D01*
X171952991Y-99177778D01*
X171952989Y-99177779D01*
X171796467Y-99261443D01*
X171739853Y-99278616D01*
X171626627Y-99312963D01*
X171560442Y-99319482D01*
X171494260Y-99326000D01*
X171405740Y-99326000D01*
X171339557Y-99319481D01*
X171273373Y-99312963D01*
X171160147Y-99278616D01*
X171103533Y-99261443D01*
X170947011Y-99177779D01*
X170947009Y-99177778D01*
X170911271Y-99148448D01*
X170809814Y-99065186D01*
X170726552Y-98963729D01*
X170697222Y-98927991D01*
X170687652Y-98910087D01*
X170613557Y-98771467D01*
X170596384Y-98714853D01*
X170562037Y-98601627D01*
X170544641Y-98425000D01*
X170562037Y-98248373D01*
X170613557Y-98078534D01*
X170613557Y-98078533D01*
X170697221Y-97922011D01*
X170697222Y-97922009D01*
X170726552Y-97886271D01*
X170809814Y-97784814D01*
X170911271Y-97701552D01*
X170947009Y-97672222D01*
X170986712Y-97651000D01*
X171103533Y-97588557D01*
X171160147Y-97571384D01*
X171273373Y-97537037D01*
X171339558Y-97530518D01*
X171405740Y-97524000D01*
X171494260Y-97524000D01*
X171560442Y-97530518D01*
X171560442Y-97530518D01*
G37*
G36*
X169020442Y-97530518D02*
X169086627Y-97537037D01*
X169199853Y-97571384D01*
X169256467Y-97588557D01*
X169373288Y-97651000D01*
X169412991Y-97672222D01*
X169448729Y-97701552D01*
X169550186Y-97784814D01*
X169633448Y-97886271D01*
X169662778Y-97922009D01*
X169662779Y-97922011D01*
X169746443Y-98078533D01*
X169746443Y-98078534D01*
X169797963Y-98248373D01*
X169815359Y-98425000D01*
X169797963Y-98601627D01*
X169763616Y-98714853D01*
X169746443Y-98771467D01*
X169672348Y-98910087D01*
X169662778Y-98927991D01*
X169633448Y-98963729D01*
X169550186Y-99065186D01*
X169448729Y-99148448D01*
X169412991Y-99177778D01*
X169412989Y-99177779D01*
X169256467Y-99261443D01*
X169199853Y-99278616D01*
X169086627Y-99312963D01*
X169020442Y-99319482D01*
X168954260Y-99326000D01*
X168865740Y-99326000D01*
X168799557Y-99319481D01*
X168733373Y-99312963D01*
X168620147Y-99278616D01*
X168563533Y-99261443D01*
X168407011Y-99177779D01*
X168407009Y-99177778D01*
X168371271Y-99148448D01*
X168269814Y-99065186D01*
X168186552Y-98963729D01*
X168157222Y-98927991D01*
X168147652Y-98910087D01*
X168073557Y-98771467D01*
X168056384Y-98714853D01*
X168022037Y-98601627D01*
X168004641Y-98425000D01*
X168022037Y-98248373D01*
X168073557Y-98078534D01*
X168073557Y-98078533D01*
X168157221Y-97922011D01*
X168157222Y-97922009D01*
X168186552Y-97886271D01*
X168269814Y-97784814D01*
X168371271Y-97701552D01*
X168407009Y-97672222D01*
X168446712Y-97651000D01*
X168563533Y-97588557D01*
X168620147Y-97571384D01*
X168733373Y-97537037D01*
X168799558Y-97530518D01*
X168865740Y-97524000D01*
X168954260Y-97524000D01*
X169020442Y-97530518D01*
X169020442Y-97530518D01*
G37*
G36*
X166480442Y-97530518D02*
X166546627Y-97537037D01*
X166659853Y-97571384D01*
X166716467Y-97588557D01*
X166833288Y-97651000D01*
X166872991Y-97672222D01*
X166908729Y-97701552D01*
X167010186Y-97784814D01*
X167093448Y-97886271D01*
X167122778Y-97922009D01*
X167122779Y-97922011D01*
X167206443Y-98078533D01*
X167206443Y-98078534D01*
X167257963Y-98248373D01*
X167275359Y-98425000D01*
X167257963Y-98601627D01*
X167223616Y-98714853D01*
X167206443Y-98771467D01*
X167132348Y-98910087D01*
X167122778Y-98927991D01*
X167093448Y-98963729D01*
X167010186Y-99065186D01*
X166908729Y-99148448D01*
X166872991Y-99177778D01*
X166872989Y-99177779D01*
X166716467Y-99261443D01*
X166659853Y-99278616D01*
X166546627Y-99312963D01*
X166480442Y-99319482D01*
X166414260Y-99326000D01*
X166325740Y-99326000D01*
X166259557Y-99319481D01*
X166193373Y-99312963D01*
X166080147Y-99278616D01*
X166023533Y-99261443D01*
X165867011Y-99177779D01*
X165867009Y-99177778D01*
X165831271Y-99148448D01*
X165729814Y-99065186D01*
X165646552Y-98963729D01*
X165617222Y-98927991D01*
X165607652Y-98910087D01*
X165533557Y-98771467D01*
X165516384Y-98714853D01*
X165482037Y-98601627D01*
X165464641Y-98425000D01*
X165482037Y-98248373D01*
X165533557Y-98078534D01*
X165533557Y-98078533D01*
X165617221Y-97922011D01*
X165617222Y-97922009D01*
X165646552Y-97886271D01*
X165729814Y-97784814D01*
X165831271Y-97701552D01*
X165867009Y-97672222D01*
X165906712Y-97651000D01*
X166023533Y-97588557D01*
X166080147Y-97571384D01*
X166193373Y-97537037D01*
X166259558Y-97530518D01*
X166325740Y-97524000D01*
X166414260Y-97524000D01*
X166480442Y-97530518D01*
X166480442Y-97530518D01*
G37*
G36*
X138540442Y-97530518D02*
X138606627Y-97537037D01*
X138719853Y-97571384D01*
X138776467Y-97588557D01*
X138893288Y-97651000D01*
X138932991Y-97672222D01*
X138968729Y-97701552D01*
X139070186Y-97784814D01*
X139153448Y-97886271D01*
X139182778Y-97922009D01*
X139182779Y-97922011D01*
X139266443Y-98078533D01*
X139266443Y-98078534D01*
X139317963Y-98248373D01*
X139335359Y-98425000D01*
X139317963Y-98601627D01*
X139283616Y-98714853D01*
X139266443Y-98771467D01*
X139192348Y-98910087D01*
X139182778Y-98927991D01*
X139153448Y-98963729D01*
X139070186Y-99065186D01*
X138968729Y-99148448D01*
X138932991Y-99177778D01*
X138932989Y-99177779D01*
X138776467Y-99261443D01*
X138719853Y-99278616D01*
X138606627Y-99312963D01*
X138540442Y-99319482D01*
X138474260Y-99326000D01*
X138385740Y-99326000D01*
X138319557Y-99319481D01*
X138253373Y-99312963D01*
X138140147Y-99278616D01*
X138083533Y-99261443D01*
X137927011Y-99177779D01*
X137927009Y-99177778D01*
X137891271Y-99148448D01*
X137789814Y-99065186D01*
X137706552Y-98963729D01*
X137677222Y-98927991D01*
X137667652Y-98910087D01*
X137593557Y-98771467D01*
X137576384Y-98714853D01*
X137542037Y-98601627D01*
X137524641Y-98425000D01*
X137542037Y-98248373D01*
X137593557Y-98078534D01*
X137593557Y-98078533D01*
X137677221Y-97922011D01*
X137677222Y-97922009D01*
X137706552Y-97886271D01*
X137789814Y-97784814D01*
X137891271Y-97701552D01*
X137927009Y-97672222D01*
X137966712Y-97651000D01*
X138083533Y-97588557D01*
X138140147Y-97571384D01*
X138253373Y-97537037D01*
X138319558Y-97530518D01*
X138385740Y-97524000D01*
X138474260Y-97524000D01*
X138540442Y-97530518D01*
X138540442Y-97530518D01*
G37*
G36*
X141080442Y-97530518D02*
X141146627Y-97537037D01*
X141259853Y-97571384D01*
X141316467Y-97588557D01*
X141433288Y-97651000D01*
X141472991Y-97672222D01*
X141508729Y-97701552D01*
X141610186Y-97784814D01*
X141693448Y-97886271D01*
X141722778Y-97922009D01*
X141722779Y-97922011D01*
X141806443Y-98078533D01*
X141806443Y-98078534D01*
X141857963Y-98248373D01*
X141875359Y-98425000D01*
X141857963Y-98601627D01*
X141823616Y-98714853D01*
X141806443Y-98771467D01*
X141732348Y-98910087D01*
X141722778Y-98927991D01*
X141693448Y-98963729D01*
X141610186Y-99065186D01*
X141508729Y-99148448D01*
X141472991Y-99177778D01*
X141472989Y-99177779D01*
X141316467Y-99261443D01*
X141259853Y-99278616D01*
X141146627Y-99312963D01*
X141080442Y-99319482D01*
X141014260Y-99326000D01*
X140925740Y-99326000D01*
X140859557Y-99319481D01*
X140793373Y-99312963D01*
X140680147Y-99278616D01*
X140623533Y-99261443D01*
X140467011Y-99177779D01*
X140467009Y-99177778D01*
X140431271Y-99148448D01*
X140329814Y-99065186D01*
X140246552Y-98963729D01*
X140217222Y-98927991D01*
X140207652Y-98910087D01*
X140133557Y-98771467D01*
X140116384Y-98714853D01*
X140082037Y-98601627D01*
X140064641Y-98425000D01*
X140082037Y-98248373D01*
X140133557Y-98078534D01*
X140133557Y-98078533D01*
X140217221Y-97922011D01*
X140217222Y-97922009D01*
X140246552Y-97886271D01*
X140329814Y-97784814D01*
X140431271Y-97701552D01*
X140467009Y-97672222D01*
X140506712Y-97651000D01*
X140623533Y-97588557D01*
X140680147Y-97571384D01*
X140793373Y-97537037D01*
X140859558Y-97530518D01*
X140925740Y-97524000D01*
X141014260Y-97524000D01*
X141080442Y-97530518D01*
X141080442Y-97530518D01*
G37*
G36*
X143620442Y-97530518D02*
X143686627Y-97537037D01*
X143799853Y-97571384D01*
X143856467Y-97588557D01*
X143973288Y-97651000D01*
X144012991Y-97672222D01*
X144048729Y-97701552D01*
X144150186Y-97784814D01*
X144233448Y-97886271D01*
X144262778Y-97922009D01*
X144262779Y-97922011D01*
X144346443Y-98078533D01*
X144346443Y-98078534D01*
X144397963Y-98248373D01*
X144415359Y-98425000D01*
X144397963Y-98601627D01*
X144363616Y-98714853D01*
X144346443Y-98771467D01*
X144272348Y-98910087D01*
X144262778Y-98927991D01*
X144233448Y-98963729D01*
X144150186Y-99065186D01*
X144048729Y-99148448D01*
X144012991Y-99177778D01*
X144012989Y-99177779D01*
X143856467Y-99261443D01*
X143799853Y-99278616D01*
X143686627Y-99312963D01*
X143620442Y-99319482D01*
X143554260Y-99326000D01*
X143465740Y-99326000D01*
X143399557Y-99319481D01*
X143333373Y-99312963D01*
X143220147Y-99278616D01*
X143163533Y-99261443D01*
X143007011Y-99177779D01*
X143007009Y-99177778D01*
X142971271Y-99148448D01*
X142869814Y-99065186D01*
X142786552Y-98963729D01*
X142757222Y-98927991D01*
X142747652Y-98910087D01*
X142673557Y-98771467D01*
X142656384Y-98714853D01*
X142622037Y-98601627D01*
X142604641Y-98425000D01*
X142622037Y-98248373D01*
X142673557Y-98078534D01*
X142673557Y-98078533D01*
X142757221Y-97922011D01*
X142757222Y-97922009D01*
X142786552Y-97886271D01*
X142869814Y-97784814D01*
X142971271Y-97701552D01*
X143007009Y-97672222D01*
X143046712Y-97651000D01*
X143163533Y-97588557D01*
X143220147Y-97571384D01*
X143333373Y-97537037D01*
X143399558Y-97530518D01*
X143465740Y-97524000D01*
X143554260Y-97524000D01*
X143620442Y-97530518D01*
X143620442Y-97530518D01*
G37*
G36*
X148700442Y-97530518D02*
X148766627Y-97537037D01*
X148879853Y-97571384D01*
X148936467Y-97588557D01*
X149053288Y-97651000D01*
X149092991Y-97672222D01*
X149128729Y-97701552D01*
X149230186Y-97784814D01*
X149313448Y-97886271D01*
X149342778Y-97922009D01*
X149342779Y-97922011D01*
X149426443Y-98078533D01*
X149426443Y-98078534D01*
X149477963Y-98248373D01*
X149495359Y-98425000D01*
X149477963Y-98601627D01*
X149443616Y-98714853D01*
X149426443Y-98771467D01*
X149352348Y-98910087D01*
X149342778Y-98927991D01*
X149313448Y-98963729D01*
X149230186Y-99065186D01*
X149128729Y-99148448D01*
X149092991Y-99177778D01*
X149092989Y-99177779D01*
X148936467Y-99261443D01*
X148879853Y-99278616D01*
X148766627Y-99312963D01*
X148700442Y-99319482D01*
X148634260Y-99326000D01*
X148545740Y-99326000D01*
X148479557Y-99319481D01*
X148413373Y-99312963D01*
X148300147Y-99278616D01*
X148243533Y-99261443D01*
X148087011Y-99177779D01*
X148087009Y-99177778D01*
X148051271Y-99148448D01*
X147949814Y-99065186D01*
X147866552Y-98963729D01*
X147837222Y-98927991D01*
X147827652Y-98910087D01*
X147753557Y-98771467D01*
X147736384Y-98714853D01*
X147702037Y-98601627D01*
X147684641Y-98425000D01*
X147702037Y-98248373D01*
X147753557Y-98078534D01*
X147753557Y-98078533D01*
X147837221Y-97922011D01*
X147837222Y-97922009D01*
X147866552Y-97886271D01*
X147949814Y-97784814D01*
X148051271Y-97701552D01*
X148087009Y-97672222D01*
X148126712Y-97651000D01*
X148243533Y-97588557D01*
X148300147Y-97571384D01*
X148413373Y-97537037D01*
X148479558Y-97530518D01*
X148545740Y-97524000D01*
X148634260Y-97524000D01*
X148700442Y-97530518D01*
X148700442Y-97530518D01*
G37*
G36*
X151240442Y-97530518D02*
X151306627Y-97537037D01*
X151419853Y-97571384D01*
X151476467Y-97588557D01*
X151593288Y-97651000D01*
X151632991Y-97672222D01*
X151668729Y-97701552D01*
X151770186Y-97784814D01*
X151853448Y-97886271D01*
X151882778Y-97922009D01*
X151882779Y-97922011D01*
X151966443Y-98078533D01*
X151966443Y-98078534D01*
X152017963Y-98248373D01*
X152035359Y-98425000D01*
X152017963Y-98601627D01*
X151983616Y-98714853D01*
X151966443Y-98771467D01*
X151892348Y-98910087D01*
X151882778Y-98927991D01*
X151853448Y-98963729D01*
X151770186Y-99065186D01*
X151668729Y-99148448D01*
X151632991Y-99177778D01*
X151632989Y-99177779D01*
X151476467Y-99261443D01*
X151419853Y-99278616D01*
X151306627Y-99312963D01*
X151240442Y-99319482D01*
X151174260Y-99326000D01*
X151085740Y-99326000D01*
X151019557Y-99319481D01*
X150953373Y-99312963D01*
X150840147Y-99278616D01*
X150783533Y-99261443D01*
X150627011Y-99177779D01*
X150627009Y-99177778D01*
X150591271Y-99148448D01*
X150489814Y-99065186D01*
X150406552Y-98963729D01*
X150377222Y-98927991D01*
X150367652Y-98910087D01*
X150293557Y-98771467D01*
X150276384Y-98714853D01*
X150242037Y-98601627D01*
X150224641Y-98425000D01*
X150242037Y-98248373D01*
X150293557Y-98078534D01*
X150293557Y-98078533D01*
X150377221Y-97922011D01*
X150377222Y-97922009D01*
X150406552Y-97886271D01*
X150489814Y-97784814D01*
X150591271Y-97701552D01*
X150627009Y-97672222D01*
X150666712Y-97651000D01*
X150783533Y-97588557D01*
X150840147Y-97571384D01*
X150953373Y-97537037D01*
X151019558Y-97530518D01*
X151085740Y-97524000D01*
X151174260Y-97524000D01*
X151240442Y-97530518D01*
X151240442Y-97530518D01*
G37*
G36*
X153780442Y-97530518D02*
X153846627Y-97537037D01*
X153959853Y-97571384D01*
X154016467Y-97588557D01*
X154133288Y-97651000D01*
X154172991Y-97672222D01*
X154208729Y-97701552D01*
X154310186Y-97784814D01*
X154393448Y-97886271D01*
X154422778Y-97922009D01*
X154422779Y-97922011D01*
X154506443Y-98078533D01*
X154506443Y-98078534D01*
X154557963Y-98248373D01*
X154575359Y-98425000D01*
X154557963Y-98601627D01*
X154523616Y-98714853D01*
X154506443Y-98771467D01*
X154432348Y-98910087D01*
X154422778Y-98927991D01*
X154393448Y-98963729D01*
X154310186Y-99065186D01*
X154208729Y-99148448D01*
X154172991Y-99177778D01*
X154172989Y-99177779D01*
X154016467Y-99261443D01*
X153959853Y-99278616D01*
X153846627Y-99312963D01*
X153780442Y-99319482D01*
X153714260Y-99326000D01*
X153625740Y-99326000D01*
X153559557Y-99319481D01*
X153493373Y-99312963D01*
X153380147Y-99278616D01*
X153323533Y-99261443D01*
X153167011Y-99177779D01*
X153167009Y-99177778D01*
X153131271Y-99148448D01*
X153029814Y-99065186D01*
X152946552Y-98963729D01*
X152917222Y-98927991D01*
X152907652Y-98910087D01*
X152833557Y-98771467D01*
X152816384Y-98714853D01*
X152782037Y-98601627D01*
X152764641Y-98425000D01*
X152782037Y-98248373D01*
X152833557Y-98078534D01*
X152833557Y-98078533D01*
X152917221Y-97922011D01*
X152917222Y-97922009D01*
X152946552Y-97886271D01*
X153029814Y-97784814D01*
X153131271Y-97701552D01*
X153167009Y-97672222D01*
X153206712Y-97651000D01*
X153323533Y-97588557D01*
X153380147Y-97571384D01*
X153493373Y-97537037D01*
X153559558Y-97530518D01*
X153625740Y-97524000D01*
X153714260Y-97524000D01*
X153780442Y-97530518D01*
X153780442Y-97530518D01*
G37*
G36*
X156320442Y-97530518D02*
X156386627Y-97537037D01*
X156499853Y-97571384D01*
X156556467Y-97588557D01*
X156673288Y-97651000D01*
X156712991Y-97672222D01*
X156748729Y-97701552D01*
X156850186Y-97784814D01*
X156933448Y-97886271D01*
X156962778Y-97922009D01*
X156962779Y-97922011D01*
X157046443Y-98078533D01*
X157046443Y-98078534D01*
X157097963Y-98248373D01*
X157115359Y-98425000D01*
X157097963Y-98601627D01*
X157063616Y-98714853D01*
X157046443Y-98771467D01*
X156972348Y-98910087D01*
X156962778Y-98927991D01*
X156933448Y-98963729D01*
X156850186Y-99065186D01*
X156748729Y-99148448D01*
X156712991Y-99177778D01*
X156712989Y-99177779D01*
X156556467Y-99261443D01*
X156499853Y-99278616D01*
X156386627Y-99312963D01*
X156320442Y-99319482D01*
X156254260Y-99326000D01*
X156165740Y-99326000D01*
X156099557Y-99319481D01*
X156033373Y-99312963D01*
X155920147Y-99278616D01*
X155863533Y-99261443D01*
X155707011Y-99177779D01*
X155707009Y-99177778D01*
X155671271Y-99148448D01*
X155569814Y-99065186D01*
X155486552Y-98963729D01*
X155457222Y-98927991D01*
X155447652Y-98910087D01*
X155373557Y-98771467D01*
X155356384Y-98714853D01*
X155322037Y-98601627D01*
X155304641Y-98425000D01*
X155322037Y-98248373D01*
X155373557Y-98078534D01*
X155373557Y-98078533D01*
X155457221Y-97922011D01*
X155457222Y-97922009D01*
X155486552Y-97886271D01*
X155569814Y-97784814D01*
X155671271Y-97701552D01*
X155707009Y-97672222D01*
X155746712Y-97651000D01*
X155863533Y-97588557D01*
X155920147Y-97571384D01*
X156033373Y-97537037D01*
X156099558Y-97530518D01*
X156165740Y-97524000D01*
X156254260Y-97524000D01*
X156320442Y-97530518D01*
X156320442Y-97530518D01*
G37*
G36*
X158860442Y-97530518D02*
X158926627Y-97537037D01*
X159039853Y-97571384D01*
X159096467Y-97588557D01*
X159213288Y-97651000D01*
X159252991Y-97672222D01*
X159288729Y-97701552D01*
X159390186Y-97784814D01*
X159473448Y-97886271D01*
X159502778Y-97922009D01*
X159502779Y-97922011D01*
X159586443Y-98078533D01*
X159586443Y-98078534D01*
X159637963Y-98248373D01*
X159655359Y-98425000D01*
X159637963Y-98601627D01*
X159603616Y-98714853D01*
X159586443Y-98771467D01*
X159512348Y-98910087D01*
X159502778Y-98927991D01*
X159473448Y-98963729D01*
X159390186Y-99065186D01*
X159288729Y-99148448D01*
X159252991Y-99177778D01*
X159252989Y-99177779D01*
X159096467Y-99261443D01*
X159039853Y-99278616D01*
X158926627Y-99312963D01*
X158860442Y-99319482D01*
X158794260Y-99326000D01*
X158705740Y-99326000D01*
X158639557Y-99319481D01*
X158573373Y-99312963D01*
X158460147Y-99278616D01*
X158403533Y-99261443D01*
X158247011Y-99177779D01*
X158247009Y-99177778D01*
X158211271Y-99148448D01*
X158109814Y-99065186D01*
X158026552Y-98963729D01*
X157997222Y-98927991D01*
X157987652Y-98910087D01*
X157913557Y-98771467D01*
X157896384Y-98714853D01*
X157862037Y-98601627D01*
X157844641Y-98425000D01*
X157862037Y-98248373D01*
X157913557Y-98078534D01*
X157913557Y-98078533D01*
X157997221Y-97922011D01*
X157997222Y-97922009D01*
X158026552Y-97886271D01*
X158109814Y-97784814D01*
X158211271Y-97701552D01*
X158247009Y-97672222D01*
X158286712Y-97651000D01*
X158403533Y-97588557D01*
X158460147Y-97571384D01*
X158573373Y-97537037D01*
X158639558Y-97530518D01*
X158705740Y-97524000D01*
X158794260Y-97524000D01*
X158860442Y-97530518D01*
X158860442Y-97530518D01*
G37*
G36*
X161400442Y-97530518D02*
X161466627Y-97537037D01*
X161579853Y-97571384D01*
X161636467Y-97588557D01*
X161753288Y-97651000D01*
X161792991Y-97672222D01*
X161828729Y-97701552D01*
X161930186Y-97784814D01*
X162013448Y-97886271D01*
X162042778Y-97922009D01*
X162042779Y-97922011D01*
X162126443Y-98078533D01*
X162126443Y-98078534D01*
X162177963Y-98248373D01*
X162195359Y-98425000D01*
X162177963Y-98601627D01*
X162143616Y-98714853D01*
X162126443Y-98771467D01*
X162052348Y-98910087D01*
X162042778Y-98927991D01*
X162013448Y-98963729D01*
X161930186Y-99065186D01*
X161828729Y-99148448D01*
X161792991Y-99177778D01*
X161792989Y-99177779D01*
X161636467Y-99261443D01*
X161579853Y-99278616D01*
X161466627Y-99312963D01*
X161400442Y-99319482D01*
X161334260Y-99326000D01*
X161245740Y-99326000D01*
X161179557Y-99319481D01*
X161113373Y-99312963D01*
X161000147Y-99278616D01*
X160943533Y-99261443D01*
X160787011Y-99177779D01*
X160787009Y-99177778D01*
X160751271Y-99148448D01*
X160649814Y-99065186D01*
X160566552Y-98963729D01*
X160537222Y-98927991D01*
X160527652Y-98910087D01*
X160453557Y-98771467D01*
X160436384Y-98714853D01*
X160402037Y-98601627D01*
X160384641Y-98425000D01*
X160402037Y-98248373D01*
X160453557Y-98078534D01*
X160453557Y-98078533D01*
X160537221Y-97922011D01*
X160537222Y-97922009D01*
X160566552Y-97886271D01*
X160649814Y-97784814D01*
X160751271Y-97701552D01*
X160787009Y-97672222D01*
X160826712Y-97651000D01*
X160943533Y-97588557D01*
X161000147Y-97571384D01*
X161113373Y-97537037D01*
X161179558Y-97530518D01*
X161245740Y-97524000D01*
X161334260Y-97524000D01*
X161400442Y-97530518D01*
X161400442Y-97530518D01*
G37*
G36*
X146160442Y-97530518D02*
X146226627Y-97537037D01*
X146339853Y-97571384D01*
X146396467Y-97588557D01*
X146513288Y-97651000D01*
X146552991Y-97672222D01*
X146588729Y-97701552D01*
X146690186Y-97784814D01*
X146773448Y-97886271D01*
X146802778Y-97922009D01*
X146802779Y-97922011D01*
X146886443Y-98078533D01*
X146886443Y-98078534D01*
X146937963Y-98248373D01*
X146955359Y-98425000D01*
X146937963Y-98601627D01*
X146903616Y-98714853D01*
X146886443Y-98771467D01*
X146812348Y-98910087D01*
X146802778Y-98927991D01*
X146773448Y-98963729D01*
X146690186Y-99065186D01*
X146588729Y-99148448D01*
X146552991Y-99177778D01*
X146552989Y-99177779D01*
X146396467Y-99261443D01*
X146339853Y-99278616D01*
X146226627Y-99312963D01*
X146160442Y-99319482D01*
X146094260Y-99326000D01*
X146005740Y-99326000D01*
X145939557Y-99319481D01*
X145873373Y-99312963D01*
X145760147Y-99278616D01*
X145703533Y-99261443D01*
X145547011Y-99177779D01*
X145547009Y-99177778D01*
X145511271Y-99148448D01*
X145409814Y-99065186D01*
X145326552Y-98963729D01*
X145297222Y-98927991D01*
X145287652Y-98910087D01*
X145213557Y-98771467D01*
X145196384Y-98714853D01*
X145162037Y-98601627D01*
X145144641Y-98425000D01*
X145162037Y-98248373D01*
X145213557Y-98078534D01*
X145213557Y-98078533D01*
X145297221Y-97922011D01*
X145297222Y-97922009D01*
X145326552Y-97886271D01*
X145409814Y-97784814D01*
X145511271Y-97701552D01*
X145547009Y-97672222D01*
X145586712Y-97651000D01*
X145703533Y-97588557D01*
X145760147Y-97571384D01*
X145873373Y-97537037D01*
X145939558Y-97530518D01*
X146005740Y-97524000D01*
X146094260Y-97524000D01*
X146160442Y-97530518D01*
X146160442Y-97530518D01*
G37*
G36*
X124375256Y-94391298D02*
X124481579Y-94412447D01*
X124782042Y-94536903D01*
X125048852Y-94715180D01*
X125052454Y-94717587D01*
X125282413Y-94947546D01*
X125463098Y-95217960D01*
X125587553Y-95518422D01*
X125651000Y-95837389D01*
X125651000Y-96162611D01*
X125587553Y-96481578D01*
X125463098Y-96782040D01*
X125282413Y-97052454D01*
X125052454Y-97282413D01*
X125052451Y-97282415D01*
X124782042Y-97463097D01*
X124481579Y-97587553D01*
X124375256Y-97608702D01*
X124162611Y-97651000D01*
X123837389Y-97651000D01*
X123624744Y-97608702D01*
X123518421Y-97587553D01*
X123217958Y-97463097D01*
X122947549Y-97282415D01*
X122947546Y-97282413D01*
X122717587Y-97052454D01*
X122536902Y-96782040D01*
X122412447Y-96481578D01*
X122349000Y-96162611D01*
X122349000Y-95837389D01*
X122412447Y-95518422D01*
X122536902Y-95217960D01*
X122717587Y-94947546D01*
X122947546Y-94717587D01*
X122951148Y-94715180D01*
X123217958Y-94536903D01*
X123518421Y-94412447D01*
X123624744Y-94391298D01*
X123837389Y-94349000D01*
X124162611Y-94349000D01*
X124375256Y-94391298D01*
X124375256Y-94391298D01*
G37*
G36*
X181375256Y-94391298D02*
X181481579Y-94412447D01*
X181782042Y-94536903D01*
X182048852Y-94715180D01*
X182052454Y-94717587D01*
X182282413Y-94947546D01*
X182463098Y-95217960D01*
X182587553Y-95518422D01*
X182651000Y-95837389D01*
X182651000Y-96162611D01*
X182587553Y-96481578D01*
X182463098Y-96782040D01*
X182282413Y-97052454D01*
X182052454Y-97282413D01*
X182052451Y-97282415D01*
X181782042Y-97463097D01*
X181481579Y-97587553D01*
X181375256Y-97608702D01*
X181162611Y-97651000D01*
X180837389Y-97651000D01*
X180624744Y-97608702D01*
X180518421Y-97587553D01*
X180217958Y-97463097D01*
X179947549Y-97282415D01*
X179947546Y-97282413D01*
X179717587Y-97052454D01*
X179536902Y-96782040D01*
X179412447Y-96481578D01*
X179349000Y-96162611D01*
X179349000Y-95837389D01*
X179412447Y-95518422D01*
X179536902Y-95217960D01*
X179717587Y-94947546D01*
X179947546Y-94717587D01*
X179951148Y-94715180D01*
X180217958Y-94536903D01*
X180518421Y-94412447D01*
X180624744Y-94391298D01*
X180837389Y-94349000D01*
X181162611Y-94349000D01*
X181375256Y-94391298D01*
X181375256Y-94391298D01*
G37*
G36*
X178365015Y-88776973D02*
X178468879Y-88808479D01*
X178564600Y-88859644D01*
X178648501Y-88928499D01*
X178717356Y-89012400D01*
X178768521Y-89108121D01*
X178800027Y-89211985D01*
X178810666Y-89320000D01*
X178800027Y-89428015D01*
X178768521Y-89531879D01*
X178717356Y-89627600D01*
X178648501Y-89711501D01*
X178564600Y-89780356D01*
X178468879Y-89831521D01*
X178365015Y-89863027D01*
X178284067Y-89871000D01*
X177429933Y-89871000D01*
X177348985Y-89863027D01*
X177245121Y-89831521D01*
X177149400Y-89780356D01*
X177065499Y-89711501D01*
X176996644Y-89627600D01*
X176945479Y-89531879D01*
X176913973Y-89428015D01*
X176903334Y-89320000D01*
X176913973Y-89211985D01*
X176945479Y-89108121D01*
X176996644Y-89012400D01*
X177065499Y-88928499D01*
X177149400Y-88859644D01*
X177245121Y-88808479D01*
X177348985Y-88776973D01*
X177429933Y-88769000D01*
X178284067Y-88769000D01*
X178365015Y-88776973D01*
X178365015Y-88776973D01*
G37*
G36*
X182555015Y-88776973D02*
X182658879Y-88808479D01*
X182754600Y-88859644D01*
X182838501Y-88928499D01*
X182907356Y-89012400D01*
X182958521Y-89108121D01*
X182990027Y-89211985D01*
X183000666Y-89320000D01*
X182990027Y-89428015D01*
X182958521Y-89531879D01*
X182907356Y-89627600D01*
X182838501Y-89711501D01*
X182754600Y-89780356D01*
X182658879Y-89831521D01*
X182555015Y-89863027D01*
X182474067Y-89871000D01*
X181619933Y-89871000D01*
X181538985Y-89863027D01*
X181435121Y-89831521D01*
X181339400Y-89780356D01*
X181255499Y-89711501D01*
X181186644Y-89627600D01*
X181135479Y-89531879D01*
X181103973Y-89428015D01*
X181093334Y-89320000D01*
X181103973Y-89211985D01*
X181135479Y-89108121D01*
X181186644Y-89012400D01*
X181255499Y-88928499D01*
X181339400Y-88859644D01*
X181435121Y-88808479D01*
X181538985Y-88776973D01*
X181619933Y-88769000D01*
X182474067Y-88769000D01*
X182555015Y-88776973D01*
X182555015Y-88776973D01*
G37*
G36*
X124570443Y-88005519D02*
X124636627Y-88012037D01*
X124749853Y-88046384D01*
X124806467Y-88063557D01*
X124902121Y-88114686D01*
X124962991Y-88147222D01*
X124987161Y-88167058D01*
X125100186Y-88259814D01*
X125183448Y-88361271D01*
X125212778Y-88397009D01*
X125212779Y-88397011D01*
X125296443Y-88553533D01*
X125296443Y-88553534D01*
X125347963Y-88723373D01*
X125365359Y-88900000D01*
X125347963Y-89076627D01*
X125338409Y-89108121D01*
X125296443Y-89246467D01*
X125257138Y-89320000D01*
X125212778Y-89402991D01*
X125192243Y-89428013D01*
X125100186Y-89540186D01*
X124998729Y-89623448D01*
X124962991Y-89652778D01*
X124962989Y-89652779D01*
X124806467Y-89736443D01*
X124749853Y-89753616D01*
X124636627Y-89787963D01*
X124570443Y-89794481D01*
X124504260Y-89801000D01*
X124415740Y-89801000D01*
X124349557Y-89794481D01*
X124283373Y-89787963D01*
X124170147Y-89753616D01*
X124113533Y-89736443D01*
X123957011Y-89652779D01*
X123957009Y-89652778D01*
X123921271Y-89623448D01*
X123819814Y-89540186D01*
X123727757Y-89428013D01*
X123707222Y-89402991D01*
X123662862Y-89320000D01*
X123623557Y-89246467D01*
X123581591Y-89108121D01*
X123572037Y-89076627D01*
X123554641Y-88900000D01*
X123572037Y-88723373D01*
X123623557Y-88553534D01*
X123623557Y-88553533D01*
X123707221Y-88397011D01*
X123707222Y-88397009D01*
X123736552Y-88361271D01*
X123819814Y-88259814D01*
X123932839Y-88167058D01*
X123957009Y-88147222D01*
X124017879Y-88114686D01*
X124113533Y-88063557D01*
X124170147Y-88046384D01*
X124283373Y-88012037D01*
X124349557Y-88005519D01*
X124415740Y-87999000D01*
X124504260Y-87999000D01*
X124570443Y-88005519D01*
X124570443Y-88005519D01*
G37*
G36*
X130441000Y-89801000D02*
X128639000Y-89801000D01*
X128639000Y-87999000D01*
X130441000Y-87999000D01*
X130441000Y-89801000D01*
X130441000Y-89801000D01*
G37*
G36*
X127110443Y-88005519D02*
X127176627Y-88012037D01*
X127289853Y-88046384D01*
X127346467Y-88063557D01*
X127442121Y-88114686D01*
X127502991Y-88147222D01*
X127527161Y-88167058D01*
X127640186Y-88259814D01*
X127723448Y-88361271D01*
X127752778Y-88397009D01*
X127752779Y-88397011D01*
X127836443Y-88553533D01*
X127836443Y-88553534D01*
X127887963Y-88723373D01*
X127905359Y-88900000D01*
X127887963Y-89076627D01*
X127878409Y-89108121D01*
X127836443Y-89246467D01*
X127797138Y-89320000D01*
X127752778Y-89402991D01*
X127732243Y-89428013D01*
X127640186Y-89540186D01*
X127538729Y-89623448D01*
X127502991Y-89652778D01*
X127502989Y-89652779D01*
X127346467Y-89736443D01*
X127289853Y-89753616D01*
X127176627Y-89787963D01*
X127110443Y-89794481D01*
X127044260Y-89801000D01*
X126955740Y-89801000D01*
X126889557Y-89794481D01*
X126823373Y-89787963D01*
X126710147Y-89753616D01*
X126653533Y-89736443D01*
X126497011Y-89652779D01*
X126497009Y-89652778D01*
X126461271Y-89623448D01*
X126359814Y-89540186D01*
X126267757Y-89428013D01*
X126247222Y-89402991D01*
X126202862Y-89320000D01*
X126163557Y-89246467D01*
X126121591Y-89108121D01*
X126112037Y-89076627D01*
X126094641Y-88900000D01*
X126112037Y-88723373D01*
X126163557Y-88553534D01*
X126163557Y-88553533D01*
X126247221Y-88397011D01*
X126247222Y-88397009D01*
X126276552Y-88361271D01*
X126359814Y-88259814D01*
X126472839Y-88167058D01*
X126497009Y-88147222D01*
X126557879Y-88114686D01*
X126653533Y-88063557D01*
X126710147Y-88046384D01*
X126823373Y-88012037D01*
X126889557Y-88005519D01*
X126955740Y-87999000D01*
X127044260Y-87999000D01*
X127110443Y-88005519D01*
X127110443Y-88005519D01*
G37*
G36*
X122030443Y-88005519D02*
X122096627Y-88012037D01*
X122209853Y-88046384D01*
X122266467Y-88063557D01*
X122362121Y-88114686D01*
X122422991Y-88147222D01*
X122447161Y-88167058D01*
X122560186Y-88259814D01*
X122643448Y-88361271D01*
X122672778Y-88397009D01*
X122672779Y-88397011D01*
X122756443Y-88553533D01*
X122756443Y-88553534D01*
X122807963Y-88723373D01*
X122825359Y-88900000D01*
X122807963Y-89076627D01*
X122798409Y-89108121D01*
X122756443Y-89246467D01*
X122717138Y-89320000D01*
X122672778Y-89402991D01*
X122652243Y-89428013D01*
X122560186Y-89540186D01*
X122458729Y-89623448D01*
X122422991Y-89652778D01*
X122422989Y-89652779D01*
X122266467Y-89736443D01*
X122209853Y-89753616D01*
X122096627Y-89787963D01*
X122030443Y-89794481D01*
X121964260Y-89801000D01*
X121875740Y-89801000D01*
X121809557Y-89794481D01*
X121743373Y-89787963D01*
X121630147Y-89753616D01*
X121573533Y-89736443D01*
X121417011Y-89652779D01*
X121417009Y-89652778D01*
X121381271Y-89623448D01*
X121279814Y-89540186D01*
X121187757Y-89428013D01*
X121167222Y-89402991D01*
X121122862Y-89320000D01*
X121083557Y-89246467D01*
X121041591Y-89108121D01*
X121032037Y-89076627D01*
X121014641Y-88900000D01*
X121032037Y-88723373D01*
X121083557Y-88553534D01*
X121083557Y-88553533D01*
X121167221Y-88397011D01*
X121167222Y-88397009D01*
X121196552Y-88361271D01*
X121279814Y-88259814D01*
X121392839Y-88167058D01*
X121417009Y-88147222D01*
X121477879Y-88114686D01*
X121573533Y-88063557D01*
X121630147Y-88046384D01*
X121743373Y-88012037D01*
X121809557Y-88005519D01*
X121875740Y-87999000D01*
X121964260Y-87999000D01*
X122030443Y-88005519D01*
X122030443Y-88005519D01*
G37*
G36*
X178476672Y-87513449D02*
X178476674Y-87513450D01*
X178476675Y-87513450D01*
X178545103Y-87541793D01*
X178606409Y-87582757D01*
X178606689Y-87582944D01*
X178659056Y-87635311D01*
X178659058Y-87635314D01*
X178700207Y-87696897D01*
X178728550Y-87765325D01*
X178743000Y-87837967D01*
X178743000Y-87912033D01*
X178728550Y-87984675D01*
X178700207Y-88053103D01*
X178659243Y-88114409D01*
X178659056Y-88114689D01*
X178606689Y-88167056D01*
X178606686Y-88167058D01*
X178545103Y-88208207D01*
X178476675Y-88236550D01*
X178476674Y-88236550D01*
X178476672Y-88236551D01*
X178404034Y-88251000D01*
X178329966Y-88251000D01*
X178257328Y-88236551D01*
X178257326Y-88236550D01*
X178257325Y-88236550D01*
X178188897Y-88208207D01*
X178127314Y-88167058D01*
X178127311Y-88167056D01*
X178074944Y-88114689D01*
X178074757Y-88114409D01*
X178033793Y-88053103D01*
X178005450Y-87984675D01*
X177991000Y-87912033D01*
X177991000Y-87837967D01*
X178005450Y-87765325D01*
X178033793Y-87696897D01*
X178074942Y-87635314D01*
X178074944Y-87635311D01*
X178127311Y-87582944D01*
X178127591Y-87582757D01*
X178188897Y-87541793D01*
X178257325Y-87513450D01*
X178257326Y-87513450D01*
X178257328Y-87513449D01*
X178329966Y-87499000D01*
X178404034Y-87499000D01*
X178476672Y-87513449D01*
X178476672Y-87513449D01*
G37*
G36*
X124570442Y-85465518D02*
X124636627Y-85472037D01*
X124749853Y-85506384D01*
X124806467Y-85523557D01*
X124945087Y-85597652D01*
X124962991Y-85607222D01*
X124985796Y-85625938D01*
X125100186Y-85719814D01*
X125183448Y-85821271D01*
X125212778Y-85857009D01*
X125212779Y-85857011D01*
X125296443Y-86013533D01*
X125296443Y-86013534D01*
X125347963Y-86183373D01*
X125365359Y-86360000D01*
X125347963Y-86536627D01*
X125313616Y-86649853D01*
X125296443Y-86706467D01*
X125222348Y-86845087D01*
X125212778Y-86862991D01*
X125183448Y-86898729D01*
X125100186Y-87000186D01*
X124998729Y-87083448D01*
X124962991Y-87112778D01*
X124962989Y-87112779D01*
X124806467Y-87196443D01*
X124749853Y-87213616D01*
X124636627Y-87247963D01*
X124570442Y-87254482D01*
X124504260Y-87261000D01*
X124415740Y-87261000D01*
X124349558Y-87254482D01*
X124283373Y-87247963D01*
X124170147Y-87213616D01*
X124113533Y-87196443D01*
X123957011Y-87112779D01*
X123957009Y-87112778D01*
X123921271Y-87083448D01*
X123819814Y-87000186D01*
X123736552Y-86898729D01*
X123707222Y-86862991D01*
X123697652Y-86845087D01*
X123623557Y-86706467D01*
X123606384Y-86649853D01*
X123572037Y-86536627D01*
X123554641Y-86360000D01*
X123572037Y-86183373D01*
X123623557Y-86013534D01*
X123623557Y-86013533D01*
X123707221Y-85857011D01*
X123707222Y-85857009D01*
X123736552Y-85821271D01*
X123819814Y-85719814D01*
X123934204Y-85625938D01*
X123957009Y-85607222D01*
X123974913Y-85597652D01*
X124113533Y-85523557D01*
X124170147Y-85506384D01*
X124283373Y-85472037D01*
X124349558Y-85465518D01*
X124415740Y-85459000D01*
X124504260Y-85459000D01*
X124570442Y-85465518D01*
X124570442Y-85465518D01*
G37*
G36*
X127110442Y-85465518D02*
X127176627Y-85472037D01*
X127289853Y-85506384D01*
X127346467Y-85523557D01*
X127485087Y-85597652D01*
X127502991Y-85607222D01*
X127525796Y-85625938D01*
X127640186Y-85719814D01*
X127723448Y-85821271D01*
X127752778Y-85857009D01*
X127752779Y-85857011D01*
X127836443Y-86013533D01*
X127836443Y-86013534D01*
X127887963Y-86183373D01*
X127905359Y-86360000D01*
X127887963Y-86536627D01*
X127853616Y-86649853D01*
X127836443Y-86706467D01*
X127762348Y-86845087D01*
X127752778Y-86862991D01*
X127723448Y-86898729D01*
X127640186Y-87000186D01*
X127538729Y-87083448D01*
X127502991Y-87112778D01*
X127502989Y-87112779D01*
X127346467Y-87196443D01*
X127289853Y-87213616D01*
X127176627Y-87247963D01*
X127110442Y-87254482D01*
X127044260Y-87261000D01*
X126955740Y-87261000D01*
X126889558Y-87254482D01*
X126823373Y-87247963D01*
X126710147Y-87213616D01*
X126653533Y-87196443D01*
X126497011Y-87112779D01*
X126497009Y-87112778D01*
X126461271Y-87083448D01*
X126359814Y-87000186D01*
X126276552Y-86898729D01*
X126247222Y-86862991D01*
X126237652Y-86845087D01*
X126163557Y-86706467D01*
X126146384Y-86649853D01*
X126112037Y-86536627D01*
X126094641Y-86360000D01*
X126112037Y-86183373D01*
X126163557Y-86013534D01*
X126163557Y-86013533D01*
X126247221Y-85857011D01*
X126247222Y-85857009D01*
X126276552Y-85821271D01*
X126359814Y-85719814D01*
X126474204Y-85625938D01*
X126497009Y-85607222D01*
X126514913Y-85597652D01*
X126653533Y-85523557D01*
X126710147Y-85506384D01*
X126823373Y-85472037D01*
X126889558Y-85465518D01*
X126955740Y-85459000D01*
X127044260Y-85459000D01*
X127110442Y-85465518D01*
X127110442Y-85465518D01*
G37*
G36*
X130441000Y-87261000D02*
X128639000Y-87261000D01*
X128639000Y-85459000D01*
X130441000Y-85459000D01*
X130441000Y-87261000D01*
X130441000Y-87261000D01*
G37*
G36*
X122030442Y-85465518D02*
X122096627Y-85472037D01*
X122209853Y-85506384D01*
X122266467Y-85523557D01*
X122405087Y-85597652D01*
X122422991Y-85607222D01*
X122445796Y-85625938D01*
X122560186Y-85719814D01*
X122643448Y-85821271D01*
X122672778Y-85857009D01*
X122672779Y-85857011D01*
X122756443Y-86013533D01*
X122756443Y-86013534D01*
X122807963Y-86183373D01*
X122825359Y-86360000D01*
X122807963Y-86536627D01*
X122773616Y-86649853D01*
X122756443Y-86706467D01*
X122682348Y-86845087D01*
X122672778Y-86862991D01*
X122643448Y-86898729D01*
X122560186Y-87000186D01*
X122458729Y-87083448D01*
X122422991Y-87112778D01*
X122422989Y-87112779D01*
X122266467Y-87196443D01*
X122209853Y-87213616D01*
X122096627Y-87247963D01*
X122030442Y-87254482D01*
X121964260Y-87261000D01*
X121875740Y-87261000D01*
X121809558Y-87254482D01*
X121743373Y-87247963D01*
X121630147Y-87213616D01*
X121573533Y-87196443D01*
X121417011Y-87112779D01*
X121417009Y-87112778D01*
X121381271Y-87083448D01*
X121279814Y-87000186D01*
X121196552Y-86898729D01*
X121167222Y-86862991D01*
X121157652Y-86845087D01*
X121083557Y-86706467D01*
X121066384Y-86649853D01*
X121032037Y-86536627D01*
X121014641Y-86360000D01*
X121032037Y-86183373D01*
X121083557Y-86013534D01*
X121083557Y-86013533D01*
X121167221Y-85857011D01*
X121167222Y-85857009D01*
X121196552Y-85821271D01*
X121279814Y-85719814D01*
X121394204Y-85625938D01*
X121417009Y-85607222D01*
X121434913Y-85597652D01*
X121573533Y-85523557D01*
X121630147Y-85506384D01*
X121743373Y-85472037D01*
X121809558Y-85465518D01*
X121875740Y-85459000D01*
X121964260Y-85459000D01*
X122030442Y-85465518D01*
X122030442Y-85465518D01*
G37*
G36*
X157944938Y-84975716D02*
X157965556Y-84981970D01*
X157984556Y-84992126D01*
X158001208Y-85005792D01*
X158014874Y-85022444D01*
X158025030Y-85041444D01*
X158031284Y-85062062D01*
X158034000Y-85089640D01*
X158034000Y-85598360D01*
X158031284Y-85625938D01*
X158025030Y-85646556D01*
X158014874Y-85665556D01*
X158001208Y-85682208D01*
X157984556Y-85695874D01*
X157965556Y-85706030D01*
X157944938Y-85712284D01*
X157917360Y-85715000D01*
X157458640Y-85715000D01*
X157431062Y-85712284D01*
X157410444Y-85706030D01*
X157391444Y-85695874D01*
X157374792Y-85682208D01*
X157361126Y-85665556D01*
X157350970Y-85646556D01*
X157344716Y-85625938D01*
X157342000Y-85598360D01*
X157342000Y-85089640D01*
X157344716Y-85062062D01*
X157350970Y-85041444D01*
X157361126Y-85022444D01*
X157374792Y-85005792D01*
X157391444Y-84992126D01*
X157410444Y-84981970D01*
X157431062Y-84975716D01*
X157458640Y-84973000D01*
X157917360Y-84973000D01*
X157944938Y-84975716D01*
X157944938Y-84975716D01*
G37*
G36*
X156974938Y-84975716D02*
X156995556Y-84981970D01*
X157014556Y-84992126D01*
X157031208Y-85005792D01*
X157044874Y-85022444D01*
X157055030Y-85041444D01*
X157061284Y-85062062D01*
X157064000Y-85089640D01*
X157064000Y-85598360D01*
X157061284Y-85625938D01*
X157055030Y-85646556D01*
X157044874Y-85665556D01*
X157031208Y-85682208D01*
X157014556Y-85695874D01*
X156995556Y-85706030D01*
X156974938Y-85712284D01*
X156947360Y-85715000D01*
X156488640Y-85715000D01*
X156461062Y-85712284D01*
X156440444Y-85706030D01*
X156421444Y-85695874D01*
X156404792Y-85682208D01*
X156391126Y-85665556D01*
X156380970Y-85646556D01*
X156374716Y-85625938D01*
X156372000Y-85598360D01*
X156372000Y-85089640D01*
X156374716Y-85062062D01*
X156380970Y-85041444D01*
X156391126Y-85022444D01*
X156404792Y-85005792D01*
X156421444Y-84992126D01*
X156440444Y-84981970D01*
X156461062Y-84975716D01*
X156488640Y-84973000D01*
X156947360Y-84973000D01*
X156974938Y-84975716D01*
X156974938Y-84975716D01*
G37*
G36*
X127110443Y-82925519D02*
X127176627Y-82932037D01*
X127289853Y-82966384D01*
X127346467Y-82983557D01*
X127485087Y-83057652D01*
X127502991Y-83067222D01*
X127538729Y-83096552D01*
X127640186Y-83179814D01*
X127723448Y-83281271D01*
X127752778Y-83317009D01*
X127752779Y-83317011D01*
X127836443Y-83473533D01*
X127836443Y-83473534D01*
X127887963Y-83643373D01*
X127905359Y-83820000D01*
X127887963Y-83996627D01*
X127853616Y-84109853D01*
X127836443Y-84166467D01*
X127762348Y-84305087D01*
X127752778Y-84322991D01*
X127723448Y-84358729D01*
X127640186Y-84460186D01*
X127538729Y-84543448D01*
X127502991Y-84572778D01*
X127502989Y-84572779D01*
X127346467Y-84656443D01*
X127289853Y-84673616D01*
X127176627Y-84707963D01*
X127110443Y-84714481D01*
X127044260Y-84721000D01*
X126955740Y-84721000D01*
X126889557Y-84714481D01*
X126823373Y-84707963D01*
X126710147Y-84673616D01*
X126653533Y-84656443D01*
X126497011Y-84572779D01*
X126497009Y-84572778D01*
X126461271Y-84543448D01*
X126359814Y-84460186D01*
X126276552Y-84358729D01*
X126247222Y-84322991D01*
X126237652Y-84305087D01*
X126163557Y-84166467D01*
X126146384Y-84109853D01*
X126112037Y-83996627D01*
X126094641Y-83820000D01*
X126112037Y-83643373D01*
X126163557Y-83473534D01*
X126163557Y-83473533D01*
X126247221Y-83317011D01*
X126247222Y-83317009D01*
X126276552Y-83281271D01*
X126359814Y-83179814D01*
X126461271Y-83096552D01*
X126497009Y-83067222D01*
X126514913Y-83057652D01*
X126653533Y-82983557D01*
X126710147Y-82966384D01*
X126823373Y-82932037D01*
X126889557Y-82925519D01*
X126955740Y-82919000D01*
X127044260Y-82919000D01*
X127110443Y-82925519D01*
X127110443Y-82925519D01*
G37*
G36*
X130441000Y-84721000D02*
X128639000Y-84721000D01*
X128639000Y-82919000D01*
X130441000Y-82919000D01*
X130441000Y-84721000D01*
X130441000Y-84721000D01*
G37*
G36*
X122030443Y-82925519D02*
X122096627Y-82932037D01*
X122209853Y-82966384D01*
X122266467Y-82983557D01*
X122405087Y-83057652D01*
X122422991Y-83067222D01*
X122458729Y-83096552D01*
X122560186Y-83179814D01*
X122643448Y-83281271D01*
X122672778Y-83317009D01*
X122672779Y-83317011D01*
X122756443Y-83473533D01*
X122756443Y-83473534D01*
X122807963Y-83643373D01*
X122825359Y-83820000D01*
X122807963Y-83996627D01*
X122773616Y-84109853D01*
X122756443Y-84166467D01*
X122682348Y-84305087D01*
X122672778Y-84322991D01*
X122643448Y-84358729D01*
X122560186Y-84460186D01*
X122458729Y-84543448D01*
X122422991Y-84572778D01*
X122422989Y-84572779D01*
X122266467Y-84656443D01*
X122209853Y-84673616D01*
X122096627Y-84707963D01*
X122030443Y-84714481D01*
X121964260Y-84721000D01*
X121875740Y-84721000D01*
X121809557Y-84714481D01*
X121743373Y-84707963D01*
X121630147Y-84673616D01*
X121573533Y-84656443D01*
X121417011Y-84572779D01*
X121417009Y-84572778D01*
X121381271Y-84543448D01*
X121279814Y-84460186D01*
X121196552Y-84358729D01*
X121167222Y-84322991D01*
X121157652Y-84305087D01*
X121083557Y-84166467D01*
X121066384Y-84109853D01*
X121032037Y-83996627D01*
X121014641Y-83820000D01*
X121032037Y-83643373D01*
X121083557Y-83473534D01*
X121083557Y-83473533D01*
X121167221Y-83317011D01*
X121167222Y-83317009D01*
X121196552Y-83281271D01*
X121279814Y-83179814D01*
X121381271Y-83096552D01*
X121417009Y-83067222D01*
X121434913Y-83057652D01*
X121573533Y-82983557D01*
X121630147Y-82966384D01*
X121743373Y-82932037D01*
X121809557Y-82925519D01*
X121875740Y-82919000D01*
X121964260Y-82919000D01*
X122030443Y-82925519D01*
X122030443Y-82925519D01*
G37*
G36*
X124570443Y-82925519D02*
X124636627Y-82932037D01*
X124749853Y-82966384D01*
X124806467Y-82983557D01*
X124945087Y-83057652D01*
X124962991Y-83067222D01*
X124998729Y-83096552D01*
X125100186Y-83179814D01*
X125183448Y-83281271D01*
X125212778Y-83317009D01*
X125212779Y-83317011D01*
X125296443Y-83473533D01*
X125296443Y-83473534D01*
X125347963Y-83643373D01*
X125365359Y-83820000D01*
X125347963Y-83996627D01*
X125313616Y-84109853D01*
X125296443Y-84166467D01*
X125222348Y-84305087D01*
X125212778Y-84322991D01*
X125183448Y-84358729D01*
X125100186Y-84460186D01*
X124998729Y-84543448D01*
X124962991Y-84572778D01*
X124962989Y-84572779D01*
X124806467Y-84656443D01*
X124749853Y-84673616D01*
X124636627Y-84707963D01*
X124570443Y-84714481D01*
X124504260Y-84721000D01*
X124415740Y-84721000D01*
X124349557Y-84714481D01*
X124283373Y-84707963D01*
X124170147Y-84673616D01*
X124113533Y-84656443D01*
X123957011Y-84572779D01*
X123957009Y-84572778D01*
X123921271Y-84543448D01*
X123819814Y-84460186D01*
X123736552Y-84358729D01*
X123707222Y-84322991D01*
X123697652Y-84305087D01*
X123623557Y-84166467D01*
X123606384Y-84109853D01*
X123572037Y-83996627D01*
X123554641Y-83820000D01*
X123572037Y-83643373D01*
X123623557Y-83473534D01*
X123623557Y-83473533D01*
X123707221Y-83317011D01*
X123707222Y-83317009D01*
X123736552Y-83281271D01*
X123819814Y-83179814D01*
X123921271Y-83096552D01*
X123957009Y-83067222D01*
X123974913Y-83057652D01*
X124113533Y-82983557D01*
X124170147Y-82966384D01*
X124283373Y-82932037D01*
X124349557Y-82925519D01*
X124415740Y-82919000D01*
X124504260Y-82919000D01*
X124570443Y-82925519D01*
X124570443Y-82925519D01*
G37*
G36*
X156873000Y-83961000D02*
X145971000Y-83961000D01*
X145971000Y-82559000D01*
X156873000Y-82559000D01*
X156873000Y-83961000D01*
X156873000Y-83961000D01*
G37*
G36*
X178476672Y-81763449D02*
X178476674Y-81763450D01*
X178476675Y-81763450D01*
X178545103Y-81791793D01*
X178606409Y-81832757D01*
X178606689Y-81832944D01*
X178659056Y-81885311D01*
X178659058Y-81885314D01*
X178700207Y-81946897D01*
X178728550Y-82015325D01*
X178728551Y-82015328D01*
X178743000Y-82087966D01*
X178743000Y-82162034D01*
X178741821Y-82167963D01*
X178728550Y-82234675D01*
X178700207Y-82303103D01*
X178659243Y-82364409D01*
X178659056Y-82364689D01*
X178606689Y-82417056D01*
X178606686Y-82417058D01*
X178545103Y-82458207D01*
X178476675Y-82486550D01*
X178476674Y-82486550D01*
X178476672Y-82486551D01*
X178404034Y-82501000D01*
X178329966Y-82501000D01*
X178257328Y-82486551D01*
X178257326Y-82486550D01*
X178257325Y-82486550D01*
X178188897Y-82458207D01*
X178127314Y-82417058D01*
X178127311Y-82417056D01*
X178074944Y-82364689D01*
X178074757Y-82364409D01*
X178033793Y-82303103D01*
X178005450Y-82234675D01*
X177992180Y-82167963D01*
X177991000Y-82162034D01*
X177991000Y-82087966D01*
X178005449Y-82015328D01*
X178005450Y-82015325D01*
X178033793Y-81946897D01*
X178074942Y-81885314D01*
X178074944Y-81885311D01*
X178127311Y-81832944D01*
X178127591Y-81832757D01*
X178188897Y-81791793D01*
X178257325Y-81763450D01*
X178257326Y-81763450D01*
X178257328Y-81763449D01*
X178329966Y-81749000D01*
X178404034Y-81749000D01*
X178476672Y-81763449D01*
X178476672Y-81763449D01*
G37*
G36*
X130441000Y-82181000D02*
X128639000Y-82181000D01*
X128639000Y-80379000D01*
X130441000Y-80379000D01*
X130441000Y-82181000D01*
X130441000Y-82181000D01*
G37*
G36*
X127110442Y-80385518D02*
X127176627Y-80392037D01*
X127289853Y-80426384D01*
X127346467Y-80443557D01*
X127392422Y-80468121D01*
X127502991Y-80527222D01*
X127538729Y-80556552D01*
X127640186Y-80639814D01*
X127723448Y-80741271D01*
X127752778Y-80777009D01*
X127752779Y-80777011D01*
X127836443Y-80933533D01*
X127836443Y-80933534D01*
X127887963Y-81103373D01*
X127905359Y-81280000D01*
X127887963Y-81456627D01*
X127853616Y-81569853D01*
X127836443Y-81626467D01*
X127763223Y-81763450D01*
X127752778Y-81782991D01*
X127723448Y-81818729D01*
X127640186Y-81920186D01*
X127538729Y-82003448D01*
X127502991Y-82032778D01*
X127502989Y-82032779D01*
X127346467Y-82116443D01*
X127289853Y-82133616D01*
X127176627Y-82167963D01*
X127110443Y-82174481D01*
X127044260Y-82181000D01*
X126955740Y-82181000D01*
X126889557Y-82174481D01*
X126823373Y-82167963D01*
X126710147Y-82133616D01*
X126653533Y-82116443D01*
X126497011Y-82032779D01*
X126497009Y-82032778D01*
X126461271Y-82003448D01*
X126359814Y-81920186D01*
X126276552Y-81818729D01*
X126247222Y-81782991D01*
X126236777Y-81763450D01*
X126163557Y-81626467D01*
X126146384Y-81569853D01*
X126112037Y-81456627D01*
X126094641Y-81280000D01*
X126112037Y-81103373D01*
X126163557Y-80933534D01*
X126163557Y-80933533D01*
X126247221Y-80777011D01*
X126247222Y-80777009D01*
X126276552Y-80741271D01*
X126359814Y-80639814D01*
X126461271Y-80556552D01*
X126497009Y-80527222D01*
X126607578Y-80468121D01*
X126653533Y-80443557D01*
X126710147Y-80426384D01*
X126823373Y-80392037D01*
X126889558Y-80385518D01*
X126955740Y-80379000D01*
X127044260Y-80379000D01*
X127110442Y-80385518D01*
X127110442Y-80385518D01*
G37*
G36*
X124570442Y-80385518D02*
X124636627Y-80392037D01*
X124749853Y-80426384D01*
X124806467Y-80443557D01*
X124852422Y-80468121D01*
X124962991Y-80527222D01*
X124998729Y-80556552D01*
X125100186Y-80639814D01*
X125183448Y-80741271D01*
X125212778Y-80777009D01*
X125212779Y-80777011D01*
X125296443Y-80933533D01*
X125296443Y-80933534D01*
X125347963Y-81103373D01*
X125365359Y-81280000D01*
X125347963Y-81456627D01*
X125313616Y-81569853D01*
X125296443Y-81626467D01*
X125223223Y-81763450D01*
X125212778Y-81782991D01*
X125183448Y-81818729D01*
X125100186Y-81920186D01*
X124998729Y-82003448D01*
X124962991Y-82032778D01*
X124962989Y-82032779D01*
X124806467Y-82116443D01*
X124749853Y-82133616D01*
X124636627Y-82167963D01*
X124570443Y-82174481D01*
X124504260Y-82181000D01*
X124415740Y-82181000D01*
X124349557Y-82174481D01*
X124283373Y-82167963D01*
X124170147Y-82133616D01*
X124113533Y-82116443D01*
X123957011Y-82032779D01*
X123957009Y-82032778D01*
X123921271Y-82003448D01*
X123819814Y-81920186D01*
X123736552Y-81818729D01*
X123707222Y-81782991D01*
X123696777Y-81763450D01*
X123623557Y-81626467D01*
X123606384Y-81569853D01*
X123572037Y-81456627D01*
X123554641Y-81280000D01*
X123572037Y-81103373D01*
X123623557Y-80933534D01*
X123623557Y-80933533D01*
X123707221Y-80777011D01*
X123707222Y-80777009D01*
X123736552Y-80741271D01*
X123819814Y-80639814D01*
X123921271Y-80556552D01*
X123957009Y-80527222D01*
X124067578Y-80468121D01*
X124113533Y-80443557D01*
X124170147Y-80426384D01*
X124283373Y-80392037D01*
X124349558Y-80385518D01*
X124415740Y-80379000D01*
X124504260Y-80379000D01*
X124570442Y-80385518D01*
X124570442Y-80385518D01*
G37*
G36*
X122030442Y-80385518D02*
X122096627Y-80392037D01*
X122209853Y-80426384D01*
X122266467Y-80443557D01*
X122312422Y-80468121D01*
X122422991Y-80527222D01*
X122458729Y-80556552D01*
X122560186Y-80639814D01*
X122643448Y-80741271D01*
X122672778Y-80777009D01*
X122672779Y-80777011D01*
X122756443Y-80933533D01*
X122756443Y-80933534D01*
X122807963Y-81103373D01*
X122825359Y-81280000D01*
X122807963Y-81456627D01*
X122773616Y-81569853D01*
X122756443Y-81626467D01*
X122683223Y-81763450D01*
X122672778Y-81782991D01*
X122643448Y-81818729D01*
X122560186Y-81920186D01*
X122458729Y-82003448D01*
X122422991Y-82032778D01*
X122422989Y-82032779D01*
X122266467Y-82116443D01*
X122209853Y-82133616D01*
X122096627Y-82167963D01*
X122030443Y-82174481D01*
X121964260Y-82181000D01*
X121875740Y-82181000D01*
X121809557Y-82174481D01*
X121743373Y-82167963D01*
X121630147Y-82133616D01*
X121573533Y-82116443D01*
X121417011Y-82032779D01*
X121417009Y-82032778D01*
X121381271Y-82003448D01*
X121279814Y-81920186D01*
X121196552Y-81818729D01*
X121167222Y-81782991D01*
X121156777Y-81763450D01*
X121083557Y-81626467D01*
X121066384Y-81569853D01*
X121032037Y-81456627D01*
X121014641Y-81280000D01*
X121032037Y-81103373D01*
X121083557Y-80933534D01*
X121083557Y-80933533D01*
X121167221Y-80777011D01*
X121167222Y-80777009D01*
X121196552Y-80741271D01*
X121279814Y-80639814D01*
X121381271Y-80556552D01*
X121417009Y-80527222D01*
X121527578Y-80468121D01*
X121573533Y-80443557D01*
X121630147Y-80426384D01*
X121743373Y-80392037D01*
X121809558Y-80385518D01*
X121875740Y-80379000D01*
X121964260Y-80379000D01*
X122030442Y-80385518D01*
X122030442Y-80385518D01*
G37*
G36*
X182555015Y-80136973D02*
X182658879Y-80168479D01*
X182754600Y-80219644D01*
X182838501Y-80288499D01*
X182907356Y-80372400D01*
X182958521Y-80468121D01*
X182990027Y-80571985D01*
X183000666Y-80680000D01*
X182990027Y-80788015D01*
X182958521Y-80891879D01*
X182907356Y-80987600D01*
X182838501Y-81071501D01*
X182754600Y-81140356D01*
X182658879Y-81191521D01*
X182555015Y-81223027D01*
X182474067Y-81231000D01*
X181619933Y-81231000D01*
X181538985Y-81223027D01*
X181435121Y-81191521D01*
X181339400Y-81140356D01*
X181255499Y-81071501D01*
X181186644Y-80987600D01*
X181135479Y-80891879D01*
X181103973Y-80788015D01*
X181093334Y-80680000D01*
X181103973Y-80571985D01*
X181135479Y-80468121D01*
X181186644Y-80372400D01*
X181255499Y-80288499D01*
X181339400Y-80219644D01*
X181435121Y-80168479D01*
X181538985Y-80136973D01*
X181619933Y-80129000D01*
X182474067Y-80129000D01*
X182555015Y-80136973D01*
X182555015Y-80136973D01*
G37*
G36*
X178365015Y-80136973D02*
X178468879Y-80168479D01*
X178564600Y-80219644D01*
X178648501Y-80288499D01*
X178717356Y-80372400D01*
X178768521Y-80468121D01*
X178800027Y-80571985D01*
X178810666Y-80680000D01*
X178800027Y-80788015D01*
X178768521Y-80891879D01*
X178717356Y-80987600D01*
X178648501Y-81071501D01*
X178564600Y-81140356D01*
X178468879Y-81191521D01*
X178365015Y-81223027D01*
X178284067Y-81231000D01*
X177429933Y-81231000D01*
X177348985Y-81223027D01*
X177245121Y-81191521D01*
X177149400Y-81140356D01*
X177065499Y-81071501D01*
X176996644Y-80987600D01*
X176945479Y-80891879D01*
X176913973Y-80788015D01*
X176903334Y-80680000D01*
X176913973Y-80571985D01*
X176945479Y-80468121D01*
X176996644Y-80372400D01*
X177065499Y-80288499D01*
X177149400Y-80219644D01*
X177245121Y-80168479D01*
X177348985Y-80136973D01*
X177429933Y-80129000D01*
X178284067Y-80129000D01*
X178365015Y-80136973D01*
X178365015Y-80136973D01*
G37*
G36*
X145223000Y-81161000D02*
X143321000Y-81161000D01*
X143321000Y-78859000D01*
X145223000Y-78859000D01*
X145223000Y-81161000D01*
X145223000Y-81161000D01*
G37*
G36*
X159523000Y-81161000D02*
X157621000Y-81161000D01*
X157621000Y-78859000D01*
X159523000Y-78859000D01*
X159523000Y-81161000D01*
X159523000Y-81161000D01*
G37*
G36*
X128780938Y-78435216D02*
X128801556Y-78441470D01*
X128820556Y-78451626D01*
X128837208Y-78465292D01*
X128850874Y-78481944D01*
X128861030Y-78500944D01*
X128867284Y-78521562D01*
X128870000Y-78549140D01*
X128870000Y-79057860D01*
X128867284Y-79085438D01*
X128861030Y-79106056D01*
X128850874Y-79125056D01*
X128837208Y-79141708D01*
X128820556Y-79155374D01*
X128801556Y-79165530D01*
X128780938Y-79171784D01*
X128753360Y-79174500D01*
X128294640Y-79174500D01*
X128267062Y-79171784D01*
X128246444Y-79165530D01*
X128227444Y-79155374D01*
X128210792Y-79141708D01*
X128197126Y-79125056D01*
X128186970Y-79106056D01*
X128180716Y-79085438D01*
X128178000Y-79057860D01*
X128178000Y-78549140D01*
X128180716Y-78521562D01*
X128186970Y-78500944D01*
X128197126Y-78481944D01*
X128210792Y-78465292D01*
X128227444Y-78451626D01*
X128246444Y-78441470D01*
X128267062Y-78435216D01*
X128294640Y-78432500D01*
X128753360Y-78432500D01*
X128780938Y-78435216D01*
X128780938Y-78435216D01*
G37*
G36*
X127810938Y-78435216D02*
X127831556Y-78441470D01*
X127850556Y-78451626D01*
X127867208Y-78465292D01*
X127880874Y-78481944D01*
X127891030Y-78500944D01*
X127897284Y-78521562D01*
X127900000Y-78549140D01*
X127900000Y-79057860D01*
X127897284Y-79085438D01*
X127891030Y-79106056D01*
X127880874Y-79125056D01*
X127867208Y-79141708D01*
X127850556Y-79155374D01*
X127831556Y-79165530D01*
X127810938Y-79171784D01*
X127783360Y-79174500D01*
X127324640Y-79174500D01*
X127297062Y-79171784D01*
X127276444Y-79165530D01*
X127257444Y-79155374D01*
X127240792Y-79141708D01*
X127227126Y-79125056D01*
X127216970Y-79106056D01*
X127210716Y-79085438D01*
X127208000Y-79057860D01*
X127208000Y-78549140D01*
X127210716Y-78521562D01*
X127216970Y-78500944D01*
X127227126Y-78481944D01*
X127240792Y-78465292D01*
X127257444Y-78451626D01*
X127276444Y-78441470D01*
X127297062Y-78435216D01*
X127324640Y-78432500D01*
X127783360Y-78432500D01*
X127810938Y-78435216D01*
X127810938Y-78435216D01*
G37*
G36*
X181375256Y-72391298D02*
X181481579Y-72412447D01*
X181782042Y-72536903D01*
X181960283Y-72656000D01*
X182052454Y-72717587D01*
X182282413Y-72947546D01*
X182463098Y-73217960D01*
X182587553Y-73518422D01*
X182651000Y-73837389D01*
X182651000Y-74162611D01*
X182587553Y-74481578D01*
X182463098Y-74782040D01*
X182282413Y-75052454D01*
X182052454Y-75282413D01*
X182052451Y-75282415D01*
X181782042Y-75463097D01*
X181481579Y-75587553D01*
X181375256Y-75608702D01*
X181162611Y-75651000D01*
X180837389Y-75651000D01*
X180624744Y-75608702D01*
X180518421Y-75587553D01*
X180217958Y-75463097D01*
X179947549Y-75282415D01*
X179947546Y-75282413D01*
X179717587Y-75052454D01*
X179536902Y-74782040D01*
X179412447Y-74481578D01*
X179349000Y-74162611D01*
X179349000Y-73837389D01*
X179412447Y-73518422D01*
X179536902Y-73217960D01*
X179717587Y-72947546D01*
X179947546Y-72717587D01*
X180039717Y-72656000D01*
X180217958Y-72536903D01*
X180518421Y-72412447D01*
X180624744Y-72391298D01*
X180837389Y-72349000D01*
X181162611Y-72349000D01*
X181375256Y-72391298D01*
X181375256Y-72391298D01*
G37*
G36*
X124375256Y-72391298D02*
X124481579Y-72412447D01*
X124782042Y-72536903D01*
X124960283Y-72656000D01*
X125052454Y-72717587D01*
X125282413Y-72947546D01*
X125463098Y-73217960D01*
X125587553Y-73518422D01*
X125651000Y-73837389D01*
X125651000Y-74162611D01*
X125587553Y-74481578D01*
X125463098Y-74782040D01*
X125282413Y-75052454D01*
X125052454Y-75282413D01*
X125052451Y-75282415D01*
X124782042Y-75463097D01*
X124481579Y-75587553D01*
X124375256Y-75608702D01*
X124162611Y-75651000D01*
X123837389Y-75651000D01*
X123624744Y-75608702D01*
X123518421Y-75587553D01*
X123217958Y-75463097D01*
X122947549Y-75282415D01*
X122947546Y-75282413D01*
X122717587Y-75052454D01*
X122536902Y-74782040D01*
X122412447Y-74481578D01*
X122349000Y-74162611D01*
X122349000Y-73837389D01*
X122412447Y-73518422D01*
X122536902Y-73217960D01*
X122717587Y-72947546D01*
X122947546Y-72717587D01*
X123039717Y-72656000D01*
X123217958Y-72536903D01*
X123518421Y-72412447D01*
X123624744Y-72391298D01*
X123837389Y-72349000D01*
X124162611Y-72349000D01*
X124375256Y-72391298D01*
X124375256Y-72391298D01*
G37*
G36*
X169020442Y-70860518D02*
X169086627Y-70867037D01*
X169199853Y-70901384D01*
X169256467Y-70918557D01*
X169395087Y-70992652D01*
X169412991Y-71002222D01*
X169448729Y-71031552D01*
X169550186Y-71114814D01*
X169633448Y-71216271D01*
X169662778Y-71252009D01*
X169662779Y-71252011D01*
X169746443Y-71408533D01*
X169746443Y-71408534D01*
X169797963Y-71578373D01*
X169815359Y-71755000D01*
X169797963Y-71931627D01*
X169763616Y-72044853D01*
X169746443Y-72101467D01*
X169672348Y-72240087D01*
X169662778Y-72257991D01*
X169633448Y-72293729D01*
X169550186Y-72395186D01*
X169448729Y-72478448D01*
X169412991Y-72507778D01*
X169412989Y-72507779D01*
X169256467Y-72591443D01*
X169199853Y-72608616D01*
X169086627Y-72642963D01*
X169020443Y-72649481D01*
X168954260Y-72656000D01*
X168865740Y-72656000D01*
X168799557Y-72649481D01*
X168733373Y-72642963D01*
X168620147Y-72608616D01*
X168563533Y-72591443D01*
X168407011Y-72507779D01*
X168407009Y-72507778D01*
X168371271Y-72478448D01*
X168269814Y-72395186D01*
X168186552Y-72293729D01*
X168157222Y-72257991D01*
X168147652Y-72240087D01*
X168073557Y-72101467D01*
X168056384Y-72044853D01*
X168022037Y-71931627D01*
X168004641Y-71755000D01*
X168022037Y-71578373D01*
X168073557Y-71408534D01*
X168073557Y-71408533D01*
X168157221Y-71252011D01*
X168157222Y-71252009D01*
X168186552Y-71216271D01*
X168269814Y-71114814D01*
X168371271Y-71031552D01*
X168407009Y-71002222D01*
X168424913Y-70992652D01*
X168563533Y-70918557D01*
X168620147Y-70901384D01*
X168733373Y-70867037D01*
X168799558Y-70860518D01*
X168865740Y-70854000D01*
X168954260Y-70854000D01*
X169020442Y-70860518D01*
X169020442Y-70860518D01*
G37*
G36*
X163940442Y-70860518D02*
X164006627Y-70867037D01*
X164119853Y-70901384D01*
X164176467Y-70918557D01*
X164315087Y-70992652D01*
X164332991Y-71002222D01*
X164368729Y-71031552D01*
X164470186Y-71114814D01*
X164553448Y-71216271D01*
X164582778Y-71252009D01*
X164582779Y-71252011D01*
X164666443Y-71408533D01*
X164666443Y-71408534D01*
X164717963Y-71578373D01*
X164735359Y-71755000D01*
X164717963Y-71931627D01*
X164683616Y-72044853D01*
X164666443Y-72101467D01*
X164592348Y-72240087D01*
X164582778Y-72257991D01*
X164553448Y-72293729D01*
X164470186Y-72395186D01*
X164368729Y-72478448D01*
X164332991Y-72507778D01*
X164332989Y-72507779D01*
X164176467Y-72591443D01*
X164119853Y-72608616D01*
X164006627Y-72642963D01*
X163940443Y-72649481D01*
X163874260Y-72656000D01*
X163785740Y-72656000D01*
X163719557Y-72649481D01*
X163653373Y-72642963D01*
X163540147Y-72608616D01*
X163483533Y-72591443D01*
X163327011Y-72507779D01*
X163327009Y-72507778D01*
X163291271Y-72478448D01*
X163189814Y-72395186D01*
X163106552Y-72293729D01*
X163077222Y-72257991D01*
X163067652Y-72240087D01*
X162993557Y-72101467D01*
X162976384Y-72044853D01*
X162942037Y-71931627D01*
X162924641Y-71755000D01*
X162942037Y-71578373D01*
X162993557Y-71408534D01*
X162993557Y-71408533D01*
X163077221Y-71252011D01*
X163077222Y-71252009D01*
X163106552Y-71216271D01*
X163189814Y-71114814D01*
X163291271Y-71031552D01*
X163327009Y-71002222D01*
X163344913Y-70992652D01*
X163483533Y-70918557D01*
X163540147Y-70901384D01*
X163653373Y-70867037D01*
X163719558Y-70860518D01*
X163785740Y-70854000D01*
X163874260Y-70854000D01*
X163940442Y-70860518D01*
X163940442Y-70860518D01*
G37*
G36*
X171560442Y-70860518D02*
X171626627Y-70867037D01*
X171739853Y-70901384D01*
X171796467Y-70918557D01*
X171935087Y-70992652D01*
X171952991Y-71002222D01*
X171988729Y-71031552D01*
X172090186Y-71114814D01*
X172173448Y-71216271D01*
X172202778Y-71252009D01*
X172202779Y-71252011D01*
X172286443Y-71408533D01*
X172286443Y-71408534D01*
X172337963Y-71578373D01*
X172355359Y-71755000D01*
X172337963Y-71931627D01*
X172303616Y-72044853D01*
X172286443Y-72101467D01*
X172212348Y-72240087D01*
X172202778Y-72257991D01*
X172173448Y-72293729D01*
X172090186Y-72395186D01*
X171988729Y-72478448D01*
X171952991Y-72507778D01*
X171952989Y-72507779D01*
X171796467Y-72591443D01*
X171739853Y-72608616D01*
X171626627Y-72642963D01*
X171560443Y-72649481D01*
X171494260Y-72656000D01*
X171405740Y-72656000D01*
X171339557Y-72649481D01*
X171273373Y-72642963D01*
X171160147Y-72608616D01*
X171103533Y-72591443D01*
X170947011Y-72507779D01*
X170947009Y-72507778D01*
X170911271Y-72478448D01*
X170809814Y-72395186D01*
X170726552Y-72293729D01*
X170697222Y-72257991D01*
X170687652Y-72240087D01*
X170613557Y-72101467D01*
X170596384Y-72044853D01*
X170562037Y-71931627D01*
X170544641Y-71755000D01*
X170562037Y-71578373D01*
X170613557Y-71408534D01*
X170613557Y-71408533D01*
X170697221Y-71252011D01*
X170697222Y-71252009D01*
X170726552Y-71216271D01*
X170809814Y-71114814D01*
X170911271Y-71031552D01*
X170947009Y-71002222D01*
X170964913Y-70992652D01*
X171103533Y-70918557D01*
X171160147Y-70901384D01*
X171273373Y-70867037D01*
X171339558Y-70860518D01*
X171405740Y-70854000D01*
X171494260Y-70854000D01*
X171560442Y-70860518D01*
X171560442Y-70860518D01*
G37*
G36*
X174891000Y-72656000D02*
X173089000Y-72656000D01*
X173089000Y-70854000D01*
X174891000Y-70854000D01*
X174891000Y-72656000D01*
X174891000Y-72656000D01*
G37*
G36*
X158860442Y-70860518D02*
X158926627Y-70867037D01*
X159039853Y-70901384D01*
X159096467Y-70918557D01*
X159235087Y-70992652D01*
X159252991Y-71002222D01*
X159288729Y-71031552D01*
X159390186Y-71114814D01*
X159473448Y-71216271D01*
X159502778Y-71252009D01*
X159502779Y-71252011D01*
X159586443Y-71408533D01*
X159586443Y-71408534D01*
X159637963Y-71578373D01*
X159655359Y-71755000D01*
X159637963Y-71931627D01*
X159603616Y-72044853D01*
X159586443Y-72101467D01*
X159512348Y-72240087D01*
X159502778Y-72257991D01*
X159473448Y-72293729D01*
X159390186Y-72395186D01*
X159288729Y-72478448D01*
X159252991Y-72507778D01*
X159252989Y-72507779D01*
X159096467Y-72591443D01*
X159039853Y-72608616D01*
X158926627Y-72642963D01*
X158860443Y-72649481D01*
X158794260Y-72656000D01*
X158705740Y-72656000D01*
X158639557Y-72649481D01*
X158573373Y-72642963D01*
X158460147Y-72608616D01*
X158403533Y-72591443D01*
X158247011Y-72507779D01*
X158247009Y-72507778D01*
X158211271Y-72478448D01*
X158109814Y-72395186D01*
X158026552Y-72293729D01*
X157997222Y-72257991D01*
X157987652Y-72240087D01*
X157913557Y-72101467D01*
X157896384Y-72044853D01*
X157862037Y-71931627D01*
X157844641Y-71755000D01*
X157862037Y-71578373D01*
X157913557Y-71408534D01*
X157913557Y-71408533D01*
X157997221Y-71252011D01*
X157997222Y-71252009D01*
X158026552Y-71216271D01*
X158109814Y-71114814D01*
X158211271Y-71031552D01*
X158247009Y-71002222D01*
X158264913Y-70992652D01*
X158403533Y-70918557D01*
X158460147Y-70901384D01*
X158573373Y-70867037D01*
X158639558Y-70860518D01*
X158705740Y-70854000D01*
X158794260Y-70854000D01*
X158860442Y-70860518D01*
X158860442Y-70860518D01*
G37*
G36*
X161400442Y-70860518D02*
X161466627Y-70867037D01*
X161579853Y-70901384D01*
X161636467Y-70918557D01*
X161775087Y-70992652D01*
X161792991Y-71002222D01*
X161828729Y-71031552D01*
X161930186Y-71114814D01*
X162013448Y-71216271D01*
X162042778Y-71252009D01*
X162042779Y-71252011D01*
X162126443Y-71408533D01*
X162126443Y-71408534D01*
X162177963Y-71578373D01*
X162195359Y-71755000D01*
X162177963Y-71931627D01*
X162143616Y-72044853D01*
X162126443Y-72101467D01*
X162052348Y-72240087D01*
X162042778Y-72257991D01*
X162013448Y-72293729D01*
X161930186Y-72395186D01*
X161828729Y-72478448D01*
X161792991Y-72507778D01*
X161792989Y-72507779D01*
X161636467Y-72591443D01*
X161579853Y-72608616D01*
X161466627Y-72642963D01*
X161400443Y-72649481D01*
X161334260Y-72656000D01*
X161245740Y-72656000D01*
X161179557Y-72649481D01*
X161113373Y-72642963D01*
X161000147Y-72608616D01*
X160943533Y-72591443D01*
X160787011Y-72507779D01*
X160787009Y-72507778D01*
X160751271Y-72478448D01*
X160649814Y-72395186D01*
X160566552Y-72293729D01*
X160537222Y-72257991D01*
X160527652Y-72240087D01*
X160453557Y-72101467D01*
X160436384Y-72044853D01*
X160402037Y-71931627D01*
X160384641Y-71755000D01*
X160402037Y-71578373D01*
X160453557Y-71408534D01*
X160453557Y-71408533D01*
X160537221Y-71252011D01*
X160537222Y-71252009D01*
X160566552Y-71216271D01*
X160649814Y-71114814D01*
X160751271Y-71031552D01*
X160787009Y-71002222D01*
X160804913Y-70992652D01*
X160943533Y-70918557D01*
X161000147Y-70901384D01*
X161113373Y-70867037D01*
X161179558Y-70860518D01*
X161245740Y-70854000D01*
X161334260Y-70854000D01*
X161400442Y-70860518D01*
X161400442Y-70860518D01*
G37*
G36*
X166480442Y-70860518D02*
X166546627Y-70867037D01*
X166659853Y-70901384D01*
X166716467Y-70918557D01*
X166855087Y-70992652D01*
X166872991Y-71002222D01*
X166908729Y-71031552D01*
X167010186Y-71114814D01*
X167093448Y-71216271D01*
X167122778Y-71252009D01*
X167122779Y-71252011D01*
X167206443Y-71408533D01*
X167206443Y-71408534D01*
X167257963Y-71578373D01*
X167275359Y-71755000D01*
X167257963Y-71931627D01*
X167223616Y-72044853D01*
X167206443Y-72101467D01*
X167132348Y-72240087D01*
X167122778Y-72257991D01*
X167093448Y-72293729D01*
X167010186Y-72395186D01*
X166908729Y-72478448D01*
X166872991Y-72507778D01*
X166872989Y-72507779D01*
X166716467Y-72591443D01*
X166659853Y-72608616D01*
X166546627Y-72642963D01*
X166480443Y-72649481D01*
X166414260Y-72656000D01*
X166325740Y-72656000D01*
X166259557Y-72649481D01*
X166193373Y-72642963D01*
X166080147Y-72608616D01*
X166023533Y-72591443D01*
X165867011Y-72507779D01*
X165867009Y-72507778D01*
X165831271Y-72478448D01*
X165729814Y-72395186D01*
X165646552Y-72293729D01*
X165617222Y-72257991D01*
X165607652Y-72240087D01*
X165533557Y-72101467D01*
X165516384Y-72044853D01*
X165482037Y-71931627D01*
X165464641Y-71755000D01*
X165482037Y-71578373D01*
X165533557Y-71408534D01*
X165533557Y-71408533D01*
X165617221Y-71252011D01*
X165617222Y-71252009D01*
X165646552Y-71216271D01*
X165729814Y-71114814D01*
X165831271Y-71031552D01*
X165867009Y-71002222D01*
X165884913Y-70992652D01*
X166023533Y-70918557D01*
X166080147Y-70901384D01*
X166193373Y-70867037D01*
X166259558Y-70860518D01*
X166325740Y-70854000D01*
X166414260Y-70854000D01*
X166480442Y-70860518D01*
X166480442Y-70860518D01*
G37*
G36*
X141080442Y-70860518D02*
X141146627Y-70867037D01*
X141259853Y-70901384D01*
X141316467Y-70918557D01*
X141455087Y-70992652D01*
X141472991Y-71002222D01*
X141508729Y-71031552D01*
X141610186Y-71114814D01*
X141693448Y-71216271D01*
X141722778Y-71252009D01*
X141722779Y-71252011D01*
X141806443Y-71408533D01*
X141806443Y-71408534D01*
X141857963Y-71578373D01*
X141875359Y-71755000D01*
X141857963Y-71931627D01*
X141823616Y-72044853D01*
X141806443Y-72101467D01*
X141732348Y-72240087D01*
X141722778Y-72257991D01*
X141693448Y-72293729D01*
X141610186Y-72395186D01*
X141508729Y-72478448D01*
X141472991Y-72507778D01*
X141472989Y-72507779D01*
X141316467Y-72591443D01*
X141259853Y-72608616D01*
X141146627Y-72642963D01*
X141080443Y-72649481D01*
X141014260Y-72656000D01*
X140925740Y-72656000D01*
X140859557Y-72649481D01*
X140793373Y-72642963D01*
X140680147Y-72608616D01*
X140623533Y-72591443D01*
X140467011Y-72507779D01*
X140467009Y-72507778D01*
X140431271Y-72478448D01*
X140329814Y-72395186D01*
X140246552Y-72293729D01*
X140217222Y-72257991D01*
X140207652Y-72240087D01*
X140133557Y-72101467D01*
X140116384Y-72044853D01*
X140082037Y-71931627D01*
X140064641Y-71755000D01*
X140082037Y-71578373D01*
X140133557Y-71408534D01*
X140133557Y-71408533D01*
X140217221Y-71252011D01*
X140217222Y-71252009D01*
X140246552Y-71216271D01*
X140329814Y-71114814D01*
X140431271Y-71031552D01*
X140467009Y-71002222D01*
X140484913Y-70992652D01*
X140623533Y-70918557D01*
X140680147Y-70901384D01*
X140793373Y-70867037D01*
X140859558Y-70860518D01*
X140925740Y-70854000D01*
X141014260Y-70854000D01*
X141080442Y-70860518D01*
X141080442Y-70860518D01*
G37*
G36*
X138540442Y-70860518D02*
X138606627Y-70867037D01*
X138719853Y-70901384D01*
X138776467Y-70918557D01*
X138915087Y-70992652D01*
X138932991Y-71002222D01*
X138968729Y-71031552D01*
X139070186Y-71114814D01*
X139153448Y-71216271D01*
X139182778Y-71252009D01*
X139182779Y-71252011D01*
X139266443Y-71408533D01*
X139266443Y-71408534D01*
X139317963Y-71578373D01*
X139335359Y-71755000D01*
X139317963Y-71931627D01*
X139283616Y-72044853D01*
X139266443Y-72101467D01*
X139192348Y-72240087D01*
X139182778Y-72257991D01*
X139153448Y-72293729D01*
X139070186Y-72395186D01*
X138968729Y-72478448D01*
X138932991Y-72507778D01*
X138932989Y-72507779D01*
X138776467Y-72591443D01*
X138719853Y-72608616D01*
X138606627Y-72642963D01*
X138540443Y-72649481D01*
X138474260Y-72656000D01*
X138385740Y-72656000D01*
X138319557Y-72649481D01*
X138253373Y-72642963D01*
X138140147Y-72608616D01*
X138083533Y-72591443D01*
X137927011Y-72507779D01*
X137927009Y-72507778D01*
X137891271Y-72478448D01*
X137789814Y-72395186D01*
X137706552Y-72293729D01*
X137677222Y-72257991D01*
X137667652Y-72240087D01*
X137593557Y-72101467D01*
X137576384Y-72044853D01*
X137542037Y-71931627D01*
X137524641Y-71755000D01*
X137542037Y-71578373D01*
X137593557Y-71408534D01*
X137593557Y-71408533D01*
X137677221Y-71252011D01*
X137677222Y-71252009D01*
X137706552Y-71216271D01*
X137789814Y-71114814D01*
X137891271Y-71031552D01*
X137927009Y-71002222D01*
X137944913Y-70992652D01*
X138083533Y-70918557D01*
X138140147Y-70901384D01*
X138253373Y-70867037D01*
X138319558Y-70860518D01*
X138385740Y-70854000D01*
X138474260Y-70854000D01*
X138540442Y-70860518D01*
X138540442Y-70860518D01*
G37*
G36*
X146160442Y-70860518D02*
X146226627Y-70867037D01*
X146339853Y-70901384D01*
X146396467Y-70918557D01*
X146535087Y-70992652D01*
X146552991Y-71002222D01*
X146588729Y-71031552D01*
X146690186Y-71114814D01*
X146773448Y-71216271D01*
X146802778Y-71252009D01*
X146802779Y-71252011D01*
X146886443Y-71408533D01*
X146886443Y-71408534D01*
X146937963Y-71578373D01*
X146955359Y-71755000D01*
X146937963Y-71931627D01*
X146903616Y-72044853D01*
X146886443Y-72101467D01*
X146812348Y-72240087D01*
X146802778Y-72257991D01*
X146773448Y-72293729D01*
X146690186Y-72395186D01*
X146588729Y-72478448D01*
X146552991Y-72507778D01*
X146552989Y-72507779D01*
X146396467Y-72591443D01*
X146339853Y-72608616D01*
X146226627Y-72642963D01*
X146160443Y-72649481D01*
X146094260Y-72656000D01*
X146005740Y-72656000D01*
X145939557Y-72649481D01*
X145873373Y-72642963D01*
X145760147Y-72608616D01*
X145703533Y-72591443D01*
X145547011Y-72507779D01*
X145547009Y-72507778D01*
X145511271Y-72478448D01*
X145409814Y-72395186D01*
X145326552Y-72293729D01*
X145297222Y-72257991D01*
X145287652Y-72240087D01*
X145213557Y-72101467D01*
X145196384Y-72044853D01*
X145162037Y-71931627D01*
X145144641Y-71755000D01*
X145162037Y-71578373D01*
X145213557Y-71408534D01*
X145213557Y-71408533D01*
X145297221Y-71252011D01*
X145297222Y-71252009D01*
X145326552Y-71216271D01*
X145409814Y-71114814D01*
X145511271Y-71031552D01*
X145547009Y-71002222D01*
X145564913Y-70992652D01*
X145703533Y-70918557D01*
X145760147Y-70901384D01*
X145873373Y-70867037D01*
X145939558Y-70860518D01*
X146005740Y-70854000D01*
X146094260Y-70854000D01*
X146160442Y-70860518D01*
X146160442Y-70860518D01*
G37*
G36*
X148700442Y-70860518D02*
X148766627Y-70867037D01*
X148879853Y-70901384D01*
X148936467Y-70918557D01*
X149075087Y-70992652D01*
X149092991Y-71002222D01*
X149128729Y-71031552D01*
X149230186Y-71114814D01*
X149313448Y-71216271D01*
X149342778Y-71252009D01*
X149342779Y-71252011D01*
X149426443Y-71408533D01*
X149426443Y-71408534D01*
X149477963Y-71578373D01*
X149495359Y-71755000D01*
X149477963Y-71931627D01*
X149443616Y-72044853D01*
X149426443Y-72101467D01*
X149352348Y-72240087D01*
X149342778Y-72257991D01*
X149313448Y-72293729D01*
X149230186Y-72395186D01*
X149128729Y-72478448D01*
X149092991Y-72507778D01*
X149092989Y-72507779D01*
X148936467Y-72591443D01*
X148879853Y-72608616D01*
X148766627Y-72642963D01*
X148700443Y-72649481D01*
X148634260Y-72656000D01*
X148545740Y-72656000D01*
X148479557Y-72649481D01*
X148413373Y-72642963D01*
X148300147Y-72608616D01*
X148243533Y-72591443D01*
X148087011Y-72507779D01*
X148087009Y-72507778D01*
X148051271Y-72478448D01*
X147949814Y-72395186D01*
X147866552Y-72293729D01*
X147837222Y-72257991D01*
X147827652Y-72240087D01*
X147753557Y-72101467D01*
X147736384Y-72044853D01*
X147702037Y-71931627D01*
X147684641Y-71755000D01*
X147702037Y-71578373D01*
X147753557Y-71408534D01*
X147753557Y-71408533D01*
X147837221Y-71252011D01*
X147837222Y-71252009D01*
X147866552Y-71216271D01*
X147949814Y-71114814D01*
X148051271Y-71031552D01*
X148087009Y-71002222D01*
X148104913Y-70992652D01*
X148243533Y-70918557D01*
X148300147Y-70901384D01*
X148413373Y-70867037D01*
X148479558Y-70860518D01*
X148545740Y-70854000D01*
X148634260Y-70854000D01*
X148700442Y-70860518D01*
X148700442Y-70860518D01*
G37*
G36*
X151240442Y-70860518D02*
X151306627Y-70867037D01*
X151419853Y-70901384D01*
X151476467Y-70918557D01*
X151615087Y-70992652D01*
X151632991Y-71002222D01*
X151668729Y-71031552D01*
X151770186Y-71114814D01*
X151853448Y-71216271D01*
X151882778Y-71252009D01*
X151882779Y-71252011D01*
X151966443Y-71408533D01*
X151966443Y-71408534D01*
X152017963Y-71578373D01*
X152035359Y-71755000D01*
X152017963Y-71931627D01*
X151983616Y-72044853D01*
X151966443Y-72101467D01*
X151892348Y-72240087D01*
X151882778Y-72257991D01*
X151853448Y-72293729D01*
X151770186Y-72395186D01*
X151668729Y-72478448D01*
X151632991Y-72507778D01*
X151632989Y-72507779D01*
X151476467Y-72591443D01*
X151419853Y-72608616D01*
X151306627Y-72642963D01*
X151240443Y-72649481D01*
X151174260Y-72656000D01*
X151085740Y-72656000D01*
X151019557Y-72649481D01*
X150953373Y-72642963D01*
X150840147Y-72608616D01*
X150783533Y-72591443D01*
X150627011Y-72507779D01*
X150627009Y-72507778D01*
X150591271Y-72478448D01*
X150489814Y-72395186D01*
X150406552Y-72293729D01*
X150377222Y-72257991D01*
X150367652Y-72240087D01*
X150293557Y-72101467D01*
X150276384Y-72044853D01*
X150242037Y-71931627D01*
X150224641Y-71755000D01*
X150242037Y-71578373D01*
X150293557Y-71408534D01*
X150293557Y-71408533D01*
X150377221Y-71252011D01*
X150377222Y-71252009D01*
X150406552Y-71216271D01*
X150489814Y-71114814D01*
X150591271Y-71031552D01*
X150627009Y-71002222D01*
X150644913Y-70992652D01*
X150783533Y-70918557D01*
X150840147Y-70901384D01*
X150953373Y-70867037D01*
X151019558Y-70860518D01*
X151085740Y-70854000D01*
X151174260Y-70854000D01*
X151240442Y-70860518D01*
X151240442Y-70860518D01*
G37*
G36*
X153780442Y-70860518D02*
X153846627Y-70867037D01*
X153959853Y-70901384D01*
X154016467Y-70918557D01*
X154155087Y-70992652D01*
X154172991Y-71002222D01*
X154208729Y-71031552D01*
X154310186Y-71114814D01*
X154393448Y-71216271D01*
X154422778Y-71252009D01*
X154422779Y-71252011D01*
X154506443Y-71408533D01*
X154506443Y-71408534D01*
X154557963Y-71578373D01*
X154575359Y-71755000D01*
X154557963Y-71931627D01*
X154523616Y-72044853D01*
X154506443Y-72101467D01*
X154432348Y-72240087D01*
X154422778Y-72257991D01*
X154393448Y-72293729D01*
X154310186Y-72395186D01*
X154208729Y-72478448D01*
X154172991Y-72507778D01*
X154172989Y-72507779D01*
X154016467Y-72591443D01*
X153959853Y-72608616D01*
X153846627Y-72642963D01*
X153780443Y-72649481D01*
X153714260Y-72656000D01*
X153625740Y-72656000D01*
X153559557Y-72649481D01*
X153493373Y-72642963D01*
X153380147Y-72608616D01*
X153323533Y-72591443D01*
X153167011Y-72507779D01*
X153167009Y-72507778D01*
X153131271Y-72478448D01*
X153029814Y-72395186D01*
X152946552Y-72293729D01*
X152917222Y-72257991D01*
X152907652Y-72240087D01*
X152833557Y-72101467D01*
X152816384Y-72044853D01*
X152782037Y-71931627D01*
X152764641Y-71755000D01*
X152782037Y-71578373D01*
X152833557Y-71408534D01*
X152833557Y-71408533D01*
X152917221Y-71252011D01*
X152917222Y-71252009D01*
X152946552Y-71216271D01*
X153029814Y-71114814D01*
X153131271Y-71031552D01*
X153167009Y-71002222D01*
X153184913Y-70992652D01*
X153323533Y-70918557D01*
X153380147Y-70901384D01*
X153493373Y-70867037D01*
X153559558Y-70860518D01*
X153625740Y-70854000D01*
X153714260Y-70854000D01*
X153780442Y-70860518D01*
X153780442Y-70860518D01*
G37*
G36*
X156320442Y-70860518D02*
X156386627Y-70867037D01*
X156499853Y-70901384D01*
X156556467Y-70918557D01*
X156695087Y-70992652D01*
X156712991Y-71002222D01*
X156748729Y-71031552D01*
X156850186Y-71114814D01*
X156933448Y-71216271D01*
X156962778Y-71252009D01*
X156962779Y-71252011D01*
X157046443Y-71408533D01*
X157046443Y-71408534D01*
X157097963Y-71578373D01*
X157115359Y-71755000D01*
X157097963Y-71931627D01*
X157063616Y-72044853D01*
X157046443Y-72101467D01*
X156972348Y-72240087D01*
X156962778Y-72257991D01*
X156933448Y-72293729D01*
X156850186Y-72395186D01*
X156748729Y-72478448D01*
X156712991Y-72507778D01*
X156712989Y-72507779D01*
X156556467Y-72591443D01*
X156499853Y-72608616D01*
X156386627Y-72642963D01*
X156320443Y-72649481D01*
X156254260Y-72656000D01*
X156165740Y-72656000D01*
X156099557Y-72649481D01*
X156033373Y-72642963D01*
X155920147Y-72608616D01*
X155863533Y-72591443D01*
X155707011Y-72507779D01*
X155707009Y-72507778D01*
X155671271Y-72478448D01*
X155569814Y-72395186D01*
X155486552Y-72293729D01*
X155457222Y-72257991D01*
X155447652Y-72240087D01*
X155373557Y-72101467D01*
X155356384Y-72044853D01*
X155322037Y-71931627D01*
X155304641Y-71755000D01*
X155322037Y-71578373D01*
X155373557Y-71408534D01*
X155373557Y-71408533D01*
X155457221Y-71252011D01*
X155457222Y-71252009D01*
X155486552Y-71216271D01*
X155569814Y-71114814D01*
X155671271Y-71031552D01*
X155707009Y-71002222D01*
X155724913Y-70992652D01*
X155863533Y-70918557D01*
X155920147Y-70901384D01*
X156033373Y-70867037D01*
X156099558Y-70860518D01*
X156165740Y-70854000D01*
X156254260Y-70854000D01*
X156320442Y-70860518D01*
X156320442Y-70860518D01*
G37*
G36*
X143620442Y-70860518D02*
X143686627Y-70867037D01*
X143799853Y-70901384D01*
X143856467Y-70918557D01*
X143995087Y-70992652D01*
X144012991Y-71002222D01*
X144048729Y-71031552D01*
X144150186Y-71114814D01*
X144233448Y-71216271D01*
X144262778Y-71252009D01*
X144262779Y-71252011D01*
X144346443Y-71408533D01*
X144346443Y-71408534D01*
X144397963Y-71578373D01*
X144415359Y-71755000D01*
X144397963Y-71931627D01*
X144363616Y-72044853D01*
X144346443Y-72101467D01*
X144272348Y-72240087D01*
X144262778Y-72257991D01*
X144233448Y-72293729D01*
X144150186Y-72395186D01*
X144048729Y-72478448D01*
X144012991Y-72507778D01*
X144012989Y-72507779D01*
X143856467Y-72591443D01*
X143799853Y-72608616D01*
X143686627Y-72642963D01*
X143620443Y-72649481D01*
X143554260Y-72656000D01*
X143465740Y-72656000D01*
X143399557Y-72649481D01*
X143333373Y-72642963D01*
X143220147Y-72608616D01*
X143163533Y-72591443D01*
X143007011Y-72507779D01*
X143007009Y-72507778D01*
X142971271Y-72478448D01*
X142869814Y-72395186D01*
X142786552Y-72293729D01*
X142757222Y-72257991D01*
X142747652Y-72240087D01*
X142673557Y-72101467D01*
X142656384Y-72044853D01*
X142622037Y-71931627D01*
X142604641Y-71755000D01*
X142622037Y-71578373D01*
X142673557Y-71408534D01*
X142673557Y-71408533D01*
X142757221Y-71252011D01*
X142757222Y-71252009D01*
X142786552Y-71216271D01*
X142869814Y-71114814D01*
X142971271Y-71031552D01*
X143007009Y-71002222D01*
X143024913Y-70992652D01*
X143163533Y-70918557D01*
X143220147Y-70901384D01*
X143333373Y-70867037D01*
X143399558Y-70860518D01*
X143465740Y-70854000D01*
X143554260Y-70854000D01*
X143620442Y-70860518D01*
X143620442Y-70860518D01*
G37*
M02*
