G04 #@! TF.GenerationSoftware,KiCad,Pcbnew,(5.1.10)-1*
G04 #@! TF.CreationDate,2021-08-11T19:04:18+09:00*
G04 #@! TF.ProjectId,ESP32_LED,45535033-325f-44c4-9544-2e6b69636164,rev?*
G04 #@! TF.SameCoordinates,Original*
G04 #@! TF.FileFunction,Paste,Top*
G04 #@! TF.FilePolarity,Positive*
%FSLAX46Y46*%
G04 Gerber Fmt 4.6, Leading zero omitted, Abs format (unit mm)*
G04 Created by KiCad (PCBNEW (5.1.10)-1) date 2021-08-11 19:04:18*
%MOMM*%
%LPD*%
G01*
G04 APERTURE LIST*
%ADD10R,2.000000X1.400000*%
%ADD11R,0.900000X1.500000*%
%ADD12R,1.500000X0.900000*%
%ADD13R,4.500000X4.500000*%
%ADD14R,1.140000X0.300000*%
%ADD15R,2.000000X3.800000*%
%ADD16R,2.000000X1.500000*%
%ADD17R,1.400000X2.000000*%
%ADD18R,0.650000X1.050000*%
%ADD19R,0.700000X0.450000*%
G04 APERTURE END LIST*
D10*
X165100000Y-80092000D03*
X165100000Y-75692000D03*
D11*
X143322000Y-94080000D03*
X144592000Y-94080000D03*
X145862000Y-94080000D03*
X147132000Y-94080000D03*
X148402000Y-94080000D03*
X149672000Y-94080000D03*
X150942000Y-94080000D03*
X152212000Y-94080000D03*
X153482000Y-94080000D03*
X154752000Y-94080000D03*
X156022000Y-94080000D03*
X157292000Y-94080000D03*
X158562000Y-94080000D03*
X159832000Y-94080000D03*
D12*
X161332000Y-90890000D03*
X161332000Y-89620000D03*
X161332000Y-88350000D03*
X161332000Y-87080000D03*
X161332000Y-85810000D03*
X161332000Y-84540000D03*
X161332000Y-83270000D03*
X161332000Y-82000000D03*
X161332000Y-80730000D03*
X161332000Y-79460000D03*
D11*
X159832000Y-76280000D03*
X158562000Y-76280000D03*
X157292000Y-76280000D03*
X156022000Y-76280000D03*
X154752000Y-76280000D03*
X153482000Y-76280000D03*
X152212000Y-76280000D03*
X150942000Y-76280000D03*
X149672000Y-76280000D03*
X148402000Y-76280000D03*
X147132000Y-76280000D03*
X145862000Y-76280000D03*
X144592000Y-76280000D03*
X143322000Y-76280000D03*
D13*
X150662000Y-85760000D03*
D14*
X177292000Y-88350000D03*
X177292000Y-86250000D03*
X177292000Y-85750000D03*
X177292000Y-85250000D03*
X177292000Y-84750000D03*
X177292000Y-84250000D03*
X177292000Y-83750000D03*
X177292000Y-88050000D03*
X177292000Y-86750000D03*
X177292000Y-87550000D03*
X177292000Y-87250000D03*
X177292000Y-83250000D03*
X177292000Y-82750000D03*
X177292000Y-82450000D03*
X177292000Y-81950000D03*
X177292000Y-81650000D03*
D15*
X175972000Y-77470000D03*
D16*
X169672000Y-77470000D03*
X169672000Y-79770000D03*
X169672000Y-75170000D03*
D17*
X167050000Y-82804000D03*
X171450000Y-82804000D03*
D18*
X174693000Y-91440000D03*
X176843000Y-91440000D03*
X176843000Y-95590000D03*
X174693000Y-95590000D03*
D19*
X167507075Y-94219000D03*
X167507075Y-95519000D03*
X169507075Y-94869000D03*
D18*
X171078000Y-95590000D03*
X173228000Y-95590000D03*
X173228000Y-91440000D03*
X171078000Y-91440000D03*
G36*
G01*
X164851500Y-87119750D02*
X164851500Y-87632250D01*
G75*
G02*
X164632750Y-87851000I-218750J0D01*
G01*
X164195250Y-87851000D01*
G75*
G02*
X163976500Y-87632250I0J218750D01*
G01*
X163976500Y-87119750D01*
G75*
G02*
X164195250Y-86901000I218750J0D01*
G01*
X164632750Y-86901000D01*
G75*
G02*
X164851500Y-87119750I0J-218750D01*
G01*
G37*
G36*
G01*
X166426500Y-87119750D02*
X166426500Y-87632250D01*
G75*
G02*
X166207750Y-87851000I-218750J0D01*
G01*
X165770250Y-87851000D01*
G75*
G02*
X165551500Y-87632250I0J218750D01*
G01*
X165551500Y-87119750D01*
G75*
G02*
X165770250Y-86901000I218750J0D01*
G01*
X166207750Y-86901000D01*
G75*
G02*
X166426500Y-87119750I0J-218750D01*
G01*
G37*
G36*
G01*
X170739000Y-87715999D02*
X170739000Y-88386001D01*
G75*
G02*
X170489001Y-88636000I-249999J0D01*
G01*
X169818999Y-88636000D01*
G75*
G02*
X169569000Y-88386001I0J249999D01*
G01*
X169569000Y-87715999D01*
G75*
G02*
X169818999Y-87466000I249999J0D01*
G01*
X170489001Y-87466000D01*
G75*
G02*
X170739000Y-87715999I0J-249999D01*
G01*
G37*
G36*
G01*
X170739000Y-86365999D02*
X170739000Y-87036001D01*
G75*
G02*
X170489001Y-87286000I-249999J0D01*
G01*
X169818999Y-87286000D01*
G75*
G02*
X169569000Y-87036001I0J249999D01*
G01*
X169569000Y-86365999D01*
G75*
G02*
X169818999Y-86116000I249999J0D01*
G01*
X170489001Y-86116000D01*
G75*
G02*
X170739000Y-86365999I0J-249999D01*
G01*
G37*
G36*
G01*
X169389000Y-87715999D02*
X169389000Y-88386001D01*
G75*
G02*
X169139001Y-88636000I-249999J0D01*
G01*
X168468999Y-88636000D01*
G75*
G02*
X168219000Y-88386001I0J249999D01*
G01*
X168219000Y-87715999D01*
G75*
G02*
X168468999Y-87466000I249999J0D01*
G01*
X169139001Y-87466000D01*
G75*
G02*
X169389000Y-87715999I0J-249999D01*
G01*
G37*
G36*
G01*
X169389000Y-86365999D02*
X169389000Y-87036001D01*
G75*
G02*
X169139001Y-87286000I-249999J0D01*
G01*
X168468999Y-87286000D01*
G75*
G02*
X168219000Y-87036001I0J249999D01*
G01*
X168219000Y-86365999D01*
G75*
G02*
X168468999Y-86116000I249999J0D01*
G01*
X169139001Y-86116000D01*
G75*
G02*
X169389000Y-86365999I0J-249999D01*
G01*
G37*
G36*
G01*
X171854000Y-88563500D02*
X171854000Y-88688500D01*
G75*
G02*
X171791500Y-88751000I-62500J0D01*
G01*
X171091500Y-88751000D01*
G75*
G02*
X171029000Y-88688500I0J62500D01*
G01*
X171029000Y-88563500D01*
G75*
G02*
X171091500Y-88501000I62500J0D01*
G01*
X171791500Y-88501000D01*
G75*
G02*
X171854000Y-88563500I0J-62500D01*
G01*
G37*
G36*
G01*
X171854000Y-88063500D02*
X171854000Y-88188500D01*
G75*
G02*
X171791500Y-88251000I-62500J0D01*
G01*
X171091500Y-88251000D01*
G75*
G02*
X171029000Y-88188500I0J62500D01*
G01*
X171029000Y-88063500D01*
G75*
G02*
X171091500Y-88001000I62500J0D01*
G01*
X171791500Y-88001000D01*
G75*
G02*
X171854000Y-88063500I0J-62500D01*
G01*
G37*
G36*
G01*
X171854000Y-87563500D02*
X171854000Y-87688500D01*
G75*
G02*
X171791500Y-87751000I-62500J0D01*
G01*
X171091500Y-87751000D01*
G75*
G02*
X171029000Y-87688500I0J62500D01*
G01*
X171029000Y-87563500D01*
G75*
G02*
X171091500Y-87501000I62500J0D01*
G01*
X171791500Y-87501000D01*
G75*
G02*
X171854000Y-87563500I0J-62500D01*
G01*
G37*
G36*
G01*
X171854000Y-87063500D02*
X171854000Y-87188500D01*
G75*
G02*
X171791500Y-87251000I-62500J0D01*
G01*
X171091500Y-87251000D01*
G75*
G02*
X171029000Y-87188500I0J62500D01*
G01*
X171029000Y-87063500D01*
G75*
G02*
X171091500Y-87001000I62500J0D01*
G01*
X171791500Y-87001000D01*
G75*
G02*
X171854000Y-87063500I0J-62500D01*
G01*
G37*
G36*
G01*
X171854000Y-86563500D02*
X171854000Y-86688500D01*
G75*
G02*
X171791500Y-86751000I-62500J0D01*
G01*
X171091500Y-86751000D01*
G75*
G02*
X171029000Y-86688500I0J62500D01*
G01*
X171029000Y-86563500D01*
G75*
G02*
X171091500Y-86501000I62500J0D01*
G01*
X171791500Y-86501000D01*
G75*
G02*
X171854000Y-86563500I0J-62500D01*
G01*
G37*
G36*
G01*
X171854000Y-86063500D02*
X171854000Y-86188500D01*
G75*
G02*
X171791500Y-86251000I-62500J0D01*
G01*
X171091500Y-86251000D01*
G75*
G02*
X171029000Y-86188500I0J62500D01*
G01*
X171029000Y-86063500D01*
G75*
G02*
X171091500Y-86001000I62500J0D01*
G01*
X171791500Y-86001000D01*
G75*
G02*
X171854000Y-86063500I0J-62500D01*
G01*
G37*
G36*
G01*
X170854000Y-85063500D02*
X170854000Y-85763500D01*
G75*
G02*
X170791500Y-85826000I-62500J0D01*
G01*
X170666500Y-85826000D01*
G75*
G02*
X170604000Y-85763500I0J62500D01*
G01*
X170604000Y-85063500D01*
G75*
G02*
X170666500Y-85001000I62500J0D01*
G01*
X170791500Y-85001000D01*
G75*
G02*
X170854000Y-85063500I0J-62500D01*
G01*
G37*
G36*
G01*
X170354000Y-85063500D02*
X170354000Y-85763500D01*
G75*
G02*
X170291500Y-85826000I-62500J0D01*
G01*
X170166500Y-85826000D01*
G75*
G02*
X170104000Y-85763500I0J62500D01*
G01*
X170104000Y-85063500D01*
G75*
G02*
X170166500Y-85001000I62500J0D01*
G01*
X170291500Y-85001000D01*
G75*
G02*
X170354000Y-85063500I0J-62500D01*
G01*
G37*
G36*
G01*
X169854000Y-85063500D02*
X169854000Y-85763500D01*
G75*
G02*
X169791500Y-85826000I-62500J0D01*
G01*
X169666500Y-85826000D01*
G75*
G02*
X169604000Y-85763500I0J62500D01*
G01*
X169604000Y-85063500D01*
G75*
G02*
X169666500Y-85001000I62500J0D01*
G01*
X169791500Y-85001000D01*
G75*
G02*
X169854000Y-85063500I0J-62500D01*
G01*
G37*
G36*
G01*
X169354000Y-85063500D02*
X169354000Y-85763500D01*
G75*
G02*
X169291500Y-85826000I-62500J0D01*
G01*
X169166500Y-85826000D01*
G75*
G02*
X169104000Y-85763500I0J62500D01*
G01*
X169104000Y-85063500D01*
G75*
G02*
X169166500Y-85001000I62500J0D01*
G01*
X169291500Y-85001000D01*
G75*
G02*
X169354000Y-85063500I0J-62500D01*
G01*
G37*
G36*
G01*
X168854000Y-85063500D02*
X168854000Y-85763500D01*
G75*
G02*
X168791500Y-85826000I-62500J0D01*
G01*
X168666500Y-85826000D01*
G75*
G02*
X168604000Y-85763500I0J62500D01*
G01*
X168604000Y-85063500D01*
G75*
G02*
X168666500Y-85001000I62500J0D01*
G01*
X168791500Y-85001000D01*
G75*
G02*
X168854000Y-85063500I0J-62500D01*
G01*
G37*
G36*
G01*
X168354000Y-85063500D02*
X168354000Y-85763500D01*
G75*
G02*
X168291500Y-85826000I-62500J0D01*
G01*
X168166500Y-85826000D01*
G75*
G02*
X168104000Y-85763500I0J62500D01*
G01*
X168104000Y-85063500D01*
G75*
G02*
X168166500Y-85001000I62500J0D01*
G01*
X168291500Y-85001000D01*
G75*
G02*
X168354000Y-85063500I0J-62500D01*
G01*
G37*
G36*
G01*
X167929000Y-86063500D02*
X167929000Y-86188500D01*
G75*
G02*
X167866500Y-86251000I-62500J0D01*
G01*
X167166500Y-86251000D01*
G75*
G02*
X167104000Y-86188500I0J62500D01*
G01*
X167104000Y-86063500D01*
G75*
G02*
X167166500Y-86001000I62500J0D01*
G01*
X167866500Y-86001000D01*
G75*
G02*
X167929000Y-86063500I0J-62500D01*
G01*
G37*
G36*
G01*
X167929000Y-86563500D02*
X167929000Y-86688500D01*
G75*
G02*
X167866500Y-86751000I-62500J0D01*
G01*
X167166500Y-86751000D01*
G75*
G02*
X167104000Y-86688500I0J62500D01*
G01*
X167104000Y-86563500D01*
G75*
G02*
X167166500Y-86501000I62500J0D01*
G01*
X167866500Y-86501000D01*
G75*
G02*
X167929000Y-86563500I0J-62500D01*
G01*
G37*
G36*
G01*
X167929000Y-87063500D02*
X167929000Y-87188500D01*
G75*
G02*
X167866500Y-87251000I-62500J0D01*
G01*
X167166500Y-87251000D01*
G75*
G02*
X167104000Y-87188500I0J62500D01*
G01*
X167104000Y-87063500D01*
G75*
G02*
X167166500Y-87001000I62500J0D01*
G01*
X167866500Y-87001000D01*
G75*
G02*
X167929000Y-87063500I0J-62500D01*
G01*
G37*
G36*
G01*
X167929000Y-87563500D02*
X167929000Y-87688500D01*
G75*
G02*
X167866500Y-87751000I-62500J0D01*
G01*
X167166500Y-87751000D01*
G75*
G02*
X167104000Y-87688500I0J62500D01*
G01*
X167104000Y-87563500D01*
G75*
G02*
X167166500Y-87501000I62500J0D01*
G01*
X167866500Y-87501000D01*
G75*
G02*
X167929000Y-87563500I0J-62500D01*
G01*
G37*
G36*
G01*
X167929000Y-88063500D02*
X167929000Y-88188500D01*
G75*
G02*
X167866500Y-88251000I-62500J0D01*
G01*
X167166500Y-88251000D01*
G75*
G02*
X167104000Y-88188500I0J62500D01*
G01*
X167104000Y-88063500D01*
G75*
G02*
X167166500Y-88001000I62500J0D01*
G01*
X167866500Y-88001000D01*
G75*
G02*
X167929000Y-88063500I0J-62500D01*
G01*
G37*
G36*
G01*
X167929000Y-88563500D02*
X167929000Y-88688500D01*
G75*
G02*
X167866500Y-88751000I-62500J0D01*
G01*
X167166500Y-88751000D01*
G75*
G02*
X167104000Y-88688500I0J62500D01*
G01*
X167104000Y-88563500D01*
G75*
G02*
X167166500Y-88501000I62500J0D01*
G01*
X167866500Y-88501000D01*
G75*
G02*
X167929000Y-88563500I0J-62500D01*
G01*
G37*
G36*
G01*
X168354000Y-88988500D02*
X168354000Y-89688500D01*
G75*
G02*
X168291500Y-89751000I-62500J0D01*
G01*
X168166500Y-89751000D01*
G75*
G02*
X168104000Y-89688500I0J62500D01*
G01*
X168104000Y-88988500D01*
G75*
G02*
X168166500Y-88926000I62500J0D01*
G01*
X168291500Y-88926000D01*
G75*
G02*
X168354000Y-88988500I0J-62500D01*
G01*
G37*
G36*
G01*
X168854000Y-88988500D02*
X168854000Y-89688500D01*
G75*
G02*
X168791500Y-89751000I-62500J0D01*
G01*
X168666500Y-89751000D01*
G75*
G02*
X168604000Y-89688500I0J62500D01*
G01*
X168604000Y-88988500D01*
G75*
G02*
X168666500Y-88926000I62500J0D01*
G01*
X168791500Y-88926000D01*
G75*
G02*
X168854000Y-88988500I0J-62500D01*
G01*
G37*
G36*
G01*
X169354000Y-88988500D02*
X169354000Y-89688500D01*
G75*
G02*
X169291500Y-89751000I-62500J0D01*
G01*
X169166500Y-89751000D01*
G75*
G02*
X169104000Y-89688500I0J62500D01*
G01*
X169104000Y-88988500D01*
G75*
G02*
X169166500Y-88926000I62500J0D01*
G01*
X169291500Y-88926000D01*
G75*
G02*
X169354000Y-88988500I0J-62500D01*
G01*
G37*
G36*
G01*
X169854000Y-88988500D02*
X169854000Y-89688500D01*
G75*
G02*
X169791500Y-89751000I-62500J0D01*
G01*
X169666500Y-89751000D01*
G75*
G02*
X169604000Y-89688500I0J62500D01*
G01*
X169604000Y-88988500D01*
G75*
G02*
X169666500Y-88926000I62500J0D01*
G01*
X169791500Y-88926000D01*
G75*
G02*
X169854000Y-88988500I0J-62500D01*
G01*
G37*
G36*
G01*
X170354000Y-88988500D02*
X170354000Y-89688500D01*
G75*
G02*
X170291500Y-89751000I-62500J0D01*
G01*
X170166500Y-89751000D01*
G75*
G02*
X170104000Y-89688500I0J62500D01*
G01*
X170104000Y-88988500D01*
G75*
G02*
X170166500Y-88926000I62500J0D01*
G01*
X170291500Y-88926000D01*
G75*
G02*
X170354000Y-88988500I0J-62500D01*
G01*
G37*
G36*
G01*
X170854000Y-88988500D02*
X170854000Y-89688500D01*
G75*
G02*
X170791500Y-89751000I-62500J0D01*
G01*
X170666500Y-89751000D01*
G75*
G02*
X170604000Y-89688500I0J62500D01*
G01*
X170604000Y-88988500D01*
G75*
G02*
X170666500Y-88926000I62500J0D01*
G01*
X170791500Y-88926000D01*
G75*
G02*
X170854000Y-88988500I0J-62500D01*
G01*
G37*
D19*
X169507075Y-91918491D03*
X167507075Y-92568491D03*
X167507075Y-91268491D03*
G36*
G01*
X174177500Y-84952500D02*
X174177500Y-85297500D01*
G75*
G02*
X174030000Y-85445000I-147500J0D01*
G01*
X173735000Y-85445000D01*
G75*
G02*
X173587500Y-85297500I0J147500D01*
G01*
X173587500Y-84952500D01*
G75*
G02*
X173735000Y-84805000I147500J0D01*
G01*
X174030000Y-84805000D01*
G75*
G02*
X174177500Y-84952500I0J-147500D01*
G01*
G37*
G36*
G01*
X175147500Y-84952500D02*
X175147500Y-85297500D01*
G75*
G02*
X175000000Y-85445000I-147500J0D01*
G01*
X174705000Y-85445000D01*
G75*
G02*
X174557500Y-85297500I0J147500D01*
G01*
X174557500Y-84952500D01*
G75*
G02*
X174705000Y-84805000I147500J0D01*
G01*
X175000000Y-84805000D01*
G75*
G02*
X175147500Y-84952500I0J-147500D01*
G01*
G37*
G36*
G01*
X175147500Y-88000500D02*
X175147500Y-88345500D01*
G75*
G02*
X175000000Y-88493000I-147500J0D01*
G01*
X174705000Y-88493000D01*
G75*
G02*
X174557500Y-88345500I0J147500D01*
G01*
X174557500Y-88000500D01*
G75*
G02*
X174705000Y-87853000I147500J0D01*
G01*
X175000000Y-87853000D01*
G75*
G02*
X175147500Y-88000500I0J-147500D01*
G01*
G37*
G36*
G01*
X174177500Y-88000500D02*
X174177500Y-88345500D01*
G75*
G02*
X174030000Y-88493000I-147500J0D01*
G01*
X173735000Y-88493000D01*
G75*
G02*
X173587500Y-88345500I0J147500D01*
G01*
X173587500Y-88000500D01*
G75*
G02*
X173735000Y-87853000I147500J0D01*
G01*
X174030000Y-87853000D01*
G75*
G02*
X174177500Y-88000500I0J-147500D01*
G01*
G37*
G36*
G01*
X165996000Y-94315500D02*
X165996000Y-94660500D01*
G75*
G02*
X165848500Y-94808000I-147500J0D01*
G01*
X165553500Y-94808000D01*
G75*
G02*
X165406000Y-94660500I0J147500D01*
G01*
X165406000Y-94315500D01*
G75*
G02*
X165553500Y-94168000I147500J0D01*
G01*
X165848500Y-94168000D01*
G75*
G02*
X165996000Y-94315500I0J-147500D01*
G01*
G37*
G36*
G01*
X165026000Y-94315500D02*
X165026000Y-94660500D01*
G75*
G02*
X164878500Y-94808000I-147500J0D01*
G01*
X164583500Y-94808000D01*
G75*
G02*
X164436000Y-94660500I0J147500D01*
G01*
X164436000Y-94315500D01*
G75*
G02*
X164583500Y-94168000I147500J0D01*
G01*
X164878500Y-94168000D01*
G75*
G02*
X165026000Y-94315500I0J-147500D01*
G01*
G37*
G36*
G01*
X165730000Y-85552500D02*
X165730000Y-85897500D01*
G75*
G02*
X165582500Y-86045000I-147500J0D01*
G01*
X165287500Y-86045000D01*
G75*
G02*
X165140000Y-85897500I0J147500D01*
G01*
X165140000Y-85552500D01*
G75*
G02*
X165287500Y-85405000I147500J0D01*
G01*
X165582500Y-85405000D01*
G75*
G02*
X165730000Y-85552500I0J-147500D01*
G01*
G37*
G36*
G01*
X164760000Y-85552500D02*
X164760000Y-85897500D01*
G75*
G02*
X164612500Y-86045000I-147500J0D01*
G01*
X164317500Y-86045000D01*
G75*
G02*
X164170000Y-85897500I0J147500D01*
G01*
X164170000Y-85552500D01*
G75*
G02*
X164317500Y-85405000I147500J0D01*
G01*
X164612500Y-85405000D01*
G75*
G02*
X164760000Y-85552500I0J-147500D01*
G01*
G37*
G36*
G01*
X167467500Y-79253000D02*
X167812500Y-79253000D01*
G75*
G02*
X167960000Y-79400500I0J-147500D01*
G01*
X167960000Y-79695500D01*
G75*
G02*
X167812500Y-79843000I-147500J0D01*
G01*
X167467500Y-79843000D01*
G75*
G02*
X167320000Y-79695500I0J147500D01*
G01*
X167320000Y-79400500D01*
G75*
G02*
X167467500Y-79253000I147500J0D01*
G01*
G37*
G36*
G01*
X167467500Y-80223000D02*
X167812500Y-80223000D01*
G75*
G02*
X167960000Y-80370500I0J-147500D01*
G01*
X167960000Y-80665500D01*
G75*
G02*
X167812500Y-80813000I-147500J0D01*
G01*
X167467500Y-80813000D01*
G75*
G02*
X167320000Y-80665500I0J147500D01*
G01*
X167320000Y-80370500D01*
G75*
G02*
X167467500Y-80223000I147500J0D01*
G01*
G37*
G36*
G01*
X167812500Y-76541000D02*
X167467500Y-76541000D01*
G75*
G02*
X167320000Y-76393500I0J147500D01*
G01*
X167320000Y-76098500D01*
G75*
G02*
X167467500Y-75951000I147500J0D01*
G01*
X167812500Y-75951000D01*
G75*
G02*
X167960000Y-76098500I0J-147500D01*
G01*
X167960000Y-76393500D01*
G75*
G02*
X167812500Y-76541000I-147500J0D01*
G01*
G37*
G36*
G01*
X167812500Y-77511000D02*
X167467500Y-77511000D01*
G75*
G02*
X167320000Y-77363500I0J147500D01*
G01*
X167320000Y-77068500D01*
G75*
G02*
X167467500Y-76921000I147500J0D01*
G01*
X167812500Y-76921000D01*
G75*
G02*
X167960000Y-77068500I0J-147500D01*
G01*
X167960000Y-77363500D01*
G75*
G02*
X167812500Y-77511000I-147500J0D01*
G01*
G37*
G36*
G01*
X165406000Y-90850500D02*
X165406000Y-90505500D01*
G75*
G02*
X165553500Y-90358000I147500J0D01*
G01*
X165848500Y-90358000D01*
G75*
G02*
X165996000Y-90505500I0J-147500D01*
G01*
X165996000Y-90850500D01*
G75*
G02*
X165848500Y-90998000I-147500J0D01*
G01*
X165553500Y-90998000D01*
G75*
G02*
X165406000Y-90850500I0J147500D01*
G01*
G37*
G36*
G01*
X164436000Y-90850500D02*
X164436000Y-90505500D01*
G75*
G02*
X164583500Y-90358000I147500J0D01*
G01*
X164878500Y-90358000D01*
G75*
G02*
X165026000Y-90505500I0J-147500D01*
G01*
X165026000Y-90850500D01*
G75*
G02*
X164878500Y-90998000I-147500J0D01*
G01*
X164583500Y-90998000D01*
G75*
G02*
X164436000Y-90850500I0J147500D01*
G01*
G37*
G36*
G01*
X165406000Y-93390500D02*
X165406000Y-93045500D01*
G75*
G02*
X165553500Y-92898000I147500J0D01*
G01*
X165848500Y-92898000D01*
G75*
G02*
X165996000Y-93045500I0J-147500D01*
G01*
X165996000Y-93390500D01*
G75*
G02*
X165848500Y-93538000I-147500J0D01*
G01*
X165553500Y-93538000D01*
G75*
G02*
X165406000Y-93390500I0J147500D01*
G01*
G37*
G36*
G01*
X164436000Y-93390500D02*
X164436000Y-93045500D01*
G75*
G02*
X164583500Y-92898000I147500J0D01*
G01*
X164878500Y-92898000D01*
G75*
G02*
X165026000Y-93045500I0J-147500D01*
G01*
X165026000Y-93390500D01*
G75*
G02*
X164878500Y-93538000I-147500J0D01*
G01*
X164583500Y-93538000D01*
G75*
G02*
X164436000Y-93390500I0J147500D01*
G01*
G37*
G36*
G01*
X164436000Y-92120500D02*
X164436000Y-91775500D01*
G75*
G02*
X164583500Y-91628000I147500J0D01*
G01*
X164878500Y-91628000D01*
G75*
G02*
X165026000Y-91775500I0J-147500D01*
G01*
X165026000Y-92120500D01*
G75*
G02*
X164878500Y-92268000I-147500J0D01*
G01*
X164583500Y-92268000D01*
G75*
G02*
X164436000Y-92120500I0J147500D01*
G01*
G37*
G36*
G01*
X165406000Y-92120500D02*
X165406000Y-91775500D01*
G75*
G02*
X165553500Y-91628000I147500J0D01*
G01*
X165848500Y-91628000D01*
G75*
G02*
X165996000Y-91775500I0J-147500D01*
G01*
X165996000Y-92120500D01*
G75*
G02*
X165848500Y-92268000I-147500J0D01*
G01*
X165553500Y-92268000D01*
G75*
G02*
X165406000Y-92120500I0J147500D01*
G01*
G37*
G36*
G01*
X165406000Y-89580500D02*
X165406000Y-89235500D01*
G75*
G02*
X165553500Y-89088000I147500J0D01*
G01*
X165848500Y-89088000D01*
G75*
G02*
X165996000Y-89235500I0J-147500D01*
G01*
X165996000Y-89580500D01*
G75*
G02*
X165848500Y-89728000I-147500J0D01*
G01*
X165553500Y-89728000D01*
G75*
G02*
X165406000Y-89580500I0J147500D01*
G01*
G37*
G36*
G01*
X164436000Y-89580500D02*
X164436000Y-89235500D01*
G75*
G02*
X164583500Y-89088000I147500J0D01*
G01*
X164878500Y-89088000D01*
G75*
G02*
X165026000Y-89235500I0J-147500D01*
G01*
X165026000Y-89580500D01*
G75*
G02*
X164878500Y-89728000I-147500J0D01*
G01*
X164583500Y-89728000D01*
G75*
G02*
X164436000Y-89580500I0J147500D01*
G01*
G37*
G36*
G01*
X174557500Y-86313500D02*
X174557500Y-85968500D01*
G75*
G02*
X174705000Y-85821000I147500J0D01*
G01*
X175000000Y-85821000D01*
G75*
G02*
X175147500Y-85968500I0J-147500D01*
G01*
X175147500Y-86313500D01*
G75*
G02*
X175000000Y-86461000I-147500J0D01*
G01*
X174705000Y-86461000D01*
G75*
G02*
X174557500Y-86313500I0J147500D01*
G01*
G37*
G36*
G01*
X173587500Y-86313500D02*
X173587500Y-85968500D01*
G75*
G02*
X173735000Y-85821000I147500J0D01*
G01*
X174030000Y-85821000D01*
G75*
G02*
X174177500Y-85968500I0J-147500D01*
G01*
X174177500Y-86313500D01*
G75*
G02*
X174030000Y-86461000I-147500J0D01*
G01*
X173735000Y-86461000D01*
G75*
G02*
X173587500Y-86313500I0J147500D01*
G01*
G37*
G36*
G01*
X173587500Y-87329500D02*
X173587500Y-86984500D01*
G75*
G02*
X173735000Y-86837000I147500J0D01*
G01*
X174030000Y-86837000D01*
G75*
G02*
X174177500Y-86984500I0J-147500D01*
G01*
X174177500Y-87329500D01*
G75*
G02*
X174030000Y-87477000I-147500J0D01*
G01*
X173735000Y-87477000D01*
G75*
G02*
X173587500Y-87329500I0J147500D01*
G01*
G37*
G36*
G01*
X174557500Y-87329500D02*
X174557500Y-86984500D01*
G75*
G02*
X174705000Y-86837000I147500J0D01*
G01*
X175000000Y-86837000D01*
G75*
G02*
X175147500Y-86984500I0J-147500D01*
G01*
X175147500Y-87329500D01*
G75*
G02*
X175000000Y-87477000I-147500J0D01*
G01*
X174705000Y-87477000D01*
G75*
G02*
X174557500Y-87329500I0J147500D01*
G01*
G37*
G36*
G01*
X165730000Y-84282500D02*
X165730000Y-84627500D01*
G75*
G02*
X165582500Y-84775000I-147500J0D01*
G01*
X165287500Y-84775000D01*
G75*
G02*
X165140000Y-84627500I0J147500D01*
G01*
X165140000Y-84282500D01*
G75*
G02*
X165287500Y-84135000I147500J0D01*
G01*
X165582500Y-84135000D01*
G75*
G02*
X165730000Y-84282500I0J-147500D01*
G01*
G37*
G36*
G01*
X164760000Y-84282500D02*
X164760000Y-84627500D01*
G75*
G02*
X164612500Y-84775000I-147500J0D01*
G01*
X164317500Y-84775000D01*
G75*
G02*
X164170000Y-84627500I0J147500D01*
G01*
X164170000Y-84282500D01*
G75*
G02*
X164317500Y-84135000I147500J0D01*
G01*
X164612500Y-84135000D01*
G75*
G02*
X164760000Y-84282500I0J-147500D01*
G01*
G37*
G36*
G01*
X133355000Y-99359500D02*
X133355000Y-99014500D01*
G75*
G02*
X133502500Y-98867000I147500J0D01*
G01*
X133797500Y-98867000D01*
G75*
G02*
X133945000Y-99014500I0J-147500D01*
G01*
X133945000Y-99359500D01*
G75*
G02*
X133797500Y-99507000I-147500J0D01*
G01*
X133502500Y-99507000D01*
G75*
G02*
X133355000Y-99359500I0J147500D01*
G01*
G37*
G36*
G01*
X134325000Y-99359500D02*
X134325000Y-99014500D01*
G75*
G02*
X134472500Y-98867000I147500J0D01*
G01*
X134767500Y-98867000D01*
G75*
G02*
X134915000Y-99014500I0J-147500D01*
G01*
X134915000Y-99359500D01*
G75*
G02*
X134767500Y-99507000I-147500J0D01*
G01*
X134472500Y-99507000D01*
G75*
G02*
X134325000Y-99359500I0J147500D01*
G01*
G37*
G36*
G01*
X131785000Y-99359500D02*
X131785000Y-99014500D01*
G75*
G02*
X131932500Y-98867000I147500J0D01*
G01*
X132227500Y-98867000D01*
G75*
G02*
X132375000Y-99014500I0J-147500D01*
G01*
X132375000Y-99359500D01*
G75*
G02*
X132227500Y-99507000I-147500J0D01*
G01*
X131932500Y-99507000D01*
G75*
G02*
X131785000Y-99359500I0J147500D01*
G01*
G37*
G36*
G01*
X130815000Y-99359500D02*
X130815000Y-99014500D01*
G75*
G02*
X130962500Y-98867000I147500J0D01*
G01*
X131257500Y-98867000D01*
G75*
G02*
X131405000Y-99014500I0J-147500D01*
G01*
X131405000Y-99359500D01*
G75*
G02*
X131257500Y-99507000I-147500J0D01*
G01*
X130962500Y-99507000D01*
G75*
G02*
X130815000Y-99359500I0J147500D01*
G01*
G37*
G36*
G01*
X173602500Y-89326500D02*
X173602500Y-88981500D01*
G75*
G02*
X173750000Y-88834000I147500J0D01*
G01*
X174045000Y-88834000D01*
G75*
G02*
X174192500Y-88981500I0J-147500D01*
G01*
X174192500Y-89326500D01*
G75*
G02*
X174045000Y-89474000I-147500J0D01*
G01*
X173750000Y-89474000D01*
G75*
G02*
X173602500Y-89326500I0J147500D01*
G01*
G37*
G36*
G01*
X174572500Y-89326500D02*
X174572500Y-88981500D01*
G75*
G02*
X174720000Y-88834000I147500J0D01*
G01*
X175015000Y-88834000D01*
G75*
G02*
X175162500Y-88981500I0J-147500D01*
G01*
X175162500Y-89326500D01*
G75*
G02*
X175015000Y-89474000I-147500J0D01*
G01*
X174720000Y-89474000D01*
G75*
G02*
X174572500Y-89326500I0J147500D01*
G01*
G37*
G36*
G01*
X174572500Y-84246500D02*
X174572500Y-83901500D01*
G75*
G02*
X174720000Y-83754000I147500J0D01*
G01*
X175015000Y-83754000D01*
G75*
G02*
X175162500Y-83901500I0J-147500D01*
G01*
X175162500Y-84246500D01*
G75*
G02*
X175015000Y-84394000I-147500J0D01*
G01*
X174720000Y-84394000D01*
G75*
G02*
X174572500Y-84246500I0J147500D01*
G01*
G37*
G36*
G01*
X173602500Y-84246500D02*
X173602500Y-83901500D01*
G75*
G02*
X173750000Y-83754000I147500J0D01*
G01*
X174045000Y-83754000D01*
G75*
G02*
X174192500Y-83901500I0J-147500D01*
G01*
X174192500Y-84246500D01*
G75*
G02*
X174045000Y-84394000I-147500J0D01*
G01*
X173750000Y-84394000D01*
G75*
G02*
X173602500Y-84246500I0J147500D01*
G01*
G37*
G36*
G01*
X181755000Y-91140500D02*
X181755000Y-91485500D01*
G75*
G02*
X181607500Y-91633000I-147500J0D01*
G01*
X181312500Y-91633000D01*
G75*
G02*
X181165000Y-91485500I0J147500D01*
G01*
X181165000Y-91140500D01*
G75*
G02*
X181312500Y-90993000I147500J0D01*
G01*
X181607500Y-90993000D01*
G75*
G02*
X181755000Y-91140500I0J-147500D01*
G01*
G37*
G36*
G01*
X180785000Y-91140500D02*
X180785000Y-91485500D01*
G75*
G02*
X180637500Y-91633000I-147500J0D01*
G01*
X180342500Y-91633000D01*
G75*
G02*
X180195000Y-91485500I0J147500D01*
G01*
X180195000Y-91140500D01*
G75*
G02*
X180342500Y-90993000I147500J0D01*
G01*
X180637500Y-90993000D01*
G75*
G02*
X180785000Y-91140500I0J-147500D01*
G01*
G37*
G36*
G01*
X178013000Y-91485500D02*
X178013000Y-91140500D01*
G75*
G02*
X178160500Y-90993000I147500J0D01*
G01*
X178455500Y-90993000D01*
G75*
G02*
X178603000Y-91140500I0J-147500D01*
G01*
X178603000Y-91485500D01*
G75*
G02*
X178455500Y-91633000I-147500J0D01*
G01*
X178160500Y-91633000D01*
G75*
G02*
X178013000Y-91485500I0J147500D01*
G01*
G37*
G36*
G01*
X178983000Y-91485500D02*
X178983000Y-91140500D01*
G75*
G02*
X179130500Y-90993000I147500J0D01*
G01*
X179425500Y-90993000D01*
G75*
G02*
X179573000Y-91140500I0J-147500D01*
G01*
X179573000Y-91485500D01*
G75*
G02*
X179425500Y-91633000I-147500J0D01*
G01*
X179130500Y-91633000D01*
G75*
G02*
X178983000Y-91485500I0J147500D01*
G01*
G37*
G36*
G01*
X182667000Y-78297500D02*
X182667000Y-78642500D01*
G75*
G02*
X182519500Y-78790000I-147500J0D01*
G01*
X182224500Y-78790000D01*
G75*
G02*
X182077000Y-78642500I0J147500D01*
G01*
X182077000Y-78297500D01*
G75*
G02*
X182224500Y-78150000I147500J0D01*
G01*
X182519500Y-78150000D01*
G75*
G02*
X182667000Y-78297500I0J-147500D01*
G01*
G37*
G36*
G01*
X181697000Y-78297500D02*
X181697000Y-78642500D01*
G75*
G02*
X181549500Y-78790000I-147500J0D01*
G01*
X181254500Y-78790000D01*
G75*
G02*
X181107000Y-78642500I0J147500D01*
G01*
X181107000Y-78297500D01*
G75*
G02*
X181254500Y-78150000I147500J0D01*
G01*
X181549500Y-78150000D01*
G75*
G02*
X181697000Y-78297500I0J-147500D01*
G01*
G37*
G36*
G01*
X178902000Y-78642500D02*
X178902000Y-78297500D01*
G75*
G02*
X179049500Y-78150000I147500J0D01*
G01*
X179344500Y-78150000D01*
G75*
G02*
X179492000Y-78297500I0J-147500D01*
G01*
X179492000Y-78642500D01*
G75*
G02*
X179344500Y-78790000I-147500J0D01*
G01*
X179049500Y-78790000D01*
G75*
G02*
X178902000Y-78642500I0J147500D01*
G01*
G37*
G36*
G01*
X179872000Y-78642500D02*
X179872000Y-78297500D01*
G75*
G02*
X180019500Y-78150000I147500J0D01*
G01*
X180314500Y-78150000D01*
G75*
G02*
X180462000Y-78297500I0J-147500D01*
G01*
X180462000Y-78642500D01*
G75*
G02*
X180314500Y-78790000I-147500J0D01*
G01*
X180019500Y-78790000D01*
G75*
G02*
X179872000Y-78642500I0J147500D01*
G01*
G37*
G36*
G01*
X165984000Y-95585500D02*
X165984000Y-95930500D01*
G75*
G02*
X165836500Y-96078000I-147500J0D01*
G01*
X165541500Y-96078000D01*
G75*
G02*
X165394000Y-95930500I0J147500D01*
G01*
X165394000Y-95585500D01*
G75*
G02*
X165541500Y-95438000I147500J0D01*
G01*
X165836500Y-95438000D01*
G75*
G02*
X165984000Y-95585500I0J-147500D01*
G01*
G37*
G36*
G01*
X165014000Y-95585500D02*
X165014000Y-95930500D01*
G75*
G02*
X164866500Y-96078000I-147500J0D01*
G01*
X164571500Y-96078000D01*
G75*
G02*
X164424000Y-95930500I0J147500D01*
G01*
X164424000Y-95585500D01*
G75*
G02*
X164571500Y-95438000I147500J0D01*
G01*
X164866500Y-95438000D01*
G75*
G02*
X165014000Y-95585500I0J-147500D01*
G01*
G37*
M02*
