G04 #@! TF.GenerationSoftware,KiCad,Pcbnew,(5.0.2)-1*
G04 #@! TF.CreationDate,2021-04-18T22:49:00+09:00*
G04 #@! TF.ProjectId,ESP32_LED,45535033-325f-44c4-9544-2e6b69636164,rev?*
G04 #@! TF.SameCoordinates,Original*
G04 #@! TF.FileFunction,Legend,Bot*
G04 #@! TF.FilePolarity,Positive*
%FSLAX46Y46*%
G04 Gerber Fmt 4.6, Leading zero omitted, Abs format (unit mm)*
G04 Created by KiCad (PCBNEW (5.0.2)-1) date 2021/04/18 22:49:00*
%MOMM*%
%LPD*%
G01*
G04 APERTURE LIST*
%ADD10C,0.200000*%
%ADD11C,0.250000*%
%ADD12C,0.120000*%
G04 APERTURE END LIST*
D10*
X146050000Y-73279000D02*
X146367500Y-73787000D01*
X146050000Y-73279000D02*
X145732500Y-73787000D01*
X146050000Y-73279000D02*
X146050000Y-74739500D01*
X143510000Y-74866500D02*
X143827500Y-74358500D01*
X143192500Y-74358500D02*
X143510000Y-74866500D01*
X143510000Y-73279000D02*
X143510000Y-74866500D01*
D11*
X175250000Y-96337380D02*
X175250000Y-95337380D01*
X174821428Y-96337380D02*
X174821428Y-95813571D01*
X174869047Y-95718333D01*
X174964285Y-95670714D01*
X175107142Y-95670714D01*
X175202380Y-95718333D01*
X175250000Y-95765952D01*
X174488095Y-95670714D02*
X174107142Y-95670714D01*
X174345238Y-95337380D02*
X174345238Y-96194523D01*
X174297619Y-96289761D01*
X174202380Y-96337380D01*
X174107142Y-96337380D01*
X173916666Y-95670714D02*
X173535714Y-95670714D01*
X173773809Y-95337380D02*
X173773809Y-96194523D01*
X173726190Y-96289761D01*
X173630952Y-96337380D01*
X173535714Y-96337380D01*
X173202380Y-95670714D02*
X173202380Y-96670714D01*
X173202380Y-95718333D02*
X173107142Y-95670714D01*
X172916666Y-95670714D01*
X172821428Y-95718333D01*
X172773809Y-95765952D01*
X172726190Y-95861190D01*
X172726190Y-96146904D01*
X172773809Y-96242142D01*
X172821428Y-96289761D01*
X172916666Y-96337380D01*
X173107142Y-96337380D01*
X173202380Y-96289761D01*
X172345238Y-96289761D02*
X172250000Y-96337380D01*
X172059523Y-96337380D01*
X171964285Y-96289761D01*
X171916666Y-96194523D01*
X171916666Y-96146904D01*
X171964285Y-96051666D01*
X172059523Y-96004047D01*
X172202380Y-96004047D01*
X172297619Y-95956428D01*
X172345238Y-95861190D01*
X172345238Y-95813571D01*
X172297619Y-95718333D01*
X172202380Y-95670714D01*
X172059523Y-95670714D01*
X171964285Y-95718333D01*
X171488095Y-96242142D02*
X171440476Y-96289761D01*
X171488095Y-96337380D01*
X171535714Y-96289761D01*
X171488095Y-96242142D01*
X171488095Y-96337380D01*
X171488095Y-95718333D02*
X171440476Y-95765952D01*
X171488095Y-95813571D01*
X171535714Y-95765952D01*
X171488095Y-95718333D01*
X171488095Y-95813571D01*
X170297619Y-95289761D02*
X171154761Y-96575476D01*
X169250000Y-95289761D02*
X170107142Y-96575476D01*
X168488095Y-95670714D02*
X168488095Y-96480238D01*
X168535714Y-96575476D01*
X168583333Y-96623095D01*
X168678571Y-96670714D01*
X168821428Y-96670714D01*
X168916666Y-96623095D01*
X168488095Y-96289761D02*
X168583333Y-96337380D01*
X168773809Y-96337380D01*
X168869047Y-96289761D01*
X168916666Y-96242142D01*
X168964285Y-96146904D01*
X168964285Y-95861190D01*
X168916666Y-95765952D01*
X168869047Y-95718333D01*
X168773809Y-95670714D01*
X168583333Y-95670714D01*
X168488095Y-95718333D01*
X168011904Y-96337380D02*
X168011904Y-95670714D01*
X168011904Y-95337380D02*
X168059523Y-95385000D01*
X168011904Y-95432619D01*
X167964285Y-95385000D01*
X168011904Y-95337380D01*
X168011904Y-95432619D01*
X167678571Y-95670714D02*
X167297619Y-95670714D01*
X167535714Y-95337380D02*
X167535714Y-96194523D01*
X167488095Y-96289761D01*
X167392857Y-96337380D01*
X167297619Y-96337380D01*
X166964285Y-96337380D02*
X166964285Y-95337380D01*
X166535714Y-96337380D02*
X166535714Y-95813571D01*
X166583333Y-95718333D01*
X166678571Y-95670714D01*
X166821428Y-95670714D01*
X166916666Y-95718333D01*
X166964285Y-95765952D01*
X165630952Y-95670714D02*
X165630952Y-96337380D01*
X166059523Y-95670714D02*
X166059523Y-96194523D01*
X166011904Y-96289761D01*
X165916666Y-96337380D01*
X165773809Y-96337380D01*
X165678571Y-96289761D01*
X165630952Y-96242142D01*
X165154761Y-96337380D02*
X165154761Y-95337380D01*
X165154761Y-95718333D02*
X165059523Y-95670714D01*
X164869047Y-95670714D01*
X164773809Y-95718333D01*
X164726190Y-95765952D01*
X164678571Y-95861190D01*
X164678571Y-96146904D01*
X164726190Y-96242142D01*
X164773809Y-96289761D01*
X164869047Y-96337380D01*
X165059523Y-96337380D01*
X165154761Y-96289761D01*
X164250000Y-96242142D02*
X164202380Y-96289761D01*
X164250000Y-96337380D01*
X164297619Y-96289761D01*
X164250000Y-96242142D01*
X164250000Y-96337380D01*
X163345238Y-96289761D02*
X163440476Y-96337380D01*
X163630952Y-96337380D01*
X163726190Y-96289761D01*
X163773809Y-96242142D01*
X163821428Y-96146904D01*
X163821428Y-95861190D01*
X163773809Y-95765952D01*
X163726190Y-95718333D01*
X163630952Y-95670714D01*
X163440476Y-95670714D01*
X163345238Y-95718333D01*
X162773809Y-96337380D02*
X162869047Y-96289761D01*
X162916666Y-96242142D01*
X162964285Y-96146904D01*
X162964285Y-95861190D01*
X162916666Y-95765952D01*
X162869047Y-95718333D01*
X162773809Y-95670714D01*
X162630952Y-95670714D01*
X162535714Y-95718333D01*
X162488095Y-95765952D01*
X162440476Y-95861190D01*
X162440476Y-96146904D01*
X162488095Y-96242142D01*
X162535714Y-96289761D01*
X162630952Y-96337380D01*
X162773809Y-96337380D01*
X162011904Y-96337380D02*
X162011904Y-95670714D01*
X162011904Y-95765952D02*
X161964285Y-95718333D01*
X161869047Y-95670714D01*
X161726190Y-95670714D01*
X161630952Y-95718333D01*
X161583333Y-95813571D01*
X161583333Y-96337380D01*
X161583333Y-95813571D02*
X161535714Y-95718333D01*
X161440476Y-95670714D01*
X161297619Y-95670714D01*
X161202380Y-95718333D01*
X161154761Y-95813571D01*
X161154761Y-96337380D01*
X159964285Y-95289761D02*
X160821428Y-96575476D01*
X159630952Y-95670714D02*
X159630952Y-96527857D01*
X159678571Y-96623095D01*
X159773809Y-96670714D01*
X159821428Y-96670714D01*
X159630952Y-95337380D02*
X159678571Y-95385000D01*
X159630952Y-95432619D01*
X159583333Y-95385000D01*
X159630952Y-95337380D01*
X159630952Y-95432619D01*
X159154761Y-95670714D02*
X159154761Y-96670714D01*
X159154761Y-95718333D02*
X159059523Y-95670714D01*
X158869047Y-95670714D01*
X158773809Y-95718333D01*
X158726190Y-95765952D01*
X158678571Y-95861190D01*
X158678571Y-96146904D01*
X158726190Y-96242142D01*
X158773809Y-96289761D01*
X158869047Y-96337380D01*
X159059523Y-96337380D01*
X159154761Y-96289761D01*
X158345238Y-95337380D02*
X157726190Y-95337380D01*
X158059523Y-95718333D01*
X157916666Y-95718333D01*
X157821428Y-95765952D01*
X157773809Y-95813571D01*
X157726190Y-95908809D01*
X157726190Y-96146904D01*
X157773809Y-96242142D01*
X157821428Y-96289761D01*
X157916666Y-96337380D01*
X158202380Y-96337380D01*
X158297619Y-96289761D01*
X158345238Y-96242142D01*
X156869047Y-96289761D02*
X156964285Y-96337380D01*
X157154761Y-96337380D01*
X157250000Y-96289761D01*
X157297619Y-96242142D01*
X157345238Y-96146904D01*
X157345238Y-95861190D01*
X157297619Y-95765952D01*
X157250000Y-95718333D01*
X157154761Y-95670714D01*
X156964285Y-95670714D01*
X156869047Y-95718333D01*
X156535714Y-95670714D02*
X156297619Y-96337380D01*
X156059523Y-95670714D02*
X156297619Y-96337380D01*
X156392857Y-96575476D01*
X156440476Y-96623095D01*
X156535714Y-96670714D01*
X155250000Y-96289761D02*
X155345238Y-96337380D01*
X155535714Y-96337380D01*
X155630952Y-96289761D01*
X155678571Y-96242142D01*
X155726190Y-96146904D01*
X155726190Y-95861190D01*
X155678571Y-95765952D01*
X155630952Y-95718333D01*
X155535714Y-95670714D01*
X155345238Y-95670714D01*
X155250000Y-95718333D01*
X154107142Y-95289761D02*
X154964285Y-96575476D01*
X153773809Y-95813571D02*
X153440476Y-95813571D01*
X153297619Y-96337380D02*
X153773809Y-96337380D01*
X153773809Y-95337380D01*
X153297619Y-95337380D01*
X152916666Y-96289761D02*
X152773809Y-96337380D01*
X152535714Y-96337380D01*
X152440476Y-96289761D01*
X152392857Y-96242142D01*
X152345238Y-96146904D01*
X152345238Y-96051666D01*
X152392857Y-95956428D01*
X152440476Y-95908809D01*
X152535714Y-95861190D01*
X152726190Y-95813571D01*
X152821428Y-95765952D01*
X152869047Y-95718333D01*
X152916666Y-95623095D01*
X152916666Y-95527857D01*
X152869047Y-95432619D01*
X152821428Y-95385000D01*
X152726190Y-95337380D01*
X152488095Y-95337380D01*
X152345238Y-95385000D01*
X151916666Y-96337380D02*
X151916666Y-95337380D01*
X151535714Y-95337380D01*
X151440476Y-95385000D01*
X151392857Y-95432619D01*
X151345238Y-95527857D01*
X151345238Y-95670714D01*
X151392857Y-95765952D01*
X151440476Y-95813571D01*
X151535714Y-95861190D01*
X151916666Y-95861190D01*
X151011904Y-95337380D02*
X150392857Y-95337380D01*
X150726190Y-95718333D01*
X150583333Y-95718333D01*
X150488095Y-95765952D01*
X150440476Y-95813571D01*
X150392857Y-95908809D01*
X150392857Y-96146904D01*
X150440476Y-96242142D01*
X150488095Y-96289761D01*
X150583333Y-96337380D01*
X150869047Y-96337380D01*
X150964285Y-96289761D01*
X151011904Y-96242142D01*
X150011904Y-95432619D02*
X149964285Y-95385000D01*
X149869047Y-95337380D01*
X149630952Y-95337380D01*
X149535714Y-95385000D01*
X149488095Y-95432619D01*
X149440476Y-95527857D01*
X149440476Y-95623095D01*
X149488095Y-95765952D01*
X150059523Y-96337380D01*
X149440476Y-96337380D01*
X148583333Y-96337380D02*
X148583333Y-95337380D01*
X148583333Y-96289761D02*
X148678571Y-96337380D01*
X148869047Y-96337380D01*
X148964285Y-96289761D01*
X149011904Y-96242142D01*
X149059523Y-96146904D01*
X149059523Y-95861190D01*
X149011904Y-95765952D01*
X148964285Y-95718333D01*
X148869047Y-95670714D01*
X148678571Y-95670714D01*
X148583333Y-95718333D01*
X147726190Y-96289761D02*
X147821428Y-96337380D01*
X148011904Y-96337380D01*
X148107142Y-96289761D01*
X148154761Y-96194523D01*
X148154761Y-95813571D01*
X148107142Y-95718333D01*
X148011904Y-95670714D01*
X147821428Y-95670714D01*
X147726190Y-95718333D01*
X147678571Y-95813571D01*
X147678571Y-95908809D01*
X148154761Y-96004047D01*
X147345238Y-95670714D02*
X147107142Y-96337380D01*
X146869047Y-95670714D01*
X146726190Y-96432619D02*
X145964285Y-96432619D01*
X145773809Y-96289761D02*
X145678571Y-96337380D01*
X145488095Y-96337380D01*
X145392857Y-96289761D01*
X145345238Y-96194523D01*
X145345238Y-96146904D01*
X145392857Y-96051666D01*
X145488095Y-96004047D01*
X145630952Y-96004047D01*
X145726190Y-95956428D01*
X145773809Y-95861190D01*
X145773809Y-95813571D01*
X145726190Y-95718333D01*
X145630952Y-95670714D01*
X145488095Y-95670714D01*
X145392857Y-95718333D01*
X144535714Y-96289761D02*
X144630952Y-96337380D01*
X144821428Y-96337380D01*
X144916666Y-96289761D01*
X144964285Y-96194523D01*
X144964285Y-95813571D01*
X144916666Y-95718333D01*
X144821428Y-95670714D01*
X144630952Y-95670714D01*
X144535714Y-95718333D01*
X144488095Y-95813571D01*
X144488095Y-95908809D01*
X144964285Y-96004047D01*
X144059523Y-96337380D02*
X144059523Y-95670714D01*
X144059523Y-95861190D02*
X144011904Y-95765952D01*
X143964285Y-95718333D01*
X143869047Y-95670714D01*
X143773809Y-95670714D01*
X143535714Y-95670714D02*
X143297619Y-96337380D01*
X143059523Y-95670714D01*
X142535714Y-96337380D02*
X142630952Y-96289761D01*
X142678571Y-96242142D01*
X142726190Y-96146904D01*
X142726190Y-95861190D01*
X142678571Y-95765952D01*
X142630952Y-95718333D01*
X142535714Y-95670714D01*
X142392857Y-95670714D01*
X142297619Y-95718333D01*
X142250000Y-95765952D01*
X142202380Y-95861190D01*
X142202380Y-96146904D01*
X142250000Y-96242142D01*
X142297619Y-96289761D01*
X142392857Y-96337380D01*
X142535714Y-96337380D01*
X158296904Y-94432380D02*
X158296904Y-93432380D01*
X157963571Y-94146666D01*
X157630238Y-93432380D01*
X157630238Y-94432380D01*
X156725476Y-93765714D02*
X156725476Y-94432380D01*
X157154047Y-93765714D02*
X157154047Y-94289523D01*
X157106428Y-94384761D01*
X157011190Y-94432380D01*
X156868333Y-94432380D01*
X156773095Y-94384761D01*
X156725476Y-94337142D01*
X156249285Y-94432380D02*
X156249285Y-93765714D01*
X156249285Y-93956190D02*
X156201666Y-93860952D01*
X156154047Y-93813333D01*
X156058809Y-93765714D01*
X155963571Y-93765714D01*
X155201666Y-94432380D02*
X155201666Y-93908571D01*
X155249285Y-93813333D01*
X155344523Y-93765714D01*
X155535000Y-93765714D01*
X155630238Y-93813333D01*
X155201666Y-94384761D02*
X155296904Y-94432380D01*
X155535000Y-94432380D01*
X155630238Y-94384761D01*
X155677857Y-94289523D01*
X155677857Y-94194285D01*
X155630238Y-94099047D01*
X155535000Y-94051428D01*
X155296904Y-94051428D01*
X155201666Y-94003809D01*
X154725476Y-94432380D02*
X154725476Y-93765714D01*
X154725476Y-93432380D02*
X154773095Y-93480000D01*
X154725476Y-93527619D01*
X154677857Y-93480000D01*
X154725476Y-93432380D01*
X154725476Y-93527619D01*
X153487380Y-94432380D02*
X153487380Y-93432380D01*
X152915952Y-94432380D02*
X153344523Y-93860952D01*
X152915952Y-93432380D02*
X153487380Y-94003809D01*
X152344523Y-94432380D02*
X152439761Y-94384761D01*
X152487380Y-94337142D01*
X152535000Y-94241904D01*
X152535000Y-93956190D01*
X152487380Y-93860952D01*
X152439761Y-93813333D01*
X152344523Y-93765714D01*
X152201666Y-93765714D01*
X152106428Y-93813333D01*
X152058809Y-93860952D01*
X152011190Y-93956190D01*
X152011190Y-94241904D01*
X152058809Y-94337142D01*
X152106428Y-94384761D01*
X152201666Y-94432380D01*
X152344523Y-94432380D01*
X151154047Y-93765714D02*
X151154047Y-94432380D01*
X151582619Y-93765714D02*
X151582619Y-94289523D01*
X151535000Y-94384761D01*
X151439761Y-94432380D01*
X151296904Y-94432380D01*
X151201666Y-94384761D01*
X151154047Y-94337142D01*
X150725476Y-94384761D02*
X150630238Y-94432380D01*
X150439761Y-94432380D01*
X150344523Y-94384761D01*
X150296904Y-94289523D01*
X150296904Y-94241904D01*
X150344523Y-94146666D01*
X150439761Y-94099047D01*
X150582619Y-94099047D01*
X150677857Y-94051428D01*
X150725476Y-93956190D01*
X150725476Y-93908571D01*
X150677857Y-93813333D01*
X150582619Y-93765714D01*
X150439761Y-93765714D01*
X150344523Y-93813333D01*
X149439761Y-93765714D02*
X149439761Y-94432380D01*
X149868333Y-93765714D02*
X149868333Y-94289523D01*
X149820714Y-94384761D01*
X149725476Y-94432380D01*
X149582619Y-94432380D01*
X149487380Y-94384761D01*
X149439761Y-94337142D01*
X148963571Y-94432380D02*
X148963571Y-93432380D01*
X148868333Y-94051428D02*
X148582619Y-94432380D01*
X148582619Y-93765714D02*
X148963571Y-94146666D01*
X147773095Y-94384761D02*
X147868333Y-94432380D01*
X148058809Y-94432380D01*
X148154047Y-94384761D01*
X148201666Y-94289523D01*
X148201666Y-93908571D01*
X148154047Y-93813333D01*
X148058809Y-93765714D01*
X147868333Y-93765714D01*
X147773095Y-93813333D01*
X147725476Y-93908571D01*
X147725476Y-94003809D01*
X148201666Y-94099047D01*
X167925238Y-93527619D02*
X167877619Y-93480000D01*
X167782380Y-93432380D01*
X167544285Y-93432380D01*
X167449047Y-93480000D01*
X167401428Y-93527619D01*
X167353809Y-93622857D01*
X167353809Y-93718095D01*
X167401428Y-93860952D01*
X167972857Y-94432380D01*
X167353809Y-94432380D01*
X166734761Y-93432380D02*
X166639523Y-93432380D01*
X166544285Y-93480000D01*
X166496666Y-93527619D01*
X166449047Y-93622857D01*
X166401428Y-93813333D01*
X166401428Y-94051428D01*
X166449047Y-94241904D01*
X166496666Y-94337142D01*
X166544285Y-94384761D01*
X166639523Y-94432380D01*
X166734761Y-94432380D01*
X166830000Y-94384761D01*
X166877619Y-94337142D01*
X166925238Y-94241904D01*
X166972857Y-94051428D01*
X166972857Y-93813333D01*
X166925238Y-93622857D01*
X166877619Y-93527619D01*
X166830000Y-93480000D01*
X166734761Y-93432380D01*
X166020476Y-93527619D02*
X165972857Y-93480000D01*
X165877619Y-93432380D01*
X165639523Y-93432380D01*
X165544285Y-93480000D01*
X165496666Y-93527619D01*
X165449047Y-93622857D01*
X165449047Y-93718095D01*
X165496666Y-93860952D01*
X166068095Y-94432380D01*
X165449047Y-94432380D01*
X164496666Y-94432380D02*
X165068095Y-94432380D01*
X164782380Y-94432380D02*
X164782380Y-93432380D01*
X164877619Y-93575238D01*
X164972857Y-93670476D01*
X165068095Y-93718095D01*
X164068095Y-94337142D02*
X164020476Y-94384761D01*
X164068095Y-94432380D01*
X164115714Y-94384761D01*
X164068095Y-94337142D01*
X164068095Y-94432380D01*
X163401428Y-93432380D02*
X163306190Y-93432380D01*
X163210952Y-93480000D01*
X163163333Y-93527619D01*
X163115714Y-93622857D01*
X163068095Y-93813333D01*
X163068095Y-94051428D01*
X163115714Y-94241904D01*
X163163333Y-94337142D01*
X163210952Y-94384761D01*
X163306190Y-94432380D01*
X163401428Y-94432380D01*
X163496666Y-94384761D01*
X163544285Y-94337142D01*
X163591904Y-94241904D01*
X163639523Y-94051428D01*
X163639523Y-93813333D01*
X163591904Y-93622857D01*
X163544285Y-93527619D01*
X163496666Y-93480000D01*
X163401428Y-93432380D01*
X162210952Y-93765714D02*
X162210952Y-94432380D01*
X162449047Y-93384761D02*
X162687142Y-94099047D01*
X162068095Y-94099047D01*
X161687142Y-94337142D02*
X161639523Y-94384761D01*
X161687142Y-94432380D01*
X161734761Y-94384761D01*
X161687142Y-94337142D01*
X161687142Y-94432380D01*
X160687142Y-94432380D02*
X161258571Y-94432380D01*
X160972857Y-94432380D02*
X160972857Y-93432380D01*
X161068095Y-93575238D01*
X161163333Y-93670476D01*
X161258571Y-93718095D01*
X160115714Y-93860952D02*
X160210952Y-93813333D01*
X160258571Y-93765714D01*
X160306190Y-93670476D01*
X160306190Y-93622857D01*
X160258571Y-93527619D01*
X160210952Y-93480000D01*
X160115714Y-93432380D01*
X159925238Y-93432380D01*
X159830000Y-93480000D01*
X159782380Y-93527619D01*
X159734761Y-93622857D01*
X159734761Y-93670476D01*
X159782380Y-93765714D01*
X159830000Y-93813333D01*
X159925238Y-93860952D01*
X160115714Y-93860952D01*
X160210952Y-93908571D01*
X160258571Y-93956190D01*
X160306190Y-94051428D01*
X160306190Y-94241904D01*
X160258571Y-94337142D01*
X160210952Y-94384761D01*
X160115714Y-94432380D01*
X159925238Y-94432380D01*
X159830000Y-94384761D01*
X159782380Y-94337142D01*
X159734761Y-94241904D01*
X159734761Y-94051428D01*
X159782380Y-93956190D01*
X159830000Y-93908571D01*
X159925238Y-93860952D01*
D12*
G04 #@! TO.C,J2*
X137100000Y-99755000D02*
X137100000Y-97095000D01*
X172720000Y-99755000D02*
X137100000Y-99755000D01*
X172720000Y-97095000D02*
X137100000Y-97095000D01*
X172720000Y-99755000D02*
X172720000Y-97095000D01*
X173990000Y-99755000D02*
X175320000Y-99755000D01*
X175320000Y-99755000D02*
X175320000Y-98425000D01*
G04 #@! TO.C,J3*
X175320000Y-73085000D02*
X175320000Y-71755000D01*
X173990000Y-73085000D02*
X175320000Y-73085000D01*
X172720000Y-73085000D02*
X172720000Y-70425000D01*
X172720000Y-70425000D02*
X137100000Y-70425000D01*
X172720000Y-73085000D02*
X137100000Y-73085000D01*
X137100000Y-73085000D02*
X137100000Y-70425000D01*
G04 #@! TD*
M02*
