G04 #@! TF.GenerationSoftware,KiCad,Pcbnew,(5.1.10)-1*
G04 #@! TF.CreationDate,2021-08-11T19:04:18+09:00*
G04 #@! TF.ProjectId,ESP32_LED,45535033-325f-44c4-9544-2e6b69636164,rev?*
G04 #@! TF.SameCoordinates,Original*
G04 #@! TF.FileFunction,Copper,L1,Top*
G04 #@! TF.FilePolarity,Positive*
%FSLAX46Y46*%
G04 Gerber Fmt 4.6, Leading zero omitted, Abs format (unit mm)*
G04 Created by KiCad (PCBNEW (5.1.10)-1) date 2021-08-11 19:04:18*
%MOMM*%
%LPD*%
G01*
G04 APERTURE LIST*
G04 #@! TA.AperFunction,ComponentPad*
%ADD10C,2.700000*%
G04 #@! TD*
G04 #@! TA.AperFunction,ComponentPad*
%ADD11O,2.000000X5.000000*%
G04 #@! TD*
G04 #@! TA.AperFunction,ComponentPad*
%ADD12O,4.000000X2.000000*%
G04 #@! TD*
G04 #@! TA.AperFunction,ComponentPad*
%ADD13C,3.000000*%
G04 #@! TD*
G04 #@! TA.AperFunction,SMDPad,CuDef*
%ADD14R,2.000000X1.400000*%
G04 #@! TD*
G04 #@! TA.AperFunction,SMDPad,CuDef*
%ADD15R,0.900000X1.500000*%
G04 #@! TD*
G04 #@! TA.AperFunction,SMDPad,CuDef*
%ADD16R,1.500000X0.900000*%
G04 #@! TD*
G04 #@! TA.AperFunction,SMDPad,CuDef*
%ADD17R,4.500000X4.500000*%
G04 #@! TD*
G04 #@! TA.AperFunction,SMDPad,CuDef*
%ADD18R,1.140000X0.300000*%
G04 #@! TD*
G04 #@! TA.AperFunction,ComponentPad*
%ADD19O,1.800000X1.000000*%
G04 #@! TD*
G04 #@! TA.AperFunction,SMDPad,CuDef*
%ADD20R,2.000000X3.800000*%
G04 #@! TD*
G04 #@! TA.AperFunction,SMDPad,CuDef*
%ADD21R,2.000000X1.500000*%
G04 #@! TD*
G04 #@! TA.AperFunction,SMDPad,CuDef*
%ADD22R,1.400000X2.000000*%
G04 #@! TD*
G04 #@! TA.AperFunction,SMDPad,CuDef*
%ADD23R,0.650000X1.050000*%
G04 #@! TD*
G04 #@! TA.AperFunction,SMDPad,CuDef*
%ADD24R,0.700000X0.450000*%
G04 #@! TD*
G04 #@! TA.AperFunction,ComponentPad*
%ADD25R,1.700000X1.700000*%
G04 #@! TD*
G04 #@! TA.AperFunction,ComponentPad*
%ADD26O,1.700000X1.700000*%
G04 #@! TD*
G04 #@! TA.AperFunction,ComponentPad*
%ADD27C,0.500000*%
G04 #@! TD*
G04 #@! TA.AperFunction,ViaPad*
%ADD28C,0.800000*%
G04 #@! TD*
G04 #@! TA.AperFunction,ViaPad*
%ADD29C,0.600000*%
G04 #@! TD*
G04 #@! TA.AperFunction,Conductor*
%ADD30C,0.200000*%
G04 #@! TD*
G04 #@! TA.AperFunction,Conductor*
%ADD31C,0.500000*%
G04 #@! TD*
G04 #@! TA.AperFunction,Conductor*
%ADD32C,0.300000*%
G04 #@! TD*
G04 #@! TA.AperFunction,Conductor*
%ADD33C,0.160000*%
G04 #@! TD*
G04 #@! TA.AperFunction,Conductor*
%ADD34C,0.250000*%
G04 #@! TD*
G04 #@! TA.AperFunction,Conductor*
%ADD35C,1.000000*%
G04 #@! TD*
G04 #@! TA.AperFunction,Conductor*
%ADD36C,0.550000*%
G04 #@! TD*
G04 #@! TA.AperFunction,Conductor*
%ADD37C,0.254000*%
G04 #@! TD*
G04 #@! TA.AperFunction,Conductor*
%ADD38C,0.100000*%
G04 #@! TD*
G04 APERTURE END LIST*
G04 #@! TA.AperFunction,ComponentPad*
G36*
G01*
X118330000Y-74185000D02*
X118330000Y-73135000D01*
G75*
G02*
X118855000Y-72610000I525000J0D01*
G01*
X119905000Y-72610000D01*
G75*
G02*
X120430000Y-73135000I0J-525000D01*
G01*
X120430000Y-74185000D01*
G75*
G02*
X119905000Y-74710000I-525000J0D01*
G01*
X118855000Y-74710000D01*
G75*
G02*
X118330000Y-74185000I0J525000D01*
G01*
G37*
G04 #@! TD.AperFunction*
G04 #@! TA.AperFunction,ComponentPad*
G36*
G01*
X123410000Y-74185000D02*
X123410000Y-73135000D01*
G75*
G02*
X123935000Y-72610000I525000J0D01*
G01*
X124985000Y-72610000D01*
G75*
G02*
X125510000Y-73135000I0J-525000D01*
G01*
X125510000Y-74185000D01*
G75*
G02*
X124985000Y-74710000I-525000J0D01*
G01*
X123935000Y-74710000D01*
G75*
G02*
X123410000Y-74185000I0J525000D01*
G01*
G37*
G04 #@! TD.AperFunction*
G04 #@! TA.AperFunction,ComponentPad*
G36*
G01*
X113250000Y-74185000D02*
X113250000Y-73135000D01*
G75*
G02*
X113775000Y-72610000I525000J0D01*
G01*
X114825000Y-72610000D01*
G75*
G02*
X115350000Y-73135000I0J-525000D01*
G01*
X115350000Y-74185000D01*
G75*
G02*
X114825000Y-74710000I-525000J0D01*
G01*
X113775000Y-74710000D01*
G75*
G02*
X113250000Y-74185000I0J525000D01*
G01*
G37*
G04 #@! TD.AperFunction*
G04 #@! TA.AperFunction,ComponentPad*
G36*
G01*
X128490000Y-74185000D02*
X128490000Y-73135000D01*
G75*
G02*
X129015000Y-72610000I525000J0D01*
G01*
X130065000Y-72610000D01*
G75*
G02*
X130590000Y-73135000I0J-525000D01*
G01*
X130590000Y-74185000D01*
G75*
G02*
X130065000Y-74710000I-525000J0D01*
G01*
X129015000Y-74710000D01*
G75*
G02*
X128490000Y-74185000I0J525000D01*
G01*
G37*
G04 #@! TD.AperFunction*
G04 #@! TA.AperFunction,ComponentPad*
G36*
G01*
X131030000Y-74185000D02*
X131030000Y-73135000D01*
G75*
G02*
X131555000Y-72610000I525000J0D01*
G01*
X132605000Y-72610000D01*
G75*
G02*
X133130000Y-73135000I0J-525000D01*
G01*
X133130000Y-74185000D01*
G75*
G02*
X132605000Y-74710000I-525000J0D01*
G01*
X131555000Y-74710000D01*
G75*
G02*
X131030000Y-74185000I0J525000D01*
G01*
G37*
G04 #@! TD.AperFunction*
G04 #@! TA.AperFunction,ComponentPad*
G36*
G01*
X125950000Y-74185000D02*
X125950000Y-73135000D01*
G75*
G02*
X126475000Y-72610000I525000J0D01*
G01*
X127525000Y-72610000D01*
G75*
G02*
X128050000Y-73135000I0J-525000D01*
G01*
X128050000Y-74185000D01*
G75*
G02*
X127525000Y-74710000I-525000J0D01*
G01*
X126475000Y-74710000D01*
G75*
G02*
X125950000Y-74185000I0J525000D01*
G01*
G37*
G04 #@! TD.AperFunction*
G04 #@! TA.AperFunction,ComponentPad*
G36*
G01*
X120870000Y-74185000D02*
X120870000Y-73135000D01*
G75*
G02*
X121395000Y-72610000I525000J0D01*
G01*
X122445000Y-72610000D01*
G75*
G02*
X122970000Y-73135000I0J-525000D01*
G01*
X122970000Y-74185000D01*
G75*
G02*
X122445000Y-74710000I-525000J0D01*
G01*
X121395000Y-74710000D01*
G75*
G02*
X120870000Y-74185000I0J525000D01*
G01*
G37*
G04 #@! TD.AperFunction*
G04 #@! TA.AperFunction,ComponentPad*
G36*
G01*
X115790000Y-74185000D02*
X115790000Y-73135000D01*
G75*
G02*
X116315000Y-72610000I525000J0D01*
G01*
X117365000Y-72610000D01*
G75*
G02*
X117890000Y-73135000I0J-525000D01*
G01*
X117890000Y-74185000D01*
G75*
G02*
X117365000Y-74710000I-525000J0D01*
G01*
X116315000Y-74710000D01*
G75*
G02*
X115790000Y-74185000I0J525000D01*
G01*
G37*
G04 #@! TD.AperFunction*
G04 #@! TA.AperFunction,ComponentPad*
G36*
G01*
X131030000Y-97045000D02*
X131030000Y-95995000D01*
G75*
G02*
X131555000Y-95470000I525000J0D01*
G01*
X132605000Y-95470000D01*
G75*
G02*
X133130000Y-95995000I0J-525000D01*
G01*
X133130000Y-97045000D01*
G75*
G02*
X132605000Y-97570000I-525000J0D01*
G01*
X131555000Y-97570000D01*
G75*
G02*
X131030000Y-97045000I0J525000D01*
G01*
G37*
G04 #@! TD.AperFunction*
G04 #@! TA.AperFunction,ComponentPad*
G36*
G01*
X128490000Y-97045000D02*
X128490000Y-95995000D01*
G75*
G02*
X129015000Y-95470000I525000J0D01*
G01*
X130065000Y-95470000D01*
G75*
G02*
X130590000Y-95995000I0J-525000D01*
G01*
X130590000Y-97045000D01*
G75*
G02*
X130065000Y-97570000I-525000J0D01*
G01*
X129015000Y-97570000D01*
G75*
G02*
X128490000Y-97045000I0J525000D01*
G01*
G37*
G04 #@! TD.AperFunction*
G04 #@! TA.AperFunction,ComponentPad*
G36*
G01*
X118330000Y-97045000D02*
X118330000Y-95995000D01*
G75*
G02*
X118855000Y-95470000I525000J0D01*
G01*
X119905000Y-95470000D01*
G75*
G02*
X120430000Y-95995000I0J-525000D01*
G01*
X120430000Y-97045000D01*
G75*
G02*
X119905000Y-97570000I-525000J0D01*
G01*
X118855000Y-97570000D01*
G75*
G02*
X118330000Y-97045000I0J525000D01*
G01*
G37*
G04 #@! TD.AperFunction*
G04 #@! TA.AperFunction,ComponentPad*
G36*
G01*
X120870000Y-97045000D02*
X120870000Y-95995000D01*
G75*
G02*
X121395000Y-95470000I525000J0D01*
G01*
X122445000Y-95470000D01*
G75*
G02*
X122970000Y-95995000I0J-525000D01*
G01*
X122970000Y-97045000D01*
G75*
G02*
X122445000Y-97570000I-525000J0D01*
G01*
X121395000Y-97570000D01*
G75*
G02*
X120870000Y-97045000I0J525000D01*
G01*
G37*
G04 #@! TD.AperFunction*
G04 #@! TA.AperFunction,ComponentPad*
G36*
G01*
X125950000Y-97045000D02*
X125950000Y-95995000D01*
G75*
G02*
X126475000Y-95470000I525000J0D01*
G01*
X127525000Y-95470000D01*
G75*
G02*
X128050000Y-95995000I0J-525000D01*
G01*
X128050000Y-97045000D01*
G75*
G02*
X127525000Y-97570000I-525000J0D01*
G01*
X126475000Y-97570000D01*
G75*
G02*
X125950000Y-97045000I0J525000D01*
G01*
G37*
G04 #@! TD.AperFunction*
G04 #@! TA.AperFunction,ComponentPad*
G36*
G01*
X113250000Y-97045000D02*
X113250000Y-95995000D01*
G75*
G02*
X113775000Y-95470000I525000J0D01*
G01*
X114825000Y-95470000D01*
G75*
G02*
X115350000Y-95995000I0J-525000D01*
G01*
X115350000Y-97045000D01*
G75*
G02*
X114825000Y-97570000I-525000J0D01*
G01*
X113775000Y-97570000D01*
G75*
G02*
X113250000Y-97045000I0J525000D01*
G01*
G37*
G04 #@! TD.AperFunction*
G04 #@! TA.AperFunction,ComponentPad*
G36*
G01*
X115790000Y-97045000D02*
X115790000Y-95995000D01*
G75*
G02*
X116315000Y-95470000I525000J0D01*
G01*
X117365000Y-95470000D01*
G75*
G02*
X117890000Y-95995000I0J-525000D01*
G01*
X117890000Y-97045000D01*
G75*
G02*
X117365000Y-97570000I-525000J0D01*
G01*
X116315000Y-97570000D01*
G75*
G02*
X115790000Y-97045000I0J525000D01*
G01*
G37*
G04 #@! TD.AperFunction*
G04 #@! TA.AperFunction,ComponentPad*
G36*
G01*
X123410000Y-97045000D02*
X123410000Y-95995000D01*
G75*
G02*
X123935000Y-95470000I525000J0D01*
G01*
X124985000Y-95470000D01*
G75*
G02*
X125510000Y-95995000I0J-525000D01*
G01*
X125510000Y-97045000D01*
G75*
G02*
X124985000Y-97570000I-525000J0D01*
G01*
X123935000Y-97570000D01*
G75*
G02*
X123410000Y-97045000I0J525000D01*
G01*
G37*
G04 #@! TD.AperFunction*
G04 #@! TA.AperFunction,ComponentPad*
G36*
G01*
X128490000Y-94505000D02*
X128490000Y-93455000D01*
G75*
G02*
X129015000Y-92930000I525000J0D01*
G01*
X130065000Y-92930000D01*
G75*
G02*
X130590000Y-93455000I0J-525000D01*
G01*
X130590000Y-94505000D01*
G75*
G02*
X130065000Y-95030000I-525000J0D01*
G01*
X129015000Y-95030000D01*
G75*
G02*
X128490000Y-94505000I0J525000D01*
G01*
G37*
G04 #@! TD.AperFunction*
G04 #@! TA.AperFunction,ComponentPad*
G36*
G01*
X125950000Y-94505000D02*
X125950000Y-93455000D01*
G75*
G02*
X126475000Y-92930000I525000J0D01*
G01*
X127525000Y-92930000D01*
G75*
G02*
X128050000Y-93455000I0J-525000D01*
G01*
X128050000Y-94505000D01*
G75*
G02*
X127525000Y-95030000I-525000J0D01*
G01*
X126475000Y-95030000D01*
G75*
G02*
X125950000Y-94505000I0J525000D01*
G01*
G37*
G04 #@! TD.AperFunction*
G04 #@! TA.AperFunction,ComponentPad*
G36*
G01*
X115790000Y-94505000D02*
X115790000Y-93455000D01*
G75*
G02*
X116315000Y-92930000I525000J0D01*
G01*
X117365000Y-92930000D01*
G75*
G02*
X117890000Y-93455000I0J-525000D01*
G01*
X117890000Y-94505000D01*
G75*
G02*
X117365000Y-95030000I-525000J0D01*
G01*
X116315000Y-95030000D01*
G75*
G02*
X115790000Y-94505000I0J525000D01*
G01*
G37*
G04 #@! TD.AperFunction*
G04 #@! TA.AperFunction,ComponentPad*
G36*
G01*
X131030000Y-94505000D02*
X131030000Y-93455000D01*
G75*
G02*
X131555000Y-92930000I525000J0D01*
G01*
X132605000Y-92930000D01*
G75*
G02*
X133130000Y-93455000I0J-525000D01*
G01*
X133130000Y-94505000D01*
G75*
G02*
X132605000Y-95030000I-525000J0D01*
G01*
X131555000Y-95030000D01*
G75*
G02*
X131030000Y-94505000I0J525000D01*
G01*
G37*
G04 #@! TD.AperFunction*
G04 #@! TA.AperFunction,ComponentPad*
G36*
G01*
X120870000Y-94505000D02*
X120870000Y-93455000D01*
G75*
G02*
X121395000Y-92930000I525000J0D01*
G01*
X122445000Y-92930000D01*
G75*
G02*
X122970000Y-93455000I0J-525000D01*
G01*
X122970000Y-94505000D01*
G75*
G02*
X122445000Y-95030000I-525000J0D01*
G01*
X121395000Y-95030000D01*
G75*
G02*
X120870000Y-94505000I0J525000D01*
G01*
G37*
G04 #@! TD.AperFunction*
G04 #@! TA.AperFunction,ComponentPad*
G36*
G01*
X118330000Y-94505000D02*
X118330000Y-93455000D01*
G75*
G02*
X118855000Y-92930000I525000J0D01*
G01*
X119905000Y-92930000D01*
G75*
G02*
X120430000Y-93455000I0J-525000D01*
G01*
X120430000Y-94505000D01*
G75*
G02*
X119905000Y-95030000I-525000J0D01*
G01*
X118855000Y-95030000D01*
G75*
G02*
X118330000Y-94505000I0J525000D01*
G01*
G37*
G04 #@! TD.AperFunction*
G04 #@! TA.AperFunction,ComponentPad*
G36*
G01*
X113250000Y-94505000D02*
X113250000Y-93455000D01*
G75*
G02*
X113775000Y-92930000I525000J0D01*
G01*
X114825000Y-92930000D01*
G75*
G02*
X115350000Y-93455000I0J-525000D01*
G01*
X115350000Y-94505000D01*
G75*
G02*
X114825000Y-95030000I-525000J0D01*
G01*
X113775000Y-95030000D01*
G75*
G02*
X113250000Y-94505000I0J525000D01*
G01*
G37*
G04 #@! TD.AperFunction*
G04 #@! TA.AperFunction,ComponentPad*
G36*
G01*
X115790000Y-91965000D02*
X115790000Y-90915000D01*
G75*
G02*
X116315000Y-90390000I525000J0D01*
G01*
X117365000Y-90390000D01*
G75*
G02*
X117890000Y-90915000I0J-525000D01*
G01*
X117890000Y-91965000D01*
G75*
G02*
X117365000Y-92490000I-525000J0D01*
G01*
X116315000Y-92490000D01*
G75*
G02*
X115790000Y-91965000I0J525000D01*
G01*
G37*
G04 #@! TD.AperFunction*
G04 #@! TA.AperFunction,ComponentPad*
G36*
G01*
X123410000Y-89425000D02*
X123410000Y-88375000D01*
G75*
G02*
X123935000Y-87850000I525000J0D01*
G01*
X124985000Y-87850000D01*
G75*
G02*
X125510000Y-88375000I0J-525000D01*
G01*
X125510000Y-89425000D01*
G75*
G02*
X124985000Y-89950000I-525000J0D01*
G01*
X123935000Y-89950000D01*
G75*
G02*
X123410000Y-89425000I0J525000D01*
G01*
G37*
G04 #@! TD.AperFunction*
G04 #@! TA.AperFunction,ComponentPad*
G36*
G01*
X113250000Y-89425000D02*
X113250000Y-88375000D01*
G75*
G02*
X113775000Y-87850000I525000J0D01*
G01*
X114825000Y-87850000D01*
G75*
G02*
X115350000Y-88375000I0J-525000D01*
G01*
X115350000Y-89425000D01*
G75*
G02*
X114825000Y-89950000I-525000J0D01*
G01*
X113775000Y-89950000D01*
G75*
G02*
X113250000Y-89425000I0J525000D01*
G01*
G37*
G04 #@! TD.AperFunction*
G04 #@! TA.AperFunction,ComponentPad*
G36*
G01*
X115790000Y-89425000D02*
X115790000Y-88375000D01*
G75*
G02*
X116315000Y-87850000I525000J0D01*
G01*
X117365000Y-87850000D01*
G75*
G02*
X117890000Y-88375000I0J-525000D01*
G01*
X117890000Y-89425000D01*
G75*
G02*
X117365000Y-89950000I-525000J0D01*
G01*
X116315000Y-89950000D01*
G75*
G02*
X115790000Y-89425000I0J525000D01*
G01*
G37*
G04 #@! TD.AperFunction*
G04 #@! TA.AperFunction,ComponentPad*
G36*
G01*
X113250000Y-86885000D02*
X113250000Y-85835000D01*
G75*
G02*
X113775000Y-85310000I525000J0D01*
G01*
X114825000Y-85310000D01*
G75*
G02*
X115350000Y-85835000I0J-525000D01*
G01*
X115350000Y-86885000D01*
G75*
G02*
X114825000Y-87410000I-525000J0D01*
G01*
X113775000Y-87410000D01*
G75*
G02*
X113250000Y-86885000I0J525000D01*
G01*
G37*
G04 #@! TD.AperFunction*
G04 #@! TA.AperFunction,ComponentPad*
G36*
G01*
X125950000Y-89425000D02*
X125950000Y-88375000D01*
G75*
G02*
X126475000Y-87850000I525000J0D01*
G01*
X127525000Y-87850000D01*
G75*
G02*
X128050000Y-88375000I0J-525000D01*
G01*
X128050000Y-89425000D01*
G75*
G02*
X127525000Y-89950000I-525000J0D01*
G01*
X126475000Y-89950000D01*
G75*
G02*
X125950000Y-89425000I0J525000D01*
G01*
G37*
G04 #@! TD.AperFunction*
G04 #@! TA.AperFunction,ComponentPad*
G36*
G01*
X128490000Y-86885000D02*
X128490000Y-85835000D01*
G75*
G02*
X129015000Y-85310000I525000J0D01*
G01*
X130065000Y-85310000D01*
G75*
G02*
X130590000Y-85835000I0J-525000D01*
G01*
X130590000Y-86885000D01*
G75*
G02*
X130065000Y-87410000I-525000J0D01*
G01*
X129015000Y-87410000D01*
G75*
G02*
X128490000Y-86885000I0J525000D01*
G01*
G37*
G04 #@! TD.AperFunction*
G04 #@! TA.AperFunction,ComponentPad*
G36*
G01*
X125950000Y-91965000D02*
X125950000Y-90915000D01*
G75*
G02*
X126475000Y-90390000I525000J0D01*
G01*
X127525000Y-90390000D01*
G75*
G02*
X128050000Y-90915000I0J-525000D01*
G01*
X128050000Y-91965000D01*
G75*
G02*
X127525000Y-92490000I-525000J0D01*
G01*
X126475000Y-92490000D01*
G75*
G02*
X125950000Y-91965000I0J525000D01*
G01*
G37*
G04 #@! TD.AperFunction*
G04 #@! TA.AperFunction,ComponentPad*
G36*
G01*
X128490000Y-91965000D02*
X128490000Y-90915000D01*
G75*
G02*
X129015000Y-90390000I525000J0D01*
G01*
X130065000Y-90390000D01*
G75*
G02*
X130590000Y-90915000I0J-525000D01*
G01*
X130590000Y-91965000D01*
G75*
G02*
X130065000Y-92490000I-525000J0D01*
G01*
X129015000Y-92490000D01*
G75*
G02*
X128490000Y-91965000I0J525000D01*
G01*
G37*
G04 #@! TD.AperFunction*
G04 #@! TA.AperFunction,ComponentPad*
G36*
G01*
X131030000Y-89425000D02*
X131030000Y-88375000D01*
G75*
G02*
X131555000Y-87850000I525000J0D01*
G01*
X132605000Y-87850000D01*
G75*
G02*
X133130000Y-88375000I0J-525000D01*
G01*
X133130000Y-89425000D01*
G75*
G02*
X132605000Y-89950000I-525000J0D01*
G01*
X131555000Y-89950000D01*
G75*
G02*
X131030000Y-89425000I0J525000D01*
G01*
G37*
G04 #@! TD.AperFunction*
G04 #@! TA.AperFunction,ComponentPad*
G36*
G01*
X120870000Y-89425000D02*
X120870000Y-88375000D01*
G75*
G02*
X121395000Y-87850000I525000J0D01*
G01*
X122445000Y-87850000D01*
G75*
G02*
X122970000Y-88375000I0J-525000D01*
G01*
X122970000Y-89425000D01*
G75*
G02*
X122445000Y-89950000I-525000J0D01*
G01*
X121395000Y-89950000D01*
G75*
G02*
X120870000Y-89425000I0J525000D01*
G01*
G37*
G04 #@! TD.AperFunction*
G04 #@! TA.AperFunction,ComponentPad*
G36*
G01*
X118330000Y-89425000D02*
X118330000Y-88375000D01*
G75*
G02*
X118855000Y-87850000I525000J0D01*
G01*
X119905000Y-87850000D01*
G75*
G02*
X120430000Y-88375000I0J-525000D01*
G01*
X120430000Y-89425000D01*
G75*
G02*
X119905000Y-89950000I-525000J0D01*
G01*
X118855000Y-89950000D01*
G75*
G02*
X118330000Y-89425000I0J525000D01*
G01*
G37*
G04 #@! TD.AperFunction*
G04 #@! TA.AperFunction,ComponentPad*
G36*
G01*
X131030000Y-91965000D02*
X131030000Y-90915000D01*
G75*
G02*
X131555000Y-90390000I525000J0D01*
G01*
X132605000Y-90390000D01*
G75*
G02*
X133130000Y-90915000I0J-525000D01*
G01*
X133130000Y-91965000D01*
G75*
G02*
X132605000Y-92490000I-525000J0D01*
G01*
X131555000Y-92490000D01*
G75*
G02*
X131030000Y-91965000I0J525000D01*
G01*
G37*
G04 #@! TD.AperFunction*
G04 #@! TA.AperFunction,ComponentPad*
G36*
G01*
X120870000Y-91965000D02*
X120870000Y-90915000D01*
G75*
G02*
X121395000Y-90390000I525000J0D01*
G01*
X122445000Y-90390000D01*
G75*
G02*
X122970000Y-90915000I0J-525000D01*
G01*
X122970000Y-91965000D01*
G75*
G02*
X122445000Y-92490000I-525000J0D01*
G01*
X121395000Y-92490000D01*
G75*
G02*
X120870000Y-91965000I0J525000D01*
G01*
G37*
G04 #@! TD.AperFunction*
G04 #@! TA.AperFunction,ComponentPad*
G36*
G01*
X118330000Y-91965000D02*
X118330000Y-90915000D01*
G75*
G02*
X118855000Y-90390000I525000J0D01*
G01*
X119905000Y-90390000D01*
G75*
G02*
X120430000Y-90915000I0J-525000D01*
G01*
X120430000Y-91965000D01*
G75*
G02*
X119905000Y-92490000I-525000J0D01*
G01*
X118855000Y-92490000D01*
G75*
G02*
X118330000Y-91965000I0J525000D01*
G01*
G37*
G04 #@! TD.AperFunction*
G04 #@! TA.AperFunction,ComponentPad*
G36*
G01*
X131030000Y-86885000D02*
X131030000Y-85835000D01*
G75*
G02*
X131555000Y-85310000I525000J0D01*
G01*
X132605000Y-85310000D01*
G75*
G02*
X133130000Y-85835000I0J-525000D01*
G01*
X133130000Y-86885000D01*
G75*
G02*
X132605000Y-87410000I-525000J0D01*
G01*
X131555000Y-87410000D01*
G75*
G02*
X131030000Y-86885000I0J525000D01*
G01*
G37*
G04 #@! TD.AperFunction*
G04 #@! TA.AperFunction,ComponentPad*
G36*
G01*
X118330000Y-86885000D02*
X118330000Y-85835000D01*
G75*
G02*
X118855000Y-85310000I525000J0D01*
G01*
X119905000Y-85310000D01*
G75*
G02*
X120430000Y-85835000I0J-525000D01*
G01*
X120430000Y-86885000D01*
G75*
G02*
X119905000Y-87410000I-525000J0D01*
G01*
X118855000Y-87410000D01*
G75*
G02*
X118330000Y-86885000I0J525000D01*
G01*
G37*
G04 #@! TD.AperFunction*
G04 #@! TA.AperFunction,ComponentPad*
G36*
G01*
X125950000Y-86885000D02*
X125950000Y-85835000D01*
G75*
G02*
X126475000Y-85310000I525000J0D01*
G01*
X127525000Y-85310000D01*
G75*
G02*
X128050000Y-85835000I0J-525000D01*
G01*
X128050000Y-86885000D01*
G75*
G02*
X127525000Y-87410000I-525000J0D01*
G01*
X126475000Y-87410000D01*
G75*
G02*
X125950000Y-86885000I0J525000D01*
G01*
G37*
G04 #@! TD.AperFunction*
G04 #@! TA.AperFunction,ComponentPad*
G36*
G01*
X115790000Y-86885000D02*
X115790000Y-85835000D01*
G75*
G02*
X116315000Y-85310000I525000J0D01*
G01*
X117365000Y-85310000D01*
G75*
G02*
X117890000Y-85835000I0J-525000D01*
G01*
X117890000Y-86885000D01*
G75*
G02*
X117365000Y-87410000I-525000J0D01*
G01*
X116315000Y-87410000D01*
G75*
G02*
X115790000Y-86885000I0J525000D01*
G01*
G37*
G04 #@! TD.AperFunction*
G04 #@! TA.AperFunction,ComponentPad*
G36*
G01*
X123410000Y-86885000D02*
X123410000Y-85835000D01*
G75*
G02*
X123935000Y-85310000I525000J0D01*
G01*
X124985000Y-85310000D01*
G75*
G02*
X125510000Y-85835000I0J-525000D01*
G01*
X125510000Y-86885000D01*
G75*
G02*
X124985000Y-87410000I-525000J0D01*
G01*
X123935000Y-87410000D01*
G75*
G02*
X123410000Y-86885000I0J525000D01*
G01*
G37*
G04 #@! TD.AperFunction*
G04 #@! TA.AperFunction,ComponentPad*
G36*
G01*
X123410000Y-94505000D02*
X123410000Y-93455000D01*
G75*
G02*
X123935000Y-92930000I525000J0D01*
G01*
X124985000Y-92930000D01*
G75*
G02*
X125510000Y-93455000I0J-525000D01*
G01*
X125510000Y-94505000D01*
G75*
G02*
X124985000Y-95030000I-525000J0D01*
G01*
X123935000Y-95030000D01*
G75*
G02*
X123410000Y-94505000I0J525000D01*
G01*
G37*
G04 #@! TD.AperFunction*
G04 #@! TA.AperFunction,ComponentPad*
G36*
G01*
X128490000Y-89425000D02*
X128490000Y-88375000D01*
G75*
G02*
X129015000Y-87850000I525000J0D01*
G01*
X130065000Y-87850000D01*
G75*
G02*
X130590000Y-88375000I0J-525000D01*
G01*
X130590000Y-89425000D01*
G75*
G02*
X130065000Y-89950000I-525000J0D01*
G01*
X129015000Y-89950000D01*
G75*
G02*
X128490000Y-89425000I0J525000D01*
G01*
G37*
G04 #@! TD.AperFunction*
G04 #@! TA.AperFunction,ComponentPad*
G36*
G01*
X123410000Y-91965000D02*
X123410000Y-90915000D01*
G75*
G02*
X123935000Y-90390000I525000J0D01*
G01*
X124985000Y-90390000D01*
G75*
G02*
X125510000Y-90915000I0J-525000D01*
G01*
X125510000Y-91965000D01*
G75*
G02*
X124985000Y-92490000I-525000J0D01*
G01*
X123935000Y-92490000D01*
G75*
G02*
X123410000Y-91965000I0J525000D01*
G01*
G37*
G04 #@! TD.AperFunction*
G04 #@! TA.AperFunction,ComponentPad*
G36*
G01*
X113250000Y-91965000D02*
X113250000Y-90915000D01*
G75*
G02*
X113775000Y-90390000I525000J0D01*
G01*
X114825000Y-90390000D01*
G75*
G02*
X115350000Y-90915000I0J-525000D01*
G01*
X115350000Y-91965000D01*
G75*
G02*
X114825000Y-92490000I-525000J0D01*
G01*
X113775000Y-92490000D01*
G75*
G02*
X113250000Y-91965000I0J525000D01*
G01*
G37*
G04 #@! TD.AperFunction*
G04 #@! TA.AperFunction,ComponentPad*
G36*
G01*
X120870000Y-86885000D02*
X120870000Y-85835000D01*
G75*
G02*
X121395000Y-85310000I525000J0D01*
G01*
X122445000Y-85310000D01*
G75*
G02*
X122970000Y-85835000I0J-525000D01*
G01*
X122970000Y-86885000D01*
G75*
G02*
X122445000Y-87410000I-525000J0D01*
G01*
X121395000Y-87410000D01*
G75*
G02*
X120870000Y-86885000I0J525000D01*
G01*
G37*
G04 #@! TD.AperFunction*
G04 #@! TA.AperFunction,ComponentPad*
G36*
G01*
X115790000Y-84345000D02*
X115790000Y-83295000D01*
G75*
G02*
X116315000Y-82770000I525000J0D01*
G01*
X117365000Y-82770000D01*
G75*
G02*
X117890000Y-83295000I0J-525000D01*
G01*
X117890000Y-84345000D01*
G75*
G02*
X117365000Y-84870000I-525000J0D01*
G01*
X116315000Y-84870000D01*
G75*
G02*
X115790000Y-84345000I0J525000D01*
G01*
G37*
G04 #@! TD.AperFunction*
G04 #@! TA.AperFunction,ComponentPad*
G36*
G01*
X125950000Y-84345000D02*
X125950000Y-83295000D01*
G75*
G02*
X126475000Y-82770000I525000J0D01*
G01*
X127525000Y-82770000D01*
G75*
G02*
X128050000Y-83295000I0J-525000D01*
G01*
X128050000Y-84345000D01*
G75*
G02*
X127525000Y-84870000I-525000J0D01*
G01*
X126475000Y-84870000D01*
G75*
G02*
X125950000Y-84345000I0J525000D01*
G01*
G37*
G04 #@! TD.AperFunction*
G04 #@! TA.AperFunction,ComponentPad*
G36*
G01*
X128490000Y-84345000D02*
X128490000Y-83295000D01*
G75*
G02*
X129015000Y-82770000I525000J0D01*
G01*
X130065000Y-82770000D01*
G75*
G02*
X130590000Y-83295000I0J-525000D01*
G01*
X130590000Y-84345000D01*
G75*
G02*
X130065000Y-84870000I-525000J0D01*
G01*
X129015000Y-84870000D01*
G75*
G02*
X128490000Y-84345000I0J525000D01*
G01*
G37*
G04 #@! TD.AperFunction*
G04 #@! TA.AperFunction,ComponentPad*
G36*
G01*
X131030000Y-84345000D02*
X131030000Y-83295000D01*
G75*
G02*
X131555000Y-82770000I525000J0D01*
G01*
X132605000Y-82770000D01*
G75*
G02*
X133130000Y-83295000I0J-525000D01*
G01*
X133130000Y-84345000D01*
G75*
G02*
X132605000Y-84870000I-525000J0D01*
G01*
X131555000Y-84870000D01*
G75*
G02*
X131030000Y-84345000I0J525000D01*
G01*
G37*
G04 #@! TD.AperFunction*
G04 #@! TA.AperFunction,ComponentPad*
G36*
G01*
X120870000Y-84345000D02*
X120870000Y-83295000D01*
G75*
G02*
X121395000Y-82770000I525000J0D01*
G01*
X122445000Y-82770000D01*
G75*
G02*
X122970000Y-83295000I0J-525000D01*
G01*
X122970000Y-84345000D01*
G75*
G02*
X122445000Y-84870000I-525000J0D01*
G01*
X121395000Y-84870000D01*
G75*
G02*
X120870000Y-84345000I0J525000D01*
G01*
G37*
G04 #@! TD.AperFunction*
G04 #@! TA.AperFunction,ComponentPad*
G36*
G01*
X118330000Y-84345000D02*
X118330000Y-83295000D01*
G75*
G02*
X118855000Y-82770000I525000J0D01*
G01*
X119905000Y-82770000D01*
G75*
G02*
X120430000Y-83295000I0J-525000D01*
G01*
X120430000Y-84345000D01*
G75*
G02*
X119905000Y-84870000I-525000J0D01*
G01*
X118855000Y-84870000D01*
G75*
G02*
X118330000Y-84345000I0J525000D01*
G01*
G37*
G04 #@! TD.AperFunction*
G04 #@! TA.AperFunction,ComponentPad*
G36*
G01*
X123410000Y-84345000D02*
X123410000Y-83295000D01*
G75*
G02*
X123935000Y-82770000I525000J0D01*
G01*
X124985000Y-82770000D01*
G75*
G02*
X125510000Y-83295000I0J-525000D01*
G01*
X125510000Y-84345000D01*
G75*
G02*
X124985000Y-84870000I-525000J0D01*
G01*
X123935000Y-84870000D01*
G75*
G02*
X123410000Y-84345000I0J525000D01*
G01*
G37*
G04 #@! TD.AperFunction*
G04 #@! TA.AperFunction,ComponentPad*
G36*
G01*
X113250000Y-84345000D02*
X113250000Y-83295000D01*
G75*
G02*
X113775000Y-82770000I525000J0D01*
G01*
X114825000Y-82770000D01*
G75*
G02*
X115350000Y-83295000I0J-525000D01*
G01*
X115350000Y-84345000D01*
G75*
G02*
X114825000Y-84870000I-525000J0D01*
G01*
X113775000Y-84870000D01*
G75*
G02*
X113250000Y-84345000I0J525000D01*
G01*
G37*
G04 #@! TD.AperFunction*
G04 #@! TA.AperFunction,ComponentPad*
G36*
G01*
X123410000Y-81805000D02*
X123410000Y-80755000D01*
G75*
G02*
X123935000Y-80230000I525000J0D01*
G01*
X124985000Y-80230000D01*
G75*
G02*
X125510000Y-80755000I0J-525000D01*
G01*
X125510000Y-81805000D01*
G75*
G02*
X124985000Y-82330000I-525000J0D01*
G01*
X123935000Y-82330000D01*
G75*
G02*
X123410000Y-81805000I0J525000D01*
G01*
G37*
G04 #@! TD.AperFunction*
G04 #@! TA.AperFunction,ComponentPad*
G36*
G01*
X113250000Y-81805000D02*
X113250000Y-80755000D01*
G75*
G02*
X113775000Y-80230000I525000J0D01*
G01*
X114825000Y-80230000D01*
G75*
G02*
X115350000Y-80755000I0J-525000D01*
G01*
X115350000Y-81805000D01*
G75*
G02*
X114825000Y-82330000I-525000J0D01*
G01*
X113775000Y-82330000D01*
G75*
G02*
X113250000Y-81805000I0J525000D01*
G01*
G37*
G04 #@! TD.AperFunction*
G04 #@! TA.AperFunction,ComponentPad*
G36*
G01*
X115790000Y-81805000D02*
X115790000Y-80755000D01*
G75*
G02*
X116315000Y-80230000I525000J0D01*
G01*
X117365000Y-80230000D01*
G75*
G02*
X117890000Y-80755000I0J-525000D01*
G01*
X117890000Y-81805000D01*
G75*
G02*
X117365000Y-82330000I-525000J0D01*
G01*
X116315000Y-82330000D01*
G75*
G02*
X115790000Y-81805000I0J525000D01*
G01*
G37*
G04 #@! TD.AperFunction*
G04 #@! TA.AperFunction,ComponentPad*
G36*
G01*
X125950000Y-81805000D02*
X125950000Y-80755000D01*
G75*
G02*
X126475000Y-80230000I525000J0D01*
G01*
X127525000Y-80230000D01*
G75*
G02*
X128050000Y-80755000I0J-525000D01*
G01*
X128050000Y-81805000D01*
G75*
G02*
X127525000Y-82330000I-525000J0D01*
G01*
X126475000Y-82330000D01*
G75*
G02*
X125950000Y-81805000I0J525000D01*
G01*
G37*
G04 #@! TD.AperFunction*
G04 #@! TA.AperFunction,ComponentPad*
G36*
G01*
X131030000Y-81805000D02*
X131030000Y-80755000D01*
G75*
G02*
X131555000Y-80230000I525000J0D01*
G01*
X132605000Y-80230000D01*
G75*
G02*
X133130000Y-80755000I0J-525000D01*
G01*
X133130000Y-81805000D01*
G75*
G02*
X132605000Y-82330000I-525000J0D01*
G01*
X131555000Y-82330000D01*
G75*
G02*
X131030000Y-81805000I0J525000D01*
G01*
G37*
G04 #@! TD.AperFunction*
G04 #@! TA.AperFunction,ComponentPad*
G36*
G01*
X120870000Y-81805000D02*
X120870000Y-80755000D01*
G75*
G02*
X121395000Y-80230000I525000J0D01*
G01*
X122445000Y-80230000D01*
G75*
G02*
X122970000Y-80755000I0J-525000D01*
G01*
X122970000Y-81805000D01*
G75*
G02*
X122445000Y-82330000I-525000J0D01*
G01*
X121395000Y-82330000D01*
G75*
G02*
X120870000Y-81805000I0J525000D01*
G01*
G37*
G04 #@! TD.AperFunction*
G04 #@! TA.AperFunction,ComponentPad*
G36*
G01*
X118330000Y-81805000D02*
X118330000Y-80755000D01*
G75*
G02*
X118855000Y-80230000I525000J0D01*
G01*
X119905000Y-80230000D01*
G75*
G02*
X120430000Y-80755000I0J-525000D01*
G01*
X120430000Y-81805000D01*
G75*
G02*
X119905000Y-82330000I-525000J0D01*
G01*
X118855000Y-82330000D01*
G75*
G02*
X118330000Y-81805000I0J525000D01*
G01*
G37*
G04 #@! TD.AperFunction*
G04 #@! TA.AperFunction,ComponentPad*
G36*
G01*
X128490000Y-81805000D02*
X128490000Y-80755000D01*
G75*
G02*
X129015000Y-80230000I525000J0D01*
G01*
X130065000Y-80230000D01*
G75*
G02*
X130590000Y-80755000I0J-525000D01*
G01*
X130590000Y-81805000D01*
G75*
G02*
X130065000Y-82330000I-525000J0D01*
G01*
X129015000Y-82330000D01*
G75*
G02*
X128490000Y-81805000I0J525000D01*
G01*
G37*
G04 #@! TD.AperFunction*
G04 #@! TA.AperFunction,ComponentPad*
G36*
G01*
X113250000Y-79265000D02*
X113250000Y-78215000D01*
G75*
G02*
X113775000Y-77690000I525000J0D01*
G01*
X114825000Y-77690000D01*
G75*
G02*
X115350000Y-78215000I0J-525000D01*
G01*
X115350000Y-79265000D01*
G75*
G02*
X114825000Y-79790000I-525000J0D01*
G01*
X113775000Y-79790000D01*
G75*
G02*
X113250000Y-79265000I0J525000D01*
G01*
G37*
G04 #@! TD.AperFunction*
G04 #@! TA.AperFunction,ComponentPad*
G36*
G01*
X128490000Y-79265000D02*
X128490000Y-78215000D01*
G75*
G02*
X129015000Y-77690000I525000J0D01*
G01*
X130065000Y-77690000D01*
G75*
G02*
X130590000Y-78215000I0J-525000D01*
G01*
X130590000Y-79265000D01*
G75*
G02*
X130065000Y-79790000I-525000J0D01*
G01*
X129015000Y-79790000D01*
G75*
G02*
X128490000Y-79265000I0J525000D01*
G01*
G37*
G04 #@! TD.AperFunction*
G04 #@! TA.AperFunction,ComponentPad*
G36*
G01*
X131030000Y-79265000D02*
X131030000Y-78215000D01*
G75*
G02*
X131555000Y-77690000I525000J0D01*
G01*
X132605000Y-77690000D01*
G75*
G02*
X133130000Y-78215000I0J-525000D01*
G01*
X133130000Y-79265000D01*
G75*
G02*
X132605000Y-79790000I-525000J0D01*
G01*
X131555000Y-79790000D01*
G75*
G02*
X131030000Y-79265000I0J525000D01*
G01*
G37*
G04 #@! TD.AperFunction*
G04 #@! TA.AperFunction,ComponentPad*
G36*
G01*
X118330000Y-79265000D02*
X118330000Y-78215000D01*
G75*
G02*
X118855000Y-77690000I525000J0D01*
G01*
X119905000Y-77690000D01*
G75*
G02*
X120430000Y-78215000I0J-525000D01*
G01*
X120430000Y-79265000D01*
G75*
G02*
X119905000Y-79790000I-525000J0D01*
G01*
X118855000Y-79790000D01*
G75*
G02*
X118330000Y-79265000I0J525000D01*
G01*
G37*
G04 #@! TD.AperFunction*
G04 #@! TA.AperFunction,ComponentPad*
G36*
G01*
X125950000Y-79265000D02*
X125950000Y-78215000D01*
G75*
G02*
X126475000Y-77690000I525000J0D01*
G01*
X127525000Y-77690000D01*
G75*
G02*
X128050000Y-78215000I0J-525000D01*
G01*
X128050000Y-79265000D01*
G75*
G02*
X127525000Y-79790000I-525000J0D01*
G01*
X126475000Y-79790000D01*
G75*
G02*
X125950000Y-79265000I0J525000D01*
G01*
G37*
G04 #@! TD.AperFunction*
G04 #@! TA.AperFunction,ComponentPad*
G36*
G01*
X115790000Y-79265000D02*
X115790000Y-78215000D01*
G75*
G02*
X116315000Y-77690000I525000J0D01*
G01*
X117365000Y-77690000D01*
G75*
G02*
X117890000Y-78215000I0J-525000D01*
G01*
X117890000Y-79265000D01*
G75*
G02*
X117365000Y-79790000I-525000J0D01*
G01*
X116315000Y-79790000D01*
G75*
G02*
X115790000Y-79265000I0J525000D01*
G01*
G37*
G04 #@! TD.AperFunction*
G04 #@! TA.AperFunction,ComponentPad*
G36*
G01*
X123410000Y-79265000D02*
X123410000Y-78215000D01*
G75*
G02*
X123935000Y-77690000I525000J0D01*
G01*
X124985000Y-77690000D01*
G75*
G02*
X125510000Y-78215000I0J-525000D01*
G01*
X125510000Y-79265000D01*
G75*
G02*
X124985000Y-79790000I-525000J0D01*
G01*
X123935000Y-79790000D01*
G75*
G02*
X123410000Y-79265000I0J525000D01*
G01*
G37*
G04 #@! TD.AperFunction*
G04 #@! TA.AperFunction,ComponentPad*
G36*
G01*
X120870000Y-79265000D02*
X120870000Y-78215000D01*
G75*
G02*
X121395000Y-77690000I525000J0D01*
G01*
X122445000Y-77690000D01*
G75*
G02*
X122970000Y-78215000I0J-525000D01*
G01*
X122970000Y-79265000D01*
G75*
G02*
X122445000Y-79790000I-525000J0D01*
G01*
X121395000Y-79790000D01*
G75*
G02*
X120870000Y-79265000I0J525000D01*
G01*
G37*
G04 #@! TD.AperFunction*
G04 #@! TA.AperFunction,ComponentPad*
G36*
G01*
X131030000Y-76725000D02*
X131030000Y-75675000D01*
G75*
G02*
X131555000Y-75150000I525000J0D01*
G01*
X132605000Y-75150000D01*
G75*
G02*
X133130000Y-75675000I0J-525000D01*
G01*
X133130000Y-76725000D01*
G75*
G02*
X132605000Y-77250000I-525000J0D01*
G01*
X131555000Y-77250000D01*
G75*
G02*
X131030000Y-76725000I0J525000D01*
G01*
G37*
G04 #@! TD.AperFunction*
G04 #@! TA.AperFunction,ComponentPad*
G36*
G01*
X128490000Y-76725000D02*
X128490000Y-75675000D01*
G75*
G02*
X129015000Y-75150000I525000J0D01*
G01*
X130065000Y-75150000D01*
G75*
G02*
X130590000Y-75675000I0J-525000D01*
G01*
X130590000Y-76725000D01*
G75*
G02*
X130065000Y-77250000I-525000J0D01*
G01*
X129015000Y-77250000D01*
G75*
G02*
X128490000Y-76725000I0J525000D01*
G01*
G37*
G04 #@! TD.AperFunction*
G04 #@! TA.AperFunction,ComponentPad*
G36*
G01*
X125950000Y-76725000D02*
X125950000Y-75675000D01*
G75*
G02*
X126475000Y-75150000I525000J0D01*
G01*
X127525000Y-75150000D01*
G75*
G02*
X128050000Y-75675000I0J-525000D01*
G01*
X128050000Y-76725000D01*
G75*
G02*
X127525000Y-77250000I-525000J0D01*
G01*
X126475000Y-77250000D01*
G75*
G02*
X125950000Y-76725000I0J525000D01*
G01*
G37*
G04 #@! TD.AperFunction*
G04 #@! TA.AperFunction,ComponentPad*
G36*
G01*
X123410000Y-76725000D02*
X123410000Y-75675000D01*
G75*
G02*
X123935000Y-75150000I525000J0D01*
G01*
X124985000Y-75150000D01*
G75*
G02*
X125510000Y-75675000I0J-525000D01*
G01*
X125510000Y-76725000D01*
G75*
G02*
X124985000Y-77250000I-525000J0D01*
G01*
X123935000Y-77250000D01*
G75*
G02*
X123410000Y-76725000I0J525000D01*
G01*
G37*
G04 #@! TD.AperFunction*
G04 #@! TA.AperFunction,ComponentPad*
G36*
G01*
X120870000Y-76725000D02*
X120870000Y-75675000D01*
G75*
G02*
X121395000Y-75150000I525000J0D01*
G01*
X122445000Y-75150000D01*
G75*
G02*
X122970000Y-75675000I0J-525000D01*
G01*
X122970000Y-76725000D01*
G75*
G02*
X122445000Y-77250000I-525000J0D01*
G01*
X121395000Y-77250000D01*
G75*
G02*
X120870000Y-76725000I0J525000D01*
G01*
G37*
G04 #@! TD.AperFunction*
G04 #@! TA.AperFunction,ComponentPad*
G36*
G01*
X118330000Y-76725000D02*
X118330000Y-75675000D01*
G75*
G02*
X118855000Y-75150000I525000J0D01*
G01*
X119905000Y-75150000D01*
G75*
G02*
X120430000Y-75675000I0J-525000D01*
G01*
X120430000Y-76725000D01*
G75*
G02*
X119905000Y-77250000I-525000J0D01*
G01*
X118855000Y-77250000D01*
G75*
G02*
X118330000Y-76725000I0J525000D01*
G01*
G37*
G04 #@! TD.AperFunction*
G04 #@! TA.AperFunction,ComponentPad*
G36*
G01*
X115790000Y-76725000D02*
X115790000Y-75675000D01*
G75*
G02*
X116315000Y-75150000I525000J0D01*
G01*
X117365000Y-75150000D01*
G75*
G02*
X117890000Y-75675000I0J-525000D01*
G01*
X117890000Y-76725000D01*
G75*
G02*
X117365000Y-77250000I-525000J0D01*
G01*
X116315000Y-77250000D01*
G75*
G02*
X115790000Y-76725000I0J525000D01*
G01*
G37*
G04 #@! TD.AperFunction*
G04 #@! TA.AperFunction,ComponentPad*
G36*
G01*
X113250000Y-76725000D02*
X113250000Y-75675000D01*
G75*
G02*
X113775000Y-75150000I525000J0D01*
G01*
X114825000Y-75150000D01*
G75*
G02*
X115350000Y-75675000I0J-525000D01*
G01*
X115350000Y-76725000D01*
G75*
G02*
X114825000Y-77250000I-525000J0D01*
G01*
X113775000Y-77250000D01*
G75*
G02*
X113250000Y-76725000I0J525000D01*
G01*
G37*
G04 #@! TD.AperFunction*
G04 #@! TA.AperFunction,ComponentPad*
G36*
G01*
X106900001Y-72730000D02*
X109099999Y-72730000D01*
G75*
G02*
X109350000Y-72980001I0J-250001D01*
G01*
X109350000Y-75179999D01*
G75*
G02*
X109099999Y-75430000I-250001J0D01*
G01*
X106900001Y-75430000D01*
G75*
G02*
X106650000Y-75179999I0J250001D01*
G01*
X106650000Y-72980001D01*
G75*
G02*
X106900001Y-72730000I250001J0D01*
G01*
G37*
G04 #@! TD.AperFunction*
D10*
X108000000Y-78040000D03*
X108000000Y-82000000D03*
D11*
X93250000Y-85000000D03*
D12*
X92750000Y-89750000D03*
D13*
X99250000Y-85000000D03*
D12*
X92750000Y-80250000D03*
D14*
X165100000Y-80092000D03*
X165100000Y-75692000D03*
D15*
X143322000Y-94080000D03*
X144592000Y-94080000D03*
X145862000Y-94080000D03*
X147132000Y-94080000D03*
X148402000Y-94080000D03*
X149672000Y-94080000D03*
X150942000Y-94080000D03*
X152212000Y-94080000D03*
X153482000Y-94080000D03*
X154752000Y-94080000D03*
X156022000Y-94080000D03*
X157292000Y-94080000D03*
X158562000Y-94080000D03*
X159832000Y-94080000D03*
D16*
X161332000Y-90890000D03*
X161332000Y-89620000D03*
X161332000Y-88350000D03*
X161332000Y-87080000D03*
X161332000Y-85810000D03*
X161332000Y-84540000D03*
X161332000Y-83270000D03*
X161332000Y-82000000D03*
X161332000Y-80730000D03*
X161332000Y-79460000D03*
D15*
X159832000Y-76280000D03*
X158562000Y-76280000D03*
X157292000Y-76280000D03*
X156022000Y-76280000D03*
X154752000Y-76280000D03*
X153482000Y-76280000D03*
X152212000Y-76280000D03*
X150942000Y-76280000D03*
X149672000Y-76280000D03*
X148402000Y-76280000D03*
X147132000Y-76280000D03*
X145862000Y-76280000D03*
X144592000Y-76280000D03*
X143322000Y-76280000D03*
D17*
X150662000Y-85760000D03*
D10*
X108000000Y-95920000D03*
X108000000Y-91960000D03*
G04 #@! TA.AperFunction,ComponentPad*
G36*
G01*
X106900001Y-86650000D02*
X109099999Y-86650000D01*
G75*
G02*
X109350000Y-86900001I0J-250001D01*
G01*
X109350000Y-89099999D01*
G75*
G02*
X109099999Y-89350000I-250001J0D01*
G01*
X106900001Y-89350000D01*
G75*
G02*
X106650000Y-89099999I0J250001D01*
G01*
X106650000Y-86900001D01*
G75*
G02*
X106900001Y-86650000I250001J0D01*
G01*
G37*
G04 #@! TD.AperFunction*
D18*
X177292000Y-88350000D03*
X177292000Y-86250000D03*
X177292000Y-85750000D03*
X177292000Y-85250000D03*
X177292000Y-84750000D03*
X177292000Y-84250000D03*
X177292000Y-83750000D03*
D19*
X177857000Y-89320000D03*
D18*
X177292000Y-88050000D03*
X177292000Y-86750000D03*
X177292000Y-87550000D03*
X177292000Y-87250000D03*
X177292000Y-83250000D03*
X177292000Y-82750000D03*
X177292000Y-82450000D03*
X177292000Y-81950000D03*
X177292000Y-81650000D03*
D19*
X182047000Y-89320000D03*
X177857000Y-80680000D03*
X182047000Y-80680000D03*
D20*
X175972000Y-77470000D03*
D21*
X169672000Y-77470000D03*
X169672000Y-79770000D03*
X169672000Y-75170000D03*
D22*
X167050000Y-82804000D03*
X171450000Y-82804000D03*
D23*
X174693000Y-91440000D03*
X176843000Y-91440000D03*
X176843000Y-95590000D03*
X174693000Y-95590000D03*
D24*
X167507075Y-94219000D03*
X167507075Y-95519000D03*
X169507075Y-94869000D03*
D23*
X171078000Y-95590000D03*
X173228000Y-95590000D03*
X173228000Y-91440000D03*
X171078000Y-91440000D03*
D25*
X173990000Y-98425000D03*
D26*
X171450000Y-98425000D03*
X168910000Y-98425000D03*
X166370000Y-98425000D03*
X163830000Y-98425000D03*
X161290000Y-98425000D03*
X158750000Y-98425000D03*
X156210000Y-98425000D03*
X153670000Y-98425000D03*
X151130000Y-98425000D03*
X148590000Y-98425000D03*
X146050000Y-98425000D03*
X143510000Y-98425000D03*
X140970000Y-98425000D03*
X138430000Y-98425000D03*
G04 #@! TA.AperFunction,SMDPad,CuDef*
G36*
G01*
X164851500Y-87119750D02*
X164851500Y-87632250D01*
G75*
G02*
X164632750Y-87851000I-218750J0D01*
G01*
X164195250Y-87851000D01*
G75*
G02*
X163976500Y-87632250I0J218750D01*
G01*
X163976500Y-87119750D01*
G75*
G02*
X164195250Y-86901000I218750J0D01*
G01*
X164632750Y-86901000D01*
G75*
G02*
X164851500Y-87119750I0J-218750D01*
G01*
G37*
G04 #@! TD.AperFunction*
G04 #@! TA.AperFunction,SMDPad,CuDef*
G36*
G01*
X166426500Y-87119750D02*
X166426500Y-87632250D01*
G75*
G02*
X166207750Y-87851000I-218750J0D01*
G01*
X165770250Y-87851000D01*
G75*
G02*
X165551500Y-87632250I0J218750D01*
G01*
X165551500Y-87119750D01*
G75*
G02*
X165770250Y-86901000I218750J0D01*
G01*
X166207750Y-86901000D01*
G75*
G02*
X166426500Y-87119750I0J-218750D01*
G01*
G37*
G04 #@! TD.AperFunction*
X138430000Y-71755000D03*
X140970000Y-71755000D03*
X143510000Y-71755000D03*
X146050000Y-71755000D03*
X148590000Y-71755000D03*
X151130000Y-71755000D03*
X153670000Y-71755000D03*
X156210000Y-71755000D03*
X158750000Y-71755000D03*
X161290000Y-71755000D03*
X163830000Y-71755000D03*
X166370000Y-71755000D03*
X168910000Y-71755000D03*
X171450000Y-71755000D03*
D25*
X173990000Y-71755000D03*
G04 #@! TA.AperFunction,SMDPad,CuDef*
G36*
G01*
X170829000Y-86277100D02*
X170829000Y-88474900D01*
G75*
G02*
X170577900Y-88726000I-251100J0D01*
G01*
X168380100Y-88726000D01*
G75*
G02*
X168129000Y-88474900I0J251100D01*
G01*
X168129000Y-86277100D01*
G75*
G02*
X168380100Y-86026000I251100J0D01*
G01*
X170577900Y-86026000D01*
G75*
G02*
X170829000Y-86277100I0J-251100D01*
G01*
G37*
G04 #@! TD.AperFunction*
D27*
X170579000Y-88476000D03*
X169479000Y-88476000D03*
X168379000Y-88476000D03*
X170579000Y-87376000D03*
X169479000Y-87376000D03*
X168379000Y-87376000D03*
X170579000Y-86276000D03*
X169479000Y-86276000D03*
X168379000Y-86276000D03*
G04 #@! TA.AperFunction,SMDPad,CuDef*
G36*
G01*
X171854000Y-88563500D02*
X171854000Y-88688500D01*
G75*
G02*
X171791500Y-88751000I-62500J0D01*
G01*
X171091500Y-88751000D01*
G75*
G02*
X171029000Y-88688500I0J62500D01*
G01*
X171029000Y-88563500D01*
G75*
G02*
X171091500Y-88501000I62500J0D01*
G01*
X171791500Y-88501000D01*
G75*
G02*
X171854000Y-88563500I0J-62500D01*
G01*
G37*
G04 #@! TD.AperFunction*
G04 #@! TA.AperFunction,SMDPad,CuDef*
G36*
G01*
X171854000Y-88063500D02*
X171854000Y-88188500D01*
G75*
G02*
X171791500Y-88251000I-62500J0D01*
G01*
X171091500Y-88251000D01*
G75*
G02*
X171029000Y-88188500I0J62500D01*
G01*
X171029000Y-88063500D01*
G75*
G02*
X171091500Y-88001000I62500J0D01*
G01*
X171791500Y-88001000D01*
G75*
G02*
X171854000Y-88063500I0J-62500D01*
G01*
G37*
G04 #@! TD.AperFunction*
G04 #@! TA.AperFunction,SMDPad,CuDef*
G36*
G01*
X171854000Y-87563500D02*
X171854000Y-87688500D01*
G75*
G02*
X171791500Y-87751000I-62500J0D01*
G01*
X171091500Y-87751000D01*
G75*
G02*
X171029000Y-87688500I0J62500D01*
G01*
X171029000Y-87563500D01*
G75*
G02*
X171091500Y-87501000I62500J0D01*
G01*
X171791500Y-87501000D01*
G75*
G02*
X171854000Y-87563500I0J-62500D01*
G01*
G37*
G04 #@! TD.AperFunction*
G04 #@! TA.AperFunction,SMDPad,CuDef*
G36*
G01*
X171854000Y-87063500D02*
X171854000Y-87188500D01*
G75*
G02*
X171791500Y-87251000I-62500J0D01*
G01*
X171091500Y-87251000D01*
G75*
G02*
X171029000Y-87188500I0J62500D01*
G01*
X171029000Y-87063500D01*
G75*
G02*
X171091500Y-87001000I62500J0D01*
G01*
X171791500Y-87001000D01*
G75*
G02*
X171854000Y-87063500I0J-62500D01*
G01*
G37*
G04 #@! TD.AperFunction*
G04 #@! TA.AperFunction,SMDPad,CuDef*
G36*
G01*
X171854000Y-86563500D02*
X171854000Y-86688500D01*
G75*
G02*
X171791500Y-86751000I-62500J0D01*
G01*
X171091500Y-86751000D01*
G75*
G02*
X171029000Y-86688500I0J62500D01*
G01*
X171029000Y-86563500D01*
G75*
G02*
X171091500Y-86501000I62500J0D01*
G01*
X171791500Y-86501000D01*
G75*
G02*
X171854000Y-86563500I0J-62500D01*
G01*
G37*
G04 #@! TD.AperFunction*
G04 #@! TA.AperFunction,SMDPad,CuDef*
G36*
G01*
X171854000Y-86063500D02*
X171854000Y-86188500D01*
G75*
G02*
X171791500Y-86251000I-62500J0D01*
G01*
X171091500Y-86251000D01*
G75*
G02*
X171029000Y-86188500I0J62500D01*
G01*
X171029000Y-86063500D01*
G75*
G02*
X171091500Y-86001000I62500J0D01*
G01*
X171791500Y-86001000D01*
G75*
G02*
X171854000Y-86063500I0J-62500D01*
G01*
G37*
G04 #@! TD.AperFunction*
G04 #@! TA.AperFunction,SMDPad,CuDef*
G36*
G01*
X170854000Y-85063500D02*
X170854000Y-85763500D01*
G75*
G02*
X170791500Y-85826000I-62500J0D01*
G01*
X170666500Y-85826000D01*
G75*
G02*
X170604000Y-85763500I0J62500D01*
G01*
X170604000Y-85063500D01*
G75*
G02*
X170666500Y-85001000I62500J0D01*
G01*
X170791500Y-85001000D01*
G75*
G02*
X170854000Y-85063500I0J-62500D01*
G01*
G37*
G04 #@! TD.AperFunction*
G04 #@! TA.AperFunction,SMDPad,CuDef*
G36*
G01*
X170354000Y-85063500D02*
X170354000Y-85763500D01*
G75*
G02*
X170291500Y-85826000I-62500J0D01*
G01*
X170166500Y-85826000D01*
G75*
G02*
X170104000Y-85763500I0J62500D01*
G01*
X170104000Y-85063500D01*
G75*
G02*
X170166500Y-85001000I62500J0D01*
G01*
X170291500Y-85001000D01*
G75*
G02*
X170354000Y-85063500I0J-62500D01*
G01*
G37*
G04 #@! TD.AperFunction*
G04 #@! TA.AperFunction,SMDPad,CuDef*
G36*
G01*
X169854000Y-85063500D02*
X169854000Y-85763500D01*
G75*
G02*
X169791500Y-85826000I-62500J0D01*
G01*
X169666500Y-85826000D01*
G75*
G02*
X169604000Y-85763500I0J62500D01*
G01*
X169604000Y-85063500D01*
G75*
G02*
X169666500Y-85001000I62500J0D01*
G01*
X169791500Y-85001000D01*
G75*
G02*
X169854000Y-85063500I0J-62500D01*
G01*
G37*
G04 #@! TD.AperFunction*
G04 #@! TA.AperFunction,SMDPad,CuDef*
G36*
G01*
X169354000Y-85063500D02*
X169354000Y-85763500D01*
G75*
G02*
X169291500Y-85826000I-62500J0D01*
G01*
X169166500Y-85826000D01*
G75*
G02*
X169104000Y-85763500I0J62500D01*
G01*
X169104000Y-85063500D01*
G75*
G02*
X169166500Y-85001000I62500J0D01*
G01*
X169291500Y-85001000D01*
G75*
G02*
X169354000Y-85063500I0J-62500D01*
G01*
G37*
G04 #@! TD.AperFunction*
G04 #@! TA.AperFunction,SMDPad,CuDef*
G36*
G01*
X168854000Y-85063500D02*
X168854000Y-85763500D01*
G75*
G02*
X168791500Y-85826000I-62500J0D01*
G01*
X168666500Y-85826000D01*
G75*
G02*
X168604000Y-85763500I0J62500D01*
G01*
X168604000Y-85063500D01*
G75*
G02*
X168666500Y-85001000I62500J0D01*
G01*
X168791500Y-85001000D01*
G75*
G02*
X168854000Y-85063500I0J-62500D01*
G01*
G37*
G04 #@! TD.AperFunction*
G04 #@! TA.AperFunction,SMDPad,CuDef*
G36*
G01*
X168354000Y-85063500D02*
X168354000Y-85763500D01*
G75*
G02*
X168291500Y-85826000I-62500J0D01*
G01*
X168166500Y-85826000D01*
G75*
G02*
X168104000Y-85763500I0J62500D01*
G01*
X168104000Y-85063500D01*
G75*
G02*
X168166500Y-85001000I62500J0D01*
G01*
X168291500Y-85001000D01*
G75*
G02*
X168354000Y-85063500I0J-62500D01*
G01*
G37*
G04 #@! TD.AperFunction*
G04 #@! TA.AperFunction,SMDPad,CuDef*
G36*
G01*
X167929000Y-86063500D02*
X167929000Y-86188500D01*
G75*
G02*
X167866500Y-86251000I-62500J0D01*
G01*
X167166500Y-86251000D01*
G75*
G02*
X167104000Y-86188500I0J62500D01*
G01*
X167104000Y-86063500D01*
G75*
G02*
X167166500Y-86001000I62500J0D01*
G01*
X167866500Y-86001000D01*
G75*
G02*
X167929000Y-86063500I0J-62500D01*
G01*
G37*
G04 #@! TD.AperFunction*
G04 #@! TA.AperFunction,SMDPad,CuDef*
G36*
G01*
X167929000Y-86563500D02*
X167929000Y-86688500D01*
G75*
G02*
X167866500Y-86751000I-62500J0D01*
G01*
X167166500Y-86751000D01*
G75*
G02*
X167104000Y-86688500I0J62500D01*
G01*
X167104000Y-86563500D01*
G75*
G02*
X167166500Y-86501000I62500J0D01*
G01*
X167866500Y-86501000D01*
G75*
G02*
X167929000Y-86563500I0J-62500D01*
G01*
G37*
G04 #@! TD.AperFunction*
G04 #@! TA.AperFunction,SMDPad,CuDef*
G36*
G01*
X167929000Y-87063500D02*
X167929000Y-87188500D01*
G75*
G02*
X167866500Y-87251000I-62500J0D01*
G01*
X167166500Y-87251000D01*
G75*
G02*
X167104000Y-87188500I0J62500D01*
G01*
X167104000Y-87063500D01*
G75*
G02*
X167166500Y-87001000I62500J0D01*
G01*
X167866500Y-87001000D01*
G75*
G02*
X167929000Y-87063500I0J-62500D01*
G01*
G37*
G04 #@! TD.AperFunction*
G04 #@! TA.AperFunction,SMDPad,CuDef*
G36*
G01*
X167929000Y-87563500D02*
X167929000Y-87688500D01*
G75*
G02*
X167866500Y-87751000I-62500J0D01*
G01*
X167166500Y-87751000D01*
G75*
G02*
X167104000Y-87688500I0J62500D01*
G01*
X167104000Y-87563500D01*
G75*
G02*
X167166500Y-87501000I62500J0D01*
G01*
X167866500Y-87501000D01*
G75*
G02*
X167929000Y-87563500I0J-62500D01*
G01*
G37*
G04 #@! TD.AperFunction*
G04 #@! TA.AperFunction,SMDPad,CuDef*
G36*
G01*
X167929000Y-88063500D02*
X167929000Y-88188500D01*
G75*
G02*
X167866500Y-88251000I-62500J0D01*
G01*
X167166500Y-88251000D01*
G75*
G02*
X167104000Y-88188500I0J62500D01*
G01*
X167104000Y-88063500D01*
G75*
G02*
X167166500Y-88001000I62500J0D01*
G01*
X167866500Y-88001000D01*
G75*
G02*
X167929000Y-88063500I0J-62500D01*
G01*
G37*
G04 #@! TD.AperFunction*
G04 #@! TA.AperFunction,SMDPad,CuDef*
G36*
G01*
X167929000Y-88563500D02*
X167929000Y-88688500D01*
G75*
G02*
X167866500Y-88751000I-62500J0D01*
G01*
X167166500Y-88751000D01*
G75*
G02*
X167104000Y-88688500I0J62500D01*
G01*
X167104000Y-88563500D01*
G75*
G02*
X167166500Y-88501000I62500J0D01*
G01*
X167866500Y-88501000D01*
G75*
G02*
X167929000Y-88563500I0J-62500D01*
G01*
G37*
G04 #@! TD.AperFunction*
G04 #@! TA.AperFunction,SMDPad,CuDef*
G36*
G01*
X168354000Y-88988500D02*
X168354000Y-89688500D01*
G75*
G02*
X168291500Y-89751000I-62500J0D01*
G01*
X168166500Y-89751000D01*
G75*
G02*
X168104000Y-89688500I0J62500D01*
G01*
X168104000Y-88988500D01*
G75*
G02*
X168166500Y-88926000I62500J0D01*
G01*
X168291500Y-88926000D01*
G75*
G02*
X168354000Y-88988500I0J-62500D01*
G01*
G37*
G04 #@! TD.AperFunction*
G04 #@! TA.AperFunction,SMDPad,CuDef*
G36*
G01*
X168854000Y-88988500D02*
X168854000Y-89688500D01*
G75*
G02*
X168791500Y-89751000I-62500J0D01*
G01*
X168666500Y-89751000D01*
G75*
G02*
X168604000Y-89688500I0J62500D01*
G01*
X168604000Y-88988500D01*
G75*
G02*
X168666500Y-88926000I62500J0D01*
G01*
X168791500Y-88926000D01*
G75*
G02*
X168854000Y-88988500I0J-62500D01*
G01*
G37*
G04 #@! TD.AperFunction*
G04 #@! TA.AperFunction,SMDPad,CuDef*
G36*
G01*
X169354000Y-88988500D02*
X169354000Y-89688500D01*
G75*
G02*
X169291500Y-89751000I-62500J0D01*
G01*
X169166500Y-89751000D01*
G75*
G02*
X169104000Y-89688500I0J62500D01*
G01*
X169104000Y-88988500D01*
G75*
G02*
X169166500Y-88926000I62500J0D01*
G01*
X169291500Y-88926000D01*
G75*
G02*
X169354000Y-88988500I0J-62500D01*
G01*
G37*
G04 #@! TD.AperFunction*
G04 #@! TA.AperFunction,SMDPad,CuDef*
G36*
G01*
X169854000Y-88988500D02*
X169854000Y-89688500D01*
G75*
G02*
X169791500Y-89751000I-62500J0D01*
G01*
X169666500Y-89751000D01*
G75*
G02*
X169604000Y-89688500I0J62500D01*
G01*
X169604000Y-88988500D01*
G75*
G02*
X169666500Y-88926000I62500J0D01*
G01*
X169791500Y-88926000D01*
G75*
G02*
X169854000Y-88988500I0J-62500D01*
G01*
G37*
G04 #@! TD.AperFunction*
G04 #@! TA.AperFunction,SMDPad,CuDef*
G36*
G01*
X170354000Y-88988500D02*
X170354000Y-89688500D01*
G75*
G02*
X170291500Y-89751000I-62500J0D01*
G01*
X170166500Y-89751000D01*
G75*
G02*
X170104000Y-89688500I0J62500D01*
G01*
X170104000Y-88988500D01*
G75*
G02*
X170166500Y-88926000I62500J0D01*
G01*
X170291500Y-88926000D01*
G75*
G02*
X170354000Y-88988500I0J-62500D01*
G01*
G37*
G04 #@! TD.AperFunction*
G04 #@! TA.AperFunction,SMDPad,CuDef*
G36*
G01*
X170854000Y-88988500D02*
X170854000Y-89688500D01*
G75*
G02*
X170791500Y-89751000I-62500J0D01*
G01*
X170666500Y-89751000D01*
G75*
G02*
X170604000Y-89688500I0J62500D01*
G01*
X170604000Y-88988500D01*
G75*
G02*
X170666500Y-88926000I62500J0D01*
G01*
X170791500Y-88926000D01*
G75*
G02*
X170854000Y-88988500I0J-62500D01*
G01*
G37*
G04 #@! TD.AperFunction*
D24*
X169507075Y-91918491D03*
X167507075Y-92568491D03*
X167507075Y-91268491D03*
G04 #@! TA.AperFunction,SMDPad,CuDef*
G36*
G01*
X174177500Y-84952500D02*
X174177500Y-85297500D01*
G75*
G02*
X174030000Y-85445000I-147500J0D01*
G01*
X173735000Y-85445000D01*
G75*
G02*
X173587500Y-85297500I0J147500D01*
G01*
X173587500Y-84952500D01*
G75*
G02*
X173735000Y-84805000I147500J0D01*
G01*
X174030000Y-84805000D01*
G75*
G02*
X174177500Y-84952500I0J-147500D01*
G01*
G37*
G04 #@! TD.AperFunction*
G04 #@! TA.AperFunction,SMDPad,CuDef*
G36*
G01*
X175147500Y-84952500D02*
X175147500Y-85297500D01*
G75*
G02*
X175000000Y-85445000I-147500J0D01*
G01*
X174705000Y-85445000D01*
G75*
G02*
X174557500Y-85297500I0J147500D01*
G01*
X174557500Y-84952500D01*
G75*
G02*
X174705000Y-84805000I147500J0D01*
G01*
X175000000Y-84805000D01*
G75*
G02*
X175147500Y-84952500I0J-147500D01*
G01*
G37*
G04 #@! TD.AperFunction*
G04 #@! TA.AperFunction,SMDPad,CuDef*
G36*
G01*
X175147500Y-88000500D02*
X175147500Y-88345500D01*
G75*
G02*
X175000000Y-88493000I-147500J0D01*
G01*
X174705000Y-88493000D01*
G75*
G02*
X174557500Y-88345500I0J147500D01*
G01*
X174557500Y-88000500D01*
G75*
G02*
X174705000Y-87853000I147500J0D01*
G01*
X175000000Y-87853000D01*
G75*
G02*
X175147500Y-88000500I0J-147500D01*
G01*
G37*
G04 #@! TD.AperFunction*
G04 #@! TA.AperFunction,SMDPad,CuDef*
G36*
G01*
X174177500Y-88000500D02*
X174177500Y-88345500D01*
G75*
G02*
X174030000Y-88493000I-147500J0D01*
G01*
X173735000Y-88493000D01*
G75*
G02*
X173587500Y-88345500I0J147500D01*
G01*
X173587500Y-88000500D01*
G75*
G02*
X173735000Y-87853000I147500J0D01*
G01*
X174030000Y-87853000D01*
G75*
G02*
X174177500Y-88000500I0J-147500D01*
G01*
G37*
G04 #@! TD.AperFunction*
G04 #@! TA.AperFunction,SMDPad,CuDef*
G36*
G01*
X165996000Y-94315500D02*
X165996000Y-94660500D01*
G75*
G02*
X165848500Y-94808000I-147500J0D01*
G01*
X165553500Y-94808000D01*
G75*
G02*
X165406000Y-94660500I0J147500D01*
G01*
X165406000Y-94315500D01*
G75*
G02*
X165553500Y-94168000I147500J0D01*
G01*
X165848500Y-94168000D01*
G75*
G02*
X165996000Y-94315500I0J-147500D01*
G01*
G37*
G04 #@! TD.AperFunction*
G04 #@! TA.AperFunction,SMDPad,CuDef*
G36*
G01*
X165026000Y-94315500D02*
X165026000Y-94660500D01*
G75*
G02*
X164878500Y-94808000I-147500J0D01*
G01*
X164583500Y-94808000D01*
G75*
G02*
X164436000Y-94660500I0J147500D01*
G01*
X164436000Y-94315500D01*
G75*
G02*
X164583500Y-94168000I147500J0D01*
G01*
X164878500Y-94168000D01*
G75*
G02*
X165026000Y-94315500I0J-147500D01*
G01*
G37*
G04 #@! TD.AperFunction*
G04 #@! TA.AperFunction,SMDPad,CuDef*
G36*
G01*
X165730000Y-85552500D02*
X165730000Y-85897500D01*
G75*
G02*
X165582500Y-86045000I-147500J0D01*
G01*
X165287500Y-86045000D01*
G75*
G02*
X165140000Y-85897500I0J147500D01*
G01*
X165140000Y-85552500D01*
G75*
G02*
X165287500Y-85405000I147500J0D01*
G01*
X165582500Y-85405000D01*
G75*
G02*
X165730000Y-85552500I0J-147500D01*
G01*
G37*
G04 #@! TD.AperFunction*
G04 #@! TA.AperFunction,SMDPad,CuDef*
G36*
G01*
X164760000Y-85552500D02*
X164760000Y-85897500D01*
G75*
G02*
X164612500Y-86045000I-147500J0D01*
G01*
X164317500Y-86045000D01*
G75*
G02*
X164170000Y-85897500I0J147500D01*
G01*
X164170000Y-85552500D01*
G75*
G02*
X164317500Y-85405000I147500J0D01*
G01*
X164612500Y-85405000D01*
G75*
G02*
X164760000Y-85552500I0J-147500D01*
G01*
G37*
G04 #@! TD.AperFunction*
G04 #@! TA.AperFunction,SMDPad,CuDef*
G36*
G01*
X167467500Y-79253000D02*
X167812500Y-79253000D01*
G75*
G02*
X167960000Y-79400500I0J-147500D01*
G01*
X167960000Y-79695500D01*
G75*
G02*
X167812500Y-79843000I-147500J0D01*
G01*
X167467500Y-79843000D01*
G75*
G02*
X167320000Y-79695500I0J147500D01*
G01*
X167320000Y-79400500D01*
G75*
G02*
X167467500Y-79253000I147500J0D01*
G01*
G37*
G04 #@! TD.AperFunction*
G04 #@! TA.AperFunction,SMDPad,CuDef*
G36*
G01*
X167467500Y-80223000D02*
X167812500Y-80223000D01*
G75*
G02*
X167960000Y-80370500I0J-147500D01*
G01*
X167960000Y-80665500D01*
G75*
G02*
X167812500Y-80813000I-147500J0D01*
G01*
X167467500Y-80813000D01*
G75*
G02*
X167320000Y-80665500I0J147500D01*
G01*
X167320000Y-80370500D01*
G75*
G02*
X167467500Y-80223000I147500J0D01*
G01*
G37*
G04 #@! TD.AperFunction*
G04 #@! TA.AperFunction,SMDPad,CuDef*
G36*
G01*
X167812500Y-76541000D02*
X167467500Y-76541000D01*
G75*
G02*
X167320000Y-76393500I0J147500D01*
G01*
X167320000Y-76098500D01*
G75*
G02*
X167467500Y-75951000I147500J0D01*
G01*
X167812500Y-75951000D01*
G75*
G02*
X167960000Y-76098500I0J-147500D01*
G01*
X167960000Y-76393500D01*
G75*
G02*
X167812500Y-76541000I-147500J0D01*
G01*
G37*
G04 #@! TD.AperFunction*
G04 #@! TA.AperFunction,SMDPad,CuDef*
G36*
G01*
X167812500Y-77511000D02*
X167467500Y-77511000D01*
G75*
G02*
X167320000Y-77363500I0J147500D01*
G01*
X167320000Y-77068500D01*
G75*
G02*
X167467500Y-76921000I147500J0D01*
G01*
X167812500Y-76921000D01*
G75*
G02*
X167960000Y-77068500I0J-147500D01*
G01*
X167960000Y-77363500D01*
G75*
G02*
X167812500Y-77511000I-147500J0D01*
G01*
G37*
G04 #@! TD.AperFunction*
G04 #@! TA.AperFunction,SMDPad,CuDef*
G36*
G01*
X165406000Y-90850500D02*
X165406000Y-90505500D01*
G75*
G02*
X165553500Y-90358000I147500J0D01*
G01*
X165848500Y-90358000D01*
G75*
G02*
X165996000Y-90505500I0J-147500D01*
G01*
X165996000Y-90850500D01*
G75*
G02*
X165848500Y-90998000I-147500J0D01*
G01*
X165553500Y-90998000D01*
G75*
G02*
X165406000Y-90850500I0J147500D01*
G01*
G37*
G04 #@! TD.AperFunction*
G04 #@! TA.AperFunction,SMDPad,CuDef*
G36*
G01*
X164436000Y-90850500D02*
X164436000Y-90505500D01*
G75*
G02*
X164583500Y-90358000I147500J0D01*
G01*
X164878500Y-90358000D01*
G75*
G02*
X165026000Y-90505500I0J-147500D01*
G01*
X165026000Y-90850500D01*
G75*
G02*
X164878500Y-90998000I-147500J0D01*
G01*
X164583500Y-90998000D01*
G75*
G02*
X164436000Y-90850500I0J147500D01*
G01*
G37*
G04 #@! TD.AperFunction*
G04 #@! TA.AperFunction,SMDPad,CuDef*
G36*
G01*
X165406000Y-93390500D02*
X165406000Y-93045500D01*
G75*
G02*
X165553500Y-92898000I147500J0D01*
G01*
X165848500Y-92898000D01*
G75*
G02*
X165996000Y-93045500I0J-147500D01*
G01*
X165996000Y-93390500D01*
G75*
G02*
X165848500Y-93538000I-147500J0D01*
G01*
X165553500Y-93538000D01*
G75*
G02*
X165406000Y-93390500I0J147500D01*
G01*
G37*
G04 #@! TD.AperFunction*
G04 #@! TA.AperFunction,SMDPad,CuDef*
G36*
G01*
X164436000Y-93390500D02*
X164436000Y-93045500D01*
G75*
G02*
X164583500Y-92898000I147500J0D01*
G01*
X164878500Y-92898000D01*
G75*
G02*
X165026000Y-93045500I0J-147500D01*
G01*
X165026000Y-93390500D01*
G75*
G02*
X164878500Y-93538000I-147500J0D01*
G01*
X164583500Y-93538000D01*
G75*
G02*
X164436000Y-93390500I0J147500D01*
G01*
G37*
G04 #@! TD.AperFunction*
G04 #@! TA.AperFunction,SMDPad,CuDef*
G36*
G01*
X164436000Y-92120500D02*
X164436000Y-91775500D01*
G75*
G02*
X164583500Y-91628000I147500J0D01*
G01*
X164878500Y-91628000D01*
G75*
G02*
X165026000Y-91775500I0J-147500D01*
G01*
X165026000Y-92120500D01*
G75*
G02*
X164878500Y-92268000I-147500J0D01*
G01*
X164583500Y-92268000D01*
G75*
G02*
X164436000Y-92120500I0J147500D01*
G01*
G37*
G04 #@! TD.AperFunction*
G04 #@! TA.AperFunction,SMDPad,CuDef*
G36*
G01*
X165406000Y-92120500D02*
X165406000Y-91775500D01*
G75*
G02*
X165553500Y-91628000I147500J0D01*
G01*
X165848500Y-91628000D01*
G75*
G02*
X165996000Y-91775500I0J-147500D01*
G01*
X165996000Y-92120500D01*
G75*
G02*
X165848500Y-92268000I-147500J0D01*
G01*
X165553500Y-92268000D01*
G75*
G02*
X165406000Y-92120500I0J147500D01*
G01*
G37*
G04 #@! TD.AperFunction*
G04 #@! TA.AperFunction,SMDPad,CuDef*
G36*
G01*
X165406000Y-89580500D02*
X165406000Y-89235500D01*
G75*
G02*
X165553500Y-89088000I147500J0D01*
G01*
X165848500Y-89088000D01*
G75*
G02*
X165996000Y-89235500I0J-147500D01*
G01*
X165996000Y-89580500D01*
G75*
G02*
X165848500Y-89728000I-147500J0D01*
G01*
X165553500Y-89728000D01*
G75*
G02*
X165406000Y-89580500I0J147500D01*
G01*
G37*
G04 #@! TD.AperFunction*
G04 #@! TA.AperFunction,SMDPad,CuDef*
G36*
G01*
X164436000Y-89580500D02*
X164436000Y-89235500D01*
G75*
G02*
X164583500Y-89088000I147500J0D01*
G01*
X164878500Y-89088000D01*
G75*
G02*
X165026000Y-89235500I0J-147500D01*
G01*
X165026000Y-89580500D01*
G75*
G02*
X164878500Y-89728000I-147500J0D01*
G01*
X164583500Y-89728000D01*
G75*
G02*
X164436000Y-89580500I0J147500D01*
G01*
G37*
G04 #@! TD.AperFunction*
G04 #@! TA.AperFunction,SMDPad,CuDef*
G36*
G01*
X174557500Y-86313500D02*
X174557500Y-85968500D01*
G75*
G02*
X174705000Y-85821000I147500J0D01*
G01*
X175000000Y-85821000D01*
G75*
G02*
X175147500Y-85968500I0J-147500D01*
G01*
X175147500Y-86313500D01*
G75*
G02*
X175000000Y-86461000I-147500J0D01*
G01*
X174705000Y-86461000D01*
G75*
G02*
X174557500Y-86313500I0J147500D01*
G01*
G37*
G04 #@! TD.AperFunction*
G04 #@! TA.AperFunction,SMDPad,CuDef*
G36*
G01*
X173587500Y-86313500D02*
X173587500Y-85968500D01*
G75*
G02*
X173735000Y-85821000I147500J0D01*
G01*
X174030000Y-85821000D01*
G75*
G02*
X174177500Y-85968500I0J-147500D01*
G01*
X174177500Y-86313500D01*
G75*
G02*
X174030000Y-86461000I-147500J0D01*
G01*
X173735000Y-86461000D01*
G75*
G02*
X173587500Y-86313500I0J147500D01*
G01*
G37*
G04 #@! TD.AperFunction*
G04 #@! TA.AperFunction,SMDPad,CuDef*
G36*
G01*
X173587500Y-87329500D02*
X173587500Y-86984500D01*
G75*
G02*
X173735000Y-86837000I147500J0D01*
G01*
X174030000Y-86837000D01*
G75*
G02*
X174177500Y-86984500I0J-147500D01*
G01*
X174177500Y-87329500D01*
G75*
G02*
X174030000Y-87477000I-147500J0D01*
G01*
X173735000Y-87477000D01*
G75*
G02*
X173587500Y-87329500I0J147500D01*
G01*
G37*
G04 #@! TD.AperFunction*
G04 #@! TA.AperFunction,SMDPad,CuDef*
G36*
G01*
X174557500Y-87329500D02*
X174557500Y-86984500D01*
G75*
G02*
X174705000Y-86837000I147500J0D01*
G01*
X175000000Y-86837000D01*
G75*
G02*
X175147500Y-86984500I0J-147500D01*
G01*
X175147500Y-87329500D01*
G75*
G02*
X175000000Y-87477000I-147500J0D01*
G01*
X174705000Y-87477000D01*
G75*
G02*
X174557500Y-87329500I0J147500D01*
G01*
G37*
G04 #@! TD.AperFunction*
G04 #@! TA.AperFunction,SMDPad,CuDef*
G36*
G01*
X165730000Y-84282500D02*
X165730000Y-84627500D01*
G75*
G02*
X165582500Y-84775000I-147500J0D01*
G01*
X165287500Y-84775000D01*
G75*
G02*
X165140000Y-84627500I0J147500D01*
G01*
X165140000Y-84282500D01*
G75*
G02*
X165287500Y-84135000I147500J0D01*
G01*
X165582500Y-84135000D01*
G75*
G02*
X165730000Y-84282500I0J-147500D01*
G01*
G37*
G04 #@! TD.AperFunction*
G04 #@! TA.AperFunction,SMDPad,CuDef*
G36*
G01*
X164760000Y-84282500D02*
X164760000Y-84627500D01*
G75*
G02*
X164612500Y-84775000I-147500J0D01*
G01*
X164317500Y-84775000D01*
G75*
G02*
X164170000Y-84627500I0J147500D01*
G01*
X164170000Y-84282500D01*
G75*
G02*
X164317500Y-84135000I147500J0D01*
G01*
X164612500Y-84135000D01*
G75*
G02*
X164760000Y-84282500I0J-147500D01*
G01*
G37*
G04 #@! TD.AperFunction*
G04 #@! TA.AperFunction,SMDPad,CuDef*
G36*
G01*
X133355000Y-99359500D02*
X133355000Y-99014500D01*
G75*
G02*
X133502500Y-98867000I147500J0D01*
G01*
X133797500Y-98867000D01*
G75*
G02*
X133945000Y-99014500I0J-147500D01*
G01*
X133945000Y-99359500D01*
G75*
G02*
X133797500Y-99507000I-147500J0D01*
G01*
X133502500Y-99507000D01*
G75*
G02*
X133355000Y-99359500I0J147500D01*
G01*
G37*
G04 #@! TD.AperFunction*
G04 #@! TA.AperFunction,SMDPad,CuDef*
G36*
G01*
X134325000Y-99359500D02*
X134325000Y-99014500D01*
G75*
G02*
X134472500Y-98867000I147500J0D01*
G01*
X134767500Y-98867000D01*
G75*
G02*
X134915000Y-99014500I0J-147500D01*
G01*
X134915000Y-99359500D01*
G75*
G02*
X134767500Y-99507000I-147500J0D01*
G01*
X134472500Y-99507000D01*
G75*
G02*
X134325000Y-99359500I0J147500D01*
G01*
G37*
G04 #@! TD.AperFunction*
G04 #@! TA.AperFunction,SMDPad,CuDef*
G36*
G01*
X131785000Y-99359500D02*
X131785000Y-99014500D01*
G75*
G02*
X131932500Y-98867000I147500J0D01*
G01*
X132227500Y-98867000D01*
G75*
G02*
X132375000Y-99014500I0J-147500D01*
G01*
X132375000Y-99359500D01*
G75*
G02*
X132227500Y-99507000I-147500J0D01*
G01*
X131932500Y-99507000D01*
G75*
G02*
X131785000Y-99359500I0J147500D01*
G01*
G37*
G04 #@! TD.AperFunction*
G04 #@! TA.AperFunction,SMDPad,CuDef*
G36*
G01*
X130815000Y-99359500D02*
X130815000Y-99014500D01*
G75*
G02*
X130962500Y-98867000I147500J0D01*
G01*
X131257500Y-98867000D01*
G75*
G02*
X131405000Y-99014500I0J-147500D01*
G01*
X131405000Y-99359500D01*
G75*
G02*
X131257500Y-99507000I-147500J0D01*
G01*
X130962500Y-99507000D01*
G75*
G02*
X130815000Y-99359500I0J147500D01*
G01*
G37*
G04 #@! TD.AperFunction*
G04 #@! TA.AperFunction,SMDPad,CuDef*
G36*
G01*
X173602500Y-89326500D02*
X173602500Y-88981500D01*
G75*
G02*
X173750000Y-88834000I147500J0D01*
G01*
X174045000Y-88834000D01*
G75*
G02*
X174192500Y-88981500I0J-147500D01*
G01*
X174192500Y-89326500D01*
G75*
G02*
X174045000Y-89474000I-147500J0D01*
G01*
X173750000Y-89474000D01*
G75*
G02*
X173602500Y-89326500I0J147500D01*
G01*
G37*
G04 #@! TD.AperFunction*
G04 #@! TA.AperFunction,SMDPad,CuDef*
G36*
G01*
X174572500Y-89326500D02*
X174572500Y-88981500D01*
G75*
G02*
X174720000Y-88834000I147500J0D01*
G01*
X175015000Y-88834000D01*
G75*
G02*
X175162500Y-88981500I0J-147500D01*
G01*
X175162500Y-89326500D01*
G75*
G02*
X175015000Y-89474000I-147500J0D01*
G01*
X174720000Y-89474000D01*
G75*
G02*
X174572500Y-89326500I0J147500D01*
G01*
G37*
G04 #@! TD.AperFunction*
G04 #@! TA.AperFunction,SMDPad,CuDef*
G36*
G01*
X174572500Y-84246500D02*
X174572500Y-83901500D01*
G75*
G02*
X174720000Y-83754000I147500J0D01*
G01*
X175015000Y-83754000D01*
G75*
G02*
X175162500Y-83901500I0J-147500D01*
G01*
X175162500Y-84246500D01*
G75*
G02*
X175015000Y-84394000I-147500J0D01*
G01*
X174720000Y-84394000D01*
G75*
G02*
X174572500Y-84246500I0J147500D01*
G01*
G37*
G04 #@! TD.AperFunction*
G04 #@! TA.AperFunction,SMDPad,CuDef*
G36*
G01*
X173602500Y-84246500D02*
X173602500Y-83901500D01*
G75*
G02*
X173750000Y-83754000I147500J0D01*
G01*
X174045000Y-83754000D01*
G75*
G02*
X174192500Y-83901500I0J-147500D01*
G01*
X174192500Y-84246500D01*
G75*
G02*
X174045000Y-84394000I-147500J0D01*
G01*
X173750000Y-84394000D01*
G75*
G02*
X173602500Y-84246500I0J147500D01*
G01*
G37*
G04 #@! TD.AperFunction*
G04 #@! TA.AperFunction,SMDPad,CuDef*
G36*
G01*
X181755000Y-91140500D02*
X181755000Y-91485500D01*
G75*
G02*
X181607500Y-91633000I-147500J0D01*
G01*
X181312500Y-91633000D01*
G75*
G02*
X181165000Y-91485500I0J147500D01*
G01*
X181165000Y-91140500D01*
G75*
G02*
X181312500Y-90993000I147500J0D01*
G01*
X181607500Y-90993000D01*
G75*
G02*
X181755000Y-91140500I0J-147500D01*
G01*
G37*
G04 #@! TD.AperFunction*
G04 #@! TA.AperFunction,SMDPad,CuDef*
G36*
G01*
X180785000Y-91140500D02*
X180785000Y-91485500D01*
G75*
G02*
X180637500Y-91633000I-147500J0D01*
G01*
X180342500Y-91633000D01*
G75*
G02*
X180195000Y-91485500I0J147500D01*
G01*
X180195000Y-91140500D01*
G75*
G02*
X180342500Y-90993000I147500J0D01*
G01*
X180637500Y-90993000D01*
G75*
G02*
X180785000Y-91140500I0J-147500D01*
G01*
G37*
G04 #@! TD.AperFunction*
G04 #@! TA.AperFunction,SMDPad,CuDef*
G36*
G01*
X178013000Y-91485500D02*
X178013000Y-91140500D01*
G75*
G02*
X178160500Y-90993000I147500J0D01*
G01*
X178455500Y-90993000D01*
G75*
G02*
X178603000Y-91140500I0J-147500D01*
G01*
X178603000Y-91485500D01*
G75*
G02*
X178455500Y-91633000I-147500J0D01*
G01*
X178160500Y-91633000D01*
G75*
G02*
X178013000Y-91485500I0J147500D01*
G01*
G37*
G04 #@! TD.AperFunction*
G04 #@! TA.AperFunction,SMDPad,CuDef*
G36*
G01*
X178983000Y-91485500D02*
X178983000Y-91140500D01*
G75*
G02*
X179130500Y-90993000I147500J0D01*
G01*
X179425500Y-90993000D01*
G75*
G02*
X179573000Y-91140500I0J-147500D01*
G01*
X179573000Y-91485500D01*
G75*
G02*
X179425500Y-91633000I-147500J0D01*
G01*
X179130500Y-91633000D01*
G75*
G02*
X178983000Y-91485500I0J147500D01*
G01*
G37*
G04 #@! TD.AperFunction*
G04 #@! TA.AperFunction,SMDPad,CuDef*
G36*
G01*
X182667000Y-78297500D02*
X182667000Y-78642500D01*
G75*
G02*
X182519500Y-78790000I-147500J0D01*
G01*
X182224500Y-78790000D01*
G75*
G02*
X182077000Y-78642500I0J147500D01*
G01*
X182077000Y-78297500D01*
G75*
G02*
X182224500Y-78150000I147500J0D01*
G01*
X182519500Y-78150000D01*
G75*
G02*
X182667000Y-78297500I0J-147500D01*
G01*
G37*
G04 #@! TD.AperFunction*
G04 #@! TA.AperFunction,SMDPad,CuDef*
G36*
G01*
X181697000Y-78297500D02*
X181697000Y-78642500D01*
G75*
G02*
X181549500Y-78790000I-147500J0D01*
G01*
X181254500Y-78790000D01*
G75*
G02*
X181107000Y-78642500I0J147500D01*
G01*
X181107000Y-78297500D01*
G75*
G02*
X181254500Y-78150000I147500J0D01*
G01*
X181549500Y-78150000D01*
G75*
G02*
X181697000Y-78297500I0J-147500D01*
G01*
G37*
G04 #@! TD.AperFunction*
G04 #@! TA.AperFunction,SMDPad,CuDef*
G36*
G01*
X178902000Y-78642500D02*
X178902000Y-78297500D01*
G75*
G02*
X179049500Y-78150000I147500J0D01*
G01*
X179344500Y-78150000D01*
G75*
G02*
X179492000Y-78297500I0J-147500D01*
G01*
X179492000Y-78642500D01*
G75*
G02*
X179344500Y-78790000I-147500J0D01*
G01*
X179049500Y-78790000D01*
G75*
G02*
X178902000Y-78642500I0J147500D01*
G01*
G37*
G04 #@! TD.AperFunction*
G04 #@! TA.AperFunction,SMDPad,CuDef*
G36*
G01*
X179872000Y-78642500D02*
X179872000Y-78297500D01*
G75*
G02*
X180019500Y-78150000I147500J0D01*
G01*
X180314500Y-78150000D01*
G75*
G02*
X180462000Y-78297500I0J-147500D01*
G01*
X180462000Y-78642500D01*
G75*
G02*
X180314500Y-78790000I-147500J0D01*
G01*
X180019500Y-78790000D01*
G75*
G02*
X179872000Y-78642500I0J147500D01*
G01*
G37*
G04 #@! TD.AperFunction*
G04 #@! TA.AperFunction,SMDPad,CuDef*
G36*
G01*
X165984000Y-95585500D02*
X165984000Y-95930500D01*
G75*
G02*
X165836500Y-96078000I-147500J0D01*
G01*
X165541500Y-96078000D01*
G75*
G02*
X165394000Y-95930500I0J147500D01*
G01*
X165394000Y-95585500D01*
G75*
G02*
X165541500Y-95438000I147500J0D01*
G01*
X165836500Y-95438000D01*
G75*
G02*
X165984000Y-95585500I0J-147500D01*
G01*
G37*
G04 #@! TD.AperFunction*
G04 #@! TA.AperFunction,SMDPad,CuDef*
G36*
G01*
X165014000Y-95585500D02*
X165014000Y-95930500D01*
G75*
G02*
X164866500Y-96078000I-147500J0D01*
G01*
X164571500Y-96078000D01*
G75*
G02*
X164424000Y-95930500I0J147500D01*
G01*
X164424000Y-95585500D01*
G75*
G02*
X164571500Y-95438000I147500J0D01*
G01*
X164866500Y-95438000D01*
G75*
G02*
X165014000Y-95585500I0J-147500D01*
G01*
G37*
G04 #@! TD.AperFunction*
D28*
X175260000Y-75946000D03*
X176530000Y-75946000D03*
X176530000Y-76962000D03*
X175260000Y-76962000D03*
X175260000Y-77978000D03*
X176530000Y-77978000D03*
X178550000Y-85250000D03*
X175576000Y-85371251D03*
X172720000Y-89154000D03*
X172974000Y-84074000D03*
X163068000Y-86614000D03*
X163068000Y-88138000D03*
X161290000Y-92202000D03*
X161290000Y-93472000D03*
X176468000Y-88392000D03*
X176614000Y-81534000D03*
X168402000Y-75184000D03*
X171958000Y-75184000D03*
X173482000Y-75184000D03*
X171958000Y-76708000D03*
X173482000Y-76708000D03*
X173482000Y-78232000D03*
X171958000Y-78232000D03*
X163082001Y-92964000D03*
X142500000Y-76500000D03*
X142500000Y-94000000D03*
X173101000Y-93472000D03*
X178435000Y-97282000D03*
X178435000Y-94488000D03*
X183515000Y-93091000D03*
X183261000Y-78105000D03*
X142500000Y-79000000D03*
X142500000Y-82000000D03*
X142500000Y-85000000D03*
X142500000Y-88000000D03*
X142500000Y-91000000D03*
D29*
X158572000Y-78308000D03*
D28*
X159054800Y-80721200D03*
X150774400Y-78536800D03*
X159512000Y-92100400D03*
X151028400Y-92151200D03*
X159359600Y-86156800D03*
X150876000Y-82296000D03*
X150876000Y-89408000D03*
X147320000Y-85852000D03*
X153924000Y-85852000D03*
X177800000Y-77724000D03*
X177292000Y-99060000D03*
X142240000Y-74930000D03*
X168148000Y-81026000D03*
X102870000Y-86487000D03*
X101727000Y-85344000D03*
X100711000Y-83058000D03*
X100711000Y-79248000D03*
X104267000Y-75565000D03*
X105791000Y-75565000D03*
X109156500Y-80073500D03*
X107188000Y-70993000D03*
X109474000Y-98933000D03*
X91059000Y-98933000D03*
X91059000Y-70993000D03*
X175768000Y-70993000D03*
X184023000Y-70993000D03*
X184023000Y-99060000D03*
X145438000Y-95504000D03*
X168402000Y-96774000D03*
X172000000Y-85000000D03*
X167386000Y-85344000D03*
X175514000Y-81026000D03*
X174498000Y-81026000D03*
X173482000Y-81026000D03*
X179070000Y-79248000D03*
X144272000Y-95402980D03*
X163576000Y-94742000D03*
X163576000Y-90678000D03*
X163068000Y-83820000D03*
X167640000Y-90170000D03*
X147320000Y-77724000D03*
X168459917Y-91218491D03*
X148844000Y-77724000D03*
X168656000Y-93408500D03*
D29*
X166442992Y-89408000D03*
D28*
X160020000Y-78232000D03*
D29*
X166370000Y-91186000D03*
D28*
X169418000Y-90932000D03*
X170180000Y-92710000D03*
X165608000Y-74422000D03*
X164592000Y-74422000D03*
X163576000Y-74422000D03*
X136144000Y-71120000D03*
X136144000Y-72136000D03*
X136144000Y-73152000D03*
X178550000Y-86400000D03*
X175700000Y-89200000D03*
D29*
X132842000Y-99187000D03*
X135382000Y-99187000D03*
D30*
X175972000Y-76658000D02*
X175260000Y-75946000D01*
X175972000Y-77470000D02*
X175972000Y-76658000D01*
X174852500Y-86141000D02*
X174852500Y-85125000D01*
X178562000Y-85090000D02*
X178562000Y-85344000D01*
X178562000Y-85200000D02*
X178562000Y-85438000D01*
X178050000Y-85750000D02*
X178550000Y-85250000D01*
X177292000Y-85750000D02*
X178050000Y-85750000D01*
X178050000Y-84750000D02*
X177292000Y-84750000D01*
X178550000Y-85250000D02*
X178050000Y-84750000D01*
X175576000Y-85824000D02*
X175576000Y-85371251D01*
X175259000Y-86141000D02*
X175576000Y-85824000D01*
X174852500Y-86141000D02*
X175259000Y-86141000D01*
X172720000Y-88588315D02*
X172720000Y-89154000D01*
X172257685Y-88126000D02*
X172720000Y-88588315D01*
X171441500Y-88126000D02*
X172257685Y-88126000D01*
X176522000Y-88350000D02*
X176276000Y-88596000D01*
X177292000Y-88350000D02*
X176522000Y-88350000D01*
X177292000Y-88350000D02*
X176510000Y-88350000D01*
X176510000Y-88350000D02*
X176468000Y-88392000D01*
X177292000Y-81650000D02*
X176730000Y-81650000D01*
X176730000Y-81650000D02*
X176614000Y-81534000D01*
D31*
X177292000Y-81245000D02*
X177857000Y-80680000D01*
X177292000Y-81650000D02*
X177292000Y-81245000D01*
X177292000Y-88755000D02*
X177857000Y-89320000D01*
X177292000Y-88350000D02*
X177292000Y-88755000D01*
D32*
X169432000Y-74930000D02*
X169672000Y-75170000D01*
X168402000Y-74930000D02*
X169432000Y-74930000D01*
D30*
X177292000Y-88050000D02*
X177292000Y-88350000D01*
X177292000Y-81950000D02*
X177292000Y-81650000D01*
X177857000Y-89320000D02*
X179998000Y-89320000D01*
X179998000Y-89320000D02*
X181102000Y-90424000D01*
X181102000Y-90424000D02*
X182626000Y-90424000D01*
X163179999Y-95504000D02*
X164731000Y-95504000D01*
X162875999Y-95200000D02*
X163179999Y-95504000D01*
X162875999Y-93156001D02*
X162875999Y-95200000D01*
X163068000Y-92964000D02*
X162875999Y-93156001D01*
X163082001Y-92964000D02*
X163068000Y-92964000D01*
X168402000Y-75184000D02*
X167894000Y-75184000D01*
X169658000Y-75184000D02*
X169672000Y-75170000D01*
X168402000Y-75184000D02*
X169658000Y-75184000D01*
X176593500Y-88517500D02*
X176468000Y-88392000D01*
X176593500Y-90170000D02*
X176593500Y-88517500D01*
X167640000Y-80518000D02*
X168148000Y-81026000D01*
X167640000Y-76246000D02*
X167640000Y-75692000D01*
X168402000Y-75184000D02*
X168021000Y-75184000D01*
X167640000Y-75565000D02*
X167640000Y-75692000D01*
X168021000Y-75184000D02*
X167640000Y-75565000D01*
D33*
X109156500Y-80073500D02*
X106616500Y-80073500D01*
D30*
X174852500Y-88173000D02*
X174852500Y-87157000D01*
X176126001Y-86100000D02*
X176276001Y-85950000D01*
X175900000Y-86100000D02*
X176126001Y-86100000D01*
X176276001Y-84495999D02*
X176522000Y-84250000D01*
X175700000Y-86300000D02*
X175900000Y-86100000D01*
X175700000Y-86600000D02*
X175700000Y-86300000D01*
X175850000Y-86750000D02*
X175700000Y-86600000D01*
X176522000Y-84250000D02*
X177292000Y-84250000D01*
X176000000Y-86750000D02*
X175850000Y-86750000D01*
X174852500Y-87157000D02*
X175400000Y-87157000D01*
X175400000Y-87157000D02*
X175500000Y-87257000D01*
X175500000Y-87257000D02*
X176043000Y-87257000D01*
X176043000Y-87257000D02*
X176150000Y-87150000D01*
X176150000Y-87150000D02*
X176150000Y-86900000D01*
X176150000Y-86900000D02*
X176000000Y-86750000D01*
X176276001Y-85004001D02*
X176276001Y-84900000D01*
X176522000Y-85250000D02*
X176276001Y-85004001D01*
X177292000Y-85250000D02*
X176522000Y-85250000D01*
X176276001Y-85950000D02*
X176276001Y-84900000D01*
X176276001Y-84900000D02*
X176276001Y-84495999D01*
D34*
X145862000Y-94080000D02*
X145862000Y-95080000D01*
X145862000Y-95080000D02*
X145438000Y-95504000D01*
D30*
X169507075Y-94869000D02*
X169507075Y-96176925D01*
X169507075Y-96176925D02*
X168910000Y-96774000D01*
X168910000Y-96774000D02*
X168402000Y-96774000D01*
X171078000Y-95590000D02*
X171078000Y-91440000D01*
X171078000Y-95590000D02*
X170393000Y-95590000D01*
X170393000Y-95590000D02*
X170307000Y-95504000D01*
X170307000Y-95504000D02*
X170307000Y-94996000D01*
X170180000Y-94869000D02*
X169507075Y-94869000D01*
X170307000Y-94996000D02*
X170180000Y-94869000D01*
X165701000Y-93472000D02*
X165701000Y-94742000D01*
D33*
X139279999Y-97575001D02*
X138430000Y-98425000D01*
X140195010Y-96659990D02*
X139279999Y-97575001D01*
X143962192Y-96659990D02*
X140195010Y-96659990D01*
X144718183Y-95903999D02*
X143962192Y-96659990D01*
X145038001Y-95903999D02*
X144718183Y-95903999D01*
X145438000Y-95504000D02*
X145038001Y-95903999D01*
D30*
X165701000Y-94996000D02*
X165701000Y-94488000D01*
X165701000Y-96266000D02*
X165701000Y-94996000D01*
X165909979Y-96474979D02*
X165701000Y-96266000D01*
X167525678Y-96474979D02*
X165909979Y-96474979D01*
X168402000Y-96774000D02*
X167824698Y-96774000D01*
X167824698Y-96774000D02*
X167525678Y-96474979D01*
X172212000Y-86626000D02*
X171441500Y-86626000D01*
X172396302Y-86441698D02*
X172212000Y-86626000D01*
X172122302Y-86126000D02*
X172396302Y-85852000D01*
X171441500Y-86126000D02*
X172122302Y-86126000D01*
X172396302Y-85852000D02*
X172396302Y-86441698D01*
X172396302Y-85852000D02*
X172396302Y-85396302D01*
X172396302Y-85396302D02*
X172000000Y-85000000D01*
D34*
X165354000Y-85598000D02*
X165608000Y-85852000D01*
D30*
X164465000Y-84755000D02*
X165435000Y-85725000D01*
X164465000Y-84455000D02*
X164465000Y-84755000D01*
X165435000Y-85725000D02*
X165816000Y-85344000D01*
X165816000Y-85344000D02*
X167386000Y-85344000D01*
X166239000Y-87626000D02*
X165989000Y-87376000D01*
X167516500Y-87626000D02*
X166239000Y-87626000D01*
D34*
X170229000Y-85413500D02*
X170229000Y-84779000D01*
X170729000Y-85413500D02*
X170729000Y-84623000D01*
X170328000Y-84222000D02*
X169672000Y-84222000D01*
X170729000Y-84623000D02*
X170328000Y-84222000D01*
X170229000Y-84779000D02*
X169672000Y-84222000D01*
D30*
X168254000Y-82804000D02*
X167050000Y-82804000D01*
X169672000Y-84222000D02*
X168254000Y-82804000D01*
D35*
X172928000Y-81026000D02*
X173482000Y-81026000D01*
X171672000Y-79770000D02*
X172928000Y-81026000D01*
X169672000Y-79770000D02*
X171672000Y-79770000D01*
X175514000Y-81026000D02*
X174498000Y-81026000D01*
X174498000Y-81026000D02*
X173482000Y-81026000D01*
D30*
X178943000Y-79121000D02*
X179070000Y-79248000D01*
X179070000Y-78597000D02*
X179197000Y-78470000D01*
X179070000Y-79248000D02*
X179070000Y-78597000D01*
D31*
X169672000Y-79770000D02*
X168924000Y-79770000D01*
X168702000Y-79548000D02*
X167640000Y-79548000D01*
X168924000Y-79770000D02*
X168702000Y-79548000D01*
X165644000Y-79548000D02*
X165100000Y-80092000D01*
X167640000Y-79548000D02*
X165644000Y-79548000D01*
D35*
X167050000Y-82804000D02*
X165862000Y-82804000D01*
X165100000Y-82042000D02*
X165100000Y-80092000D01*
X165862000Y-82804000D02*
X165100000Y-82042000D01*
D30*
X144592000Y-94080000D02*
X144592000Y-95082980D01*
X144592000Y-95082980D02*
X144272000Y-95402980D01*
X163576000Y-93726000D02*
X163830000Y-93472000D01*
X163576000Y-94742000D02*
X163576000Y-93726000D01*
X163576000Y-92202000D02*
X163830000Y-92456000D01*
X163576000Y-91948000D02*
X163576000Y-92202000D01*
X163576000Y-91694000D02*
X163576000Y-91948000D01*
D33*
X164731000Y-90932000D02*
X163576000Y-90932000D01*
D30*
X163576000Y-90932000D02*
X163576000Y-91694000D01*
D31*
X173990000Y-73105000D02*
X173435000Y-73660000D01*
X173990000Y-71755000D02*
X173990000Y-73105000D01*
D30*
X164731000Y-93218000D02*
X163830000Y-93218000D01*
X163830000Y-93472000D02*
X163830000Y-93218000D01*
X163830000Y-93218000D02*
X163830000Y-92456000D01*
D31*
X167386000Y-77470000D02*
X168402000Y-77470000D01*
X168402000Y-77470000D02*
X169672000Y-77470000D01*
X168023448Y-77470000D02*
X168402000Y-77470000D01*
X167386000Y-77470000D02*
X166878000Y-76962000D01*
X166878000Y-73914000D02*
X167132000Y-73660000D01*
X166878000Y-76962000D02*
X166878000Y-73914000D01*
X173435000Y-73660000D02*
X167132000Y-73660000D01*
D33*
X163576000Y-90932000D02*
X163576000Y-90678000D01*
D30*
X169672000Y-77470000D02*
X163576000Y-77470000D01*
X163068000Y-77978000D02*
X163068000Y-83820000D01*
X163576000Y-77470000D02*
X163068000Y-77978000D01*
D34*
X150942000Y-96073000D02*
X150942000Y-94080000D01*
X148590000Y-98425000D02*
X150942000Y-96073000D01*
X146327000Y-98425000D02*
X146050000Y-98425000D01*
X149672000Y-95080000D02*
X146327000Y-98425000D01*
X149672000Y-94080000D02*
X149672000Y-95080000D01*
X148402000Y-95080000D02*
X148402000Y-94080000D01*
X146454000Y-97028000D02*
X148402000Y-95080000D01*
X144907000Y-97028000D02*
X146454000Y-97028000D01*
X143510000Y-98425000D02*
X144907000Y-97028000D01*
X139279999Y-72604999D02*
X138430000Y-71755000D01*
X140658010Y-73983010D02*
X139279999Y-72604999D01*
X143295010Y-73983010D02*
X140658010Y-73983010D01*
X144592000Y-75280000D02*
X143295010Y-73983010D01*
X144592000Y-76280000D02*
X144592000Y-75280000D01*
X143764000Y-73152000D02*
X144780000Y-74168000D01*
X142367000Y-73152000D02*
X143764000Y-73152000D01*
X140970000Y-71755000D02*
X142367000Y-73152000D01*
X144780000Y-74168000D02*
X145288000Y-74168000D01*
X145862000Y-74742000D02*
X145862000Y-76280000D01*
X145288000Y-74168000D02*
X145862000Y-74742000D01*
X168410000Y-90170000D02*
X167640000Y-90170000D01*
X168729000Y-89338500D02*
X168729000Y-89851000D01*
X168729000Y-89851000D02*
X168410000Y-90170000D01*
D30*
X143510000Y-71755000D02*
X145161000Y-73406000D01*
X145161000Y-73406000D02*
X145998998Y-73406000D01*
X145998998Y-73406000D02*
X147132000Y-74539002D01*
X147132000Y-76280000D02*
X147132000Y-74930000D01*
X147132000Y-74539002D02*
X147132000Y-74930000D01*
X147132000Y-76280000D02*
X147132000Y-77536000D01*
X147132000Y-77536000D02*
X147320000Y-77724000D01*
D34*
X146050000Y-71755000D02*
X148402000Y-74107000D01*
X168459917Y-90756493D02*
X168459917Y-91218491D01*
X169229000Y-89338500D02*
X169229000Y-89987410D01*
X169229000Y-89987410D02*
X168459917Y-90756493D01*
X148402000Y-74107000D02*
X148402000Y-74676000D01*
X148402000Y-74676000D02*
X148402000Y-76280000D01*
D30*
X148402000Y-77282000D02*
X148844000Y-77724000D01*
X148402000Y-76280000D02*
X148402000Y-77282000D01*
D34*
X149672000Y-72837000D02*
X148590000Y-71755000D01*
X149672000Y-76280000D02*
X149672000Y-72837000D01*
X152212000Y-72837000D02*
X151130000Y-71755000D01*
X152212000Y-76280000D02*
X152212000Y-72837000D01*
X153670000Y-76092000D02*
X153482000Y-76280000D01*
X153670000Y-71755000D02*
X153670000Y-76092000D01*
X154752000Y-73213000D02*
X156210000Y-71755000D01*
X154752000Y-76280000D02*
X154752000Y-73213000D01*
D30*
X168656000Y-94920075D02*
X168057075Y-95519000D01*
X168656000Y-94920075D02*
X168656000Y-93408500D01*
X168057075Y-95519000D02*
X167507075Y-95519000D01*
X165701000Y-89408000D02*
X166442992Y-89408000D01*
X166442992Y-89408000D02*
X168148000Y-89408000D01*
X174693000Y-95590000D02*
X174693000Y-91440000D01*
X174693000Y-91240000D02*
X173877000Y-90424000D01*
X174693000Y-91440000D02*
X174693000Y-91240000D01*
X169632075Y-91918491D02*
X169507075Y-91918491D01*
X170118001Y-91432565D02*
X169632075Y-91918491D01*
X170118001Y-90739999D02*
X170118001Y-91432565D01*
X170434000Y-90424000D02*
X170118001Y-90739999D01*
X173877000Y-90424000D02*
X170434000Y-90424000D01*
X159832000Y-78044000D02*
X160020000Y-78232000D01*
X159832000Y-76280000D02*
X159832000Y-78044000D01*
X166209000Y-91186000D02*
X165701000Y-90678000D01*
X166370000Y-91186000D02*
X166209000Y-91186000D01*
X167102491Y-91918491D02*
X166370000Y-91186000D01*
X169507075Y-91918491D02*
X167102491Y-91918491D01*
X167507075Y-92568491D02*
X170038491Y-92568491D01*
X170038491Y-92568491D02*
X170180000Y-92710000D01*
X169418000Y-90874301D02*
X169418000Y-90932000D01*
X170229000Y-89338500D02*
X170229000Y-90063301D01*
X170229000Y-90063301D02*
X169418000Y-90874301D01*
X166511509Y-91948000D02*
X165701000Y-91948000D01*
X167132000Y-92568491D02*
X166511509Y-91948000D01*
X167132000Y-92568491D02*
X167507075Y-92568491D01*
X172502500Y-87126000D02*
X172300000Y-87126000D01*
X173487500Y-86141000D02*
X172502500Y-87126000D01*
X173882500Y-86141000D02*
X173487500Y-86141000D01*
X171441500Y-87126000D02*
X172300000Y-87126000D01*
X172426000Y-87626000D02*
X171441500Y-87626000D01*
X173100000Y-87600000D02*
X172900000Y-87800000D01*
X172900000Y-87800000D02*
X172600000Y-87800000D01*
X172600000Y-87800000D02*
X172426000Y-87626000D01*
X173100000Y-87457000D02*
X173400000Y-87157000D01*
X173100000Y-87600000D02*
X173100000Y-87457000D01*
X173882500Y-87157000D02*
X173400000Y-87157000D01*
D34*
X169729000Y-84952978D02*
X169729000Y-85413500D01*
X169277854Y-84501832D02*
X169729000Y-84952978D01*
X165944668Y-84501832D02*
X169277854Y-84501832D01*
D30*
X165897836Y-84455000D02*
X165435000Y-84455000D01*
X165944668Y-84501832D02*
X165897836Y-84455000D01*
X147132000Y-95438000D02*
X147132000Y-94080000D01*
X145992010Y-96577990D02*
X147132000Y-95438000D01*
X140970000Y-98425000D02*
X141819999Y-97575001D01*
X141819999Y-97575001D02*
X142424999Y-97575001D01*
X142424999Y-97575001D02*
X143000000Y-97000000D01*
X143000000Y-97000000D02*
X144333946Y-97000000D01*
X144333946Y-97000000D02*
X144755956Y-96577990D01*
X144755956Y-96577990D02*
X145992010Y-96577990D01*
X177292000Y-87550000D02*
X177292000Y-87250000D01*
D36*
X176341999Y-82575001D02*
X177292000Y-82575001D01*
X172700000Y-82804000D02*
X172928999Y-82575001D01*
X171450000Y-82804000D02*
X172700000Y-82804000D01*
X172928999Y-82575001D02*
X175768000Y-82575001D01*
X175768000Y-82575001D02*
X176341999Y-82575001D01*
D32*
X177292000Y-82750000D02*
X177992998Y-82750000D01*
X177992998Y-82750000D02*
X178042999Y-82800001D01*
X177692998Y-82450000D02*
X177292000Y-82450000D01*
X178042999Y-82800001D02*
X177692998Y-82450000D01*
X177292001Y-87250001D02*
X177292000Y-87250000D01*
X178020001Y-87250001D02*
X177292001Y-87250001D01*
X177720002Y-87550000D02*
X178020001Y-87250001D01*
X177292000Y-87550000D02*
X177720002Y-87550000D01*
D30*
X177292000Y-82750000D02*
X177292000Y-82450000D01*
D32*
X179100000Y-87200000D02*
X178070002Y-87200000D01*
X178070002Y-87200000D02*
X178020001Y-87250001D01*
X178042999Y-82800001D02*
X179100001Y-82800001D01*
X179100001Y-82800001D02*
X179312001Y-83012001D01*
X179312001Y-83012001D02*
X179312001Y-85450001D01*
X179312001Y-85450001D02*
X179300000Y-85462002D01*
X179300000Y-85462002D02*
X179300000Y-87000000D01*
X179300000Y-87000000D02*
X179100000Y-87200000D01*
D33*
X110490000Y-78405000D02*
X109705000Y-77620000D01*
X110490000Y-97155000D02*
X110490000Y-78405000D01*
X133350000Y-98425000D02*
X111760000Y-98425000D01*
X133650000Y-98725000D02*
X133350000Y-98425000D01*
X111760000Y-98425000D02*
X110490000Y-97155000D01*
X133650000Y-99187000D02*
X133650000Y-98725000D01*
X109705000Y-77620000D02*
X108633000Y-77620000D01*
X127254000Y-99187000D02*
X127508000Y-99187000D01*
X127508000Y-99187000D02*
X131110000Y-99187000D01*
X109937500Y-93897500D02*
X108000000Y-91960000D01*
X109937500Y-97872500D02*
X109937500Y-93897500D01*
X111252000Y-99187000D02*
X109937500Y-97872500D01*
X127508000Y-99187000D02*
X111252000Y-99187000D01*
D35*
X165100000Y-74930000D02*
X165608000Y-74422000D01*
X165100000Y-75692000D02*
X165100000Y-74930000D01*
X164592000Y-74422000D02*
X163576000Y-74422000D01*
X165608000Y-74422000D02*
X164592000Y-74422000D01*
X108000000Y-72340000D02*
X108000000Y-74080000D01*
X109220000Y-71120000D02*
X108000000Y-72340000D01*
X136144000Y-71120000D02*
X136144000Y-72136000D01*
X136144000Y-72136000D02*
X136144000Y-73152000D01*
X136144000Y-73152000D02*
X136144000Y-73152000D01*
X136144000Y-72136000D02*
X135128000Y-71120000D01*
X135128000Y-71120000D02*
X109220000Y-71120000D01*
X136144000Y-71120000D02*
X135128000Y-71120000D01*
D30*
X177292000Y-86250000D02*
X178400000Y-86250000D01*
X178400000Y-86250000D02*
X178550000Y-86400000D01*
X174911851Y-89198351D02*
X174867500Y-89154000D01*
X175301649Y-89200000D02*
X175300000Y-89198351D01*
X175700000Y-89200000D02*
X175301649Y-89200000D01*
X175412864Y-89198351D02*
X175300000Y-89198351D01*
X175300000Y-89198351D02*
X174911851Y-89198351D01*
D34*
X174929500Y-84012000D02*
X174867500Y-84074000D01*
D30*
X175691500Y-83250000D02*
X177292000Y-83250000D01*
X174867500Y-84074000D02*
X175691500Y-83250000D01*
X164731000Y-92368000D02*
X164731000Y-91948000D01*
X167382075Y-94219000D02*
X166751000Y-93587925D01*
X167507075Y-94219000D02*
X167382075Y-94219000D01*
X166751000Y-93587925D02*
X166751000Y-92837000D01*
X166751000Y-92837000D02*
X166442010Y-92528010D01*
X166442010Y-92528010D02*
X164891010Y-92528010D01*
X164891010Y-92528010D02*
X164731000Y-92368000D01*
X167507075Y-91268491D02*
X167382075Y-91268491D01*
X167382075Y-91268491D02*
X166747584Y-90634000D01*
X164731000Y-89828000D02*
X164731000Y-89408000D01*
X166747584Y-90634000D02*
X166747584Y-90170000D01*
X166747584Y-90170000D02*
X166565594Y-89988010D01*
X166565594Y-89988010D02*
X164891010Y-89988010D01*
X164891010Y-89988010D02*
X164731000Y-89828000D01*
X179324000Y-91313000D02*
X180594000Y-91313000D01*
X180167000Y-78470000D02*
X181402000Y-78470000D01*
X162282000Y-89620000D02*
X161332000Y-89620000D01*
X162382001Y-89720001D02*
X162282000Y-89620000D01*
X167359989Y-96874989D02*
X164700000Y-96874989D01*
X164700000Y-96874989D02*
X164025011Y-96200000D01*
X164025011Y-96200000D02*
X162982001Y-96200000D01*
X162982001Y-96200000D02*
X162382001Y-95600000D01*
X162382001Y-95600000D02*
X162382001Y-89720001D01*
X175387000Y-96774000D02*
X170561000Y-96774000D01*
X175788002Y-96372998D02*
X175387000Y-96774000D01*
X175788002Y-93070998D02*
X175788002Y-96372998D01*
X176276000Y-92583000D02*
X175788002Y-93070998D01*
X177673000Y-92583000D02*
X178308000Y-91948000D01*
X176276000Y-92583000D02*
X177673000Y-92583000D01*
X178308000Y-91313000D02*
X178308000Y-91948000D01*
X167359989Y-96874989D02*
X168910000Y-98425000D01*
X168910000Y-98425000D02*
X170561000Y-96774000D01*
X159840019Y-95250000D02*
X161290000Y-96699981D01*
X165520001Y-97575001D02*
X166370000Y-98425000D01*
X159832000Y-94080000D02*
X159832000Y-95250000D01*
X161290000Y-96699981D02*
X163501981Y-96699981D01*
X165219999Y-97274999D02*
X165520001Y-97575001D01*
X164076999Y-97274999D02*
X165219999Y-97274999D01*
X159832000Y-95250000D02*
X159840019Y-95250000D01*
X163501981Y-96699981D02*
X164076999Y-97274999D01*
D34*
X158562000Y-95080000D02*
X158562000Y-94080000D01*
X160606991Y-97124991D02*
X158562000Y-95080000D01*
X162529991Y-97124991D02*
X160606991Y-97124991D01*
X163830000Y-98425000D02*
X162529991Y-97124991D01*
X157292000Y-95080000D02*
X157292000Y-94080000D01*
X159787001Y-97575001D02*
X157292000Y-95080000D01*
X160440001Y-97575001D02*
X159787001Y-97575001D01*
X161290000Y-98425000D02*
X160440001Y-97575001D01*
X156022000Y-95697000D02*
X158750000Y-98425000D01*
X156022000Y-94080000D02*
X156022000Y-95697000D01*
D33*
X132080000Y-99187000D02*
X132842000Y-99187000D01*
X132842000Y-99187000D02*
X132842000Y-99187000D01*
D34*
X154752000Y-95080000D02*
X154752000Y-94080000D01*
D30*
X154752000Y-96967000D02*
X154752000Y-95250000D01*
X156210000Y-98425000D02*
X154752000Y-96967000D01*
D34*
X154752000Y-95250000D02*
X154752000Y-95080000D01*
D33*
X134620000Y-99187000D02*
X135382000Y-99187000D01*
X135382000Y-99187000D02*
X135382000Y-99187000D01*
D34*
X153482000Y-98237000D02*
X153670000Y-98425000D01*
X153482000Y-94080000D02*
X153482000Y-98237000D01*
X152212000Y-97343000D02*
X151130000Y-98425000D01*
X152212000Y-94080000D02*
X152212000Y-97343000D01*
X156022000Y-74483000D02*
X156022000Y-76280000D01*
X158750000Y-71755000D02*
X156022000Y-74483000D01*
X157292000Y-76280000D02*
X157292000Y-74356000D01*
X158115000Y-73533000D02*
X159512000Y-73533000D01*
X157292000Y-74356000D02*
X158115000Y-73533000D01*
X161290000Y-71755000D02*
X159512000Y-73533000D01*
D30*
X156972000Y-76600000D02*
X157292000Y-76280000D01*
D33*
X163449000Y-71755000D02*
X163830000Y-71755000D01*
X161036000Y-72898000D02*
X162306000Y-72898000D01*
X159766000Y-74168000D02*
X161036000Y-72898000D01*
X162306000Y-72898000D02*
X163449000Y-71755000D01*
X159004000Y-74168000D02*
X159766000Y-74168000D01*
X158562000Y-74610000D02*
X159004000Y-74168000D01*
X158562000Y-76280000D02*
X158562000Y-74610000D01*
X164906990Y-73218010D02*
X165290500Y-72834500D01*
X165290500Y-72834500D02*
X166370000Y-71755000D01*
X161731990Y-73218010D02*
X164906990Y-73218010D01*
X161332000Y-73618000D02*
X161731990Y-73218010D01*
X161332000Y-79460000D02*
X161332000Y-73618000D01*
X166200182Y-73538020D02*
X166713202Y-73025000D01*
X163189980Y-73538020D02*
X166200182Y-73538020D01*
X167640000Y-73025000D02*
X168910000Y-71755000D01*
X162560000Y-74168000D02*
X163189980Y-73538020D01*
X166713202Y-73025000D02*
X167640000Y-73025000D01*
X161332000Y-80730000D02*
X162348000Y-80730000D01*
X162560000Y-80518000D02*
X162560000Y-74168000D01*
X162348000Y-80730000D02*
X162560000Y-80518000D01*
D37*
X184290001Y-99290000D02*
X175476595Y-99290000D01*
X175478072Y-99275000D01*
X175478072Y-97575000D01*
X175471106Y-97504272D01*
X175531085Y-97498365D01*
X175669633Y-97456337D01*
X175797320Y-97388087D01*
X175909238Y-97296238D01*
X175932259Y-97268187D01*
X176282189Y-96918257D01*
X176310240Y-96895236D01*
X176402089Y-96783318D01*
X176423244Y-96743740D01*
X176518000Y-96753072D01*
X176557250Y-96750000D01*
X176716000Y-96591250D01*
X176716000Y-95717000D01*
X176970000Y-95717000D01*
X176970000Y-96591250D01*
X177128750Y-96750000D01*
X177168000Y-96753072D01*
X177292482Y-96740812D01*
X177412180Y-96704502D01*
X177522494Y-96645537D01*
X177619185Y-96566185D01*
X177698537Y-96469494D01*
X177757502Y-96359180D01*
X177793812Y-96239482D01*
X177806072Y-96115000D01*
X177803000Y-95875750D01*
X177707122Y-95779872D01*
X178765000Y-95779872D01*
X178765000Y-96220128D01*
X178850890Y-96651925D01*
X179019369Y-97058669D01*
X179263962Y-97424729D01*
X179575271Y-97736038D01*
X179941331Y-97980631D01*
X180348075Y-98149110D01*
X180779872Y-98235000D01*
X181220128Y-98235000D01*
X181651925Y-98149110D01*
X182058669Y-97980631D01*
X182424729Y-97736038D01*
X182736038Y-97424729D01*
X182980631Y-97058669D01*
X183149110Y-96651925D01*
X183235000Y-96220128D01*
X183235000Y-95779872D01*
X183149110Y-95348075D01*
X182980631Y-94941331D01*
X182736038Y-94575271D01*
X182424729Y-94263962D01*
X182058669Y-94019369D01*
X181651925Y-93850890D01*
X181220128Y-93765000D01*
X180779872Y-93765000D01*
X180348075Y-93850890D01*
X179941331Y-94019369D01*
X179575271Y-94263962D01*
X179263962Y-94575271D01*
X179019369Y-94941331D01*
X178850890Y-95348075D01*
X178765000Y-95779872D01*
X177707122Y-95779872D01*
X177644250Y-95717000D01*
X176970000Y-95717000D01*
X176716000Y-95717000D01*
X176696000Y-95717000D01*
X176696000Y-95463000D01*
X176716000Y-95463000D01*
X176716000Y-94588750D01*
X176970000Y-94588750D01*
X176970000Y-95463000D01*
X177644250Y-95463000D01*
X177803000Y-95304250D01*
X177806072Y-95065000D01*
X177793812Y-94940518D01*
X177757502Y-94820820D01*
X177698537Y-94710506D01*
X177619185Y-94613815D01*
X177522494Y-94534463D01*
X177412180Y-94475498D01*
X177292482Y-94439188D01*
X177168000Y-94426928D01*
X177128750Y-94430000D01*
X176970000Y-94588750D01*
X176716000Y-94588750D01*
X176557250Y-94430000D01*
X176523002Y-94427319D01*
X176523002Y-93375444D01*
X176580446Y-93318000D01*
X177636895Y-93318000D01*
X177673000Y-93321556D01*
X177709105Y-93318000D01*
X177817085Y-93307365D01*
X177955633Y-93265337D01*
X178083320Y-93197087D01*
X178195238Y-93105238D01*
X178218258Y-93077188D01*
X178802193Y-92493254D01*
X178830238Y-92470238D01*
X178922087Y-92358320D01*
X178937860Y-92328811D01*
X178976854Y-92255859D01*
X178977243Y-92255977D01*
X179130500Y-92271072D01*
X179425500Y-92271072D01*
X179578757Y-92255977D01*
X179726125Y-92211274D01*
X179861940Y-92138679D01*
X179884000Y-92120575D01*
X179906060Y-92138679D01*
X180041875Y-92211274D01*
X180189243Y-92255977D01*
X180342500Y-92271072D01*
X180637500Y-92271072D01*
X180790757Y-92255977D01*
X180913684Y-92218688D01*
X180920820Y-92222502D01*
X181040518Y-92258812D01*
X181165000Y-92271072D01*
X181174250Y-92268000D01*
X181333000Y-92109250D01*
X181333000Y-91842763D01*
X181363274Y-91786125D01*
X181407977Y-91638757D01*
X181423072Y-91485500D01*
X181423072Y-91440000D01*
X181587000Y-91440000D01*
X181587000Y-92109250D01*
X181745750Y-92268000D01*
X181755000Y-92271072D01*
X181879482Y-92258812D01*
X181999180Y-92222502D01*
X182109494Y-92163537D01*
X182206185Y-92084185D01*
X182285537Y-91987494D01*
X182344502Y-91877180D01*
X182380812Y-91757482D01*
X182393072Y-91633000D01*
X182390000Y-91598750D01*
X182231250Y-91440000D01*
X181587000Y-91440000D01*
X181423072Y-91440000D01*
X181423072Y-91166000D01*
X181587000Y-91166000D01*
X181587000Y-91186000D01*
X182231250Y-91186000D01*
X182390000Y-91027250D01*
X182393072Y-90993000D01*
X182380812Y-90868518D01*
X182344502Y-90748820D01*
X182285537Y-90638506D01*
X182206185Y-90541815D01*
X182109494Y-90462463D01*
X182095532Y-90455000D01*
X182574000Y-90455000D01*
X182792987Y-90408415D01*
X182998678Y-90320003D01*
X183183169Y-90193161D01*
X183339369Y-90032764D01*
X183461276Y-89844976D01*
X183541119Y-89621874D01*
X183414954Y-89447000D01*
X182174000Y-89447000D01*
X182174000Y-89467000D01*
X181920000Y-89467000D01*
X181920000Y-89447000D01*
X180679046Y-89447000D01*
X180552881Y-89621874D01*
X180632724Y-89844976D01*
X180754631Y-90032764D01*
X180910831Y-90193161D01*
X181095322Y-90320003D01*
X181301013Y-90408415D01*
X181332998Y-90415219D01*
X181332998Y-90516748D01*
X181174250Y-90358000D01*
X181165000Y-90354928D01*
X181040518Y-90367188D01*
X180920820Y-90403498D01*
X180913684Y-90407312D01*
X180790757Y-90370023D01*
X180637500Y-90354928D01*
X180342500Y-90354928D01*
X180189243Y-90370023D01*
X180041875Y-90414726D01*
X179906060Y-90487321D01*
X179884000Y-90505425D01*
X179861940Y-90487321D01*
X179726125Y-90414726D01*
X179578757Y-90370023D01*
X179425500Y-90354928D01*
X179130500Y-90354928D01*
X178977243Y-90370023D01*
X178829875Y-90414726D01*
X178793000Y-90434436D01*
X178756125Y-90414726D01*
X178657739Y-90384881D01*
X178808678Y-90320003D01*
X178993169Y-90193161D01*
X179149369Y-90032764D01*
X179271276Y-89844976D01*
X179351119Y-89621874D01*
X179224954Y-89447000D01*
X177984000Y-89447000D01*
X177984000Y-89467000D01*
X177730000Y-89467000D01*
X177730000Y-89447000D01*
X177710000Y-89447000D01*
X177710000Y-89193000D01*
X177730000Y-89193000D01*
X177730000Y-89173000D01*
X177984000Y-89173000D01*
X177984000Y-89193000D01*
X179224954Y-89193000D01*
X179351119Y-89018126D01*
X180552881Y-89018126D01*
X180679046Y-89193000D01*
X181920000Y-89193000D01*
X181920000Y-88185000D01*
X182174000Y-88185000D01*
X182174000Y-89193000D01*
X183414954Y-89193000D01*
X183541119Y-89018126D01*
X183461276Y-88795024D01*
X183339369Y-88607236D01*
X183183169Y-88446839D01*
X182998678Y-88319997D01*
X182792987Y-88231585D01*
X182574000Y-88185000D01*
X182174000Y-88185000D01*
X181920000Y-88185000D01*
X181520000Y-88185000D01*
X181301013Y-88231585D01*
X181095322Y-88319997D01*
X180910831Y-88446839D01*
X180754631Y-88607236D01*
X180632724Y-88795024D01*
X180552881Y-89018126D01*
X179351119Y-89018126D01*
X179271276Y-88795024D01*
X179149369Y-88607236D01*
X179071929Y-88527716D01*
X179112681Y-88486964D01*
X179217741Y-88329731D01*
X179290108Y-88155022D01*
X179327000Y-87969552D01*
X179327000Y-87951462D01*
X179401860Y-87928754D01*
X179538233Y-87855862D01*
X179657764Y-87757764D01*
X179682348Y-87727809D01*
X179827806Y-87582350D01*
X179857764Y-87557764D01*
X179955862Y-87438233D01*
X180028754Y-87301860D01*
X180044789Y-87249000D01*
X180073642Y-87153887D01*
X180082396Y-87065000D01*
X180085000Y-87038561D01*
X180085000Y-87038556D01*
X180088797Y-87000000D01*
X180085000Y-86961444D01*
X180085000Y-85606007D01*
X180085643Y-85603887D01*
X180093116Y-85528002D01*
X180097001Y-85488562D01*
X180097001Y-85488556D01*
X180100798Y-85450001D01*
X180097001Y-85411446D01*
X180097001Y-83050553D01*
X180100798Y-83012000D01*
X180097001Y-82973447D01*
X180097001Y-82973440D01*
X180085642Y-82858114D01*
X180080051Y-82839681D01*
X180069573Y-82805143D01*
X180040755Y-82710141D01*
X179967863Y-82573768D01*
X179869765Y-82454237D01*
X179839812Y-82429655D01*
X179682346Y-82272189D01*
X179657765Y-82242237D01*
X179538234Y-82144139D01*
X179401861Y-82071247D01*
X179327000Y-82048538D01*
X179327000Y-82030448D01*
X179290108Y-81844978D01*
X179217741Y-81670269D01*
X179112681Y-81513036D01*
X179071929Y-81472284D01*
X179149369Y-81392764D01*
X179271276Y-81204976D01*
X179351119Y-80981874D01*
X180552881Y-80981874D01*
X180632724Y-81204976D01*
X180754631Y-81392764D01*
X180910831Y-81553161D01*
X181095322Y-81680003D01*
X181301013Y-81768415D01*
X181520000Y-81815000D01*
X181920000Y-81815000D01*
X181920000Y-80807000D01*
X182174000Y-80807000D01*
X182174000Y-81815000D01*
X182574000Y-81815000D01*
X182792987Y-81768415D01*
X182998678Y-81680003D01*
X183183169Y-81553161D01*
X183339369Y-81392764D01*
X183461276Y-81204976D01*
X183541119Y-80981874D01*
X183414954Y-80807000D01*
X182174000Y-80807000D01*
X181920000Y-80807000D01*
X180679046Y-80807000D01*
X180552881Y-80981874D01*
X179351119Y-80981874D01*
X179224954Y-80807000D01*
X177984000Y-80807000D01*
X177984000Y-80827000D01*
X177730000Y-80827000D01*
X177730000Y-80807000D01*
X177710000Y-80807000D01*
X177710000Y-80553000D01*
X177730000Y-80553000D01*
X177730000Y-79545000D01*
X177984000Y-79545000D01*
X177984000Y-80553000D01*
X179224954Y-80553000D01*
X179351119Y-80378126D01*
X180552881Y-80378126D01*
X180679046Y-80553000D01*
X181920000Y-80553000D01*
X181920000Y-79545000D01*
X182174000Y-79545000D01*
X182174000Y-80553000D01*
X183414954Y-80553000D01*
X183541119Y-80378126D01*
X183461276Y-80155024D01*
X183339369Y-79967236D01*
X183183169Y-79806839D01*
X182998678Y-79679997D01*
X182792987Y-79591585D01*
X182574000Y-79545000D01*
X182174000Y-79545000D01*
X181920000Y-79545000D01*
X181520000Y-79545000D01*
X181301013Y-79591585D01*
X181095322Y-79679997D01*
X180910831Y-79806839D01*
X180754631Y-79967236D01*
X180632724Y-80155024D01*
X180552881Y-80378126D01*
X179351119Y-80378126D01*
X179307431Y-80256049D01*
X179371898Y-80243226D01*
X179560256Y-80165205D01*
X179729774Y-80051937D01*
X179873937Y-79907774D01*
X179987205Y-79738256D01*
X180065226Y-79549898D01*
X180089459Y-79428072D01*
X180314500Y-79428072D01*
X180467757Y-79412977D01*
X180615125Y-79368274D01*
X180750940Y-79295679D01*
X180784500Y-79268137D01*
X180818060Y-79295679D01*
X180953875Y-79368274D01*
X181101243Y-79412977D01*
X181254500Y-79428072D01*
X181549500Y-79428072D01*
X181702757Y-79412977D01*
X181825684Y-79375688D01*
X181832820Y-79379502D01*
X181952518Y-79415812D01*
X182077000Y-79428072D01*
X182086250Y-79425000D01*
X182245000Y-79266250D01*
X182245000Y-78999763D01*
X182275274Y-78943125D01*
X182319977Y-78795757D01*
X182335072Y-78642500D01*
X182335072Y-78597000D01*
X182499000Y-78597000D01*
X182499000Y-79266250D01*
X182657750Y-79425000D01*
X182667000Y-79428072D01*
X182791482Y-79415812D01*
X182911180Y-79379502D01*
X183021494Y-79320537D01*
X183118185Y-79241185D01*
X183197537Y-79144494D01*
X183256502Y-79034180D01*
X183292812Y-78914482D01*
X183305072Y-78790000D01*
X183302000Y-78755750D01*
X183143250Y-78597000D01*
X182499000Y-78597000D01*
X182335072Y-78597000D01*
X182335072Y-78297500D01*
X182319977Y-78144243D01*
X182275274Y-77996875D01*
X182245000Y-77940237D01*
X182245000Y-77673750D01*
X182499000Y-77673750D01*
X182499000Y-78343000D01*
X183143250Y-78343000D01*
X183302000Y-78184250D01*
X183305072Y-78150000D01*
X183292812Y-78025518D01*
X183256502Y-77905820D01*
X183197537Y-77795506D01*
X183118185Y-77698815D01*
X183021494Y-77619463D01*
X182911180Y-77560498D01*
X182791482Y-77524188D01*
X182667000Y-77511928D01*
X182657750Y-77515000D01*
X182499000Y-77673750D01*
X182245000Y-77673750D01*
X182086250Y-77515000D01*
X182077000Y-77511928D01*
X181952518Y-77524188D01*
X181832820Y-77560498D01*
X181825684Y-77564312D01*
X181702757Y-77527023D01*
X181549500Y-77511928D01*
X181254500Y-77511928D01*
X181101243Y-77527023D01*
X180953875Y-77571726D01*
X180818060Y-77644321D01*
X180784500Y-77671863D01*
X180750940Y-77644321D01*
X180615125Y-77571726D01*
X180467757Y-77527023D01*
X180314500Y-77511928D01*
X180019500Y-77511928D01*
X179866243Y-77527023D01*
X179718875Y-77571726D01*
X179682000Y-77591436D01*
X179645125Y-77571726D01*
X179497757Y-77527023D01*
X179344500Y-77511928D01*
X179049500Y-77511928D01*
X178896243Y-77527023D01*
X178748875Y-77571726D01*
X178613060Y-77644321D01*
X178494017Y-77742017D01*
X178396321Y-77861060D01*
X178323726Y-77996875D01*
X178279023Y-78144243D01*
X178263928Y-78297500D01*
X178263928Y-78591421D01*
X178152795Y-78757744D01*
X178074774Y-78946102D01*
X178035000Y-79146061D01*
X178035000Y-79349939D01*
X178073800Y-79545000D01*
X177984000Y-79545000D01*
X177730000Y-79545000D01*
X177582488Y-79545000D01*
X177597812Y-79494482D01*
X177610072Y-79370000D01*
X177610072Y-75570000D01*
X177597812Y-75445518D01*
X177561502Y-75325820D01*
X177502537Y-75215506D01*
X177423185Y-75118815D01*
X177326494Y-75039463D01*
X177216180Y-74980498D01*
X177096482Y-74944188D01*
X176972000Y-74931928D01*
X176737152Y-74931928D01*
X176631939Y-74911000D01*
X176428061Y-74911000D01*
X176322848Y-74931928D01*
X175467152Y-74931928D01*
X175361939Y-74911000D01*
X175158061Y-74911000D01*
X175052848Y-74931928D01*
X174972000Y-74931928D01*
X174847518Y-74944188D01*
X174727820Y-74980498D01*
X174617506Y-75039463D01*
X174520815Y-75118815D01*
X174441463Y-75215506D01*
X174382498Y-75325820D01*
X174346188Y-75445518D01*
X174345593Y-75451556D01*
X174342795Y-75455744D01*
X174264774Y-75644102D01*
X174225000Y-75844061D01*
X174225000Y-76047939D01*
X174264774Y-76247898D01*
X174333928Y-76414849D01*
X174333928Y-76493151D01*
X174264774Y-76660102D01*
X174225000Y-76860061D01*
X174225000Y-77063939D01*
X174264774Y-77263898D01*
X174333928Y-77430849D01*
X174333928Y-77509151D01*
X174264774Y-77676102D01*
X174225000Y-77876061D01*
X174225000Y-78079939D01*
X174264774Y-78279898D01*
X174333928Y-78446849D01*
X174333928Y-79370000D01*
X174346188Y-79494482D01*
X174382498Y-79614180D01*
X174441463Y-79724494D01*
X174520815Y-79821185D01*
X174605885Y-79891000D01*
X173398132Y-79891000D01*
X172513996Y-79006865D01*
X172478449Y-78963551D01*
X172305623Y-78821716D01*
X172108447Y-78716324D01*
X171894499Y-78651423D01*
X171727752Y-78635000D01*
X171727751Y-78635000D01*
X171672000Y-78629509D01*
X171616249Y-78635000D01*
X171177501Y-78635000D01*
X171165191Y-78620000D01*
X171202537Y-78574494D01*
X171261502Y-78464180D01*
X171297812Y-78344482D01*
X171310072Y-78220000D01*
X171310072Y-76720000D01*
X171297812Y-76595518D01*
X171261502Y-76475820D01*
X171202537Y-76365506D01*
X171165191Y-76320000D01*
X171202537Y-76274494D01*
X171261502Y-76164180D01*
X171297812Y-76044482D01*
X171310072Y-75920000D01*
X171307000Y-75455750D01*
X171148250Y-75297000D01*
X169799000Y-75297000D01*
X169799000Y-75317000D01*
X169545000Y-75317000D01*
X169545000Y-75297000D01*
X168195750Y-75297000D01*
X168148226Y-75344524D01*
X168084482Y-75325188D01*
X167960000Y-75312928D01*
X167925750Y-75316000D01*
X167767002Y-75474748D01*
X167767002Y-75316000D01*
X167763000Y-75316000D01*
X167763000Y-74545000D01*
X168034755Y-74545000D01*
X168037000Y-74884250D01*
X168195750Y-75043000D01*
X169545000Y-75043000D01*
X169545000Y-75023000D01*
X169799000Y-75023000D01*
X169799000Y-75043000D01*
X171148250Y-75043000D01*
X171307000Y-74884250D01*
X171309245Y-74545000D01*
X173391531Y-74545000D01*
X173435000Y-74549281D01*
X173478469Y-74545000D01*
X173478477Y-74545000D01*
X173608490Y-74532195D01*
X173775313Y-74481589D01*
X173929059Y-74399411D01*
X174063817Y-74288817D01*
X174091534Y-74255044D01*
X174566706Y-73779872D01*
X178765000Y-73779872D01*
X178765000Y-74220128D01*
X178850890Y-74651925D01*
X179019369Y-75058669D01*
X179263962Y-75424729D01*
X179575271Y-75736038D01*
X179941331Y-75980631D01*
X180348075Y-76149110D01*
X180779872Y-76235000D01*
X181220128Y-76235000D01*
X181651925Y-76149110D01*
X182058669Y-75980631D01*
X182424729Y-75736038D01*
X182736038Y-75424729D01*
X182980631Y-75058669D01*
X183149110Y-74651925D01*
X183235000Y-74220128D01*
X183235000Y-73779872D01*
X183149110Y-73348075D01*
X182980631Y-72941331D01*
X182736038Y-72575271D01*
X182424729Y-72263962D01*
X182058669Y-72019369D01*
X181651925Y-71850890D01*
X181220128Y-71765000D01*
X180779872Y-71765000D01*
X180348075Y-71850890D01*
X179941331Y-72019369D01*
X179575271Y-72263962D01*
X179263962Y-72575271D01*
X179019369Y-72941331D01*
X178850890Y-73348075D01*
X178765000Y-73779872D01*
X174566706Y-73779872D01*
X174585044Y-73761534D01*
X174618817Y-73733817D01*
X174729411Y-73599059D01*
X174741589Y-73576275D01*
X174811589Y-73445314D01*
X174862195Y-73278490D01*
X174865683Y-73243072D01*
X174865935Y-73240518D01*
X174964482Y-73230812D01*
X175084180Y-73194502D01*
X175194494Y-73135537D01*
X175291185Y-73056185D01*
X175370537Y-72959494D01*
X175429502Y-72849180D01*
X175465812Y-72729482D01*
X175478072Y-72605000D01*
X175478072Y-70905000D01*
X175465812Y-70780518D01*
X175444421Y-70710000D01*
X184290000Y-70710000D01*
X184290001Y-99290000D01*
G04 #@! TA.AperFunction,Conductor*
D38*
G36*
X184290001Y-99290000D02*
G01*
X175476595Y-99290000D01*
X175478072Y-99275000D01*
X175478072Y-97575000D01*
X175471106Y-97504272D01*
X175531085Y-97498365D01*
X175669633Y-97456337D01*
X175797320Y-97388087D01*
X175909238Y-97296238D01*
X175932259Y-97268187D01*
X176282189Y-96918257D01*
X176310240Y-96895236D01*
X176402089Y-96783318D01*
X176423244Y-96743740D01*
X176518000Y-96753072D01*
X176557250Y-96750000D01*
X176716000Y-96591250D01*
X176716000Y-95717000D01*
X176970000Y-95717000D01*
X176970000Y-96591250D01*
X177128750Y-96750000D01*
X177168000Y-96753072D01*
X177292482Y-96740812D01*
X177412180Y-96704502D01*
X177522494Y-96645537D01*
X177619185Y-96566185D01*
X177698537Y-96469494D01*
X177757502Y-96359180D01*
X177793812Y-96239482D01*
X177806072Y-96115000D01*
X177803000Y-95875750D01*
X177707122Y-95779872D01*
X178765000Y-95779872D01*
X178765000Y-96220128D01*
X178850890Y-96651925D01*
X179019369Y-97058669D01*
X179263962Y-97424729D01*
X179575271Y-97736038D01*
X179941331Y-97980631D01*
X180348075Y-98149110D01*
X180779872Y-98235000D01*
X181220128Y-98235000D01*
X181651925Y-98149110D01*
X182058669Y-97980631D01*
X182424729Y-97736038D01*
X182736038Y-97424729D01*
X182980631Y-97058669D01*
X183149110Y-96651925D01*
X183235000Y-96220128D01*
X183235000Y-95779872D01*
X183149110Y-95348075D01*
X182980631Y-94941331D01*
X182736038Y-94575271D01*
X182424729Y-94263962D01*
X182058669Y-94019369D01*
X181651925Y-93850890D01*
X181220128Y-93765000D01*
X180779872Y-93765000D01*
X180348075Y-93850890D01*
X179941331Y-94019369D01*
X179575271Y-94263962D01*
X179263962Y-94575271D01*
X179019369Y-94941331D01*
X178850890Y-95348075D01*
X178765000Y-95779872D01*
X177707122Y-95779872D01*
X177644250Y-95717000D01*
X176970000Y-95717000D01*
X176716000Y-95717000D01*
X176696000Y-95717000D01*
X176696000Y-95463000D01*
X176716000Y-95463000D01*
X176716000Y-94588750D01*
X176970000Y-94588750D01*
X176970000Y-95463000D01*
X177644250Y-95463000D01*
X177803000Y-95304250D01*
X177806072Y-95065000D01*
X177793812Y-94940518D01*
X177757502Y-94820820D01*
X177698537Y-94710506D01*
X177619185Y-94613815D01*
X177522494Y-94534463D01*
X177412180Y-94475498D01*
X177292482Y-94439188D01*
X177168000Y-94426928D01*
X177128750Y-94430000D01*
X176970000Y-94588750D01*
X176716000Y-94588750D01*
X176557250Y-94430000D01*
X176523002Y-94427319D01*
X176523002Y-93375444D01*
X176580446Y-93318000D01*
X177636895Y-93318000D01*
X177673000Y-93321556D01*
X177709105Y-93318000D01*
X177817085Y-93307365D01*
X177955633Y-93265337D01*
X178083320Y-93197087D01*
X178195238Y-93105238D01*
X178218258Y-93077188D01*
X178802193Y-92493254D01*
X178830238Y-92470238D01*
X178922087Y-92358320D01*
X178937860Y-92328811D01*
X178976854Y-92255859D01*
X178977243Y-92255977D01*
X179130500Y-92271072D01*
X179425500Y-92271072D01*
X179578757Y-92255977D01*
X179726125Y-92211274D01*
X179861940Y-92138679D01*
X179884000Y-92120575D01*
X179906060Y-92138679D01*
X180041875Y-92211274D01*
X180189243Y-92255977D01*
X180342500Y-92271072D01*
X180637500Y-92271072D01*
X180790757Y-92255977D01*
X180913684Y-92218688D01*
X180920820Y-92222502D01*
X181040518Y-92258812D01*
X181165000Y-92271072D01*
X181174250Y-92268000D01*
X181333000Y-92109250D01*
X181333000Y-91842763D01*
X181363274Y-91786125D01*
X181407977Y-91638757D01*
X181423072Y-91485500D01*
X181423072Y-91440000D01*
X181587000Y-91440000D01*
X181587000Y-92109250D01*
X181745750Y-92268000D01*
X181755000Y-92271072D01*
X181879482Y-92258812D01*
X181999180Y-92222502D01*
X182109494Y-92163537D01*
X182206185Y-92084185D01*
X182285537Y-91987494D01*
X182344502Y-91877180D01*
X182380812Y-91757482D01*
X182393072Y-91633000D01*
X182390000Y-91598750D01*
X182231250Y-91440000D01*
X181587000Y-91440000D01*
X181423072Y-91440000D01*
X181423072Y-91166000D01*
X181587000Y-91166000D01*
X181587000Y-91186000D01*
X182231250Y-91186000D01*
X182390000Y-91027250D01*
X182393072Y-90993000D01*
X182380812Y-90868518D01*
X182344502Y-90748820D01*
X182285537Y-90638506D01*
X182206185Y-90541815D01*
X182109494Y-90462463D01*
X182095532Y-90455000D01*
X182574000Y-90455000D01*
X182792987Y-90408415D01*
X182998678Y-90320003D01*
X183183169Y-90193161D01*
X183339369Y-90032764D01*
X183461276Y-89844976D01*
X183541119Y-89621874D01*
X183414954Y-89447000D01*
X182174000Y-89447000D01*
X182174000Y-89467000D01*
X181920000Y-89467000D01*
X181920000Y-89447000D01*
X180679046Y-89447000D01*
X180552881Y-89621874D01*
X180632724Y-89844976D01*
X180754631Y-90032764D01*
X180910831Y-90193161D01*
X181095322Y-90320003D01*
X181301013Y-90408415D01*
X181332998Y-90415219D01*
X181332998Y-90516748D01*
X181174250Y-90358000D01*
X181165000Y-90354928D01*
X181040518Y-90367188D01*
X180920820Y-90403498D01*
X180913684Y-90407312D01*
X180790757Y-90370023D01*
X180637500Y-90354928D01*
X180342500Y-90354928D01*
X180189243Y-90370023D01*
X180041875Y-90414726D01*
X179906060Y-90487321D01*
X179884000Y-90505425D01*
X179861940Y-90487321D01*
X179726125Y-90414726D01*
X179578757Y-90370023D01*
X179425500Y-90354928D01*
X179130500Y-90354928D01*
X178977243Y-90370023D01*
X178829875Y-90414726D01*
X178793000Y-90434436D01*
X178756125Y-90414726D01*
X178657739Y-90384881D01*
X178808678Y-90320003D01*
X178993169Y-90193161D01*
X179149369Y-90032764D01*
X179271276Y-89844976D01*
X179351119Y-89621874D01*
X179224954Y-89447000D01*
X177984000Y-89447000D01*
X177984000Y-89467000D01*
X177730000Y-89467000D01*
X177730000Y-89447000D01*
X177710000Y-89447000D01*
X177710000Y-89193000D01*
X177730000Y-89193000D01*
X177730000Y-89173000D01*
X177984000Y-89173000D01*
X177984000Y-89193000D01*
X179224954Y-89193000D01*
X179351119Y-89018126D01*
X180552881Y-89018126D01*
X180679046Y-89193000D01*
X181920000Y-89193000D01*
X181920000Y-88185000D01*
X182174000Y-88185000D01*
X182174000Y-89193000D01*
X183414954Y-89193000D01*
X183541119Y-89018126D01*
X183461276Y-88795024D01*
X183339369Y-88607236D01*
X183183169Y-88446839D01*
X182998678Y-88319997D01*
X182792987Y-88231585D01*
X182574000Y-88185000D01*
X182174000Y-88185000D01*
X181920000Y-88185000D01*
X181520000Y-88185000D01*
X181301013Y-88231585D01*
X181095322Y-88319997D01*
X180910831Y-88446839D01*
X180754631Y-88607236D01*
X180632724Y-88795024D01*
X180552881Y-89018126D01*
X179351119Y-89018126D01*
X179271276Y-88795024D01*
X179149369Y-88607236D01*
X179071929Y-88527716D01*
X179112681Y-88486964D01*
X179217741Y-88329731D01*
X179290108Y-88155022D01*
X179327000Y-87969552D01*
X179327000Y-87951462D01*
X179401860Y-87928754D01*
X179538233Y-87855862D01*
X179657764Y-87757764D01*
X179682348Y-87727809D01*
X179827806Y-87582350D01*
X179857764Y-87557764D01*
X179955862Y-87438233D01*
X180028754Y-87301860D01*
X180044789Y-87249000D01*
X180073642Y-87153887D01*
X180082396Y-87065000D01*
X180085000Y-87038561D01*
X180085000Y-87038556D01*
X180088797Y-87000000D01*
X180085000Y-86961444D01*
X180085000Y-85606007D01*
X180085643Y-85603887D01*
X180093116Y-85528002D01*
X180097001Y-85488562D01*
X180097001Y-85488556D01*
X180100798Y-85450001D01*
X180097001Y-85411446D01*
X180097001Y-83050553D01*
X180100798Y-83012000D01*
X180097001Y-82973447D01*
X180097001Y-82973440D01*
X180085642Y-82858114D01*
X180080051Y-82839681D01*
X180069573Y-82805143D01*
X180040755Y-82710141D01*
X179967863Y-82573768D01*
X179869765Y-82454237D01*
X179839812Y-82429655D01*
X179682346Y-82272189D01*
X179657765Y-82242237D01*
X179538234Y-82144139D01*
X179401861Y-82071247D01*
X179327000Y-82048538D01*
X179327000Y-82030448D01*
X179290108Y-81844978D01*
X179217741Y-81670269D01*
X179112681Y-81513036D01*
X179071929Y-81472284D01*
X179149369Y-81392764D01*
X179271276Y-81204976D01*
X179351119Y-80981874D01*
X180552881Y-80981874D01*
X180632724Y-81204976D01*
X180754631Y-81392764D01*
X180910831Y-81553161D01*
X181095322Y-81680003D01*
X181301013Y-81768415D01*
X181520000Y-81815000D01*
X181920000Y-81815000D01*
X181920000Y-80807000D01*
X182174000Y-80807000D01*
X182174000Y-81815000D01*
X182574000Y-81815000D01*
X182792987Y-81768415D01*
X182998678Y-81680003D01*
X183183169Y-81553161D01*
X183339369Y-81392764D01*
X183461276Y-81204976D01*
X183541119Y-80981874D01*
X183414954Y-80807000D01*
X182174000Y-80807000D01*
X181920000Y-80807000D01*
X180679046Y-80807000D01*
X180552881Y-80981874D01*
X179351119Y-80981874D01*
X179224954Y-80807000D01*
X177984000Y-80807000D01*
X177984000Y-80827000D01*
X177730000Y-80827000D01*
X177730000Y-80807000D01*
X177710000Y-80807000D01*
X177710000Y-80553000D01*
X177730000Y-80553000D01*
X177730000Y-79545000D01*
X177984000Y-79545000D01*
X177984000Y-80553000D01*
X179224954Y-80553000D01*
X179351119Y-80378126D01*
X180552881Y-80378126D01*
X180679046Y-80553000D01*
X181920000Y-80553000D01*
X181920000Y-79545000D01*
X182174000Y-79545000D01*
X182174000Y-80553000D01*
X183414954Y-80553000D01*
X183541119Y-80378126D01*
X183461276Y-80155024D01*
X183339369Y-79967236D01*
X183183169Y-79806839D01*
X182998678Y-79679997D01*
X182792987Y-79591585D01*
X182574000Y-79545000D01*
X182174000Y-79545000D01*
X181920000Y-79545000D01*
X181520000Y-79545000D01*
X181301013Y-79591585D01*
X181095322Y-79679997D01*
X180910831Y-79806839D01*
X180754631Y-79967236D01*
X180632724Y-80155024D01*
X180552881Y-80378126D01*
X179351119Y-80378126D01*
X179307431Y-80256049D01*
X179371898Y-80243226D01*
X179560256Y-80165205D01*
X179729774Y-80051937D01*
X179873937Y-79907774D01*
X179987205Y-79738256D01*
X180065226Y-79549898D01*
X180089459Y-79428072D01*
X180314500Y-79428072D01*
X180467757Y-79412977D01*
X180615125Y-79368274D01*
X180750940Y-79295679D01*
X180784500Y-79268137D01*
X180818060Y-79295679D01*
X180953875Y-79368274D01*
X181101243Y-79412977D01*
X181254500Y-79428072D01*
X181549500Y-79428072D01*
X181702757Y-79412977D01*
X181825684Y-79375688D01*
X181832820Y-79379502D01*
X181952518Y-79415812D01*
X182077000Y-79428072D01*
X182086250Y-79425000D01*
X182245000Y-79266250D01*
X182245000Y-78999763D01*
X182275274Y-78943125D01*
X182319977Y-78795757D01*
X182335072Y-78642500D01*
X182335072Y-78597000D01*
X182499000Y-78597000D01*
X182499000Y-79266250D01*
X182657750Y-79425000D01*
X182667000Y-79428072D01*
X182791482Y-79415812D01*
X182911180Y-79379502D01*
X183021494Y-79320537D01*
X183118185Y-79241185D01*
X183197537Y-79144494D01*
X183256502Y-79034180D01*
X183292812Y-78914482D01*
X183305072Y-78790000D01*
X183302000Y-78755750D01*
X183143250Y-78597000D01*
X182499000Y-78597000D01*
X182335072Y-78597000D01*
X182335072Y-78297500D01*
X182319977Y-78144243D01*
X182275274Y-77996875D01*
X182245000Y-77940237D01*
X182245000Y-77673750D01*
X182499000Y-77673750D01*
X182499000Y-78343000D01*
X183143250Y-78343000D01*
X183302000Y-78184250D01*
X183305072Y-78150000D01*
X183292812Y-78025518D01*
X183256502Y-77905820D01*
X183197537Y-77795506D01*
X183118185Y-77698815D01*
X183021494Y-77619463D01*
X182911180Y-77560498D01*
X182791482Y-77524188D01*
X182667000Y-77511928D01*
X182657750Y-77515000D01*
X182499000Y-77673750D01*
X182245000Y-77673750D01*
X182086250Y-77515000D01*
X182077000Y-77511928D01*
X181952518Y-77524188D01*
X181832820Y-77560498D01*
X181825684Y-77564312D01*
X181702757Y-77527023D01*
X181549500Y-77511928D01*
X181254500Y-77511928D01*
X181101243Y-77527023D01*
X180953875Y-77571726D01*
X180818060Y-77644321D01*
X180784500Y-77671863D01*
X180750940Y-77644321D01*
X180615125Y-77571726D01*
X180467757Y-77527023D01*
X180314500Y-77511928D01*
X180019500Y-77511928D01*
X179866243Y-77527023D01*
X179718875Y-77571726D01*
X179682000Y-77591436D01*
X179645125Y-77571726D01*
X179497757Y-77527023D01*
X179344500Y-77511928D01*
X179049500Y-77511928D01*
X178896243Y-77527023D01*
X178748875Y-77571726D01*
X178613060Y-77644321D01*
X178494017Y-77742017D01*
X178396321Y-77861060D01*
X178323726Y-77996875D01*
X178279023Y-78144243D01*
X178263928Y-78297500D01*
X178263928Y-78591421D01*
X178152795Y-78757744D01*
X178074774Y-78946102D01*
X178035000Y-79146061D01*
X178035000Y-79349939D01*
X178073800Y-79545000D01*
X177984000Y-79545000D01*
X177730000Y-79545000D01*
X177582488Y-79545000D01*
X177597812Y-79494482D01*
X177610072Y-79370000D01*
X177610072Y-75570000D01*
X177597812Y-75445518D01*
X177561502Y-75325820D01*
X177502537Y-75215506D01*
X177423185Y-75118815D01*
X177326494Y-75039463D01*
X177216180Y-74980498D01*
X177096482Y-74944188D01*
X176972000Y-74931928D01*
X176737152Y-74931928D01*
X176631939Y-74911000D01*
X176428061Y-74911000D01*
X176322848Y-74931928D01*
X175467152Y-74931928D01*
X175361939Y-74911000D01*
X175158061Y-74911000D01*
X175052848Y-74931928D01*
X174972000Y-74931928D01*
X174847518Y-74944188D01*
X174727820Y-74980498D01*
X174617506Y-75039463D01*
X174520815Y-75118815D01*
X174441463Y-75215506D01*
X174382498Y-75325820D01*
X174346188Y-75445518D01*
X174345593Y-75451556D01*
X174342795Y-75455744D01*
X174264774Y-75644102D01*
X174225000Y-75844061D01*
X174225000Y-76047939D01*
X174264774Y-76247898D01*
X174333928Y-76414849D01*
X174333928Y-76493151D01*
X174264774Y-76660102D01*
X174225000Y-76860061D01*
X174225000Y-77063939D01*
X174264774Y-77263898D01*
X174333928Y-77430849D01*
X174333928Y-77509151D01*
X174264774Y-77676102D01*
X174225000Y-77876061D01*
X174225000Y-78079939D01*
X174264774Y-78279898D01*
X174333928Y-78446849D01*
X174333928Y-79370000D01*
X174346188Y-79494482D01*
X174382498Y-79614180D01*
X174441463Y-79724494D01*
X174520815Y-79821185D01*
X174605885Y-79891000D01*
X173398132Y-79891000D01*
X172513996Y-79006865D01*
X172478449Y-78963551D01*
X172305623Y-78821716D01*
X172108447Y-78716324D01*
X171894499Y-78651423D01*
X171727752Y-78635000D01*
X171727751Y-78635000D01*
X171672000Y-78629509D01*
X171616249Y-78635000D01*
X171177501Y-78635000D01*
X171165191Y-78620000D01*
X171202537Y-78574494D01*
X171261502Y-78464180D01*
X171297812Y-78344482D01*
X171310072Y-78220000D01*
X171310072Y-76720000D01*
X171297812Y-76595518D01*
X171261502Y-76475820D01*
X171202537Y-76365506D01*
X171165191Y-76320000D01*
X171202537Y-76274494D01*
X171261502Y-76164180D01*
X171297812Y-76044482D01*
X171310072Y-75920000D01*
X171307000Y-75455750D01*
X171148250Y-75297000D01*
X169799000Y-75297000D01*
X169799000Y-75317000D01*
X169545000Y-75317000D01*
X169545000Y-75297000D01*
X168195750Y-75297000D01*
X168148226Y-75344524D01*
X168084482Y-75325188D01*
X167960000Y-75312928D01*
X167925750Y-75316000D01*
X167767002Y-75474748D01*
X167767002Y-75316000D01*
X167763000Y-75316000D01*
X167763000Y-74545000D01*
X168034755Y-74545000D01*
X168037000Y-74884250D01*
X168195750Y-75043000D01*
X169545000Y-75043000D01*
X169545000Y-75023000D01*
X169799000Y-75023000D01*
X169799000Y-75043000D01*
X171148250Y-75043000D01*
X171307000Y-74884250D01*
X171309245Y-74545000D01*
X173391531Y-74545000D01*
X173435000Y-74549281D01*
X173478469Y-74545000D01*
X173478477Y-74545000D01*
X173608490Y-74532195D01*
X173775313Y-74481589D01*
X173929059Y-74399411D01*
X174063817Y-74288817D01*
X174091534Y-74255044D01*
X174566706Y-73779872D01*
X178765000Y-73779872D01*
X178765000Y-74220128D01*
X178850890Y-74651925D01*
X179019369Y-75058669D01*
X179263962Y-75424729D01*
X179575271Y-75736038D01*
X179941331Y-75980631D01*
X180348075Y-76149110D01*
X180779872Y-76235000D01*
X181220128Y-76235000D01*
X181651925Y-76149110D01*
X182058669Y-75980631D01*
X182424729Y-75736038D01*
X182736038Y-75424729D01*
X182980631Y-75058669D01*
X183149110Y-74651925D01*
X183235000Y-74220128D01*
X183235000Y-73779872D01*
X183149110Y-73348075D01*
X182980631Y-72941331D01*
X182736038Y-72575271D01*
X182424729Y-72263962D01*
X182058669Y-72019369D01*
X181651925Y-71850890D01*
X181220128Y-71765000D01*
X180779872Y-71765000D01*
X180348075Y-71850890D01*
X179941331Y-72019369D01*
X179575271Y-72263962D01*
X179263962Y-72575271D01*
X179019369Y-72941331D01*
X178850890Y-73348075D01*
X178765000Y-73779872D01*
X174566706Y-73779872D01*
X174585044Y-73761534D01*
X174618817Y-73733817D01*
X174729411Y-73599059D01*
X174741589Y-73576275D01*
X174811589Y-73445314D01*
X174862195Y-73278490D01*
X174865683Y-73243072D01*
X174865935Y-73240518D01*
X174964482Y-73230812D01*
X175084180Y-73194502D01*
X175194494Y-73135537D01*
X175291185Y-73056185D01*
X175370537Y-72959494D01*
X175429502Y-72849180D01*
X175465812Y-72729482D01*
X175478072Y-72605000D01*
X175478072Y-70905000D01*
X175465812Y-70780518D01*
X175444421Y-70710000D01*
X184290000Y-70710000D01*
X184290001Y-99290000D01*
G37*
G04 #@! TD.AperFunction*
D37*
X171577000Y-98298000D02*
X171597000Y-98298000D01*
X171597000Y-98552000D01*
X171577000Y-98552000D01*
X171577000Y-98572000D01*
X171323000Y-98572000D01*
X171323000Y-98552000D01*
X171303000Y-98552000D01*
X171303000Y-98298000D01*
X171323000Y-98298000D01*
X171323000Y-98278000D01*
X171577000Y-98278000D01*
X171577000Y-98298000D01*
G04 #@! TA.AperFunction,Conductor*
D38*
G36*
X171577000Y-98298000D02*
G01*
X171597000Y-98298000D01*
X171597000Y-98552000D01*
X171577000Y-98552000D01*
X171577000Y-98572000D01*
X171323000Y-98572000D01*
X171323000Y-98552000D01*
X171303000Y-98552000D01*
X171303000Y-98298000D01*
X171323000Y-98298000D01*
X171323000Y-98278000D01*
X171577000Y-98278000D01*
X171577000Y-98298000D01*
G37*
G04 #@! TD.AperFunction*
D37*
X172426750Y-91313000D02*
X173101000Y-91313000D01*
X173101000Y-91293000D01*
X173355000Y-91293000D01*
X173355000Y-91313000D01*
X173375000Y-91313000D01*
X173375000Y-91567000D01*
X173355000Y-91567000D01*
X173355000Y-92441250D01*
X173513750Y-92600000D01*
X173553000Y-92603072D01*
X173677482Y-92590812D01*
X173797180Y-92554502D01*
X173907494Y-92495537D01*
X173958001Y-92454087D01*
X173958000Y-94575912D01*
X173907494Y-94534463D01*
X173797180Y-94475498D01*
X173677482Y-94439188D01*
X173553000Y-94426928D01*
X173513750Y-94430000D01*
X173355000Y-94588750D01*
X173355000Y-95463000D01*
X173375000Y-95463000D01*
X173375000Y-95717000D01*
X173355000Y-95717000D01*
X173355000Y-95737000D01*
X173101000Y-95737000D01*
X173101000Y-95717000D01*
X172426750Y-95717000D01*
X172268000Y-95875750D01*
X172265904Y-96039000D01*
X172041072Y-96039000D01*
X172041072Y-95065000D01*
X172264928Y-95065000D01*
X172268000Y-95304250D01*
X172426750Y-95463000D01*
X173101000Y-95463000D01*
X173101000Y-94588750D01*
X172942250Y-94430000D01*
X172903000Y-94426928D01*
X172778518Y-94439188D01*
X172658820Y-94475498D01*
X172548506Y-94534463D01*
X172451815Y-94613815D01*
X172372463Y-94710506D01*
X172313498Y-94820820D01*
X172277188Y-94940518D01*
X172264928Y-95065000D01*
X172041072Y-95065000D01*
X172028812Y-94940518D01*
X171992502Y-94820820D01*
X171933537Y-94710506D01*
X171854185Y-94613815D01*
X171813000Y-94580015D01*
X171813000Y-92449985D01*
X171854185Y-92416185D01*
X171933537Y-92319494D01*
X171992502Y-92209180D01*
X172028812Y-92089482D01*
X172041072Y-91965000D01*
X172264928Y-91965000D01*
X172277188Y-92089482D01*
X172313498Y-92209180D01*
X172372463Y-92319494D01*
X172451815Y-92416185D01*
X172548506Y-92495537D01*
X172658820Y-92554502D01*
X172778518Y-92590812D01*
X172903000Y-92603072D01*
X172942250Y-92600000D01*
X173101000Y-92441250D01*
X173101000Y-91567000D01*
X172426750Y-91567000D01*
X172268000Y-91725750D01*
X172264928Y-91965000D01*
X172041072Y-91965000D01*
X172041072Y-91159000D01*
X172272750Y-91159000D01*
X172426750Y-91313000D01*
G04 #@! TA.AperFunction,Conductor*
D38*
G36*
X172426750Y-91313000D02*
G01*
X173101000Y-91313000D01*
X173101000Y-91293000D01*
X173355000Y-91293000D01*
X173355000Y-91313000D01*
X173375000Y-91313000D01*
X173375000Y-91567000D01*
X173355000Y-91567000D01*
X173355000Y-92441250D01*
X173513750Y-92600000D01*
X173553000Y-92603072D01*
X173677482Y-92590812D01*
X173797180Y-92554502D01*
X173907494Y-92495537D01*
X173958001Y-92454087D01*
X173958000Y-94575912D01*
X173907494Y-94534463D01*
X173797180Y-94475498D01*
X173677482Y-94439188D01*
X173553000Y-94426928D01*
X173513750Y-94430000D01*
X173355000Y-94588750D01*
X173355000Y-95463000D01*
X173375000Y-95463000D01*
X173375000Y-95717000D01*
X173355000Y-95717000D01*
X173355000Y-95737000D01*
X173101000Y-95737000D01*
X173101000Y-95717000D01*
X172426750Y-95717000D01*
X172268000Y-95875750D01*
X172265904Y-96039000D01*
X172041072Y-96039000D01*
X172041072Y-95065000D01*
X172264928Y-95065000D01*
X172268000Y-95304250D01*
X172426750Y-95463000D01*
X173101000Y-95463000D01*
X173101000Y-94588750D01*
X172942250Y-94430000D01*
X172903000Y-94426928D01*
X172778518Y-94439188D01*
X172658820Y-94475498D01*
X172548506Y-94534463D01*
X172451815Y-94613815D01*
X172372463Y-94710506D01*
X172313498Y-94820820D01*
X172277188Y-94940518D01*
X172264928Y-95065000D01*
X172041072Y-95065000D01*
X172028812Y-94940518D01*
X171992502Y-94820820D01*
X171933537Y-94710506D01*
X171854185Y-94613815D01*
X171813000Y-94580015D01*
X171813000Y-92449985D01*
X171854185Y-92416185D01*
X171933537Y-92319494D01*
X171992502Y-92209180D01*
X172028812Y-92089482D01*
X172041072Y-91965000D01*
X172264928Y-91965000D01*
X172277188Y-92089482D01*
X172313498Y-92209180D01*
X172372463Y-92319494D01*
X172451815Y-92416185D01*
X172548506Y-92495537D01*
X172658820Y-92554502D01*
X172778518Y-92590812D01*
X172903000Y-92603072D01*
X172942250Y-92600000D01*
X173101000Y-92441250D01*
X173101000Y-91567000D01*
X172426750Y-91567000D01*
X172268000Y-91725750D01*
X172264928Y-91965000D01*
X172041072Y-91965000D01*
X172041072Y-91159000D01*
X172272750Y-91159000D01*
X172426750Y-91313000D01*
G37*
G04 #@! TD.AperFunction*
D37*
X143194998Y-74957799D02*
X143194998Y-75053748D01*
X143036250Y-74895000D01*
X142872000Y-74891928D01*
X142747518Y-74904188D01*
X142627820Y-74940498D01*
X142517506Y-74999463D01*
X142420815Y-75078815D01*
X142341463Y-75175506D01*
X142282498Y-75285820D01*
X142246188Y-75405518D01*
X142233928Y-75530000D01*
X142237000Y-75994250D01*
X142395750Y-76153000D01*
X143195000Y-76153000D01*
X143195000Y-76133000D01*
X143449000Y-76133000D01*
X143449000Y-76153000D01*
X143469000Y-76153000D01*
X143469000Y-76407000D01*
X143449000Y-76407000D01*
X143449000Y-77506250D01*
X143607750Y-77665000D01*
X143772000Y-77668072D01*
X143896482Y-77655812D01*
X143957000Y-77637454D01*
X144017518Y-77655812D01*
X144142000Y-77668072D01*
X145042000Y-77668072D01*
X145166482Y-77655812D01*
X145227000Y-77637454D01*
X145287518Y-77655812D01*
X145412000Y-77668072D01*
X146285000Y-77668072D01*
X146285000Y-77825939D01*
X146324774Y-78025898D01*
X146402795Y-78214256D01*
X146516063Y-78383774D01*
X146660226Y-78527937D01*
X146829744Y-78641205D01*
X147018102Y-78719226D01*
X147218061Y-78759000D01*
X147421939Y-78759000D01*
X147621898Y-78719226D01*
X147810256Y-78641205D01*
X147979774Y-78527937D01*
X148082000Y-78425711D01*
X148184226Y-78527937D01*
X148353744Y-78641205D01*
X148542102Y-78719226D01*
X148742061Y-78759000D01*
X148945939Y-78759000D01*
X149145898Y-78719226D01*
X149334256Y-78641205D01*
X149503774Y-78527937D01*
X149647937Y-78383774D01*
X149761205Y-78214256D01*
X149839226Y-78025898D01*
X149879000Y-77825939D01*
X149879000Y-77668072D01*
X150122000Y-77668072D01*
X150246482Y-77655812D01*
X150307000Y-77637454D01*
X150367518Y-77655812D01*
X150492000Y-77668072D01*
X151392000Y-77668072D01*
X151516482Y-77655812D01*
X151577000Y-77637454D01*
X151637518Y-77655812D01*
X151762000Y-77668072D01*
X152662000Y-77668072D01*
X152786482Y-77655812D01*
X152847000Y-77637454D01*
X152907518Y-77655812D01*
X153032000Y-77668072D01*
X153932000Y-77668072D01*
X154056482Y-77655812D01*
X154117000Y-77637454D01*
X154177518Y-77655812D01*
X154302000Y-77668072D01*
X155202000Y-77668072D01*
X155326482Y-77655812D01*
X155387000Y-77637454D01*
X155447518Y-77655812D01*
X155572000Y-77668072D01*
X156472000Y-77668072D01*
X156596482Y-77655812D01*
X156657000Y-77637454D01*
X156717518Y-77655812D01*
X156842000Y-77668072D01*
X157742000Y-77668072D01*
X157866482Y-77655812D01*
X157927000Y-77637454D01*
X157987518Y-77655812D01*
X158112000Y-77668072D01*
X159012000Y-77668072D01*
X159097001Y-77659700D01*
X159097001Y-77755732D01*
X159024774Y-77930102D01*
X158985000Y-78130061D01*
X158985000Y-78333939D01*
X159024774Y-78533898D01*
X159102795Y-78722256D01*
X159216063Y-78891774D01*
X159360226Y-79035937D01*
X159529744Y-79149205D01*
X159718102Y-79227226D01*
X159918061Y-79267000D01*
X159943928Y-79267000D01*
X159943928Y-79910000D01*
X159956188Y-80034482D01*
X159974546Y-80095000D01*
X159956188Y-80155518D01*
X159943928Y-80280000D01*
X159943928Y-81180000D01*
X159956188Y-81304482D01*
X159974546Y-81365000D01*
X159956188Y-81425518D01*
X159943928Y-81550000D01*
X159943928Y-82450000D01*
X159956188Y-82574482D01*
X159974546Y-82635000D01*
X159956188Y-82695518D01*
X159943928Y-82820000D01*
X159943928Y-83720000D01*
X159956188Y-83844482D01*
X159974546Y-83905000D01*
X159956188Y-83965518D01*
X159943928Y-84090000D01*
X159943928Y-84990000D01*
X159956188Y-85114482D01*
X159974546Y-85175000D01*
X159956188Y-85235518D01*
X159943928Y-85360000D01*
X159943928Y-86260000D01*
X159956188Y-86384482D01*
X159974546Y-86445000D01*
X159956188Y-86505518D01*
X159943928Y-86630000D01*
X159943928Y-87530000D01*
X159956188Y-87654482D01*
X159974546Y-87715000D01*
X159956188Y-87775518D01*
X159943928Y-87900000D01*
X159943928Y-88800000D01*
X159956188Y-88924482D01*
X159974546Y-88985000D01*
X159956188Y-89045518D01*
X159943928Y-89170000D01*
X159943928Y-90070000D01*
X159956188Y-90194482D01*
X159974546Y-90255000D01*
X159956188Y-90315518D01*
X159943928Y-90440000D01*
X159947000Y-90604250D01*
X160105750Y-90763000D01*
X161205000Y-90763000D01*
X161205000Y-90743000D01*
X161459000Y-90743000D01*
X161459000Y-90763000D01*
X161479000Y-90763000D01*
X161479000Y-91017000D01*
X161459000Y-91017000D01*
X161459000Y-91816250D01*
X161617750Y-91975000D01*
X161647002Y-91975194D01*
X161647001Y-95563895D01*
X161643445Y-95600000D01*
X161657135Y-95739000D01*
X161657636Y-95744084D01*
X161699664Y-95882632D01*
X161743680Y-95964981D01*
X161594447Y-95964981D01*
X160813032Y-95183567D01*
X160871502Y-95074180D01*
X160907812Y-94954482D01*
X160920072Y-94830000D01*
X160920072Y-93330000D01*
X160907812Y-93205518D01*
X160871502Y-93085820D01*
X160812537Y-92975506D01*
X160733185Y-92878815D01*
X160636494Y-92799463D01*
X160526180Y-92740498D01*
X160406482Y-92704188D01*
X160282000Y-92691928D01*
X159382000Y-92691928D01*
X159257518Y-92704188D01*
X159197000Y-92722546D01*
X159136482Y-92704188D01*
X159012000Y-92691928D01*
X158112000Y-92691928D01*
X157987518Y-92704188D01*
X157927000Y-92722546D01*
X157866482Y-92704188D01*
X157742000Y-92691928D01*
X156842000Y-92691928D01*
X156717518Y-92704188D01*
X156657000Y-92722546D01*
X156596482Y-92704188D01*
X156472000Y-92691928D01*
X155572000Y-92691928D01*
X155447518Y-92704188D01*
X155387000Y-92722546D01*
X155326482Y-92704188D01*
X155202000Y-92691928D01*
X154302000Y-92691928D01*
X154177518Y-92704188D01*
X154117000Y-92722546D01*
X154056482Y-92704188D01*
X153932000Y-92691928D01*
X153032000Y-92691928D01*
X152907518Y-92704188D01*
X152847000Y-92722546D01*
X152786482Y-92704188D01*
X152662000Y-92691928D01*
X151762000Y-92691928D01*
X151637518Y-92704188D01*
X151577000Y-92722546D01*
X151516482Y-92704188D01*
X151392000Y-92691928D01*
X150492000Y-92691928D01*
X150367518Y-92704188D01*
X150307000Y-92722546D01*
X150246482Y-92704188D01*
X150122000Y-92691928D01*
X149222000Y-92691928D01*
X149097518Y-92704188D01*
X149037000Y-92722546D01*
X148976482Y-92704188D01*
X148852000Y-92691928D01*
X147952000Y-92691928D01*
X147827518Y-92704188D01*
X147767000Y-92722546D01*
X147706482Y-92704188D01*
X147582000Y-92691928D01*
X146682000Y-92691928D01*
X146557518Y-92704188D01*
X146497000Y-92722546D01*
X146436482Y-92704188D01*
X146312000Y-92691928D01*
X145412000Y-92691928D01*
X145287518Y-92704188D01*
X145227000Y-92722546D01*
X145166482Y-92704188D01*
X145042000Y-92691928D01*
X144142000Y-92691928D01*
X144017518Y-92704188D01*
X143957000Y-92722546D01*
X143896482Y-92704188D01*
X143772000Y-92691928D01*
X143607750Y-92695000D01*
X143449000Y-92853750D01*
X143449000Y-93953000D01*
X143469000Y-93953000D01*
X143469000Y-94207000D01*
X143449000Y-94207000D01*
X143449000Y-94227000D01*
X143195000Y-94227000D01*
X143195000Y-94207000D01*
X142395750Y-94207000D01*
X142237000Y-94365750D01*
X142233928Y-94830000D01*
X142246188Y-94954482D01*
X142282498Y-95074180D01*
X142341463Y-95184494D01*
X142420815Y-95281185D01*
X142517506Y-95360537D01*
X142627820Y-95419502D01*
X142747518Y-95455812D01*
X142872000Y-95468072D01*
X143036250Y-95465000D01*
X143194998Y-95306252D01*
X143194998Y-95465000D01*
X143237000Y-95465000D01*
X143237000Y-95504919D01*
X143276774Y-95704878D01*
X143354795Y-95893236D01*
X143389376Y-95944990D01*
X142113000Y-95944990D01*
X142113000Y-93330000D01*
X142233928Y-93330000D01*
X142237000Y-93794250D01*
X142395750Y-93953000D01*
X143195000Y-93953000D01*
X143195000Y-92853750D01*
X143036250Y-92695000D01*
X142872000Y-92691928D01*
X142747518Y-92704188D01*
X142627820Y-92740498D01*
X142517506Y-92799463D01*
X142420815Y-92878815D01*
X142341463Y-92975506D01*
X142282498Y-93085820D01*
X142246188Y-93205518D01*
X142233928Y-93330000D01*
X142113000Y-93330000D01*
X142113000Y-91340000D01*
X159943928Y-91340000D01*
X159956188Y-91464482D01*
X159992498Y-91584180D01*
X160051463Y-91694494D01*
X160130815Y-91791185D01*
X160227506Y-91870537D01*
X160337820Y-91929502D01*
X160457518Y-91965812D01*
X160582000Y-91978072D01*
X161046250Y-91975000D01*
X161205000Y-91816250D01*
X161205000Y-91017000D01*
X160105750Y-91017000D01*
X159947000Y-91175750D01*
X159943928Y-91340000D01*
X142113000Y-91340000D01*
X142113000Y-83510000D01*
X147773928Y-83510000D01*
X147773928Y-88010000D01*
X147786188Y-88134482D01*
X147822498Y-88254180D01*
X147881463Y-88364494D01*
X147960815Y-88461185D01*
X148057506Y-88540537D01*
X148167820Y-88599502D01*
X148287518Y-88635812D01*
X148412000Y-88648072D01*
X152912000Y-88648072D01*
X153036482Y-88635812D01*
X153156180Y-88599502D01*
X153266494Y-88540537D01*
X153363185Y-88461185D01*
X153442537Y-88364494D01*
X153501502Y-88254180D01*
X153537812Y-88134482D01*
X153550072Y-88010000D01*
X153550072Y-83510000D01*
X153537812Y-83385518D01*
X153501502Y-83265820D01*
X153442537Y-83155506D01*
X153363185Y-83058815D01*
X153266494Y-82979463D01*
X153156180Y-82920498D01*
X153036482Y-82884188D01*
X152912000Y-82871928D01*
X148412000Y-82871928D01*
X148287518Y-82884188D01*
X148167820Y-82920498D01*
X148057506Y-82979463D01*
X147960815Y-83058815D01*
X147881463Y-83155506D01*
X147822498Y-83265820D01*
X147786188Y-83385518D01*
X147773928Y-83510000D01*
X142113000Y-83510000D01*
X142113000Y-77030000D01*
X142233928Y-77030000D01*
X142246188Y-77154482D01*
X142282498Y-77274180D01*
X142341463Y-77384494D01*
X142420815Y-77481185D01*
X142517506Y-77560537D01*
X142627820Y-77619502D01*
X142747518Y-77655812D01*
X142872000Y-77668072D01*
X143036250Y-77665000D01*
X143195000Y-77506250D01*
X143195000Y-76407000D01*
X142395750Y-76407000D01*
X142237000Y-76565750D01*
X142233928Y-77030000D01*
X142113000Y-77030000D01*
X142113000Y-74743010D01*
X142980209Y-74743010D01*
X143194998Y-74957799D01*
G04 #@! TA.AperFunction,Conductor*
D38*
G36*
X143194998Y-74957799D02*
G01*
X143194998Y-75053748D01*
X143036250Y-74895000D01*
X142872000Y-74891928D01*
X142747518Y-74904188D01*
X142627820Y-74940498D01*
X142517506Y-74999463D01*
X142420815Y-75078815D01*
X142341463Y-75175506D01*
X142282498Y-75285820D01*
X142246188Y-75405518D01*
X142233928Y-75530000D01*
X142237000Y-75994250D01*
X142395750Y-76153000D01*
X143195000Y-76153000D01*
X143195000Y-76133000D01*
X143449000Y-76133000D01*
X143449000Y-76153000D01*
X143469000Y-76153000D01*
X143469000Y-76407000D01*
X143449000Y-76407000D01*
X143449000Y-77506250D01*
X143607750Y-77665000D01*
X143772000Y-77668072D01*
X143896482Y-77655812D01*
X143957000Y-77637454D01*
X144017518Y-77655812D01*
X144142000Y-77668072D01*
X145042000Y-77668072D01*
X145166482Y-77655812D01*
X145227000Y-77637454D01*
X145287518Y-77655812D01*
X145412000Y-77668072D01*
X146285000Y-77668072D01*
X146285000Y-77825939D01*
X146324774Y-78025898D01*
X146402795Y-78214256D01*
X146516063Y-78383774D01*
X146660226Y-78527937D01*
X146829744Y-78641205D01*
X147018102Y-78719226D01*
X147218061Y-78759000D01*
X147421939Y-78759000D01*
X147621898Y-78719226D01*
X147810256Y-78641205D01*
X147979774Y-78527937D01*
X148082000Y-78425711D01*
X148184226Y-78527937D01*
X148353744Y-78641205D01*
X148542102Y-78719226D01*
X148742061Y-78759000D01*
X148945939Y-78759000D01*
X149145898Y-78719226D01*
X149334256Y-78641205D01*
X149503774Y-78527937D01*
X149647937Y-78383774D01*
X149761205Y-78214256D01*
X149839226Y-78025898D01*
X149879000Y-77825939D01*
X149879000Y-77668072D01*
X150122000Y-77668072D01*
X150246482Y-77655812D01*
X150307000Y-77637454D01*
X150367518Y-77655812D01*
X150492000Y-77668072D01*
X151392000Y-77668072D01*
X151516482Y-77655812D01*
X151577000Y-77637454D01*
X151637518Y-77655812D01*
X151762000Y-77668072D01*
X152662000Y-77668072D01*
X152786482Y-77655812D01*
X152847000Y-77637454D01*
X152907518Y-77655812D01*
X153032000Y-77668072D01*
X153932000Y-77668072D01*
X154056482Y-77655812D01*
X154117000Y-77637454D01*
X154177518Y-77655812D01*
X154302000Y-77668072D01*
X155202000Y-77668072D01*
X155326482Y-77655812D01*
X155387000Y-77637454D01*
X155447518Y-77655812D01*
X155572000Y-77668072D01*
X156472000Y-77668072D01*
X156596482Y-77655812D01*
X156657000Y-77637454D01*
X156717518Y-77655812D01*
X156842000Y-77668072D01*
X157742000Y-77668072D01*
X157866482Y-77655812D01*
X157927000Y-77637454D01*
X157987518Y-77655812D01*
X158112000Y-77668072D01*
X159012000Y-77668072D01*
X159097001Y-77659700D01*
X159097001Y-77755732D01*
X159024774Y-77930102D01*
X158985000Y-78130061D01*
X158985000Y-78333939D01*
X159024774Y-78533898D01*
X159102795Y-78722256D01*
X159216063Y-78891774D01*
X159360226Y-79035937D01*
X159529744Y-79149205D01*
X159718102Y-79227226D01*
X159918061Y-79267000D01*
X159943928Y-79267000D01*
X159943928Y-79910000D01*
X159956188Y-80034482D01*
X159974546Y-80095000D01*
X159956188Y-80155518D01*
X159943928Y-80280000D01*
X159943928Y-81180000D01*
X159956188Y-81304482D01*
X159974546Y-81365000D01*
X159956188Y-81425518D01*
X159943928Y-81550000D01*
X159943928Y-82450000D01*
X159956188Y-82574482D01*
X159974546Y-82635000D01*
X159956188Y-82695518D01*
X159943928Y-82820000D01*
X159943928Y-83720000D01*
X159956188Y-83844482D01*
X159974546Y-83905000D01*
X159956188Y-83965518D01*
X159943928Y-84090000D01*
X159943928Y-84990000D01*
X159956188Y-85114482D01*
X159974546Y-85175000D01*
X159956188Y-85235518D01*
X159943928Y-85360000D01*
X159943928Y-86260000D01*
X159956188Y-86384482D01*
X159974546Y-86445000D01*
X159956188Y-86505518D01*
X159943928Y-86630000D01*
X159943928Y-87530000D01*
X159956188Y-87654482D01*
X159974546Y-87715000D01*
X159956188Y-87775518D01*
X159943928Y-87900000D01*
X159943928Y-88800000D01*
X159956188Y-88924482D01*
X159974546Y-88985000D01*
X159956188Y-89045518D01*
X159943928Y-89170000D01*
X159943928Y-90070000D01*
X159956188Y-90194482D01*
X159974546Y-90255000D01*
X159956188Y-90315518D01*
X159943928Y-90440000D01*
X159947000Y-90604250D01*
X160105750Y-90763000D01*
X161205000Y-90763000D01*
X161205000Y-90743000D01*
X161459000Y-90743000D01*
X161459000Y-90763000D01*
X161479000Y-90763000D01*
X161479000Y-91017000D01*
X161459000Y-91017000D01*
X161459000Y-91816250D01*
X161617750Y-91975000D01*
X161647002Y-91975194D01*
X161647001Y-95563895D01*
X161643445Y-95600000D01*
X161657135Y-95739000D01*
X161657636Y-95744084D01*
X161699664Y-95882632D01*
X161743680Y-95964981D01*
X161594447Y-95964981D01*
X160813032Y-95183567D01*
X160871502Y-95074180D01*
X160907812Y-94954482D01*
X160920072Y-94830000D01*
X160920072Y-93330000D01*
X160907812Y-93205518D01*
X160871502Y-93085820D01*
X160812537Y-92975506D01*
X160733185Y-92878815D01*
X160636494Y-92799463D01*
X160526180Y-92740498D01*
X160406482Y-92704188D01*
X160282000Y-92691928D01*
X159382000Y-92691928D01*
X159257518Y-92704188D01*
X159197000Y-92722546D01*
X159136482Y-92704188D01*
X159012000Y-92691928D01*
X158112000Y-92691928D01*
X157987518Y-92704188D01*
X157927000Y-92722546D01*
X157866482Y-92704188D01*
X157742000Y-92691928D01*
X156842000Y-92691928D01*
X156717518Y-92704188D01*
X156657000Y-92722546D01*
X156596482Y-92704188D01*
X156472000Y-92691928D01*
X155572000Y-92691928D01*
X155447518Y-92704188D01*
X155387000Y-92722546D01*
X155326482Y-92704188D01*
X155202000Y-92691928D01*
X154302000Y-92691928D01*
X154177518Y-92704188D01*
X154117000Y-92722546D01*
X154056482Y-92704188D01*
X153932000Y-92691928D01*
X153032000Y-92691928D01*
X152907518Y-92704188D01*
X152847000Y-92722546D01*
X152786482Y-92704188D01*
X152662000Y-92691928D01*
X151762000Y-92691928D01*
X151637518Y-92704188D01*
X151577000Y-92722546D01*
X151516482Y-92704188D01*
X151392000Y-92691928D01*
X150492000Y-92691928D01*
X150367518Y-92704188D01*
X150307000Y-92722546D01*
X150246482Y-92704188D01*
X150122000Y-92691928D01*
X149222000Y-92691928D01*
X149097518Y-92704188D01*
X149037000Y-92722546D01*
X148976482Y-92704188D01*
X148852000Y-92691928D01*
X147952000Y-92691928D01*
X147827518Y-92704188D01*
X147767000Y-92722546D01*
X147706482Y-92704188D01*
X147582000Y-92691928D01*
X146682000Y-92691928D01*
X146557518Y-92704188D01*
X146497000Y-92722546D01*
X146436482Y-92704188D01*
X146312000Y-92691928D01*
X145412000Y-92691928D01*
X145287518Y-92704188D01*
X145227000Y-92722546D01*
X145166482Y-92704188D01*
X145042000Y-92691928D01*
X144142000Y-92691928D01*
X144017518Y-92704188D01*
X143957000Y-92722546D01*
X143896482Y-92704188D01*
X143772000Y-92691928D01*
X143607750Y-92695000D01*
X143449000Y-92853750D01*
X143449000Y-93953000D01*
X143469000Y-93953000D01*
X143469000Y-94207000D01*
X143449000Y-94207000D01*
X143449000Y-94227000D01*
X143195000Y-94227000D01*
X143195000Y-94207000D01*
X142395750Y-94207000D01*
X142237000Y-94365750D01*
X142233928Y-94830000D01*
X142246188Y-94954482D01*
X142282498Y-95074180D01*
X142341463Y-95184494D01*
X142420815Y-95281185D01*
X142517506Y-95360537D01*
X142627820Y-95419502D01*
X142747518Y-95455812D01*
X142872000Y-95468072D01*
X143036250Y-95465000D01*
X143194998Y-95306252D01*
X143194998Y-95465000D01*
X143237000Y-95465000D01*
X143237000Y-95504919D01*
X143276774Y-95704878D01*
X143354795Y-95893236D01*
X143389376Y-95944990D01*
X142113000Y-95944990D01*
X142113000Y-93330000D01*
X142233928Y-93330000D01*
X142237000Y-93794250D01*
X142395750Y-93953000D01*
X143195000Y-93953000D01*
X143195000Y-92853750D01*
X143036250Y-92695000D01*
X142872000Y-92691928D01*
X142747518Y-92704188D01*
X142627820Y-92740498D01*
X142517506Y-92799463D01*
X142420815Y-92878815D01*
X142341463Y-92975506D01*
X142282498Y-93085820D01*
X142246188Y-93205518D01*
X142233928Y-93330000D01*
X142113000Y-93330000D01*
X142113000Y-91340000D01*
X159943928Y-91340000D01*
X159956188Y-91464482D01*
X159992498Y-91584180D01*
X160051463Y-91694494D01*
X160130815Y-91791185D01*
X160227506Y-91870537D01*
X160337820Y-91929502D01*
X160457518Y-91965812D01*
X160582000Y-91978072D01*
X161046250Y-91975000D01*
X161205000Y-91816250D01*
X161205000Y-91017000D01*
X160105750Y-91017000D01*
X159947000Y-91175750D01*
X159943928Y-91340000D01*
X142113000Y-91340000D01*
X142113000Y-83510000D01*
X147773928Y-83510000D01*
X147773928Y-88010000D01*
X147786188Y-88134482D01*
X147822498Y-88254180D01*
X147881463Y-88364494D01*
X147960815Y-88461185D01*
X148057506Y-88540537D01*
X148167820Y-88599502D01*
X148287518Y-88635812D01*
X148412000Y-88648072D01*
X152912000Y-88648072D01*
X153036482Y-88635812D01*
X153156180Y-88599502D01*
X153266494Y-88540537D01*
X153363185Y-88461185D01*
X153442537Y-88364494D01*
X153501502Y-88254180D01*
X153537812Y-88134482D01*
X153550072Y-88010000D01*
X153550072Y-83510000D01*
X153537812Y-83385518D01*
X153501502Y-83265820D01*
X153442537Y-83155506D01*
X153363185Y-83058815D01*
X153266494Y-82979463D01*
X153156180Y-82920498D01*
X153036482Y-82884188D01*
X152912000Y-82871928D01*
X148412000Y-82871928D01*
X148287518Y-82884188D01*
X148167820Y-82920498D01*
X148057506Y-82979463D01*
X147960815Y-83058815D01*
X147881463Y-83155506D01*
X147822498Y-83265820D01*
X147786188Y-83385518D01*
X147773928Y-83510000D01*
X142113000Y-83510000D01*
X142113000Y-77030000D01*
X142233928Y-77030000D01*
X142246188Y-77154482D01*
X142282498Y-77274180D01*
X142341463Y-77384494D01*
X142420815Y-77481185D01*
X142517506Y-77560537D01*
X142627820Y-77619502D01*
X142747518Y-77655812D01*
X142872000Y-77668072D01*
X143036250Y-77665000D01*
X143195000Y-77506250D01*
X143195000Y-76407000D01*
X142395750Y-76407000D01*
X142237000Y-76565750D01*
X142233928Y-77030000D01*
X142113000Y-77030000D01*
X142113000Y-74743010D01*
X142980209Y-74743010D01*
X143194998Y-74957799D01*
G37*
G04 #@! TD.AperFunction*
D37*
X164767928Y-94660500D02*
X164783023Y-94813757D01*
X164827726Y-94961125D01*
X164846000Y-94995313D01*
X164846000Y-95228237D01*
X164815726Y-95284875D01*
X164771023Y-95432243D01*
X164755928Y-95585500D01*
X164755928Y-95891471D01*
X164572000Y-95707543D01*
X164572000Y-95631000D01*
X164592000Y-95631000D01*
X164592000Y-95296250D01*
X164604000Y-95284250D01*
X164604000Y-94879131D01*
X164611000Y-94843939D01*
X164611000Y-94640061D01*
X164584000Y-94504322D01*
X164584000Y-94361000D01*
X164604000Y-94361000D01*
X164604000Y-94341000D01*
X164767928Y-94341000D01*
X164767928Y-94660500D01*
G04 #@! TA.AperFunction,Conductor*
D38*
G36*
X164767928Y-94660500D02*
G01*
X164783023Y-94813757D01*
X164827726Y-94961125D01*
X164846000Y-94995313D01*
X164846000Y-95228237D01*
X164815726Y-95284875D01*
X164771023Y-95432243D01*
X164755928Y-95585500D01*
X164755928Y-95891471D01*
X164572000Y-95707543D01*
X164572000Y-95631000D01*
X164592000Y-95631000D01*
X164592000Y-95296250D01*
X164604000Y-95284250D01*
X164604000Y-94879131D01*
X164611000Y-94843939D01*
X164611000Y-94640061D01*
X164584000Y-94504322D01*
X164584000Y-94361000D01*
X164604000Y-94361000D01*
X164604000Y-94341000D01*
X164767928Y-94341000D01*
X164767928Y-94660500D01*
G37*
G04 #@! TD.AperFunction*
D37*
X176564631Y-90032764D02*
X176720831Y-90193161D01*
X176905322Y-90320003D01*
X177033607Y-90375143D01*
X176970000Y-90438750D01*
X176970000Y-91313000D01*
X176990000Y-91313000D01*
X176990000Y-91567000D01*
X176970000Y-91567000D01*
X176970000Y-91587000D01*
X176716000Y-91587000D01*
X176716000Y-91567000D01*
X176041750Y-91567000D01*
X175883000Y-91725750D01*
X175879976Y-91961272D01*
X175865680Y-91968913D01*
X175753762Y-92060762D01*
X175730741Y-92088813D01*
X175604204Y-92215350D01*
X175607502Y-92209180D01*
X175643812Y-92089482D01*
X175656072Y-91965000D01*
X175656072Y-90915000D01*
X175879928Y-90915000D01*
X175883000Y-91154250D01*
X176041750Y-91313000D01*
X176716000Y-91313000D01*
X176716000Y-90438750D01*
X176557250Y-90280000D01*
X176518000Y-90276928D01*
X176393518Y-90289188D01*
X176273820Y-90325498D01*
X176163506Y-90384463D01*
X176066815Y-90463815D01*
X175987463Y-90560506D01*
X175928498Y-90670820D01*
X175892188Y-90790518D01*
X175879928Y-90915000D01*
X175656072Y-90915000D01*
X175643812Y-90790518D01*
X175607502Y-90670820D01*
X175548537Y-90560506D01*
X175469185Y-90463815D01*
X175372494Y-90384463D01*
X175262180Y-90325498D01*
X175142482Y-90289188D01*
X175018000Y-90276928D01*
X174769374Y-90276928D01*
X174591901Y-90099455D01*
X174720000Y-90112072D01*
X175015000Y-90112072D01*
X175168257Y-90096977D01*
X175175969Y-90094638D01*
X175209744Y-90117205D01*
X175398102Y-90195226D01*
X175598061Y-90235000D01*
X175801939Y-90235000D01*
X176001898Y-90195226D01*
X176190256Y-90117205D01*
X176359774Y-90003937D01*
X176472645Y-89891066D01*
X176564631Y-90032764D01*
G04 #@! TA.AperFunction,Conductor*
D38*
G36*
X176564631Y-90032764D02*
G01*
X176720831Y-90193161D01*
X176905322Y-90320003D01*
X177033607Y-90375143D01*
X176970000Y-90438750D01*
X176970000Y-91313000D01*
X176990000Y-91313000D01*
X176990000Y-91567000D01*
X176970000Y-91567000D01*
X176970000Y-91587000D01*
X176716000Y-91587000D01*
X176716000Y-91567000D01*
X176041750Y-91567000D01*
X175883000Y-91725750D01*
X175879976Y-91961272D01*
X175865680Y-91968913D01*
X175753762Y-92060762D01*
X175730741Y-92088813D01*
X175604204Y-92215350D01*
X175607502Y-92209180D01*
X175643812Y-92089482D01*
X175656072Y-91965000D01*
X175656072Y-90915000D01*
X175879928Y-90915000D01*
X175883000Y-91154250D01*
X176041750Y-91313000D01*
X176716000Y-91313000D01*
X176716000Y-90438750D01*
X176557250Y-90280000D01*
X176518000Y-90276928D01*
X176393518Y-90289188D01*
X176273820Y-90325498D01*
X176163506Y-90384463D01*
X176066815Y-90463815D01*
X175987463Y-90560506D01*
X175928498Y-90670820D01*
X175892188Y-90790518D01*
X175879928Y-90915000D01*
X175656072Y-90915000D01*
X175643812Y-90790518D01*
X175607502Y-90670820D01*
X175548537Y-90560506D01*
X175469185Y-90463815D01*
X175372494Y-90384463D01*
X175262180Y-90325498D01*
X175142482Y-90289188D01*
X175018000Y-90276928D01*
X174769374Y-90276928D01*
X174591901Y-90099455D01*
X174720000Y-90112072D01*
X175015000Y-90112072D01*
X175168257Y-90096977D01*
X175175969Y-90094638D01*
X175209744Y-90117205D01*
X175398102Y-90195226D01*
X175598061Y-90235000D01*
X175801939Y-90235000D01*
X176001898Y-90195226D01*
X176190256Y-90117205D01*
X176359774Y-90003937D01*
X176472645Y-89891066D01*
X176564631Y-90032764D01*
G37*
G04 #@! TD.AperFunction*
D37*
X163547023Y-84780757D02*
X163591726Y-84928125D01*
X163650168Y-85037462D01*
X163639463Y-85050506D01*
X163580498Y-85160820D01*
X163544188Y-85280518D01*
X163531928Y-85405000D01*
X163535000Y-85439250D01*
X163693750Y-85598000D01*
X164268554Y-85598000D01*
X164501928Y-85831375D01*
X164501928Y-85897500D01*
X164517023Y-86050757D01*
X164561726Y-86198125D01*
X164592000Y-86254763D01*
X164592000Y-86373750D01*
X164541000Y-86424750D01*
X164541000Y-87249000D01*
X164561000Y-87249000D01*
X164561000Y-87503000D01*
X164541000Y-87503000D01*
X164541000Y-87523000D01*
X164287000Y-87523000D01*
X164287000Y-87503000D01*
X163500250Y-87503000D01*
X163341500Y-87661750D01*
X163338428Y-87851000D01*
X163350688Y-87975482D01*
X163386998Y-88095180D01*
X163445963Y-88205494D01*
X163525315Y-88302185D01*
X163622006Y-88381537D01*
X163732320Y-88440502D01*
X163852018Y-88476812D01*
X163976500Y-88489072D01*
X164128250Y-88486000D01*
X164286998Y-88327252D01*
X164286998Y-88486000D01*
X164361090Y-88486000D01*
X164282875Y-88509726D01*
X164147060Y-88582321D01*
X164028017Y-88680017D01*
X163930321Y-88799060D01*
X163857726Y-88934875D01*
X163813023Y-89082243D01*
X163797928Y-89235500D01*
X163797928Y-89580500D01*
X163806605Y-89668593D01*
X163677939Y-89643000D01*
X163474061Y-89643000D01*
X163274102Y-89682774D01*
X163117849Y-89747497D01*
X163120557Y-89720001D01*
X163109592Y-89608670D01*
X163106366Y-89575916D01*
X163064338Y-89437368D01*
X162996088Y-89309681D01*
X162904239Y-89197763D01*
X162876188Y-89174742D01*
X162827259Y-89125813D01*
X162804238Y-89097762D01*
X162696951Y-89009713D01*
X162689454Y-88985000D01*
X162707812Y-88924482D01*
X162720072Y-88800000D01*
X162720072Y-87900000D01*
X162707812Y-87775518D01*
X162689454Y-87715000D01*
X162707812Y-87654482D01*
X162720072Y-87530000D01*
X162720072Y-86901000D01*
X163338428Y-86901000D01*
X163341500Y-87090250D01*
X163500250Y-87249000D01*
X164287000Y-87249000D01*
X164287000Y-86572250D01*
X164338000Y-86521250D01*
X164338000Y-85852000D01*
X163693750Y-85852000D01*
X163535000Y-86010750D01*
X163531928Y-86045000D01*
X163544188Y-86169482D01*
X163580498Y-86289180D01*
X163623514Y-86369657D01*
X163622006Y-86370463D01*
X163525315Y-86449815D01*
X163445963Y-86546506D01*
X163386998Y-86656820D01*
X163350688Y-86776518D01*
X163338428Y-86901000D01*
X162720072Y-86901000D01*
X162720072Y-86630000D01*
X162707812Y-86505518D01*
X162689454Y-86445000D01*
X162707812Y-86384482D01*
X162720072Y-86260000D01*
X162720072Y-85360000D01*
X162707812Y-85235518D01*
X162689454Y-85175000D01*
X162707812Y-85114482D01*
X162720072Y-84990000D01*
X162720072Y-84796160D01*
X162766102Y-84815226D01*
X162966061Y-84855000D01*
X163169939Y-84855000D01*
X163369898Y-84815226D01*
X163543342Y-84743383D01*
X163547023Y-84780757D01*
G04 #@! TA.AperFunction,Conductor*
D38*
G36*
X163547023Y-84780757D02*
G01*
X163591726Y-84928125D01*
X163650168Y-85037462D01*
X163639463Y-85050506D01*
X163580498Y-85160820D01*
X163544188Y-85280518D01*
X163531928Y-85405000D01*
X163535000Y-85439250D01*
X163693750Y-85598000D01*
X164268554Y-85598000D01*
X164501928Y-85831375D01*
X164501928Y-85897500D01*
X164517023Y-86050757D01*
X164561726Y-86198125D01*
X164592000Y-86254763D01*
X164592000Y-86373750D01*
X164541000Y-86424750D01*
X164541000Y-87249000D01*
X164561000Y-87249000D01*
X164561000Y-87503000D01*
X164541000Y-87503000D01*
X164541000Y-87523000D01*
X164287000Y-87523000D01*
X164287000Y-87503000D01*
X163500250Y-87503000D01*
X163341500Y-87661750D01*
X163338428Y-87851000D01*
X163350688Y-87975482D01*
X163386998Y-88095180D01*
X163445963Y-88205494D01*
X163525315Y-88302185D01*
X163622006Y-88381537D01*
X163732320Y-88440502D01*
X163852018Y-88476812D01*
X163976500Y-88489072D01*
X164128250Y-88486000D01*
X164286998Y-88327252D01*
X164286998Y-88486000D01*
X164361090Y-88486000D01*
X164282875Y-88509726D01*
X164147060Y-88582321D01*
X164028017Y-88680017D01*
X163930321Y-88799060D01*
X163857726Y-88934875D01*
X163813023Y-89082243D01*
X163797928Y-89235500D01*
X163797928Y-89580500D01*
X163806605Y-89668593D01*
X163677939Y-89643000D01*
X163474061Y-89643000D01*
X163274102Y-89682774D01*
X163117849Y-89747497D01*
X163120557Y-89720001D01*
X163109592Y-89608670D01*
X163106366Y-89575916D01*
X163064338Y-89437368D01*
X162996088Y-89309681D01*
X162904239Y-89197763D01*
X162876188Y-89174742D01*
X162827259Y-89125813D01*
X162804238Y-89097762D01*
X162696951Y-89009713D01*
X162689454Y-88985000D01*
X162707812Y-88924482D01*
X162720072Y-88800000D01*
X162720072Y-87900000D01*
X162707812Y-87775518D01*
X162689454Y-87715000D01*
X162707812Y-87654482D01*
X162720072Y-87530000D01*
X162720072Y-86901000D01*
X163338428Y-86901000D01*
X163341500Y-87090250D01*
X163500250Y-87249000D01*
X164287000Y-87249000D01*
X164287000Y-86572250D01*
X164338000Y-86521250D01*
X164338000Y-85852000D01*
X163693750Y-85852000D01*
X163535000Y-86010750D01*
X163531928Y-86045000D01*
X163544188Y-86169482D01*
X163580498Y-86289180D01*
X163623514Y-86369657D01*
X163622006Y-86370463D01*
X163525315Y-86449815D01*
X163445963Y-86546506D01*
X163386998Y-86656820D01*
X163350688Y-86776518D01*
X163338428Y-86901000D01*
X162720072Y-86901000D01*
X162720072Y-86630000D01*
X162707812Y-86505518D01*
X162689454Y-86445000D01*
X162707812Y-86384482D01*
X162720072Y-86260000D01*
X162720072Y-85360000D01*
X162707812Y-85235518D01*
X162689454Y-85175000D01*
X162707812Y-85114482D01*
X162720072Y-84990000D01*
X162720072Y-84796160D01*
X162766102Y-84815226D01*
X162966061Y-84855000D01*
X163169939Y-84855000D01*
X163369898Y-84815226D01*
X163543342Y-84743383D01*
X163547023Y-84780757D01*
G37*
G04 #@! TD.AperFunction*
D37*
X173919428Y-88345500D02*
X173934523Y-88498757D01*
X173979226Y-88646125D01*
X173996013Y-88677531D01*
X173994226Y-88680875D01*
X173949523Y-88828243D01*
X173934428Y-88981500D01*
X173934428Y-89301000D01*
X173770500Y-89301000D01*
X173770500Y-89281000D01*
X173126250Y-89281000D01*
X172967500Y-89439750D01*
X172964428Y-89474000D01*
X172976688Y-89598482D01*
X173004146Y-89689000D01*
X171492023Y-89689000D01*
X171492072Y-89688500D01*
X171492072Y-89389072D01*
X171791500Y-89389072D01*
X171928175Y-89375611D01*
X172059597Y-89335744D01*
X172180717Y-89271004D01*
X172286879Y-89183879D01*
X172374004Y-89077717D01*
X172438744Y-88956597D01*
X172478611Y-88825175D01*
X172492072Y-88688500D01*
X172492072Y-88563500D01*
X172488534Y-88527578D01*
X172563895Y-88535000D01*
X172563902Y-88535000D01*
X172599999Y-88538555D01*
X172636096Y-88535000D01*
X172863895Y-88535000D01*
X172900000Y-88538556D01*
X172936105Y-88535000D01*
X172953397Y-88533297D01*
X172961688Y-88617482D01*
X172983147Y-88688224D01*
X172976688Y-88709518D01*
X172964428Y-88834000D01*
X172967500Y-88868250D01*
X173126250Y-89027000D01*
X173239485Y-89027000D01*
X173343320Y-89082502D01*
X173463018Y-89118812D01*
X173587500Y-89131072D01*
X173596750Y-89128000D01*
X173697750Y-89027000D01*
X173770500Y-89027000D01*
X173770500Y-88357750D01*
X173755500Y-88342750D01*
X173755500Y-88300000D01*
X173735500Y-88300000D01*
X173735500Y-88115072D01*
X173919428Y-88115072D01*
X173919428Y-88345500D01*
G04 #@! TA.AperFunction,Conductor*
D38*
G36*
X173919428Y-88345500D02*
G01*
X173934523Y-88498757D01*
X173979226Y-88646125D01*
X173996013Y-88677531D01*
X173994226Y-88680875D01*
X173949523Y-88828243D01*
X173934428Y-88981500D01*
X173934428Y-89301000D01*
X173770500Y-89301000D01*
X173770500Y-89281000D01*
X173126250Y-89281000D01*
X172967500Y-89439750D01*
X172964428Y-89474000D01*
X172976688Y-89598482D01*
X173004146Y-89689000D01*
X171492023Y-89689000D01*
X171492072Y-89688500D01*
X171492072Y-89389072D01*
X171791500Y-89389072D01*
X171928175Y-89375611D01*
X172059597Y-89335744D01*
X172180717Y-89271004D01*
X172286879Y-89183879D01*
X172374004Y-89077717D01*
X172438744Y-88956597D01*
X172478611Y-88825175D01*
X172492072Y-88688500D01*
X172492072Y-88563500D01*
X172488534Y-88527578D01*
X172563895Y-88535000D01*
X172563902Y-88535000D01*
X172599999Y-88538555D01*
X172636096Y-88535000D01*
X172863895Y-88535000D01*
X172900000Y-88538556D01*
X172936105Y-88535000D01*
X172953397Y-88533297D01*
X172961688Y-88617482D01*
X172983147Y-88688224D01*
X172976688Y-88709518D01*
X172964428Y-88834000D01*
X172967500Y-88868250D01*
X173126250Y-89027000D01*
X173239485Y-89027000D01*
X173343320Y-89082502D01*
X173463018Y-89118812D01*
X173587500Y-89131072D01*
X173596750Y-89128000D01*
X173697750Y-89027000D01*
X173770500Y-89027000D01*
X173770500Y-88357750D01*
X173755500Y-88342750D01*
X173755500Y-88300000D01*
X173735500Y-88300000D01*
X173735500Y-88115072D01*
X173919428Y-88115072D01*
X173919428Y-88345500D01*
G37*
G04 #@! TD.AperFunction*
D37*
X172964428Y-83754000D02*
X172967500Y-83788250D01*
X173126250Y-83947000D01*
X173770500Y-83947000D01*
X173770500Y-83927000D01*
X173934428Y-83927000D01*
X173934428Y-84246500D01*
X173949523Y-84399757D01*
X173994226Y-84547125D01*
X174009500Y-84575700D01*
X174009500Y-84595237D01*
X173979226Y-84651875D01*
X173934523Y-84799243D01*
X173919428Y-84952500D01*
X173919428Y-85182928D01*
X173735500Y-85182928D01*
X173735500Y-84998000D01*
X173755500Y-84998000D01*
X173755500Y-84885250D01*
X173770500Y-84870250D01*
X173770500Y-84201000D01*
X173627750Y-84201000D01*
X173596750Y-84170000D01*
X173587500Y-84166928D01*
X173463018Y-84179188D01*
X173391113Y-84201000D01*
X173126250Y-84201000D01*
X172967500Y-84359750D01*
X172964428Y-84394000D01*
X172976688Y-84518482D01*
X172993765Y-84574776D01*
X172972787Y-84643930D01*
X172917205Y-84509744D01*
X172803937Y-84340226D01*
X172659774Y-84196063D01*
X172653271Y-84191718D01*
X172680537Y-84158494D01*
X172739502Y-84048180D01*
X172775812Y-83928482D01*
X172788072Y-83804000D01*
X172788072Y-83709729D01*
X172878391Y-83700833D01*
X172972475Y-83672293D01*
X172964428Y-83754000D01*
G04 #@! TA.AperFunction,Conductor*
D38*
G36*
X172964428Y-83754000D02*
G01*
X172967500Y-83788250D01*
X173126250Y-83947000D01*
X173770500Y-83947000D01*
X173770500Y-83927000D01*
X173934428Y-83927000D01*
X173934428Y-84246500D01*
X173949523Y-84399757D01*
X173994226Y-84547125D01*
X174009500Y-84575700D01*
X174009500Y-84595237D01*
X173979226Y-84651875D01*
X173934523Y-84799243D01*
X173919428Y-84952500D01*
X173919428Y-85182928D01*
X173735500Y-85182928D01*
X173735500Y-84998000D01*
X173755500Y-84998000D01*
X173755500Y-84885250D01*
X173770500Y-84870250D01*
X173770500Y-84201000D01*
X173627750Y-84201000D01*
X173596750Y-84170000D01*
X173587500Y-84166928D01*
X173463018Y-84179188D01*
X173391113Y-84201000D01*
X173126250Y-84201000D01*
X172967500Y-84359750D01*
X172964428Y-84394000D01*
X172976688Y-84518482D01*
X172993765Y-84574776D01*
X172972787Y-84643930D01*
X172917205Y-84509744D01*
X172803937Y-84340226D01*
X172659774Y-84196063D01*
X172653271Y-84191718D01*
X172680537Y-84158494D01*
X172739502Y-84048180D01*
X172775812Y-83928482D01*
X172788072Y-83804000D01*
X172788072Y-83709729D01*
X172878391Y-83700833D01*
X172972475Y-83672293D01*
X172964428Y-83754000D01*
G37*
G04 #@! TD.AperFunction*
D37*
X167787000Y-80645000D02*
X167767000Y-80645000D01*
X167767000Y-80665000D01*
X167513000Y-80665000D01*
X167513000Y-80645000D01*
X167493000Y-80645000D01*
X167493000Y-80481072D01*
X167787000Y-80481072D01*
X167787000Y-80645000D01*
G04 #@! TA.AperFunction,Conductor*
D38*
G36*
X167787000Y-80645000D02*
G01*
X167767000Y-80645000D01*
X167767000Y-80665000D01*
X167513000Y-80665000D01*
X167513000Y-80645000D01*
X167493000Y-80645000D01*
X167493000Y-80481072D01*
X167787000Y-80481072D01*
X167787000Y-80645000D01*
G37*
G04 #@! TD.AperFunction*
D37*
X167767000Y-76119000D02*
X167787000Y-76119000D01*
X167787000Y-76282928D01*
X167763000Y-76282928D01*
X167763000Y-76099000D01*
X167767000Y-76099000D01*
X167767000Y-76119000D01*
G04 #@! TA.AperFunction,Conductor*
D38*
G36*
X167767000Y-76119000D02*
G01*
X167787000Y-76119000D01*
X167787000Y-76282928D01*
X167763000Y-76282928D01*
X167763000Y-76099000D01*
X167767000Y-76099000D01*
X167767000Y-76119000D01*
G37*
G04 #@! TD.AperFunction*
D37*
X171577000Y-71628000D02*
X171597000Y-71628000D01*
X171597000Y-71882000D01*
X171577000Y-71882000D01*
X171577000Y-71902000D01*
X171323000Y-71902000D01*
X171323000Y-71882000D01*
X171303000Y-71882000D01*
X171303000Y-71628000D01*
X171323000Y-71628000D01*
X171323000Y-71608000D01*
X171577000Y-71608000D01*
X171577000Y-71628000D01*
G04 #@! TA.AperFunction,Conductor*
D38*
G36*
X171577000Y-71628000D02*
G01*
X171597000Y-71628000D01*
X171597000Y-71882000D01*
X171577000Y-71882000D01*
X171577000Y-71902000D01*
X171323000Y-71902000D01*
X171323000Y-71882000D01*
X171303000Y-71882000D01*
X171303000Y-71628000D01*
X171323000Y-71628000D01*
X171323000Y-71608000D01*
X171577000Y-71608000D01*
X171577000Y-71628000D01*
G37*
G04 #@! TD.AperFunction*
D37*
X107236864Y-71498005D02*
X107193551Y-71533551D01*
X107051716Y-71706377D01*
X106957233Y-71883144D01*
X106946324Y-71903554D01*
X106888848Y-72093027D01*
X106726747Y-72108992D01*
X106560150Y-72159529D01*
X106406614Y-72241595D01*
X106272039Y-72352039D01*
X106161595Y-72486614D01*
X106079529Y-72640150D01*
X106028992Y-72806747D01*
X106011928Y-72980001D01*
X106011928Y-75179999D01*
X106028992Y-75353253D01*
X106079529Y-75519850D01*
X106161595Y-75673386D01*
X106272039Y-75807961D01*
X106406614Y-75918405D01*
X106560150Y-76000471D01*
X106726747Y-76051008D01*
X106900001Y-76068072D01*
X107738777Y-76068072D01*
X107420997Y-76131282D01*
X107059750Y-76280915D01*
X106734636Y-76498149D01*
X106458149Y-76774636D01*
X106240915Y-77099750D01*
X106091282Y-77460997D01*
X106015000Y-77844495D01*
X106015000Y-78235505D01*
X106091282Y-78619003D01*
X106240915Y-78980250D01*
X106458149Y-79305364D01*
X106734636Y-79581851D01*
X107059750Y-79799085D01*
X107420997Y-79948718D01*
X107801627Y-80024430D01*
X107563172Y-80053816D01*
X107191884Y-80176432D01*
X106932724Y-80314956D01*
X106794767Y-80615162D01*
X108000000Y-81820395D01*
X109205233Y-80615162D01*
X109067276Y-80314956D01*
X108718033Y-80139118D01*
X108341196Y-80034793D01*
X108199053Y-80024294D01*
X108579003Y-79948718D01*
X108940250Y-79799085D01*
X109265364Y-79581851D01*
X109541851Y-79305364D01*
X109759085Y-78980250D01*
X109775001Y-78941825D01*
X109775001Y-81101021D01*
X109685044Y-80932724D01*
X109384838Y-80794767D01*
X108179605Y-82000000D01*
X109384838Y-83205233D01*
X109685044Y-83067276D01*
X109775001Y-82888607D01*
X109775001Y-86329356D01*
X109727961Y-86272039D01*
X109593386Y-86161595D01*
X109439850Y-86079529D01*
X109273253Y-86028992D01*
X109099999Y-86011928D01*
X106900001Y-86011928D01*
X106726747Y-86028992D01*
X106560150Y-86079529D01*
X106406614Y-86161595D01*
X106272039Y-86272039D01*
X106161595Y-86406614D01*
X106079529Y-86560150D01*
X106028992Y-86726747D01*
X106011928Y-86900001D01*
X106011928Y-89099999D01*
X106028992Y-89273253D01*
X106079529Y-89439850D01*
X106161595Y-89593386D01*
X106272039Y-89727961D01*
X106406614Y-89838405D01*
X106560150Y-89920471D01*
X106726747Y-89971008D01*
X106900001Y-89988072D01*
X107738777Y-89988072D01*
X107420997Y-90051282D01*
X107059750Y-90200915D01*
X106734636Y-90418149D01*
X106458149Y-90694636D01*
X106240915Y-91019750D01*
X106091282Y-91380997D01*
X106015000Y-91764495D01*
X106015000Y-92155505D01*
X106091282Y-92539003D01*
X106240915Y-92900250D01*
X106458149Y-93225364D01*
X106734636Y-93501851D01*
X107059750Y-93719085D01*
X107420997Y-93868718D01*
X107801627Y-93944430D01*
X107563172Y-93973816D01*
X107191884Y-94096432D01*
X106932724Y-94234956D01*
X106794767Y-94535162D01*
X108000000Y-95740395D01*
X108014143Y-95726253D01*
X108193748Y-95905858D01*
X108179605Y-95920000D01*
X108193748Y-95934143D01*
X108014143Y-96113748D01*
X108000000Y-96099605D01*
X106794767Y-97304838D01*
X106932724Y-97605044D01*
X107281967Y-97780882D01*
X107658804Y-97885207D01*
X108048753Y-97914009D01*
X108436828Y-97866184D01*
X108808116Y-97743568D01*
X109067276Y-97605044D01*
X109205232Y-97304840D01*
X109222500Y-97322108D01*
X109222500Y-97837390D01*
X109219042Y-97872500D01*
X109222500Y-97907610D01*
X109222500Y-97907619D01*
X109232846Y-98012663D01*
X109273730Y-98147441D01*
X109340123Y-98271653D01*
X109429473Y-98380526D01*
X109456755Y-98402916D01*
X110343838Y-99290000D01*
X90710000Y-99290000D01*
X90710000Y-95779872D01*
X91765000Y-95779872D01*
X91765000Y-96220128D01*
X91850890Y-96651925D01*
X92019369Y-97058669D01*
X92263962Y-97424729D01*
X92575271Y-97736038D01*
X92941331Y-97980631D01*
X93348075Y-98149110D01*
X93779872Y-98235000D01*
X94220128Y-98235000D01*
X94651925Y-98149110D01*
X95058669Y-97980631D01*
X95424729Y-97736038D01*
X95736038Y-97424729D01*
X95980631Y-97058669D01*
X96149110Y-96651925D01*
X96235000Y-96220128D01*
X96235000Y-95968753D01*
X106005991Y-95968753D01*
X106053816Y-96356828D01*
X106176432Y-96728116D01*
X106314956Y-96987276D01*
X106615162Y-97125233D01*
X107820395Y-95920000D01*
X106615162Y-94714767D01*
X106314956Y-94852724D01*
X106139118Y-95201967D01*
X106034793Y-95578804D01*
X106005991Y-95968753D01*
X96235000Y-95968753D01*
X96235000Y-95779872D01*
X96149110Y-95348075D01*
X95980631Y-94941331D01*
X95736038Y-94575271D01*
X95424729Y-94263962D01*
X95058669Y-94019369D01*
X94651925Y-93850890D01*
X94220128Y-93765000D01*
X93779872Y-93765000D01*
X93348075Y-93850890D01*
X92941331Y-94019369D01*
X92575271Y-94263962D01*
X92263962Y-94575271D01*
X92019369Y-94941331D01*
X91850890Y-95348075D01*
X91765000Y-95779872D01*
X90710000Y-95779872D01*
X90710000Y-91013903D01*
X90736046Y-91038895D01*
X91006980Y-91211942D01*
X91306468Y-91328807D01*
X91623000Y-91385000D01*
X92623000Y-91385000D01*
X92623000Y-89877000D01*
X92877000Y-89877000D01*
X92877000Y-91385000D01*
X93877000Y-91385000D01*
X94193532Y-91328807D01*
X94493020Y-91211942D01*
X94763954Y-91038895D01*
X94995922Y-90816317D01*
X95180010Y-90552761D01*
X95309144Y-90258355D01*
X95340124Y-90130434D01*
X95220777Y-89877000D01*
X92877000Y-89877000D01*
X92623000Y-89877000D01*
X92603000Y-89877000D01*
X92603000Y-89623000D01*
X92623000Y-89623000D01*
X92623000Y-88115000D01*
X91623000Y-88115000D01*
X91306468Y-88171193D01*
X91006980Y-88288058D01*
X90736046Y-88461105D01*
X90710000Y-88486097D01*
X90710000Y-86251452D01*
X90914759Y-86114637D01*
X91114637Y-85914759D01*
X91271680Y-85679727D01*
X91379853Y-85418574D01*
X91435000Y-85141335D01*
X91435000Y-85127000D01*
X91615000Y-85127000D01*
X91615000Y-86627000D01*
X91671193Y-86943532D01*
X91788058Y-87243020D01*
X91961105Y-87513954D01*
X92183683Y-87745922D01*
X92447239Y-87930010D01*
X92741645Y-88059144D01*
X92869566Y-88090124D01*
X93122998Y-87970778D01*
X93122998Y-88115000D01*
X92877000Y-88115000D01*
X92877000Y-89623000D01*
X95220777Y-89623000D01*
X95340124Y-89369566D01*
X95309144Y-89241645D01*
X95180010Y-88947239D01*
X94995922Y-88683683D01*
X94763954Y-88461105D01*
X94493020Y-88288058D01*
X94193532Y-88171193D01*
X93877000Y-88115000D01*
X93377002Y-88115000D01*
X93377002Y-87970778D01*
X93630434Y-88090124D01*
X93758355Y-88059144D01*
X94052761Y-87930010D01*
X94316317Y-87745922D01*
X94538895Y-87513954D01*
X94711942Y-87243020D01*
X94828807Y-86943532D01*
X94885000Y-86627000D01*
X94885000Y-85127000D01*
X93377000Y-85127000D01*
X93377000Y-85147000D01*
X93123000Y-85147000D01*
X93123000Y-85127000D01*
X91615000Y-85127000D01*
X91435000Y-85127000D01*
X91435000Y-84858665D01*
X91379853Y-84581426D01*
X91271680Y-84320273D01*
X91114637Y-84085241D01*
X90914759Y-83885363D01*
X90710000Y-83748548D01*
X90710000Y-83373000D01*
X91615000Y-83373000D01*
X91615000Y-84873000D01*
X93123000Y-84873000D01*
X93123000Y-84853000D01*
X93377000Y-84853000D01*
X93377000Y-84873000D01*
X94885000Y-84873000D01*
X94885000Y-84789721D01*
X97115000Y-84789721D01*
X97115000Y-85210279D01*
X97197047Y-85622756D01*
X97357988Y-86011302D01*
X97591637Y-86360983D01*
X97889017Y-86658363D01*
X98238698Y-86892012D01*
X98627244Y-87052953D01*
X99039721Y-87135000D01*
X99460279Y-87135000D01*
X99872756Y-87052953D01*
X100261302Y-86892012D01*
X100610983Y-86658363D01*
X100908363Y-86360983D01*
X101142012Y-86011302D01*
X101302953Y-85622756D01*
X101385000Y-85210279D01*
X101385000Y-84789721D01*
X101302953Y-84377244D01*
X101142012Y-83988698D01*
X100908363Y-83639017D01*
X100654184Y-83384838D01*
X106794767Y-83384838D01*
X106932724Y-83685044D01*
X107281967Y-83860882D01*
X107658804Y-83965207D01*
X108048753Y-83994009D01*
X108436828Y-83946184D01*
X108808116Y-83823568D01*
X109067276Y-83685044D01*
X109205233Y-83384838D01*
X108000000Y-82179605D01*
X106794767Y-83384838D01*
X100654184Y-83384838D01*
X100610983Y-83341637D01*
X100261302Y-83107988D01*
X99872756Y-82947047D01*
X99460279Y-82865000D01*
X99039721Y-82865000D01*
X98627244Y-82947047D01*
X98238698Y-83107988D01*
X97889017Y-83341637D01*
X97591637Y-83639017D01*
X97357988Y-83988698D01*
X97197047Y-84377244D01*
X97115000Y-84789721D01*
X94885000Y-84789721D01*
X94885000Y-83373000D01*
X94828807Y-83056468D01*
X94711942Y-82756980D01*
X94538895Y-82486046D01*
X94316317Y-82254078D01*
X94052761Y-82069990D01*
X94004344Y-82048753D01*
X106005991Y-82048753D01*
X106053816Y-82436828D01*
X106176432Y-82808116D01*
X106314956Y-83067276D01*
X106615162Y-83205233D01*
X107820395Y-82000000D01*
X106615162Y-80794767D01*
X106314956Y-80932724D01*
X106139118Y-81281967D01*
X106034793Y-81658804D01*
X106005991Y-82048753D01*
X94004344Y-82048753D01*
X93758355Y-81940856D01*
X93630434Y-81909876D01*
X93377002Y-82029222D01*
X93377002Y-81885000D01*
X93877000Y-81885000D01*
X94193532Y-81828807D01*
X94493020Y-81711942D01*
X94763954Y-81538895D01*
X94995922Y-81316317D01*
X95180010Y-81052761D01*
X95309144Y-80758355D01*
X95340124Y-80630434D01*
X95220777Y-80377000D01*
X92877000Y-80377000D01*
X92877000Y-81885000D01*
X93122998Y-81885000D01*
X93122998Y-82029222D01*
X92869566Y-81909876D01*
X92741645Y-81940856D01*
X92447239Y-82069990D01*
X92183683Y-82254078D01*
X91961105Y-82486046D01*
X91788058Y-82756980D01*
X91671193Y-83056468D01*
X91615000Y-83373000D01*
X90710000Y-83373000D01*
X90710000Y-81513903D01*
X90736046Y-81538895D01*
X91006980Y-81711942D01*
X91306468Y-81828807D01*
X91623000Y-81885000D01*
X92623000Y-81885000D01*
X92623000Y-80377000D01*
X92603000Y-80377000D01*
X92603000Y-80123000D01*
X92623000Y-80123000D01*
X92623000Y-78615000D01*
X92877000Y-78615000D01*
X92877000Y-80123000D01*
X95220777Y-80123000D01*
X95340124Y-79869566D01*
X95309144Y-79741645D01*
X95180010Y-79447239D01*
X94995922Y-79183683D01*
X94763954Y-78961105D01*
X94493020Y-78788058D01*
X94193532Y-78671193D01*
X93877000Y-78615000D01*
X92877000Y-78615000D01*
X92623000Y-78615000D01*
X91623000Y-78615000D01*
X91306468Y-78671193D01*
X91006980Y-78788058D01*
X90736046Y-78961105D01*
X90710000Y-78986097D01*
X90710000Y-73779872D01*
X91765000Y-73779872D01*
X91765000Y-74220128D01*
X91850890Y-74651925D01*
X92019369Y-75058669D01*
X92263962Y-75424729D01*
X92575271Y-75736038D01*
X92941331Y-75980631D01*
X93348075Y-76149110D01*
X93779872Y-76235000D01*
X94220128Y-76235000D01*
X94651925Y-76149110D01*
X95058669Y-75980631D01*
X95424729Y-75736038D01*
X95736038Y-75424729D01*
X95980631Y-75058669D01*
X96149110Y-74651925D01*
X96235000Y-74220128D01*
X96235000Y-73779872D01*
X96149110Y-73348075D01*
X95980631Y-72941331D01*
X95736038Y-72575271D01*
X95424729Y-72263962D01*
X95058669Y-72019369D01*
X94651925Y-71850890D01*
X94220128Y-71765000D01*
X93779872Y-71765000D01*
X93348075Y-71850890D01*
X92941331Y-72019369D01*
X92575271Y-72263962D01*
X92263962Y-72575271D01*
X92019369Y-72941331D01*
X91850890Y-73348075D01*
X91765000Y-73779872D01*
X90710000Y-73779872D01*
X90710000Y-70710000D01*
X108024868Y-70710000D01*
X107236864Y-71498005D01*
G04 #@! TA.AperFunction,Conductor*
D38*
G36*
X107236864Y-71498005D02*
G01*
X107193551Y-71533551D01*
X107051716Y-71706377D01*
X106957233Y-71883144D01*
X106946324Y-71903554D01*
X106888848Y-72093027D01*
X106726747Y-72108992D01*
X106560150Y-72159529D01*
X106406614Y-72241595D01*
X106272039Y-72352039D01*
X106161595Y-72486614D01*
X106079529Y-72640150D01*
X106028992Y-72806747D01*
X106011928Y-72980001D01*
X106011928Y-75179999D01*
X106028992Y-75353253D01*
X106079529Y-75519850D01*
X106161595Y-75673386D01*
X106272039Y-75807961D01*
X106406614Y-75918405D01*
X106560150Y-76000471D01*
X106726747Y-76051008D01*
X106900001Y-76068072D01*
X107738777Y-76068072D01*
X107420997Y-76131282D01*
X107059750Y-76280915D01*
X106734636Y-76498149D01*
X106458149Y-76774636D01*
X106240915Y-77099750D01*
X106091282Y-77460997D01*
X106015000Y-77844495D01*
X106015000Y-78235505D01*
X106091282Y-78619003D01*
X106240915Y-78980250D01*
X106458149Y-79305364D01*
X106734636Y-79581851D01*
X107059750Y-79799085D01*
X107420997Y-79948718D01*
X107801627Y-80024430D01*
X107563172Y-80053816D01*
X107191884Y-80176432D01*
X106932724Y-80314956D01*
X106794767Y-80615162D01*
X108000000Y-81820395D01*
X109205233Y-80615162D01*
X109067276Y-80314956D01*
X108718033Y-80139118D01*
X108341196Y-80034793D01*
X108199053Y-80024294D01*
X108579003Y-79948718D01*
X108940250Y-79799085D01*
X109265364Y-79581851D01*
X109541851Y-79305364D01*
X109759085Y-78980250D01*
X109775001Y-78941825D01*
X109775001Y-81101021D01*
X109685044Y-80932724D01*
X109384838Y-80794767D01*
X108179605Y-82000000D01*
X109384838Y-83205233D01*
X109685044Y-83067276D01*
X109775001Y-82888607D01*
X109775001Y-86329356D01*
X109727961Y-86272039D01*
X109593386Y-86161595D01*
X109439850Y-86079529D01*
X109273253Y-86028992D01*
X109099999Y-86011928D01*
X106900001Y-86011928D01*
X106726747Y-86028992D01*
X106560150Y-86079529D01*
X106406614Y-86161595D01*
X106272039Y-86272039D01*
X106161595Y-86406614D01*
X106079529Y-86560150D01*
X106028992Y-86726747D01*
X106011928Y-86900001D01*
X106011928Y-89099999D01*
X106028992Y-89273253D01*
X106079529Y-89439850D01*
X106161595Y-89593386D01*
X106272039Y-89727961D01*
X106406614Y-89838405D01*
X106560150Y-89920471D01*
X106726747Y-89971008D01*
X106900001Y-89988072D01*
X107738777Y-89988072D01*
X107420997Y-90051282D01*
X107059750Y-90200915D01*
X106734636Y-90418149D01*
X106458149Y-90694636D01*
X106240915Y-91019750D01*
X106091282Y-91380997D01*
X106015000Y-91764495D01*
X106015000Y-92155505D01*
X106091282Y-92539003D01*
X106240915Y-92900250D01*
X106458149Y-93225364D01*
X106734636Y-93501851D01*
X107059750Y-93719085D01*
X107420997Y-93868718D01*
X107801627Y-93944430D01*
X107563172Y-93973816D01*
X107191884Y-94096432D01*
X106932724Y-94234956D01*
X106794767Y-94535162D01*
X108000000Y-95740395D01*
X108014143Y-95726253D01*
X108193748Y-95905858D01*
X108179605Y-95920000D01*
X108193748Y-95934143D01*
X108014143Y-96113748D01*
X108000000Y-96099605D01*
X106794767Y-97304838D01*
X106932724Y-97605044D01*
X107281967Y-97780882D01*
X107658804Y-97885207D01*
X108048753Y-97914009D01*
X108436828Y-97866184D01*
X108808116Y-97743568D01*
X109067276Y-97605044D01*
X109205232Y-97304840D01*
X109222500Y-97322108D01*
X109222500Y-97837390D01*
X109219042Y-97872500D01*
X109222500Y-97907610D01*
X109222500Y-97907619D01*
X109232846Y-98012663D01*
X109273730Y-98147441D01*
X109340123Y-98271653D01*
X109429473Y-98380526D01*
X109456755Y-98402916D01*
X110343838Y-99290000D01*
X90710000Y-99290000D01*
X90710000Y-95779872D01*
X91765000Y-95779872D01*
X91765000Y-96220128D01*
X91850890Y-96651925D01*
X92019369Y-97058669D01*
X92263962Y-97424729D01*
X92575271Y-97736038D01*
X92941331Y-97980631D01*
X93348075Y-98149110D01*
X93779872Y-98235000D01*
X94220128Y-98235000D01*
X94651925Y-98149110D01*
X95058669Y-97980631D01*
X95424729Y-97736038D01*
X95736038Y-97424729D01*
X95980631Y-97058669D01*
X96149110Y-96651925D01*
X96235000Y-96220128D01*
X96235000Y-95968753D01*
X106005991Y-95968753D01*
X106053816Y-96356828D01*
X106176432Y-96728116D01*
X106314956Y-96987276D01*
X106615162Y-97125233D01*
X107820395Y-95920000D01*
X106615162Y-94714767D01*
X106314956Y-94852724D01*
X106139118Y-95201967D01*
X106034793Y-95578804D01*
X106005991Y-95968753D01*
X96235000Y-95968753D01*
X96235000Y-95779872D01*
X96149110Y-95348075D01*
X95980631Y-94941331D01*
X95736038Y-94575271D01*
X95424729Y-94263962D01*
X95058669Y-94019369D01*
X94651925Y-93850890D01*
X94220128Y-93765000D01*
X93779872Y-93765000D01*
X93348075Y-93850890D01*
X92941331Y-94019369D01*
X92575271Y-94263962D01*
X92263962Y-94575271D01*
X92019369Y-94941331D01*
X91850890Y-95348075D01*
X91765000Y-95779872D01*
X90710000Y-95779872D01*
X90710000Y-91013903D01*
X90736046Y-91038895D01*
X91006980Y-91211942D01*
X91306468Y-91328807D01*
X91623000Y-91385000D01*
X92623000Y-91385000D01*
X92623000Y-89877000D01*
X92877000Y-89877000D01*
X92877000Y-91385000D01*
X93877000Y-91385000D01*
X94193532Y-91328807D01*
X94493020Y-91211942D01*
X94763954Y-91038895D01*
X94995922Y-90816317D01*
X95180010Y-90552761D01*
X95309144Y-90258355D01*
X95340124Y-90130434D01*
X95220777Y-89877000D01*
X92877000Y-89877000D01*
X92623000Y-89877000D01*
X92603000Y-89877000D01*
X92603000Y-89623000D01*
X92623000Y-89623000D01*
X92623000Y-88115000D01*
X91623000Y-88115000D01*
X91306468Y-88171193D01*
X91006980Y-88288058D01*
X90736046Y-88461105D01*
X90710000Y-88486097D01*
X90710000Y-86251452D01*
X90914759Y-86114637D01*
X91114637Y-85914759D01*
X91271680Y-85679727D01*
X91379853Y-85418574D01*
X91435000Y-85141335D01*
X91435000Y-85127000D01*
X91615000Y-85127000D01*
X91615000Y-86627000D01*
X91671193Y-86943532D01*
X91788058Y-87243020D01*
X91961105Y-87513954D01*
X92183683Y-87745922D01*
X92447239Y-87930010D01*
X92741645Y-88059144D01*
X92869566Y-88090124D01*
X93122998Y-87970778D01*
X93122998Y-88115000D01*
X92877000Y-88115000D01*
X92877000Y-89623000D01*
X95220777Y-89623000D01*
X95340124Y-89369566D01*
X95309144Y-89241645D01*
X95180010Y-88947239D01*
X94995922Y-88683683D01*
X94763954Y-88461105D01*
X94493020Y-88288058D01*
X94193532Y-88171193D01*
X93877000Y-88115000D01*
X93377002Y-88115000D01*
X93377002Y-87970778D01*
X93630434Y-88090124D01*
X93758355Y-88059144D01*
X94052761Y-87930010D01*
X94316317Y-87745922D01*
X94538895Y-87513954D01*
X94711942Y-87243020D01*
X94828807Y-86943532D01*
X94885000Y-86627000D01*
X94885000Y-85127000D01*
X93377000Y-85127000D01*
X93377000Y-85147000D01*
X93123000Y-85147000D01*
X93123000Y-85127000D01*
X91615000Y-85127000D01*
X91435000Y-85127000D01*
X91435000Y-84858665D01*
X91379853Y-84581426D01*
X91271680Y-84320273D01*
X91114637Y-84085241D01*
X90914759Y-83885363D01*
X90710000Y-83748548D01*
X90710000Y-83373000D01*
X91615000Y-83373000D01*
X91615000Y-84873000D01*
X93123000Y-84873000D01*
X93123000Y-84853000D01*
X93377000Y-84853000D01*
X93377000Y-84873000D01*
X94885000Y-84873000D01*
X94885000Y-84789721D01*
X97115000Y-84789721D01*
X97115000Y-85210279D01*
X97197047Y-85622756D01*
X97357988Y-86011302D01*
X97591637Y-86360983D01*
X97889017Y-86658363D01*
X98238698Y-86892012D01*
X98627244Y-87052953D01*
X99039721Y-87135000D01*
X99460279Y-87135000D01*
X99872756Y-87052953D01*
X100261302Y-86892012D01*
X100610983Y-86658363D01*
X100908363Y-86360983D01*
X101142012Y-86011302D01*
X101302953Y-85622756D01*
X101385000Y-85210279D01*
X101385000Y-84789721D01*
X101302953Y-84377244D01*
X101142012Y-83988698D01*
X100908363Y-83639017D01*
X100654184Y-83384838D01*
X106794767Y-83384838D01*
X106932724Y-83685044D01*
X107281967Y-83860882D01*
X107658804Y-83965207D01*
X108048753Y-83994009D01*
X108436828Y-83946184D01*
X108808116Y-83823568D01*
X109067276Y-83685044D01*
X109205233Y-83384838D01*
X108000000Y-82179605D01*
X106794767Y-83384838D01*
X100654184Y-83384838D01*
X100610983Y-83341637D01*
X100261302Y-83107988D01*
X99872756Y-82947047D01*
X99460279Y-82865000D01*
X99039721Y-82865000D01*
X98627244Y-82947047D01*
X98238698Y-83107988D01*
X97889017Y-83341637D01*
X97591637Y-83639017D01*
X97357988Y-83988698D01*
X97197047Y-84377244D01*
X97115000Y-84789721D01*
X94885000Y-84789721D01*
X94885000Y-83373000D01*
X94828807Y-83056468D01*
X94711942Y-82756980D01*
X94538895Y-82486046D01*
X94316317Y-82254078D01*
X94052761Y-82069990D01*
X94004344Y-82048753D01*
X106005991Y-82048753D01*
X106053816Y-82436828D01*
X106176432Y-82808116D01*
X106314956Y-83067276D01*
X106615162Y-83205233D01*
X107820395Y-82000000D01*
X106615162Y-80794767D01*
X106314956Y-80932724D01*
X106139118Y-81281967D01*
X106034793Y-81658804D01*
X106005991Y-82048753D01*
X94004344Y-82048753D01*
X93758355Y-81940856D01*
X93630434Y-81909876D01*
X93377002Y-82029222D01*
X93377002Y-81885000D01*
X93877000Y-81885000D01*
X94193532Y-81828807D01*
X94493020Y-81711942D01*
X94763954Y-81538895D01*
X94995922Y-81316317D01*
X95180010Y-81052761D01*
X95309144Y-80758355D01*
X95340124Y-80630434D01*
X95220777Y-80377000D01*
X92877000Y-80377000D01*
X92877000Y-81885000D01*
X93122998Y-81885000D01*
X93122998Y-82029222D01*
X92869566Y-81909876D01*
X92741645Y-81940856D01*
X92447239Y-82069990D01*
X92183683Y-82254078D01*
X91961105Y-82486046D01*
X91788058Y-82756980D01*
X91671193Y-83056468D01*
X91615000Y-83373000D01*
X90710000Y-83373000D01*
X90710000Y-81513903D01*
X90736046Y-81538895D01*
X91006980Y-81711942D01*
X91306468Y-81828807D01*
X91623000Y-81885000D01*
X92623000Y-81885000D01*
X92623000Y-80377000D01*
X92603000Y-80377000D01*
X92603000Y-80123000D01*
X92623000Y-80123000D01*
X92623000Y-78615000D01*
X92877000Y-78615000D01*
X92877000Y-80123000D01*
X95220777Y-80123000D01*
X95340124Y-79869566D01*
X95309144Y-79741645D01*
X95180010Y-79447239D01*
X94995922Y-79183683D01*
X94763954Y-78961105D01*
X94493020Y-78788058D01*
X94193532Y-78671193D01*
X93877000Y-78615000D01*
X92877000Y-78615000D01*
X92623000Y-78615000D01*
X91623000Y-78615000D01*
X91306468Y-78671193D01*
X91006980Y-78788058D01*
X90736046Y-78961105D01*
X90710000Y-78986097D01*
X90710000Y-73779872D01*
X91765000Y-73779872D01*
X91765000Y-74220128D01*
X91850890Y-74651925D01*
X92019369Y-75058669D01*
X92263962Y-75424729D01*
X92575271Y-75736038D01*
X92941331Y-75980631D01*
X93348075Y-76149110D01*
X93779872Y-76235000D01*
X94220128Y-76235000D01*
X94651925Y-76149110D01*
X95058669Y-75980631D01*
X95424729Y-75736038D01*
X95736038Y-75424729D01*
X95980631Y-75058669D01*
X96149110Y-74651925D01*
X96235000Y-74220128D01*
X96235000Y-73779872D01*
X96149110Y-73348075D01*
X95980631Y-72941331D01*
X95736038Y-72575271D01*
X95424729Y-72263962D01*
X95058669Y-72019369D01*
X94651925Y-71850890D01*
X94220128Y-71765000D01*
X93779872Y-71765000D01*
X93348075Y-71850890D01*
X92941331Y-72019369D01*
X92575271Y-72263962D01*
X92263962Y-72575271D01*
X92019369Y-72941331D01*
X91850890Y-73348075D01*
X91765000Y-73779872D01*
X90710000Y-73779872D01*
X90710000Y-70710000D01*
X108024868Y-70710000D01*
X107236864Y-71498005D01*
G37*
G04 #@! TD.AperFunction*
M02*
